<svg width="20" height="20" viewBox="0 0 20 20" fill="none" xmlns="http://www.w3.org/2000/svg">
<path d="M10.0062 18.6667C8.79377 18.6667 7.65976 18.441 6.60421 17.9896C5.54865 17.5382 4.62851 16.9201 3.84379 16.1354C3.05907 15.3507 2.44449 14.4274 2.00004 13.3656C1.5556 12.3039 1.33337 11.1648 1.33337 9.94857C1.33337 8.74675 1.5556 7.61806 2.00004 6.5625C2.44449 5.50695 3.05907 4.59375 3.84379 3.82292C4.62851 3.05209 5.5483 2.44445 6.60315 2C7.65798 1.55556 8.79353 1.33334 10.0098 1.33334C11.2116 1.33334 12.3403 1.55556 13.3959 2C14.4514 2.44445 15.3716 3.05209 16.1563 3.82292C16.941 4.59375 17.5556 5.50791 18 6.56538C18.4445 7.62285 18.6667 8.75384 18.6667 9.95834C18.6667 11.1723 18.4445 12.3091 18 13.3688C17.5556 14.4285 16.941 15.3507 16.1563 16.1354C15.3716 16.9201 14.4499 17.5382 13.3912 17.9896C12.3325 18.441 11.2042 18.6667 10.0062 18.6667ZM10 17.1667C10.4862 16.6806 10.8855 16.1146 11.198 15.4688C11.5105 14.8229 11.7709 14.0625 11.9792 13.1875H8.04171C8.23615 14.0069 8.49375 14.7511 8.8145 15.42C9.13525 16.0888 9.53043 16.6711 10 17.1667ZM8.12504 16.8958C7.79171 16.3958 7.50438 15.845 7.26306 15.2432C7.02174 14.6415 6.81601 13.9562 6.64587 13.1875H3.56254C4.06254 14.1431 4.65976 14.8994 5.35421 15.4563C6.04865 16.0132 6.97226 16.4931 8.12504 16.8958ZM11.8959 16.875C12.8681 16.5694 13.75 16.0972 14.5417 15.4583C15.3334 14.8194 15.9723 14.0625 16.4584 13.1875H13.3988C13.2163 13.9375 13.0035 14.6146 12.7605 15.2188C12.5174 15.8229 12.2292 16.375 11.8959 16.875ZM3.10494 11.8333H6.39587C6.35421 11.4722 6.3299 11.1424 6.32296 10.8438C6.31601 10.5451 6.31254 10.25 6.31254 9.95834C6.31254 9.61111 6.31949 9.30209 6.33337 9.03125C6.34726 8.76042 6.37504 8.46528 6.41671 8.14584H3.10494C3.00723 8.46528 2.94101 8.75695 2.90629 9.02084C2.87157 9.28473 2.85421 9.59723 2.85421 9.95834C2.85421 10.3194 2.87157 10.6424 2.90629 10.9271C2.94101 11.2118 3.00723 11.5139 3.10494 11.8333ZM7.79235 11.8333H12.2292C12.2848 11.4167 12.3195 11.0729 12.3334 10.8021C12.3473 10.5313 12.3542 10.25 12.3542 9.95834C12.3542 9.68056 12.3473 9.4132 12.3334 9.15625C12.3195 8.89931 12.2845 8.5625 12.2286 8.14584H7.79171C7.73615 8.5625 7.70143 8.89931 7.68754 9.15625C7.67365 9.4132 7.66671 9.68056 7.66671 9.95834C7.66671 10.25 7.67365 10.5313 7.68754 10.8021C7.70143 11.0729 7.73637 11.4167 7.79235 11.8333ZM13.6042 11.8333H16.9167C17 11.5139 17.0591 11.2118 17.0938 10.9271C17.1285 10.6424 17.1459 10.3194 17.1459 9.95834C17.1459 9.59723 17.1285 9.28473 17.0938 9.02084C17.0591 8.75695 17 8.46528 16.9167 8.14584H13.625C13.6528 8.63195 13.6737 9.00122 13.6875 9.25365C13.7014 9.50608 13.7084 9.74098 13.7084 9.95834C13.7084 10.2639 13.698 10.5521 13.6771 10.8229C13.6563 11.0938 13.632 11.4306 13.6042 11.8333ZM13.378 6.79167H16.4584C16 5.86111 15.375 5.07639 14.5834 4.4375C13.7917 3.79861 12.8889 3.34722 11.875 3.08334C12.2084 3.58334 12.4966 4.12847 12.7396 4.71875C12.9827 5.30903 13.1955 6 13.378 6.79167ZM8.04171 6.79167H12C11.8473 6.08721 11.5973 5.38679 11.25 4.6904C10.9028 3.99402 10.4862 3.36806 10 2.8125C9.56949 3.21528 9.2049 3.72222 8.90629 4.33334C8.60768 4.94445 8.31949 5.76389 8.04171 6.79167ZM3.56254 6.79167H6.66287C6.81821 6.04167 7.01046 5.375 7.23962 4.79167C7.46879 4.20834 7.75699 3.64584 8.10421 3.10417C7.09032 3.36806 6.19449 3.80903 5.41671 4.42709C4.63893 5.04514 4.02087 5.83334 3.56254 6.79167Z" fill="#333333"/>
</svg>
