<svg width="37" height="37" viewBox="0 0 37 37" fill="none" xmlns="http://www.w3.org/2000/svg">
<path d="M24.6668 24.6667L18.5002 18.5L12.3335 24.6667" stroke="#23A455" stroke-width="2" stroke-linecap="round" stroke-linejoin="round"/>
<path d="M18.5 18.5V32.375" stroke="#23A455" stroke-width="2" stroke-linecap="round" stroke-linejoin="round"/>
<path d="M31.4343 28.3514C32.938 27.5316 34.1258 26.2345 34.8104 24.6647C35.495 23.0948 35.6373 21.3418 35.2148 19.6821C34.7924 18.0224 33.8293 16.5507 32.4775 15.4992C31.1258 14.4477 29.4623 13.8762 27.7498 13.8751H25.8073C25.3406 12.0702 24.4709 10.3945 23.2634 8.97415C22.056 7.55375 20.5422 6.42555 18.836 5.67439C17.1298 4.92322 15.2754 4.56863 13.4124 4.63727C11.5494 4.70591 9.72623 5.196 8.0799 6.07069C6.43357 6.94537 5.00695 8.1819 3.9073 9.68731C2.80764 11.1927 2.06357 12.9278 1.73102 14.7622C1.39846 16.5965 1.48608 18.4824 1.98729 20.2781C2.4885 22.0737 3.39025 23.7323 4.62476 25.1293" stroke="#23A455" stroke-width="2" stroke-linecap="round" stroke-linejoin="round"/>
<path d="M24.6668 24.6667L18.5002 18.5L12.3335 24.6667" stroke="#23A455" stroke-width="2" stroke-linecap="round" stroke-linejoin="round"/>
</svg>
