<svg width="7" height="12" viewBox="0 0 7 12" fill="none" xmlns="http://www.w3.org/2000/svg">
<path d="M0.632577 6.2757C0.480651 6.12377 0.480651 5.87746 0.632577 5.72553C0.784503 5.57361 1.03082 5.57361 1.18274 5.72553L3.11162 7.65441V1.3342C3.11162 1.11953 3.28584 0.945312 3.50051 0.945312C3.71517 0.945312 3.8894 1.11953 3.8894 1.3342V7.65441L5.81827 5.72553C5.97019 5.57361 6.21651 5.57361 6.36844 5.72553C6.52036 5.87746 6.52036 6.12377 6.36844 6.2757L3.77584 8.86829C3.74006 8.90407 3.69707 8.93252 3.64988 8.95222C3.6027 8.97192 3.55183 8.98235 3.50101 8.98235C3.4502 8.98235 3.39997 8.97192 3.35227 8.95222C3.30456 8.93252 3.26196 8.90407 3.22618 8.86829L0.632577 6.2757ZM6.61111 10.2786H0.388889C0.174222 10.2786 0 10.4529 0 10.6675C0 10.8822 0.174222 11.0564 0.388889 11.0564H6.61111C6.82578 11.0564 7 10.8822 7 10.6675C7 10.4529 6.82578 10.2786 6.61111 10.2786Z" fill="#25314C"/>
</svg>
