<svg width="15" height="14" viewBox="0 0 15 14" fill="none" xmlns="http://www.w3.org/2000/svg">
<path d="M13.6587 2.51212C12.6587 0.762678 10.8387 -0.0115096 8.69205 0.00069594C5.36069 -0.0389415 2.1022 1.61555 0.756755 4.71872C-1.08675 8.8788 0.855201 14.2055 6.09259 13.9939C7.43912 13.9951 8.76211 13.6409 9.92782 12.9669C10.3449 12.7528 10.5 12.5015 10.3931 12.2131C10.374 12.1438 10.3387 12.08 10.2902 12.027C10.2416 11.974 10.1812 11.9332 10.1138 11.9081C10.0465 11.883 9.9741 11.8743 9.90269 11.8826C9.83129 11.8909 9.76287 11.916 9.70307 11.9559C7.55677 13.2383 4.06475 13.4156 2.34529 11.3866C0.339559 8.91521 1.13532 4.90402 3.38841 2.9295C5.73419 0.860736 10.6592 0.0273843 12.6236 2.97757C13.6867 4.78364 13.1346 7.6326 11.6448 9.05151C10.9803 9.67789 9.7943 9.56489 10.024 8.40959L10.698 4.10898C10.7792 3.54901 10.5942 3.28856 9.99185 3.29033C9.81812 3.26977 9.64311 3.31657 9.50284 3.42111C9.36257 3.52565 9.2677 3.67998 9.23774 3.85234L9.14092 4.49319C8.68859 3.09691 6.91783 2.89696 5.81174 3.64347C5.11912 4.1149 4.54696 4.74248 4.14138 5.47561C3.73581 6.20874 3.50817 7.02691 3.47682 7.86416C3.42528 10.7633 7.05072 11.4319 8.40649 9.0587C8.55125 10.7254 10.7804 10.8062 11.8775 10.0303C14.1738 8.50371 14.9748 4.90924 13.6587 2.51212ZM8.676 6.85321C8.58524 7.30726 8.3997 7.73706 8.1315 8.11453C7.86331 8.49199 7.51849 8.80862 7.11958 9.04373C6.13005 9.62199 4.92492 9.10123 5.00118 7.83202C5.02897 6.46218 5.78704 4.48804 7.39224 4.44595C8.73503 4.42014 9.07974 5.62494 8.676 6.85321Z" fill="#797979"/>
</svg>
