<svg width="16" height="14" viewBox="0 0 16 14" fill="none" xmlns="http://www.w3.org/2000/svg">
<path d="M2.10766 12.6241C3.02503 13.5415 4.22965 14.0001 5.43466 14C6.63946 13.9999 7.84456 13.5413 8.76176 12.6241L14.5349 6.85101C15.8452 5.54059 15.8451 3.40848 14.5348 2.09811C13.9001 1.46331 13.0561 1.11374 12.1584 1.11374C11.2607 1.11374 10.4167 1.46331 9.78193 2.09811L4.48404 7.39591C3.69783 8.18212 3.69783 9.46139 4.48404 10.2477C5.27034 11.0339 6.54966 11.0339 7.33587 10.2476L10.8244 6.75905C11.0869 6.49655 11.0869 6.07098 10.8244 5.80847C10.562 5.54597 10.1363 5.54597 9.87384 5.80847L6.38529 9.29702C6.12323 9.55917 5.69677 9.55912 5.43462 9.29707C5.17256 9.03497 5.17256 8.6085 5.43462 8.34644L10.7325 3.04869C11.1134 2.66784 11.6198 2.45808 12.1584 2.45808C12.697 2.45808 13.2034 2.66784 13.5842 3.04869C14.3704 3.83495 14.3705 5.11421 13.5843 5.90047L7.81118 11.6735C6.50072 12.9839 4.36856 12.9838 3.05824 11.6735C2.42344 11.0387 2.07383 10.1948 2.07383 9.29707C2.07383 8.39937 2.42344 7.55535 3.05824 6.92055L8.83126 1.14744C9.09372 0.884937 9.09372 0.45932 8.83126 0.196861C8.5688 -0.0655979 8.14319 -0.0656427 7.88068 0.196861L2.10766 5.96997C1.21896 6.85867 0.729492 8.04025 0.729492 9.29707C0.729492 10.5539 1.21896 11.7355 2.10766 12.6241Z" fill="#797979"/>
</svg>
