<svg width="18" height="22" viewBox="0 0 18 22" fill="none" xmlns="http://www.w3.org/2000/svg">
<path d="M11.2884 19.7347C10.8057 20.5614 9.95049 21.0557 9 21.0557C8.04952 21.0557 7.19323 20.5614 6.71163 19.7347C6.61637 19.5707 6.61636 19.3685 6.71057 19.2044C6.80477 19.0404 6.97942 18.9388 7.16994 18.9388H10.8322C11.0216 18.9388 11.1963 19.0404 11.2915 19.2044C11.3868 19.3685 11.3836 19.5717 11.2884 19.7347ZM17.8857 17.023C17.8645 16.9912 15.8746 14.4721 15.8746 11.5296V7.82504C15.8746 7.68109 15.8693 7.54032 15.8609 7.39955C15.8513 7.25137 15.7518 7.17304 15.7095 7.1434C15.6714 7.11694 15.5709 7.06718 15.4407 7.11058C15.0871 7.22913 14.7082 7.29263 14.3134 7.29475C12.513 7.30745 10.8925 5.95159 10.6258 4.17127C10.4914 3.26947 10.6745 2.41636 11.1021 1.70931C11.2122 1.52726 11.1434 1.28488 10.9401 1.2256C9.84358 0.902775 8.62319 0.840319 7.37951 1.13563C4.24438 1.88078 2.12536 4.82857 2.12536 8.05155V11.5296C2.12536 14.4721 0.13548 16.9912 0.114311 17.023C-0.0127031 17.1817 -0.0338695 17.3934 0.0508065 17.5839C0.146067 17.7639 0.326 17.8803 0.527106 17.8803H17.4623C17.674 17.8803 17.8539 17.7639 17.9492 17.5839C18.0339 17.3934 18.0127 17.1817 17.8857 17.023ZM14.287 1.47434C13.1174 1.47434 12.1701 2.42165 12.1701 3.59124C12.1701 4.76083 13.1174 5.70814 14.287 5.70814C15.4565 5.70814 16.4039 4.76083 16.4039 3.59124C16.4039 2.42165 15.4565 1.47434 14.287 1.47434Z" fill="#25314C"/>
</svg>
