<svg width="10" height="14" viewBox="0 0 10 14" fill="none" xmlns="http://www.w3.org/2000/svg">
<path d="M4.77275 7.63672H0.636366C0.254547 7.63672 0 7.38216 0 7.00032V0.636393C0 0.254557 0.254547 0 0.636366 0H4.77275C6.87276 0 8.59095 1.71826 8.59095 3.81836C8.59095 5.91846 6.80912 7.63672 4.77275 7.63672ZM1.27273 6.36393H4.77275C6.17275 6.36393 7.31821 5.21842 7.31821 3.81836C7.31821 2.41829 6.17275 1.27279 4.77275 1.27279H1.27273V6.36393Z" fill="#797979"/>
<path d="M6.04548 14H0.636366C0.254547 14 0 13.7454 0 13.3636V6.99967C0 6.61784 0.254547 6.36328 0.636366 6.36328H6.04548C8.14549 6.36328 9.86368 8.08154 9.86368 10.1816C9.86368 12.2817 8.14549 14 6.04548 14ZM1.27273 12.7272H6.04548C7.44549 12.7272 8.59095 11.5817 8.59095 10.1816C8.59095 8.78157 7.44549 7.63607 6.04548 7.63607H1.27273V12.7272Z" fill="#797979"/>
</svg>
