<svg width="22" height="16" viewBox="0 0 22 16" fill="none" xmlns="http://www.w3.org/2000/svg">
<path fill-rule="evenodd" clip-rule="evenodd" d="M10.9776 15.7734C17.0339 15.7734 21.9547 15.8491 21.9547 15.9248C21.9547 16.0006 17.0339 16.0005 10.9776 16.0005C4.92124 16.0005 0.0761719 16.0006 0.0761719 15.9248C0.0761719 15.8491 4.92124 15.7734 10.9776 15.7734Z" fill="#1E1E1E"/>
<path fill-rule="evenodd" clip-rule="evenodd" d="M1.21127 8.95773H2.34683C3.55247 8.15301 4.84829 7.4924 6.20775 6.98942L6.51057 6.83801C7.64487 6.76233 8.78296 6.76233 9.91726 6.83801C10.9362 6.78133 11.9578 6.88349 12.9454 7.14082C14.2681 7.73545 15.4932 8.52667 16.5792 9.48766C17.7825 9.61318 18.9728 9.84112 20.1373 10.169C21.4243 10.6232 21.1972 11.0774 21.5757 12.3644L21.8028 12.5915C21.9542 12.8186 21.8028 14.4084 21.5757 14.4841H2.04402C1.44435 14.4364 0.868813 14.2271 0.378521 13.8785C0.227113 13.7271 0.0757045 13.6514 0.0757045 13.4243C0.0757045 13.1972 0 12.3644 0 11.8345C0 11.3046 0.0757048 11.7588 0.151409 11.6831C0.227113 11.6074 0.757043 10.0176 0.984156 9.18484L1.21127 8.95773Z" fill="#F77F00"/>
<path fill-rule="evenodd" clip-rule="evenodd" d="M6.28371 6.8355H9.91752C10.9365 6.77882 11.9581 6.88098 12.9457 7.13832L13.7027 7.44114H13.627L13.0971 7.21402H12.5672C10.7351 6.97478 8.88323 6.92404 7.04076 7.06262H6.73794L6.28371 6.91121V6.8355ZM20.8189 10.3936C21.3489 10.7721 21.2732 11.2263 21.5003 12.2105C21.0157 11.8293 20.5102 11.4755 19.9862 11.1506C19.5893 10.9043 19.1545 10.7253 18.6992 10.6207L15.2925 10.3179L0.833008 9.78797L1.06012 9.18234C7.7221 9.56086 14.8383 9.33374 20.7432 10.3936H20.8189Z" fill="#FF992E"/>
<path fill-rule="evenodd" clip-rule="evenodd" d="M21.8029 12.8186C21.8664 13.3033 21.8145 13.7961 21.6515 14.257C21.6515 14.2769 21.6476 14.2966 21.64 14.3149C21.6324 14.3333 21.6212 14.35 21.6072 14.364C21.5931 14.3781 21.5764 14.3893 21.558 14.3969C21.5397 14.4045 21.52 14.4084 21.5001 14.4084H2.04411C1.44444 14.3606 0.868902 14.1513 0.378611 13.8028C0.227202 13.6514 0.0757942 13.5756 0.0757942 13.3485V12.2887C0.0757942 11.9859 9.07779e-05 11.9102 0.302908 11.9102H6.20784C9.31171 12.213 13.0969 12.213 16.2008 12.2887C19.3047 12.3644 21.8029 12.5158 21.8029 12.6672V12.8186Z" fill="#FF992E"/>
<path d="M0.151876 11.6818H1.06033C1.21174 11.6818 1.21174 11.6818 1.21174 11.5304V10.1677C1.22819 9.93792 1.20253 9.70702 1.13603 9.48641C1.06033 9.335 0.984623 9.18359 0.908919 9.18359L0.0761719 11.6061L0.151876 11.6818Z" fill="#FEFEFE"/>
<path d="M0.151876 11.6071H1.06033C1.13603 11.6071 1.13603 11.5314 1.13603 11.4557V10.1687C1.14273 9.87495 1.06382 9.5856 0.908919 9.33594L0.0761719 11.6071H0.151876Z" fill="#100F0F"/>
<path d="M0.681724 10.1655L0.984541 10.3927C0.990593 10.5477 0.964828 10.7022 0.908837 10.8469H0.378906L0.681724 10.0898V10.1655Z" fill="#E6E6E6"/>
<path fill-rule="evenodd" clip-rule="evenodd" d="M21.4995 12.0612L20.5911 11.5313L20.364 11.0014C20.2883 10.7743 20.4397 10.7743 20.4397 10.85L21.2724 11.0771L21.4995 12.0612Z" fill="#E6E6E6"/>
<path fill-rule="evenodd" clip-rule="evenodd" d="M6.05619 6.91406C4.75229 7.43441 3.50855 8.09436 2.34668 8.88237C2.57591 8.93331 2.81556 8.90668 3.02802 8.80667C3.99672 8.20261 5.00888 7.67122 6.05619 7.21688L6.2833 7.06547L6.05619 6.91406Z" fill="#E9E9E9"/>
<path fill-rule="evenodd" clip-rule="evenodd" d="M4.77036 8.80712C5.45868 8.24211 6.19305 7.73565 6.96578 7.29304L7.49571 7.14163C9.314 7.0816 11.1343 7.13217 12.9464 7.29304C13.8564 7.78045 14.6758 8.42064 15.369 9.18564C15.6718 9.56416 15.1418 9.63987 14.9147 9.63987L4.84606 9.18564C4.69465 9.18564 4.46754 9.10994 4.77036 8.80712Z" fill="#C6D0D0"/>
<path fill-rule="evenodd" clip-rule="evenodd" d="M6.88918 9.18261C6.88918 8.95549 6.81348 8.50127 6.81348 8.27415L7.34341 7.97134L7.57052 9.18261H6.88918ZM10.523 7.51711C10.5987 8.12274 10.7501 8.65268 10.8258 9.25831L13.4755 9.40972V9.0312C13.5512 8.87979 13.5512 8.87979 13.7026 8.87979H13.9297C13.666 8.54022 13.3608 8.23503 13.0212 7.97134C12.4913 7.59282 11.1286 7.51711 10.523 7.44141V7.51711ZM9.91735 7.51711C9.09074 7.43349 8.25652 7.56384 7.49482 7.89563L7.72193 9.18261H10.1445L9.91735 7.44141V7.51711Z" fill="#E5F2F2"/>
<path fill-rule="evenodd" clip-rule="evenodd" d="M6.28351 14.4844H1.81696C1.75447 14.1859 1.72904 13.8808 1.74125 13.576C1.74125 11.9862 2.80111 10.6992 4.08809 10.6992C5.37506 10.6992 6.43492 11.9862 6.43492 13.576C6.42714 13.9092 6.37625 14.24 6.28351 14.5601V14.4844Z" fill="#693D0E"/>
<path fill-rule="evenodd" clip-rule="evenodd" d="M6.35944 14.48H1.74148C1.64796 14.212 1.59687 13.931 1.59008 13.6472C1.56923 12.957 1.81869 12.2859 2.28532 11.7768C2.75195 11.2678 3.39887 10.961 4.08832 10.9219C4.76424 10.9797 5.39225 11.2945 5.84295 11.8016C6.29365 12.3086 6.5327 12.9692 6.51085 13.6472C6.49755 13.9551 6.4467 14.2602 6.35944 14.5557V14.48Z" fill="#BA6000"/>
<path fill-rule="evenodd" clip-rule="evenodd" d="M5.9807 14.483H2.11979C2.05711 14.2101 2.03164 13.93 2.04408 13.6503C2.04408 12.2119 2.95253 11.0763 4.0881 11.152C5.22366 11.2277 6.13211 12.2876 6.13211 13.6503C6.1181 13.9332 6.0672 14.2132 5.9807 14.483Z" fill="#333333"/>
<path d="M2.27119 13.6525C2.22866 13.122 2.39469 12.5959 2.73397 12.1859C3.07326 11.7759 3.55905 11.5145 4.08809 11.457C5.07225 11.457 5.82929 12.4412 5.82929 13.6525C5.82929 14.8637 4.99654 15.8479 4.08809 15.8479C3.55905 15.7905 3.07326 15.529 2.73397 15.119C2.39469 14.709 2.22866 14.1829 2.27119 13.6525Z" fill="#424242"/>
<path d="M2.57388 13.6528C2.55307 13.434 2.57581 13.2131 2.64078 13.0031C2.70575 12.793 2.81167 12.5979 2.95243 12.429C3.09319 12.2601 3.266 12.1207 3.4609 12.0189C3.6558 11.9171 3.86892 11.8549 4.08797 11.8359C4.5167 11.8928 4.90651 12.1141 5.17496 12.4532C5.4434 12.7923 5.56942 13.2225 5.52635 13.6528C5.56942 14.0832 5.4434 14.5134 5.17496 14.8525C4.90651 15.1915 4.5167 15.4129 4.08797 15.4697C3.86892 15.4507 3.6558 15.3886 3.4609 15.2868C3.266 15.185 3.09319 15.0456 2.95243 14.8767C2.81167 14.7078 2.70575 14.5127 2.64078 14.3026C2.57581 14.0926 2.55307 13.8717 2.57388 13.6528Z" fill="#333333"/>
<path fill-rule="evenodd" clip-rule="evenodd" d="M4.0876 12.2148C4.46908 12.2148 4.83494 12.3664 5.10469 12.6361C5.37444 12.9059 5.52598 13.2717 5.52598 13.6532C5.52598 14.0347 5.37444 14.4006 5.10469 14.6703C4.83494 14.9401 4.46908 15.0916 4.0876 15.0916C3.91151 15.0825 3.73918 15.0373 3.58129 14.9588C3.42339 14.8803 3.28332 14.7702 3.16974 14.6353C3.05616 14.5005 2.97151 14.3437 2.92104 14.1748C2.87057 14.0058 2.85535 13.8283 2.87633 13.6532C2.85535 13.4782 2.87057 13.3006 2.92104 13.1317C2.97151 12.9628 3.05616 12.806 3.16974 12.6711C3.28332 12.5362 3.42339 12.4261 3.58129 12.3477C3.73918 12.2692 3.91151 12.224 4.0876 12.2148Z" fill="#B3B3B3"/>
<path d="M4.16406 12.5928H4.23977V12.4414H4.16406V12.5928Z" fill="#3B3B3B"/>
<path d="M3.86133 12.5141H4.23985C4.23985 12.5141 4.16415 12.4384 4.01274 12.5141H3.86133Z" fill="#1A1A1A"/>
<path d="M4.92141 13.5035H4.99711V13.2007V13.0493C4.99711 13.0493 4.99711 12.9736 4.92141 13.0493C4.92141 13.0592 4.91945 13.0691 4.91564 13.0782C4.91184 13.0874 4.90626 13.0958 4.89923 13.1028C4.8922 13.1098 4.88386 13.1154 4.87467 13.1192C4.86549 13.123 4.85564 13.125 4.8457 13.125C4.88951 13.1638 4.91663 13.218 4.92141 13.2764V13.4278V13.5035Z" fill="#3B3B3B"/>
<path d="M4.9209 13.1241V13.4269H5.07231C5.06244 13.3469 5.0367 13.2697 4.9966 13.1998C5.00008 13.1588 4.99516 13.1175 4.98215 13.0784C4.96913 13.0394 4.94829 13.0034 4.9209 12.9727V13.1241Z" fill="#1A1A1A"/>
<path d="M4.4668 14.5582C4.4668 14.5783 4.47477 14.5975 4.48897 14.6117C4.50317 14.6259 4.52242 14.6339 4.5425 14.6339V14.4825L4.76961 14.2554H4.84532C4.92102 14.2554 4.92102 14.1797 4.84532 14.1797H4.4668V14.5582Z" fill="#3B3B3B"/>
<path d="M4.77008 14.4062L4.54297 14.6334V14.7848H4.69438C4.77008 14.7091 4.84579 14.6334 4.84579 14.5577L4.77008 14.4062Z" fill="#1A1A1A"/>
<path d="M3.4834 14.4062L3.63481 14.6334C3.71051 14.7091 3.71051 14.6334 3.71051 14.6334V14.482C3.69043 14.482 3.67118 14.474 3.65698 14.4598C3.64278 14.4456 3.63481 14.4263 3.63481 14.4062H3.4834Z" fill="#3B3B3B"/>
<path d="M3.63387 14.7115L3.48246 14.4844H3.33105L3.48246 14.7115H3.63387Z" fill="#1A1A1A"/>
<path d="M3.33161 13.1953H3.1802V13.3467V13.6495H3.10449C3.10449 13.6696 3.11247 13.6889 3.12667 13.7031C3.14086 13.7173 3.16012 13.7252 3.1802 13.7252H3.2559C3.27598 13.7252 3.29524 13.7173 3.30943 13.7031C3.32363 13.6889 3.33161 13.6696 3.33161 13.6495C3.34464 13.5703 3.37019 13.4936 3.40731 13.4224L3.33161 13.1953Z" fill="#3B3B3B"/>
<path d="M3.10366 13.5011V13.0469C3.05767 13.1415 3.03188 13.2446 3.02796 13.3497C3.00057 13.3804 2.97973 13.4164 2.96671 13.4554C2.95369 13.4945 2.94878 13.5358 2.95226 13.5768L3.10366 13.5011Z" fill="#1A1A1A"/>
<path d="M4.31524 14.4062V14.7848C4.31524 14.7848 4.39095 14.8605 4.31524 14.8605C4.23954 14.8605 3.78531 14.9362 3.86102 14.7848V14.4062H4.31524Z" fill="#4D4D4D"/>
<path d="M3.55902 14.1784L3.33191 14.3298C3.33191 14.3298 3.2562 14.4055 3.1805 14.2541C3.10479 14.1027 2.95338 13.7998 3.1805 13.7998L3.40761 13.6484L3.55902 14.1784Z" fill="#4D4D4D"/>
<path d="M3.48199 13.1982L3.25488 12.9711V12.8197C3.33059 12.744 3.6334 12.4412 3.6334 12.5926L3.86052 12.8954L3.48199 13.1982Z" fill="#4D4D4D"/>
<path d="M4.24023 12.8169L4.39164 12.5141C4.39164 12.5141 4.46735 12.4384 4.46735 12.5141C4.46735 12.5898 4.92157 12.7412 4.77016 12.8926L4.61876 13.1197L4.24023 12.8169Z" fill="#4D4D4D"/>
<path d="M4.76957 13.5742H4.99669C5.01676 13.5742 5.03602 13.5822 5.05022 13.5964C5.06441 13.6106 5.07239 13.6298 5.07239 13.6499C5.07239 13.7256 4.99669 14.2556 4.92098 14.1041H4.61816L4.76957 13.5742Z" fill="#4D4D4D"/>
<path fill-rule="evenodd" clip-rule="evenodd" d="M4.0881 12.7422C4.32903 12.7422 4.5601 12.8379 4.73047 13.0083C4.90084 13.1786 4.99655 13.4097 4.99655 13.6506C4.99655 13.8916 4.90084 14.1226 4.73047 14.293C4.5601 14.4634 4.32903 14.5591 4.0881 14.5591C3.63387 14.5591 3.33105 14.1806 3.33105 13.6506C3.33105 13.1207 3.63387 12.7422 4.0881 12.7422Z" fill="#999999"/>
<path fill-rule="evenodd" clip-rule="evenodd" d="M4.08783 12.8185C4.25558 12.7876 4.42881 12.8088 4.58408 12.8795C4.73935 12.9502 4.86917 13.0668 4.95598 13.2137C5.04279 13.3605 5.08241 13.5305 5.06947 13.7006C5.05653 13.8707 4.99166 14.0327 4.88363 14.1648C4.7756 14.2968 4.62963 14.3925 4.46546 14.4388C4.30129 14.4852 4.12683 14.48 3.9657 14.424C3.80456 14.368 3.66451 14.2638 3.5645 14.1256C3.46448 13.9874 3.40933 13.8219 3.40649 13.6513C3.39603 13.5518 3.40541 13.4512 3.43407 13.3553C3.46273 13.2595 3.51011 13.1702 3.57347 13.0928C3.63683 13.0154 3.71491 12.9513 3.80319 12.9042C3.89148 12.8571 3.98822 12.828 4.08783 12.8185Z" fill="#CCCCCC"/>
<path fill-rule="evenodd" clip-rule="evenodd" d="M4.39164 13.9531C4.43545 13.992 4.46257 14.0462 4.46735 14.1045C4.46735 14.1246 4.45937 14.1439 4.44517 14.1581C4.43098 14.1723 4.41172 14.1802 4.39164 14.1802C4.31594 14.1802 4.24023 14.1802 4.24023 14.1045C4.24023 14.0644 4.25619 14.0259 4.28458 13.9975C4.31298 13.9691 4.35149 13.9531 4.39164 13.9531Z" fill="#999999"/>
<path fill-rule="evenodd" clip-rule="evenodd" d="M4.39016 14.0273C4.41024 14.0273 4.42949 14.0353 4.44369 14.0495C4.45789 14.0637 4.46586 14.083 4.46586 14.103C4.46586 14.1231 4.45789 14.1424 4.44369 14.1566C4.42949 14.1708 4.41024 14.1788 4.39016 14.1788C4.31445 14.1788 4.31445 14.1788 4.31445 14.103C4.31445 14.0273 4.31445 14.0273 4.39016 14.0273Z" fill="#D9D9D9"/>
<path fill-rule="evenodd" clip-rule="evenodd" d="M3.86137 14.0273C3.88145 14.0273 3.9007 14.0353 3.9149 14.0495C3.9291 14.0637 3.93707 14.083 3.93707 14.103C3.93229 14.1614 3.90517 14.2156 3.86137 14.2545C3.82121 14.2545 3.7827 14.2385 3.75431 14.2101C3.72591 14.1817 3.70996 14.1432 3.70996 14.103C3.70996 14.0273 3.78566 14.0273 3.86137 14.0273Z" fill="#999999"/>
<path fill-rule="evenodd" clip-rule="evenodd" d="M3.86137 14.0273C3.88145 14.0273 3.9007 14.0353 3.9149 14.0495C3.9291 14.0637 3.93707 14.083 3.93707 14.103C3.93707 14.1231 3.9291 14.1424 3.9149 14.1566C3.9007 14.1708 3.88145 14.1788 3.86137 14.1788C3.78566 14.1788 3.70996 14.1788 3.70996 14.103C3.70996 14.0273 3.78566 14.0273 3.86137 14.0273Z" fill="#D9D9D9"/>
<path fill-rule="evenodd" clip-rule="evenodd" d="M4.4668 13.3477C4.5425 13.3477 4.6182 13.3477 4.6182 13.4234C4.6182 13.4635 4.60225 13.502 4.57386 13.5304C4.54546 13.5588 4.50695 13.5748 4.4668 13.5748V13.4234C4.4668 13.4033 4.47477 13.384 4.48897 13.3698C4.50317 13.3556 4.52242 13.3477 4.5425 13.3477H4.4668Z" fill="#999999"/>
<path fill-rule="evenodd" clip-rule="evenodd" d="M4.46633 13.3477C4.54203 13.3477 4.54203 13.3477 4.54203 13.4234H4.39062C4.39063 13.4033 4.3986 13.384 4.4128 13.3698C4.427 13.3556 4.44625 13.3477 4.46633 13.3477Z" fill="#D9D9D9"/>
<path fill-rule="evenodd" clip-rule="evenodd" d="M3.6343 13.3477C3.71 13.3477 3.71 13.4234 3.71 13.4991C3.71 13.5748 3.71 13.6505 3.6343 13.6505C3.55859 13.6505 3.55859 13.5748 3.55859 13.4991C3.55859 13.4234 3.55859 13.3477 3.6343 13.3477Z" fill="#999999"/>
<path fill-rule="evenodd" clip-rule="evenodd" d="M3.6343 13.4258H3.71C3.71 13.4459 3.70203 13.4651 3.68783 13.4793C3.67363 13.4935 3.65438 13.5015 3.6343 13.5015C3.55859 13.5015 3.55859 13.5015 3.55859 13.4258H3.6343Z" fill="#D9D9D9"/>
<path fill-rule="evenodd" clip-rule="evenodd" d="M4.01172 12.9727H4.16313L4.01172 13.1241V12.9727Z" fill="#999999"/>
<path fill-rule="evenodd" clip-rule="evenodd" d="M4.01172 12.9727C4.0318 12.9727 4.05105 12.9806 4.06525 12.9948C4.07945 13.009 4.08742 13.0283 4.08742 13.0484C4.08742 13.1241 4.08742 13.1998 4.01172 13.1998V13.0484V12.9727Z" fill="#D9D9D9"/>
<path fill-rule="evenodd" clip-rule="evenodd" d="M4.08844 13.3477C4.16875 13.3477 4.24578 13.3796 4.30257 13.4363C4.35935 13.4931 4.39126 13.5702 4.39126 13.6505C4.39126 13.7308 4.35935 13.8078 4.30257 13.8646C4.24578 13.9214 4.16875 13.9533 4.08844 13.9533C3.93703 13.9533 3.86133 13.8019 3.86133 13.6505C3.86133 13.4991 3.93703 13.3477 4.08844 13.3477Z" fill="#999999"/>
<path fill-rule="evenodd" clip-rule="evenodd" d="M4.08793 13.4258C4.16364 13.4258 4.23934 13.5015 4.23934 13.6529C4.23934 13.8043 4.16364 13.88 4.08793 13.88C4.01223 13.88 3.93652 13.7286 3.93652 13.6529C3.93652 13.5772 3.93652 13.4258 4.08793 13.4258Z" fill="#CCCCCC"/>
<path d="M2.27148 13.4253C2.27148 13.3496 2.27148 13.2739 2.34719 13.2739H2.27148V13.4253ZM2.34719 13.1225V12.9711H2.4986C2.4986 12.9912 2.49062 13.0105 2.47642 13.0246C2.46223 13.0388 2.44297 13.0468 2.42289 13.0468L2.34719 13.1225ZM2.42289 12.8197H2.4986V12.6683L2.42289 12.8197ZM2.4986 12.5926H2.5743V12.4412L2.4986 12.5926ZM2.65001 12.3655C2.65001 12.3856 2.64203 12.4048 2.62783 12.419C2.61364 12.4332 2.59438 12.4412 2.5743 12.4412V12.2898L2.65001 12.3655ZM2.80141 12.1384C2.80141 12.0627 2.80142 12.0627 2.87712 12.0627H2.95282C2.95282 12.1384 2.95282 12.1384 2.87712 12.1384C2.87712 12.2141 2.87712 12.2141 2.80141 12.2141V12.1384ZM2.95282 11.9113H3.02853V12.0627H2.95282V11.9113ZM3.17994 11.7598C3.17994 11.7398 3.18791 11.7205 3.20211 11.7063C3.21631 11.6921 3.23556 11.6841 3.25564 11.6841V11.8356H3.17994V11.6841V11.7598ZM3.33135 11.6084H3.48275V11.7598H3.40705V11.6084H3.33135ZM3.55846 11.5327H3.70987V11.6841C3.63416 11.7598 3.63416 11.6841 3.63416 11.6841V11.5327H3.55846ZM3.78557 11.457H3.93698V11.6084H3.86127V11.457H3.78557ZM4.01268 11.457H4.16409V11.6084H4.08839V11.457H4.01268ZM4.3155 11.457H4.3912V11.6084H4.3155V11.457ZM4.54261 11.5327H4.61832V11.6841H4.54261V11.5327ZM4.76973 11.6084C4.76973 11.6841 4.76973 11.6841 4.69402 11.6084V11.457L4.76973 11.6084ZM5.14825 11.9113H5.07254C5.07254 11.8356 4.99684 11.8356 5.07254 11.8356L5.14825 11.9113ZM5.29965 12.0627C5.37536 12.1384 5.37536 12.1384 5.37536 12.2141H5.29965C5.29965 12.2898 5.22395 12.2141 5.22395 12.2141H5.29965V12.0627ZM5.45106 12.2898C5.52677 12.3655 5.52677 12.3655 5.52677 12.4412H5.45106V12.2898ZM5.60247 12.5169C5.60247 12.5926 5.60247 12.5926 5.67818 12.6683H5.60247V12.5169ZM5.67818 12.8197C5.68812 12.8197 5.69796 12.8217 5.70715 12.8255C5.71633 12.8293 5.72468 12.8349 5.73171 12.8419C5.73874 12.8489 5.74431 12.8573 5.74812 12.8664C5.75192 12.8756 5.75388 12.8855 5.75388 12.8954H5.67818V12.8197ZM5.75388 13.0468C5.75388 13.1225 5.82959 13.1225 5.82959 13.1982H5.75388V13.0468ZM5.82959 13.3496H5.75388C5.7338 13.3496 5.71455 13.3417 5.70035 13.3275C5.68615 13.3133 5.67818 13.294 5.67818 13.2739C5.67818 13.2539 5.68615 13.2346 5.70035 13.2204C5.71455 13.2062 5.7338 13.1982 5.75388 13.1982L5.82959 13.3496ZM5.82959 13.8796V14.031H5.75388C5.67818 14.031 5.67818 14.031 5.67818 13.9553H5.82959V13.8796ZM5.75388 14.4852C5.74394 14.4852 5.7341 14.4872 5.72491 14.491C5.71573 14.4948 5.70738 14.5003 5.70035 14.5074C5.69332 14.5144 5.68774 14.5227 5.68394 14.5319C5.68013 14.5411 5.67818 14.551 5.67818 14.5609H5.60247C5.60247 14.551 5.60443 14.5411 5.60824 14.5319C5.61204 14.5227 5.61762 14.5144 5.62465 14.5074C5.63168 14.5003 5.64002 14.4948 5.64921 14.491C5.65839 14.4872 5.66823 14.4852 5.67818 14.4852V14.6366L5.75388 14.4852ZM5.60247 14.7123H5.52677V14.8637L5.60247 14.7123ZM5.52677 14.9394H5.37536C5.37536 14.9295 5.37732 14.9196 5.38112 14.9105C5.38493 14.9013 5.3905 14.8929 5.39753 14.8859C5.40456 14.8789 5.41291 14.8733 5.42209 14.8695C5.43128 14.8657 5.44112 14.8637 5.45106 14.8637V15.0151L5.52677 14.9394ZM5.37536 15.1665C5.35528 15.1665 5.33603 15.1745 5.32183 15.1887C5.30763 15.2029 5.29965 15.2222 5.29965 15.2422V15.0908H5.37536V15.1665ZM5.14825 15.3937H5.07254V15.2422C5.07254 15.1665 5.14825 15.1665 5.14825 15.2422V15.3937ZM4.99684 15.5451C4.92113 15.5451 4.92113 15.5451 4.92113 15.6208V15.4694C4.92113 15.3937 4.92113 15.3937 4.99684 15.3937H5.07254V15.5451H4.99684ZM4.76973 15.6965H4.69402V15.5451H4.76973V15.7722V15.6965ZM4.54261 15.7722H4.46691V15.6208C4.46691 15.6007 4.47488 15.5814 4.48908 15.5672C4.50328 15.553 4.52253 15.5451 4.54261 15.5451V15.6965V15.7722ZM2.80141 15.2422C2.80141 15.1665 2.80141 15.1665 2.72571 15.0908H2.87712C2.87712 15.0151 2.87712 15.0151 2.95282 15.0908H2.80141V15.2422ZM2.65001 15.0151V14.8637H2.72571L2.65001 15.0151ZM2.5743 14.788C2.4986 14.7123 2.4986 14.7123 2.4986 14.6366H2.5743V14.788ZM2.42289 14.4852H2.4986C2.4986 14.4095 2.5743 14.4852 2.5743 14.4852H2.42289ZM2.34719 14.2581V14.1067H2.42289C2.43284 14.1067 2.44268 14.1086 2.45186 14.1124C2.46105 14.1162 2.4694 14.1218 2.47642 14.1289C2.48345 14.1359 2.48903 14.1442 2.49284 14.1534C2.49664 14.1626 2.4986 14.1724 2.4986 14.1824H2.34719V14.2581ZM3.33135 15.6208V15.4694H3.40705V15.6208H3.33135ZM3.10423 15.4694H3.25564C3.27572 15.4694 3.29497 15.4773 3.30917 15.4915C3.32337 15.5057 3.33135 15.525 3.33135 15.5451H3.10423V15.4694ZM3.78557 15.7722V15.6208C3.86127 15.6208 3.86127 15.6208 3.86127 15.6965V15.8479C3.8412 15.8479 3.82194 15.8399 3.80774 15.8257C3.79355 15.8115 3.78557 15.7923 3.78557 15.7722ZM4.2398 15.6965C4.2398 15.6208 4.2398 15.6208 4.3155 15.6208H4.3912V15.8479H4.3155V15.6965H4.2398ZM3.55846 15.6965H3.70987V15.8479L3.55846 15.6965ZM4.01268 15.6965H4.16409V15.8479H4.08839V15.6965H4.01268Z" fill="#555555"/>
<path d="M10.4479 7.14062H9.91797L10.1451 9.41175L10.9021 9.48746L10.4479 7.14062Z" fill="#333333"/>
<path fill-rule="evenodd" clip-rule="evenodd" d="M11.3555 10.625H11.8097V11.2306H11.3555V10.625Z" fill="#333333"/>
<path fill-rule="evenodd" clip-rule="evenodd" d="M12.2646 10.625H12.7189V11.2306H12.2646V10.625Z" fill="#333333"/>
<path fill-rule="evenodd" clip-rule="evenodd" d="M12.2638 11.7565H11.8096V11.2266H12.2638V11.7565Z" fill="#333333"/>
<path fill-rule="evenodd" clip-rule="evenodd" d="M13.173 11.7565H12.7188V11.2266H13.173V11.7565Z" fill="#333333"/>
<path fill-rule="evenodd" clip-rule="evenodd" d="M13.1729 10.625H13.7028V11.2306H13.1729V10.625Z" fill="#333333"/>
<path fill-rule="evenodd" clip-rule="evenodd" d="M14.1573 11.7565H13.7031V11.2266H14.1573V11.7565Z" fill="#333333"/>
<path fill-rule="evenodd" clip-rule="evenodd" d="M14.1572 10.625H14.6115V11.2306H14.1572V10.625Z" fill="#333333"/>
<path d="M6.88922 7.36719L6.66211 7.5186L6.88922 9.3355H7.04063L6.88922 7.36719Z" fill="#333333"/>
<path fill-rule="evenodd" clip-rule="evenodd" d="M20.9705 11.6804L20.592 11.4533C20.5619 11.3199 20.5108 11.1921 20.4406 11.0748C20.3649 10.8477 20.3649 10.8477 20.4406 10.8477H20.6677C20.8007 11.086 20.9025 11.3404 20.9705 11.6047V11.6804Z" fill="#222222"/>
<path fill-rule="evenodd" clip-rule="evenodd" d="M20.7444 14.4859H16.505C16.4293 14.4859 16.3536 14.4859 16.3536 14.4102C16.2663 14.1147 16.2155 13.8096 16.2021 13.5018C16.2021 11.912 17.262 10.625 18.549 10.625C19.836 10.625 20.8958 11.912 20.8958 13.5018C20.888 13.835 20.8371 14.1658 20.7444 14.4859Z" fill="#693D0E"/>
<path fill-rule="evenodd" clip-rule="evenodd" d="M20.8187 14.4818H16.2007C16.134 14.2096 16.1084 13.9289 16.125 13.6491C16.125 13.0066 16.3802 12.3904 16.8346 11.9361C17.2889 11.4818 17.9051 11.2266 18.5476 11.2266C19.1901 11.2266 19.8062 11.4818 20.2605 11.9361C20.7149 12.3904 20.9701 13.0066 20.9701 13.6491C20.9568 13.957 20.9059 14.262 20.8187 14.5576V14.4818Z" fill="#BA6000"/>
<path fill-rule="evenodd" clip-rule="evenodd" d="M20.4397 14.483H16.5788C16.5161 14.2101 16.4906 13.93 16.5031 13.6503C16.5031 12.2119 17.4115 11.0763 18.5471 11.152C19.6826 11.2277 20.5911 12.2876 20.5911 13.6503C20.5771 13.9332 20.5262 14.2132 20.4397 14.483Z" fill="#333333"/>
<path d="M16.7312 13.6525C16.6886 13.122 16.8546 12.5959 17.1939 12.1859C17.5332 11.7759 18.019 11.5145 18.5481 11.457C19.5322 11.457 20.2892 12.4412 20.2892 13.6525C20.2892 14.8637 19.5322 15.8479 18.5481 15.8479C18.019 15.7905 17.5332 15.529 17.1939 15.119C16.8546 14.709 16.6886 14.1829 16.7312 13.6525Z" fill="#424242"/>
<path d="M17.0329 13.6528C17.0121 13.434 17.0348 13.2131 17.0998 13.0031C17.1647 12.793 17.2707 12.5979 17.4114 12.429C17.5522 12.2601 17.725 12.1207 17.9199 12.0189C18.1148 11.9171 18.3279 11.8549 18.547 11.8359C18.7633 11.8543 18.9736 11.9167 19.1649 12.0195C19.3562 12.1222 19.5244 12.263 19.6591 12.4333C19.7939 12.6035 19.8924 12.7995 19.9485 13.0093C20.0046 13.219 20.0171 13.4381 19.9853 13.6528C20.0284 14.0832 19.9024 14.5134 19.6339 14.8525C19.3655 15.1915 18.9757 15.4129 18.547 15.4697C18.3279 15.4507 18.1148 15.3886 17.9199 15.2868C17.725 15.185 17.5522 15.0456 17.4114 14.8767C17.2707 14.7078 17.1647 14.5127 17.0998 14.3026C17.0348 14.0926 17.0121 13.8717 17.0329 13.6528Z" fill="#333333"/>
<path fill-rule="evenodd" clip-rule="evenodd" d="M18.5476 12.2148C18.7236 12.224 18.896 12.2692 19.0539 12.3477C19.2118 12.4261 19.3518 12.5362 19.4654 12.6711C19.579 12.806 19.6636 12.9628 19.7141 13.1317C19.7646 13.3006 19.7798 13.4782 19.7588 13.6532C19.7588 13.9745 19.6312 14.2826 19.4041 14.5097C19.1769 14.7369 18.8688 14.8645 18.5476 14.8645C18.2263 14.8645 17.9182 14.7369 17.6911 14.5097C17.4639 14.2826 17.3363 13.9745 17.3363 13.6532C17.3153 13.4782 17.3305 13.3006 17.381 13.1317C17.4315 12.9628 17.5161 12.806 17.6297 12.6711C17.7433 12.5362 17.8834 12.4261 18.0412 12.3477C18.1991 12.2692 18.3715 12.224 18.5476 12.2148Z" fill="#B3B3B3"/>
<path d="M18.6231 12.5928H18.6988V12.4414H18.3203C18.3203 12.5171 18.3203 12.5171 18.396 12.5171H18.6231V12.5928Z" fill="#3B3B3B"/>
<path d="M18.3203 12.5141H18.6988C18.6988 12.5141 18.6231 12.4384 18.4717 12.5141H18.3203Z" fill="#1A1A1A"/>
<path d="M19.3809 13.5011H19.4566V13.1983V13.0469C19.4365 13.0469 19.4172 13.0549 19.403 13.069C19.3888 13.0832 19.3809 13.1025 19.3809 13.1226V13.274C19.3856 13.3323 19.4128 13.3866 19.4566 13.4254L19.3809 13.5011Z" fill="#3B3B3B"/>
<path d="M19.3804 13.1241V13.4269H19.4561C19.4462 13.3469 19.4205 13.2697 19.3804 13.1998C19.3804 13.0484 19.3804 12.9727 19.3047 12.9727V13.1241H19.3804Z" fill="#1A1A1A"/>
<path d="M18.9268 14.5636H19.0025V14.4122L19.2296 14.1851H19.3053C19.3254 14.1851 19.3446 14.1771 19.3588 14.1629C19.373 14.1487 19.381 14.1295 19.381 14.1094H19.1539C19.1539 14.1295 19.1459 14.1487 19.1317 14.1629C19.1175 14.1771 19.0982 14.1851 19.0782 14.1851H18.9268V14.5636Z" fill="#3B3B3B"/>
<path d="M19.2291 14.4062L19.002 14.6334V14.7848H19.1534C19.3048 14.7091 19.3048 14.6334 19.3048 14.5577L19.2291 14.4062Z" fill="#1A1A1A"/>
<path d="M17.9424 14.4062L18.0938 14.6334H18.1695C18.1695 14.7091 18.1695 14.6334 18.2452 14.6334V14.482H18.1695C18.1596 14.482 18.1497 14.48 18.1405 14.4762C18.1313 14.4724 18.123 14.4668 18.116 14.4598C18.1089 14.4528 18.1034 14.4444 18.0996 14.4352C18.0957 14.426 18.0938 14.4162 18.0938 14.4062H17.9424Z" fill="#3B3B3B"/>
<path d="M18.0929 14.7115L17.9414 14.4844H17.79L17.9414 14.7115H18.0929Z" fill="#1A1A1A"/>
<path d="M17.7911 13.1968C17.7911 13.1869 17.7891 13.177 17.7853 13.1678C17.7815 13.1586 17.776 13.1503 17.7689 13.1433C17.7619 13.1362 17.7535 13.1307 17.7444 13.1269C17.7352 13.1231 17.7253 13.1211 17.7154 13.1211H17.6397V13.2725V13.5753H17.4883C17.4883 13.5853 17.4902 13.5951 17.494 13.6043C17.4978 13.6135 17.5034 13.6218 17.5105 13.6289C17.5175 13.6359 17.5258 13.6415 17.535 13.6453C17.5442 13.6491 17.554 13.651 17.564 13.651H17.7154C17.7645 13.5855 17.7911 13.5058 17.7911 13.4239V13.1968Z" fill="#3B3B3B"/>
<path d="M17.6388 13.5011V13.0469C17.5928 13.1415 17.567 13.2446 17.5631 13.3497C17.5357 13.3804 17.5149 13.4164 17.5019 13.4554C17.4888 13.4945 17.4839 13.5358 17.4874 13.5768L17.6388 13.5011Z" fill="#1A1A1A"/>
<path d="M18.775 14.4062V14.7848C18.775 14.8048 18.7671 14.8241 18.7529 14.8383C18.7387 14.8525 18.7194 14.8605 18.6993 14.8605C18.6236 14.8605 18.2451 14.9362 18.2451 14.7848V14.4062H18.775Z" fill="#4D4D4D"/>
<path d="M18.0175 14.1784L17.7904 14.3298C17.7904 14.3298 17.7147 14.4055 17.7147 14.2541C17.7147 14.1027 17.4876 13.7998 17.639 13.7998L17.8661 13.6484L18.0175 14.1784Z" fill="#4D4D4D"/>
<path d="M17.942 13.1982L17.7905 12.9711C17.7705 12.9711 17.7512 12.9631 17.737 12.9489C17.7228 12.9347 17.7148 12.9155 17.7148 12.8954C17.7148 12.8753 17.7228 12.8561 17.737 12.8419C17.7512 12.8277 17.7705 12.8197 17.7905 12.8197C17.7905 12.744 18.0934 12.4412 18.1691 12.5926L18.3205 12.8954L17.942 13.1982Z" fill="#4D4D4D"/>
<path d="M18.6982 12.8199L18.8497 12.5171C18.8497 12.497 18.8576 12.4778 18.8718 12.4636C18.886 12.4494 18.9053 12.4414 18.9254 12.4414C18.9454 12.4414 18.9647 12.4494 18.9789 12.4636C18.9931 12.4778 19.0011 12.497 19.0011 12.5171C19.0768 12.5171 19.3796 12.7442 19.2282 12.8956L19.0768 13.1227L18.6982 12.8199Z" fill="#4D4D4D"/>
<path d="M19.2295 13.5742H19.5323C19.5323 13.5742 19.6081 13.5742 19.5323 13.6499C19.4566 13.7256 19.5324 14.2556 19.3809 14.1041H19.0781L19.2295 13.5742Z" fill="#4D4D4D"/>
<path fill-rule="evenodd" clip-rule="evenodd" d="M18.5471 12.7422C18.788 12.7422 19.0191 12.8379 19.1895 13.0083C19.3598 13.1786 19.4555 13.4097 19.4555 13.6506C19.4555 13.8916 19.3598 14.1226 19.1895 14.293C19.0191 14.4634 18.788 14.5591 18.5471 14.5591C18.0929 14.5591 17.79 14.1806 17.79 13.6506C17.79 13.1207 18.0929 12.7422 18.5471 12.7422Z" fill="#999999"/>
<path fill-rule="evenodd" clip-rule="evenodd" d="M18.5478 12.8185C18.7155 12.7876 18.8888 12.8088 19.044 12.8795C19.1993 12.9502 19.3291 13.0668 19.4159 13.2137C19.5028 13.3605 19.5424 13.5305 19.5294 13.7006C19.5165 13.8707 19.4516 14.0327 19.3436 14.1648C19.2356 14.2968 19.0896 14.3925 18.9254 14.4388C18.7612 14.4852 18.5868 14.48 18.4257 14.424C18.2645 14.368 18.1245 14.2638 18.0245 14.1256C17.9244 13.9874 17.8693 13.8219 17.8664 13.6513C17.856 13.5518 17.8654 13.4512 17.894 13.3553C17.9227 13.2595 17.9701 13.1702 18.0334 13.0928C18.0968 13.0154 18.1749 12.9513 18.2632 12.9042C18.3514 12.8571 18.4482 12.828 18.5478 12.8185Z" fill="#CCCCCC"/>
<path fill-rule="evenodd" clip-rule="evenodd" d="M18.8497 13.9531C18.8935 13.992 18.9206 14.0462 18.9254 14.1045C18.9254 14.1246 18.9174 14.1439 18.9032 14.1581C18.889 14.1723 18.8697 14.1802 18.8497 14.1802C18.7739 14.1802 18.6982 14.1802 18.6982 14.1045C18.6982 14.0644 18.7142 14.0259 18.7426 13.9975C18.771 13.9691 18.8095 13.9531 18.8497 13.9531Z" fill="#999999"/>
<path fill-rule="evenodd" clip-rule="evenodd" d="M18.8501 14.0273C18.8702 14.0273 18.8895 14.0353 18.9036 14.0495C18.9178 14.0637 18.9258 14.083 18.9258 14.103C18.9258 14.1231 18.9178 14.1424 18.9036 14.1566C18.8895 14.1708 18.8702 14.1788 18.8501 14.1788C18.7744 14.1788 18.7744 14.1788 18.7744 14.103C18.7744 14.0273 18.7744 14.0273 18.8501 14.0273Z" fill="#D9D9D9"/>
<path fill-rule="evenodd" clip-rule="evenodd" d="M18.3204 14.0273C18.3404 14.0273 18.3597 14.0353 18.3739 14.0495C18.3881 14.0637 18.3961 14.083 18.3961 14.103C18.3913 14.1614 18.3642 14.2156 18.3204 14.2545C18.2802 14.2545 18.2417 14.2385 18.2133 14.2101C18.1849 14.1817 18.1689 14.1432 18.1689 14.103C18.1689 14.0273 18.2447 14.0273 18.3204 14.0273Z" fill="#999999"/>
<path fill-rule="evenodd" clip-rule="evenodd" d="M18.3208 14.0273C18.3409 14.0273 18.3602 14.0353 18.3744 14.0495C18.3885 14.0637 18.3965 14.083 18.3965 14.103C18.3965 14.1231 18.3885 14.1424 18.3744 14.1566C18.3602 14.1708 18.3409 14.1788 18.3208 14.1788C18.2451 14.1788 18.2451 14.1788 18.2451 14.103C18.2451 14.0273 18.2451 14.0273 18.3208 14.0273Z" fill="#D9D9D9"/>
<path fill-rule="evenodd" clip-rule="evenodd" d="M19.0025 13.3477C19.0225 13.3477 19.0418 13.3556 19.056 13.3698C19.0702 13.384 19.0782 13.4033 19.0782 13.4234V13.5748C19.038 13.5748 18.9995 13.5588 18.9711 13.5304C18.9427 13.502 18.9268 13.4635 18.9268 13.4234C18.9268 13.3477 19.0025 13.3477 19.0782 13.3477H19.0025Z" fill="#999999"/>
<path fill-rule="evenodd" clip-rule="evenodd" d="M19.0025 13.3477C19.0225 13.3477 19.0418 13.3556 19.056 13.3698C19.0702 13.384 19.0782 13.4033 19.0782 13.4234H18.9268C18.9268 13.3477 18.9268 13.3477 19.0025 13.3477Z" fill="#D9D9D9"/>
<path fill-rule="evenodd" clip-rule="evenodd" d="M18.0933 13.3477C18.169 13.3477 18.169 13.4234 18.169 13.4991C18.169 13.5748 18.169 13.6505 18.0933 13.6505C18.0176 13.6505 18.0176 13.5748 18.0176 13.4991C18.0176 13.4234 18.0176 13.3477 18.0933 13.3477Z" fill="#999999"/>
<path fill-rule="evenodd" clip-rule="evenodd" d="M18.0933 13.4258H18.169C18.169 13.5015 18.169 13.5015 18.0933 13.5015C18.0176 13.5015 18.0176 13.5015 18.0176 13.4258H18.0933Z" fill="#D9D9D9"/>
<path fill-rule="evenodd" clip-rule="evenodd" d="M18.5484 12.9727H18.6241V13.1241L18.4727 12.9727H18.5484Z" fill="#999999"/>
<path fill-rule="evenodd" clip-rule="evenodd" d="M18.5484 12.9727H18.6241V13.1241L18.4727 12.9727H18.5484Z" fill="#D9D9D9"/>
<path fill-rule="evenodd" clip-rule="evenodd" d="M18.5474 13.3477C18.6988 13.3477 18.7745 13.4991 18.7745 13.6505C18.7745 13.8019 18.6988 13.9533 18.5474 13.9533C18.396 13.9533 18.3203 13.8019 18.3203 13.6505C18.3203 13.4991 18.396 13.3477 18.5474 13.3477Z" fill="#999999"/>
<path fill-rule="evenodd" clip-rule="evenodd" d="M18.5469 13.4258C18.6226 13.4258 18.6983 13.5015 18.6983 13.6529C18.6983 13.8043 18.6226 13.88 18.5469 13.88C18.4712 13.88 18.3955 13.7286 18.3955 13.6529C18.3955 13.5772 18.4712 13.4258 18.5469 13.4258Z" fill="#CCCCCC"/>
<path d="M16.8071 13.1225V12.9711H16.9586C16.9586 13.0468 16.9586 13.0468 16.8829 13.0468L16.8071 13.1225ZM16.8829 12.8197C16.8829 12.7996 16.8908 12.7804 16.905 12.7662C16.9192 12.752 16.9385 12.744 16.9586 12.744V12.5926L16.8829 12.8197ZM16.9586 12.5926H17.0343V12.4412L16.9586 12.5926ZM17.11 12.3655H17.1857V12.2141L17.11 12.3655ZM17.2614 12.1384C17.2614 12.1183 17.2693 12.099 17.2835 12.0848C17.2977 12.0706 17.317 12.0627 17.3371 12.0627H17.4128C17.4128 12.1384 17.4128 12.1384 17.3371 12.1384H17.2614ZM17.4128 11.9113H17.4885V12.0627H17.4128V11.9113ZM17.6399 11.7598H17.7156V11.9113H17.6399V11.7598ZM17.867 11.6084H17.9427V11.7598H17.867V11.6084ZM18.0184 11.5327H18.1698V11.6841H18.0941C18.0941 11.7598 18.0184 11.6841 18.0184 11.6841V11.5327ZM18.2455 11.457H18.3969V11.6084H18.3212V11.457H18.2455ZM18.5483 11.457H18.6241V11.6084H18.5483V11.457ZM18.7755 11.457H18.8512V11.6084H18.6998V11.457H18.7755ZM19.0026 11.5327H19.0783V11.6841H19.0026V11.5327ZM19.2297 11.6084C19.2297 11.6841 19.2297 11.6841 19.154 11.6084V11.457L19.2297 11.6084ZM19.7596 12.0627C19.8353 12.1384 19.8353 12.1384 19.8353 12.2141H19.7596C19.7596 12.2898 19.7596 12.2141 19.6839 12.2141H19.7596V12.0627ZM19.911 12.2898C19.9867 12.3655 19.9867 12.3655 19.9867 12.4412H19.911V12.2898ZM20.0624 12.5169C20.0624 12.5926 20.1381 12.5926 20.1381 12.6683H20.0624V12.5169ZM20.2138 13.0468C20.2895 13.1225 20.2895 13.1225 20.2895 13.1982H20.2138V13.0468ZM20.2895 13.8796V14.031H20.2138C20.2138 14.031 20.1381 14.031 20.2138 13.9553H20.2895V13.8796ZM20.2895 14.1824C20.2457 14.2212 20.2186 14.2755 20.2138 14.3338H20.1381C20.1381 14.2581 20.1381 14.2581 20.2138 14.2581L20.2895 14.1824ZM20.2138 14.4852H20.0624C20.0624 14.4651 20.0704 14.4459 20.0846 14.4317C20.0988 14.4175 20.1181 14.4095 20.1381 14.4095V14.5609L20.2138 14.4852ZM20.1381 14.7123C20.1282 14.7123 20.1184 14.7143 20.1092 14.7181C20.1 14.7219 20.0916 14.7275 20.0846 14.7345C20.0776 14.7415 20.072 14.7499 20.0682 14.759C20.0644 14.7682 20.0624 14.7781 20.0624 14.788V14.9394L20.1381 14.7123ZM19.9867 14.9394H19.911V15.0908L19.9867 14.9394ZM19.8353 15.1665H19.7596V15.0151H19.8353V15.1665ZM19.6839 15.3937H19.5325V15.2422C19.6082 15.1665 19.6082 15.1665 19.6082 15.2422V15.3937H19.6839ZM19.4568 15.5451C19.4367 15.5451 19.4175 15.553 19.4033 15.5672C19.3891 15.5814 19.3811 15.6007 19.3811 15.6208V15.4694C19.3811 15.4493 19.3891 15.43 19.4033 15.4158C19.4175 15.4016 19.4367 15.3937 19.4568 15.3937V15.5451ZM19.2297 15.6965H19.154V15.5451H19.2297V15.7722V15.6965ZM19.0026 15.7722H18.9269V15.6208C18.9269 15.6007 18.9348 15.5814 18.949 15.5672C18.9632 15.553 18.9825 15.5451 19.0026 15.5451C19.0227 15.5451 19.0419 15.553 19.0561 15.5672C19.0703 15.5814 19.0783 15.6007 19.0783 15.6208V15.7722H19.0026ZM17.4885 15.3937H17.5642C17.5642 15.3937 17.6399 15.4694 17.5642 15.4694L17.4885 15.3937ZM17.2614 15.2422C17.2614 15.1665 17.2614 15.1665 17.1857 15.0908H17.3371C17.3371 15.0151 17.4128 15.0151 17.4128 15.0908H17.2614V15.2422ZM17.0343 14.788C16.9586 14.7123 16.9586 14.7123 16.9586 14.6366H17.11C17.1857 14.7123 17.1857 14.7123 17.11 14.7123L17.0343 14.788ZM16.8829 14.4852H16.9586C17.0343 14.4095 17.0343 14.4852 17.0343 14.4852H16.8829ZM16.8071 13.9553C16.8024 13.8969 16.7752 13.8427 16.7314 13.8039H16.8071V13.9553ZM17.7913 15.6208V15.4694H17.9427V15.6208H17.7913ZM18.2455 15.7722V15.6208H18.3212V15.7722C18.3113 15.7722 18.3014 15.7702 18.2923 15.7664C18.2831 15.7626 18.2747 15.757 18.2677 15.75C18.2607 15.743 18.2551 15.7346 18.2513 15.7254C18.2475 15.7163 18.2455 15.7064 18.2455 15.6965V15.7722ZM18.6998 15.6965C18.6998 15.6764 18.7077 15.6571 18.7219 15.6429C18.7361 15.6287 18.7554 15.6208 18.7755 15.6208H18.8512V15.8479H18.6998V15.6965ZM18.0184 15.6965H18.0941C18.0941 15.6208 18.0941 15.6208 18.1698 15.6208V15.7722L18.0184 15.6965ZM18.4726 15.6965H18.5483C18.5684 15.6965 18.5877 15.7044 18.6019 15.7186C18.6161 15.7328 18.6241 15.7521 18.6241 15.7722V15.9236H18.5483V15.7722L18.4726 15.6965Z" fill="#555555"/>
<path d="M4.61933 9.10938V9.26078C4.60279 9.55564 4.6825 9.84789 4.84644 10.0935L5.45207 10.8506C5.86724 11.3494 6.19953 11.9118 6.43623 12.5161C6.4766 12.6954 6.52715 12.8724 6.58764 13.046C6.66334 13.5759 6.66334 13.6516 7.34468 13.6516H10.7514C10.7514 12.9703 10.6757 12.2133 10.6757 11.5319C10.6757 10.8506 10.6 10.1692 10.5243 9.5636C10.6153 10.216 10.6658 10.8733 10.6757 11.5319C10.7387 12.2366 10.764 12.9442 10.7514 13.6516H15.3693C15.445 13.6516 15.5207 13.6516 15.5207 13.5759C15.5207 13.5002 15.5964 13.5002 15.5964 13.3488C15.6966 12.6975 15.7473 12.0395 15.7478 11.3805C15.8051 12.0372 15.7797 12.6985 15.6721 13.3488C15.6721 13.5002 15.5964 13.5759 15.5964 13.6516H7.42038C6.73904 13.6516 6.73904 13.5759 6.58764 13.046C6.43623 12.5161 6.51193 12.6675 6.51193 12.4404C6.29456 11.8314 5.93055 11.2854 5.45207 10.8506C5.25772 10.6111 5.08063 10.3581 4.92214 10.0935C4.76527 9.81232 4.66255 9.50417 4.61933 9.18508V9.10938Z" fill="#BC6100"/>
<path d="M4.61816 9.10938C4.66139 9.42847 4.76411 9.73662 4.92098 10.0178L5.45091 10.7749C5.92939 11.2097 6.2934 11.7557 6.51077 12.3647C6.51077 12.5918 6.58647 12.8189 6.58647 12.9703C6.58647 13.1217 6.73788 13.5759 7.34352 13.5759H10.7502C10.7502 12.8946 10.7502 12.1375 10.6745 11.3805C10.6647 10.7219 10.6141 10.0645 10.5231 9.41219H10.5988C10.6745 10.0178 10.6745 10.6992 10.7502 11.3805C10.8259 12.0618 10.8259 12.8946 10.8259 13.5759H15.4439C15.5196 13.5759 15.5953 13.5759 15.5953 13.5002C15.5953 13.4245 15.671 13.4245 15.671 13.3488C15.7786 12.673 15.804 11.9867 15.7467 11.3048C15.7815 10.6596 15.6783 10.0143 15.4439 9.41219H15.5196C15.7611 10.0124 15.8646 10.6592 15.8224 11.3048C15.8214 11.9889 15.7708 12.672 15.671 13.3488C15.6745 13.3898 15.6695 13.4311 15.6565 13.4702C15.6435 13.5092 15.6227 13.5452 15.5953 13.5759H7.34352C6.66218 13.5759 6.66218 13.5002 6.58647 12.9703C6.51758 12.7735 6.46689 12.5707 6.43507 12.3647C6.19839 11.7833 5.86571 11.2459 5.45091 10.7749L4.84528 10.0178C4.71624 9.73089 4.63933 9.42327 4.61816 9.10938Z" fill="#C16300"/>
<path d="M4.76931 8.73041C5.4331 8.19074 6.14231 7.70949 6.88903 7.29203H10.1443L12.7183 7.51915H13.0968L14.2323 8.20048C14.6479 8.54008 15.0283 8.92051 15.3679 9.33605L15.5193 9.48746C15.5193 9.56316 15.5193 9.63887 15.4436 9.63887C15.3679 9.63887 15.3679 9.71457 15.3679 9.79027C15.3679 9.86598 15.0651 9.86598 14.9137 9.79027L10.8256 9.63887L4.84502 9.41175C4.5422 9.41175 4.5422 9.10894 4.76931 8.88182V8.73041ZM6.88903 7.36774C6.1536 7.80323 5.44569 8.2836 4.76931 8.80612C4.6179 8.95753 4.6179 9.18464 4.84502 9.18464L10.8256 9.41175L14.9137 9.63887H15.4436C15.4436 9.56316 15.4436 9.48746 15.3679 9.48746L14.1566 8.12478C13.833 7.8545 13.477 7.62562 13.0968 7.44344L12.7183 7.29203L10.1443 7.14062H7.19185L6.96473 7.29203L6.88903 7.36774Z" fill="#333333"/>
<path fill-rule="evenodd" clip-rule="evenodd" d="M14.6109 8.57657L15.4436 8.80369C15.5194 8.80369 15.5951 8.87939 15.5951 9.0308V9.25791C15.5951 9.40932 15.5951 9.40932 15.4436 9.40932H14.6109C14.4595 9.40932 14.3838 9.25791 14.3838 9.1065V8.72798C14.3838 8.57657 14.4595 8.50087 14.6109 8.57657Z" fill="#858584"/>
<path fill-rule="evenodd" clip-rule="evenodd" d="M15.5951 9.11048V9.26188C15.5951 9.41329 15.5951 9.41329 15.4436 9.41329H14.6109C14.4595 9.41329 14.3838 9.26188 14.3838 9.11048V8.80766C14.3838 8.65625 14.5352 8.65625 14.6109 8.65625L15.4436 8.88336C15.5194 8.88336 15.5951 8.95907 15.5951 9.11048Z" fill="#292929"/>
<path fill-rule="evenodd" clip-rule="evenodd" d="M13.476 7.29297C14.7224 7.87931 15.892 8.61664 16.9584 9.48839L16.2014 9.33698C15.3852 8.56178 14.4685 7.89976 13.476 7.36867C13.4003 7.36867 13.476 7.29297 13.476 7.29297Z" fill="#EEEEEE"/>
<path fill-rule="evenodd" clip-rule="evenodd" d="M13.476 7.29297C14.5348 7.84114 15.5475 8.47408 16.5042 9.18557C16.6556 9.33698 16.807 9.33698 16.8827 9.48839L16.2014 9.33698C15.3708 8.57924 14.4565 7.91886 13.476 7.36867C13.4003 7.36867 13.476 7.29297 13.476 7.29297Z" fill="#C6D0D0"/>
<path fill-rule="evenodd" clip-rule="evenodd" d="M10.4465 6.00781L10.5979 6.76486H9.84082V6.00781H10.4465Z" fill="black"/>
<path fill-rule="evenodd" clip-rule="evenodd" d="M2.34668 8.88237L4.16358 7.74681L6.05619 6.91406H6.13189C5.47995 7.17087 4.84743 7.47447 4.23929 7.82251C3.59954 8.11378 2.99082 8.46886 2.42238 8.88237H2.34668Z" fill="#EEEEEE"/>
<path fill-rule="evenodd" clip-rule="evenodd" d="M5.90387 9.79297C6.13098 9.79297 6.20669 9.86867 6.20669 9.94438C6.20669 10.0201 6.13098 10.0958 5.90387 10.0958C5.67676 10.0958 5.67676 10.0201 5.67676 9.94438C5.67676 9.86867 5.75246 9.79297 5.90387 9.79297Z" fill="#B5B5B5"/>
<path fill-rule="evenodd" clip-rule="evenodd" d="M5.52637 9.86719H6.28341C6.30349 9.86719 6.32274 9.87516 6.33694 9.88936C6.35114 9.90356 6.35911 9.92281 6.35911 9.94289H5.52637V9.86719Z" fill="#808080"/>
<path fill-rule="evenodd" clip-rule="evenodd" d="M5.52637 9.86719H6.28341C6.35911 9.86719 6.35911 9.86719 6.35911 9.94289H5.52637V9.86719Z" fill="#E6E6E6"/>
<path fill-rule="evenodd" clip-rule="evenodd" d="M11.6583 10.0156L11.9611 10.167C11.9611 10.2427 11.8097 10.3184 11.6583 10.3184C11.5069 10.3184 11.3555 10.2427 11.3555 10.167L11.6583 10.0156Z" fill="#B5B5B5"/>
<path fill-rule="evenodd" clip-rule="evenodd" d="M11.2798 10.0898H12.1126C12.1126 10.1099 12.1046 10.1292 12.0904 10.1434C12.0762 10.1576 12.0569 10.1655 12.0369 10.1655H11.2798C11.2041 10.1655 11.2041 10.1655 11.2041 10.0898H11.2798Z" fill="#808080"/>
<path fill-rule="evenodd" clip-rule="evenodd" d="M11.2798 10.0898H12.1126C12.1126 10.1099 12.1046 10.1292 12.0904 10.1434C12.0762 10.1576 12.0569 10.1655 12.0369 10.1655H11.2798C11.2597 10.1655 11.2405 10.1576 11.2263 10.1434C11.2121 10.1292 11.2041 10.1099 11.2041 10.0898H11.2798Z" fill="#E6E6E6"/>
<path d="M7.48828 0.663613C6.70099 1.43989 6.59363 2.69515 7.24053 3.59254C7.57492 4.05984 8.07512 4.38181 8.63893 4.49269L9.0546 5.09004L9.45099 4.50646C9.87878 4.43595 10.2773 4.24388 10.5989 3.95315C11.5211 3.12182 11.5926 1.67112 10.7586 0.751701C10.5533 0.525069 10.3043 0.342381 10.0265 0.214668C9.74868 0.0869546 9.44788 0.0168657 9.14224 0.00863298C8.8366 0.000400279 8.53247 0.0541946 8.2482 0.166768C7.96392 0.279341 7.70541 0.448358 7.48828 0.663613Z" fill="white"/>
<path d="M7.48716 0.66252L7.51469 0.634992L7.59727 0.560668L7.65783 0.505613L7.73766 0.445052L7.83401 0.376233C7.86704 0.351458 7.90833 0.332189 7.94687 0.307414C8.14393 0.190154 8.35867 0.10556 8.58276 0.0569136C8.87924 -0.0106544 9.18624 -0.0181424 9.48566 0.0348916C9.84975 0.0983349 10.1923 0.251612 10.4822 0.480838L10.5978 0.574431L10.7079 0.681789L10.7629 0.736844L10.8125 0.794652L10.9116 0.918526C11.0386 1.09483 11.1414 1.28741 11.2171 1.4911C11.2919 1.70688 11.3364 1.932 11.3493 2.16002C11.3589 2.39927 11.333 2.63862 11.2722 2.87023C11.2098 3.10957 11.1074 3.33665 10.9694 3.5419L10.9171 3.61898L10.8565 3.6933C10.8189 3.74408 10.7775 3.79193 10.7327 3.83645C10.6886 3.88324 10.6446 3.92729 10.5978 3.97133C10.551 4.01537 10.5014 4.05667 10.4491 4.0952C10.1557 4.31433 9.81397 4.45972 9.45263 4.51913L9.46364 4.51362C9.32875 4.71182 9.19387 4.90451 9.06449 5.09721C9.06174 5.10271 9.05348 5.10271 9.04522 5.09996H9.04247L8.6268 4.49986C8.62461 4.49694 8.62367 4.49327 8.62419 4.48966C8.6247 4.48604 8.62663 4.48278 8.62956 4.48059H8.63781V4.50812C8.29697 4.43936 7.97607 4.29444 7.69912 4.08419C7.2226 3.71646 6.91089 3.17516 6.83201 2.57844C6.80198 2.34027 6.80848 2.09892 6.85128 1.86272C6.88635 1.67157 6.94554 1.48565 7.02745 1.30942C7.09042 1.17907 7.16505 1.05469 7.25043 0.937795L7.34677 0.813921L7.42385 0.731339C7.44587 0.709316 7.45963 0.6928 7.4734 0.681789L7.48991 0.665272L7.4734 0.684542L7.4266 0.734091L7.34952 0.816674L7.25318 0.940548C7.17078 1.05835 7.09806 1.18263 7.03571 1.31217C6.95696 1.48818 6.89966 1.67303 6.86504 1.86272C6.8232 2.09722 6.81763 2.33675 6.84852 2.57293C6.88471 2.84838 6.97249 3.11454 7.10728 3.35747C7.25862 3.63146 7.46477 3.87135 7.71289 4.06217C7.8463 4.16287 7.99029 4.24871 8.14232 4.31818C8.30181 4.39076 8.46894 4.44524 8.64057 4.48059C8.64882 4.48059 8.65433 4.48885 8.65158 4.49435C8.65158 4.49727 8.65042 4.50007 8.64835 4.50214C8.64629 4.5042 8.64349 4.50536 8.64057 4.50536H8.63781L8.64882 4.4861L9.06449 5.08069H9.04247L9.43887 4.49711L9.44988 4.4916C9.80592 4.43299 10.1423 4.28842 10.4299 4.07043C10.4818 4.03403 10.5314 3.9945 10.5785 3.95206L10.7134 3.81718C10.7574 3.77367 10.7979 3.72673 10.8345 3.67679L10.8951 3.60246L10.9446 3.52538C11.0822 3.32324 11.1837 3.09878 11.2447 2.86197C11.3051 2.63402 11.332 2.39848 11.3245 2.16277C11.3106 1.93668 11.2661 1.71352 11.1924 1.49936C11.1174 1.29812 11.0165 1.10749 10.8923 0.93229L10.7932 0.811168L10.7437 0.753361L10.6886 0.698305L10.5813 0.593701L10.4684 0.500107C10.1808 0.272219 9.84131 0.119019 9.48016 0.0541608C9.18374 0.00100698 8.87977 0.0066188 8.58551 0.0706774C8.36315 0.11938 8.1496 0.202012 7.95238 0.315672C7.91384 0.340447 7.87255 0.359717 7.83951 0.384491L7.74317 0.450558L7.66334 0.511118L7.60003 0.56342L7.51469 0.637745L7.48716 0.66252Z" fill="#263238"/>
<path d="M10.0293 1.78619C10.0264 1.77848 10.021 1.77192 10.0141 1.76746C10.0072 1.763 9.99899 1.76088 9.99076 1.76142H9.46498L9.9825 0.943851C9.98633 0.937221 9.98857 0.929794 9.98905 0.922152C9.98953 0.91451 9.98823 0.906861 9.98525 0.899806C9.98152 0.892114 9.97563 0.885676 9.96829 0.881277C9.96096 0.876877 9.95251 0.874707 9.94396 0.875032H9.2365C9.22843 0.875229 9.22056 0.877644 9.21376 0.882014C9.20696 0.886383 9.2015 0.892539 9.19797 0.899806L8.5318 2.22939C8.52846 2.23623 8.52696 2.24382 8.52743 2.25142C8.5279 2.25902 8.53034 2.26637 8.5345 2.27275C8.53866 2.27913 8.5444 2.28432 8.55116 2.28781C8.55793 2.29131 8.56548 2.29299 8.57309 2.2927H9.02729L8.5318 3.47088C8.52804 3.48059 8.52762 3.49127 8.53061 3.50124C8.5336 3.51121 8.53983 3.5199 8.54832 3.52593L8.57309 3.53144C8.58543 3.53113 8.59721 3.52622 8.60612 3.51768L10.0238 1.83299C10.0294 1.82668 10.0329 1.81882 10.0339 1.81045C10.0349 1.80209 10.0333 1.79362 10.0293 1.78619Z" fill="#F77F00"/>
</svg>
