<svg width="17" height="14" viewBox="0 0 17 14" fill="none" xmlns="http://www.w3.org/2000/svg">
<path d="M0.03125 0.777778C0.03125 0.348444 0.306942 0 0.646635 0H15.4159C15.7556 0 16.0312 0.348444 16.0312 0.777778C16.0312 1.20711 15.7556 1.55556 15.4159 1.55556H0.646635C0.306942 1.55556 0.03125 1.20711 0.03125 0.777778ZM15.4159 6.22222H0.646635C0.306942 6.22222 0.03125 6.57067 0.03125 7C0.03125 7.42933 0.306942 7.77778 0.646635 7.77778H15.4159C15.7556 7.77778 16.0312 7.42933 16.0312 7C16.0312 6.57067 15.7556 6.22222 15.4159 6.22222ZM15.4159 12.4444H0.646635C0.306942 12.4444 0.03125 12.7929 0.03125 13.2222C0.03125 13.6516 0.306942 14 0.646635 14H15.4159C15.7556 14 16.0312 13.6516 16.0312 13.2222C16.0312 12.7929 15.7556 12.4444 15.4159 12.4444Z" fill="#797979"/>
</svg>
