<svg width="17" height="14" viewBox="0 0 17 14" fill="none" xmlns="http://www.w3.org/2000/svg">
<path d="M16.0312 7.00043C16.0312 6.5711 15.7556 6.22266 15.4159 6.22266H0.646635C0.306942 6.22266 0.03125 6.5711 0.03125 7.00043C0.03125 7.42977 0.306942 7.77821 0.646635 7.77821H15.4159C15.7556 7.77821 16.0312 7.42977 16.0312 7.00043Z" fill="#797979"/>
<path d="M12.9535 12.4453C13.2932 12.4453 13.5689 12.7938 13.5689 13.2231C13.5689 13.6524 13.2932 14.0009 12.9535 14.0009H3.92788C3.58819 14.0009 3.3125 13.6524 3.3125 13.2231C3.3125 12.7938 3.58819 12.4453 3.92788 12.4453H12.9535Z" fill="#797979"/>
<path d="M3.92788 1.55556H12.9535C13.2932 1.55556 13.5689 1.20711 13.5689 0.777778C13.5689 0.348444 13.2932 0 12.9535 0H3.92788C3.58819 0 3.3125 0.348444 3.3125 0.777778C3.3125 1.20711 3.58819 1.55556 3.92788 1.55556Z" fill="#797979"/>
</svg>
