<svg width="18" height="16" viewBox="0 0 18 16" fill="none" xmlns="http://www.w3.org/2000/svg">
<path d="M15.2985 15.9984H2.85253C2.49664 15.9984 2.20996 15.7118 2.20996 15.3559C2.20996 15.3362 2.20996 15.3263 2.20996 15.3065L2.42744 12.7069L2.51641 11.6591L3.26772 2.74334C3.29738 2.41715 3.57417 2.16016 3.9004 2.16016H14.2506C14.5769 2.16016 14.8537 2.41715 14.8833 2.74334L15.3183 7.87338L15.3974 8.8816L15.9411 15.3065C15.9707 15.6623 15.7038 15.9688 15.3479 15.9984C15.3282 15.9984 15.3183 15.9984 15.2985 15.9984Z" fill="#F77F00"/>
<path d="M11.6604 4.1368H6.49023V2.42679C6.5792 1.00342 7.80502 -0.0838678 9.23843 0.00509244C10.5433 0.0841682 11.5813 1.12204 11.6604 2.42679V4.1368ZM6.9944 3.63269H11.1562V2.42679C11.0772 1.28019 10.0787 0.410356 8.93198 0.489432C7.89399 0.558623 7.0636 1.38892 6.9944 2.42679V3.63269Z" fill="#F77F00"/>
<path d="M9.07962 3.98828C6.92456 3.98828 5.1748 5.73783 5.1748 7.89265C5.1748 10.5417 9.07962 14.1693 9.07962 14.1693C9.07962 14.1693 12.9844 10.5417 12.9844 7.89265C12.9844 5.73783 11.2347 3.98828 9.07962 3.98828Z" fill="#02CD8D"/>
<path d="M15.4707 9.21302C14.3776 10.2166 11.3069 12.2535 8.90211 12.9888C6.49727 13.7241 4.05268 14.0023 2.30371 13.7638L2.37327 12.8695L2.39315 12.6311C4.09243 12.9292 6.37802 12.7404 8.90211 11.9653C11.4262 11.1903 13.7317 9.97811 15.421 8.63672L15.4608 9.00436L15.4707 9.21302Z" fill="#F45700"/>
<path d="M9.07978 10.4441C10.4884 10.4441 11.6303 9.30238 11.6303 7.89394C11.6303 6.48551 10.4884 5.34375 9.07978 5.34375C7.67119 5.34375 6.5293 6.48551 6.5293 7.89394C6.5293 9.30238 7.67119 10.4441 9.07978 10.4441Z" fill="white"/>
<path d="M15.3967 8.88322C13.7062 10.1385 11.4227 11.2753 8.90183 12.0166C6.381 12.7579 4.1172 12.9655 2.42676 12.7085L2.51573 11.6608C4.15674 11.9869 6.41066 11.8189 8.90183 11.0875C11.393 10.356 13.6766 9.16987 15.3176 7.875L15.3967 8.88322Z" fill="#02CD8D"/>
<path d="M17.3845 4.37109C17.4125 4.50172 17.4219 4.63235 17.4219 4.76297C17.4219 7.08624 13.6053 10.0906 8.90223 11.4809C4.19917 12.8711 0.382591 12.0967 0.382591 9.7734C0.382591 9.63344 0.391922 9.49349 0.419917 9.36286C0.149304 9.84804 0 10.3239 0 10.7718C0 13.095 3.98454 13.8041 8.90223 12.3579C13.8199 10.9117 17.8045 7.86067 17.8045 5.5374C17.8045 5.1082 17.6552 4.69766 17.3845 4.37109Z" fill="white"/>
<path d="M8.56868 9.13553C8.49144 9.13553 8.42798 9.06776 8.42798 8.98425C8.42798 8.90074 8.4902 8.83296 8.56756 8.83296H8.56868C8.64603 8.83296 8.70882 8.90074 8.70882 8.98425C8.70882 9.06776 8.64603 9.13553 8.56868 9.13553ZM9.6057 8.98425C9.6057 8.90074 9.54292 8.83296 9.46556 8.83296H9.46444C9.38708 8.83296 9.32486 8.90074 9.32486 8.98425C9.32486 9.06776 9.3882 9.13553 9.46556 9.13553C9.54292 9.13553 9.6057 9.06776 9.6057 8.98425ZM9.01488 8.10679C8.96891 8.10679 8.93079 8.06564 8.93079 8.01602C8.93079 7.9664 8.96891 7.92525 9.01488 7.92525H9.80727C9.82375 7.92525 9.83777 7.9123 9.84046 7.89475L9.90716 7.45433C9.93294 7.30546 9.82644 7.1687 9.68743 7.1687H8.33549L8.31207 7.00096C8.29032 6.83515 8.16184 6.71484 8.00679 6.71484H7.97764C7.93122 6.71484 7.89355 6.75551 7.89355 6.80561C7.89355 6.85572 7.93122 6.89639 7.97764 6.89639H8.00566C8.07596 6.89639 8.1356 6.95218 8.14569 7.02734L8.31397 8.29184C8.32966 8.41166 8.42383 8.50001 8.53594 8.50001H9.4631C9.69853 8.50001 9.76467 8.37414 9.79382 8.20228L9.80178 8.14964C9.80178 8.14964 9.80907 8.10667 9.77129 8.10667C9.73609 8.10679 9.01488 8.10679 9.01488 8.10679Z" fill="#02CD8D"/>
</svg>
