<svg width="10" height="12" viewBox="0 0 10 12" fill="none" xmlns="http://www.w3.org/2000/svg">
<path d="M9.39692 3.5939L2.15385 0.919321V0.461538C2.15385 0.206769 1.94708 0 1.69231 0C1.43754 0 1.23077 0.206769 1.23077 0.461538V11.0769H0.461538C0.206769 11.0769 0 11.2837 0 11.5385C0 11.7932 0.206769 12 0.461538 12H2.92308C3.17785 12 3.38462 11.7932 3.38462 11.5385C3.38462 11.2837 3.17785 11.0769 2.92308 11.0769H2.15385V8.00376L9.39692 5.32918C9.76615 5.19379 10 4.85538 10 4.46154C10 4.06769 9.76615 3.72929 9.39692 3.5939Z" fill="#F64C35"/>
</svg>
