<svg width="15" height="14" viewBox="0 0 15 14" fill="none" xmlns="http://www.w3.org/2000/svg">
<path d="M14.3182 3.50017H12.2468L12.9307 0.881495C13.0282 0.508387 12.8127 0.124129 12.4487 0.0240265C12.0846 -0.0760756 11.7102 0.14579 11.6135 0.518898L10.8355 3.50017H5.99318L6.67708 0.881495C6.77459 0.508387 6.55911 0.124129 6.19506 0.0240265C5.83088 -0.0753066 5.45735 0.14579 5.36047 0.518898L4.58181 3.50017H2.04546C1.66905 3.50017 1.36368 3.81304 1.36368 4.20012C1.36368 4.58732 1.66905 4.90019 2.04546 4.90019H4.21564L3.11863 9.10012H0.681778C0.305496 9.10012 0 9.41299 0 9.80007C0 10.1871 0.305496 10.5 0.681778 10.5H2.75321L2.06931 13.1187C1.9718 13.4918 2.18728 13.8761 2.55133 13.9762C2.61001 13.9923 2.66931 14 2.72724 14C3.02799 14 3.30415 13.7942 3.3853 13.4813L4.16458 10.5H9.00682L8.32292 13.1187C8.22554 13.4918 8.44089 13.8761 8.80507 13.9762C8.86362 13.9923 8.92292 14 8.9816 14C9.28235 14 9.55838 13.7942 9.63953 13.4813L10.4182 10.5H12.9545C13.3309 10.5 13.6364 10.1871 13.6364 9.80007C13.6364 9.41299 13.3309 9.10012 12.9545 9.10012H10.7844L11.8814 4.90019H14.3182C14.6946 4.90019 15 4.58732 15 4.20012C15 3.81304 14.6946 3.50017 14.3182 3.50017ZM9.37224 9.10012H4.53L5.62701 4.90019H10.4694L9.37224 9.10012Z" fill="#797979"/>
</svg>
