<svg width="14" height="15" viewBox="0 0 14 15" fill="none" xmlns="http://www.w3.org/2000/svg">
<path d="M13.8633 0.722222C13.8633 0.91377 13.7872 1.09747 13.6517 1.23291C13.5163 1.36835 13.3326 1.44444 13.1411 1.44444H10.0536L6.1987 13H8.80773C8.99926 13 9.18299 13.0761 9.31841 13.2115C9.45383 13.347 9.52995 13.5307 9.52995 13.7222C9.52995 13.9138 9.45383 14.0975 9.31841 14.2329C9.18299 14.3683 8.99926 14.4444 8.80773 14.4444H1.5855C1.39396 14.4444 1.21026 14.3683 1.07481 14.2329C0.939375 14.0975 0.863281 13.9138 0.863281 13.7222C0.863281 13.5307 0.939375 13.347 1.07481 13.2115C1.21026 13.0761 1.39396 13 1.5855 13H4.673L8.52786 1.44444H5.91884C5.7273 1.44444 5.54357 1.36835 5.40815 1.23291C5.27274 1.09747 5.19661 0.91377 5.19661 0.722222C5.19661 0.530674 5.27274 0.346977 5.40815 0.211532C5.54357 0.0760934 5.7273 0 5.91884 0H13.1411C13.3326 0 13.5163 0.0760934 13.6517 0.211532C13.7872 0.346977 13.8633 0.530674 13.8633 0.722222Z" fill="#797979"/>
</svg>
