<svg width="20" height="24" viewBox="0 0 20 24" fill="none" xmlns="http://www.w3.org/2000/svg">
<path d="M19.5267 22.261H18.9776L19.4036 15.1202C19.4462 14.4197 18.8877 13.8281 18.1873 13.8281H2.12417C1.42372 13.8281 0.865258 14.4197 0.907866 15.1202L1.33392 22.261L0.473279 22.261C0.211913 22.261 0 22.473 0 22.7343C0 22.9957 0.211913 23.2076 0.473279 23.2076L19.5267 23.2076C19.7881 23.2076 20 22.9957 20 22.7343C20 22.473 19.7881 22.261 19.5267 22.261ZM10.1557 16.7483C11.0171 16.7483 11.7176 17.4487 11.7176 18.3101C11.7176 19.1762 11.0171 19.8766 10.1557 19.8766C9.29436 19.8766 8.59392 19.1762 8.59392 18.3101C8.59392 17.4487 9.29436 16.7483 10.1557 16.7483Z" fill="#25314C"/>
<path d="M3.35059 12.8827H16.9621C16.3894 11.8935 15.3246 11.2688 14.1697 11.2688H12.5322C13.3557 10.5778 13.9946 9.59812 14.3733 8.61843H15.7126C16.3232 8.61843 16.8201 8.12149 16.8201 7.51094V6.49815C16.8201 6.12424 16.6308 5.79294 16.3469 5.59417C16.0487 2.4374 13.3794 0 10.1563 0C6.93331 0 4.26875 2.4374 3.96584 5.59417C3.68189 5.79294 3.49256 6.12424 3.49256 6.49815V7.51094C3.49256 8.12149 3.9895 8.61843 4.60005 8.61843H5.93941C6.31806 9.59812 6.95697 10.5778 7.78047 11.2688H6.14295C4.98814 11.2688 3.92326 11.8935 3.35059 12.8827ZM5.76904 4.62395V4.62869C5.68385 4.87006 5.62232 5.13036 5.57501 5.39066H4.93606C5.32415 2.86336 7.52491 0.946559 10.1563 0.946559C12.7878 0.946559 14.9885 2.86336 15.3766 5.39066H14.7472C14.3307 3.10945 12.4281 1.43879 10.1563 1.43879C8.14965 1.43879 6.43164 2.74975 5.76904 4.62395ZM7.64323 9.76376C7.96506 9.8395 8.34842 9.90103 8.7933 9.93887C8.98733 10.4405 9.4843 10.7955 10.0712 10.7955C10.8284 10.7955 11.4389 10.2086 11.4389 9.48454C11.4389 8.76514 10.8284 8.17828 10.0712 8.17828C9.50322 8.17828 9.02046 8.50958 8.81222 8.98286C7.77574 8.89294 7.16522 8.65156 6.92858 8.53798C6.85287 8.35813 6.78186 8.17828 6.72033 7.99843C6.5263 7.41631 6.4269 6.85311 6.4269 6.3183C6.4269 6.18103 6.43164 6.04852 6.44582 5.91126C6.46951 5.65096 6.52156 5.40013 6.59254 5.15402C6.96645 5.04044 7.89879 4.85111 9.08199 5.36226C9.39908 5.4995 9.72565 5.5563 10.0569 5.5563C11.3443 5.5563 12.6458 4.68548 13.2895 4.17907C13.6018 4.68548 13.8053 5.27708 13.8668 5.91599C13.8811 6.04852 13.8858 6.18103 13.8858 6.3183C13.8858 6.85311 13.7864 7.41631 13.5924 7.99843C13.067 9.57446 11.7702 11.2688 10.1563 11.2688C9.16244 11.2688 8.28689 10.6251 7.64323 9.76376Z" fill="#25314C"/>
</svg>
