<svg width="20" height="14" viewBox="0 0 20 14" fill="none" xmlns="http://www.w3.org/2000/svg">
<path d="M18.0309 13.8582H1.96907C1.44699 13.8576 0.946468 13.6499 0.57732 13.2807C0.208172 12.9115 0.000547798 12.411 0 11.8889V1.96925C0.000547798 1.44718 0.208172 0.946636 0.57732 0.577453C0.946468 0.20827 1.44699 0.000597684 1.96907 0H18.0309C18.553 0.000597684 19.0535 0.20827 19.4227 0.577453C19.7918 0.946636 19.9995 1.44718 20 1.96925V11.8889C19.9995 12.411 19.7918 12.9115 19.4227 13.2807C19.0535 13.6499 18.553 13.8576 18.0309 13.8582ZM1.96907 0.752629C1.64652 0.752978 1.33729 0.881276 1.10923 1.10937C0.881178 1.33746 0.752928 1.64671 0.752629 1.96925V11.8889C0.752928 12.2115 0.881178 12.5207 1.10923 12.7488C1.33729 12.9769 1.64652 13.1052 1.96907 13.1055H18.0309C18.3535 13.1052 18.6627 12.9769 18.8908 12.7488C19.1188 12.5207 19.2471 12.2115 19.2474 11.8889V1.96925C19.2471 1.64671 19.1188 1.33746 18.8908 1.10937C18.6627 0.881276 18.3535 0.752978 18.0309 0.752629H1.96907Z" fill="black"/>
<path d="M10.0058 9.14474C9.91407 9.14479 9.82548 9.11133 9.75668 9.05066L0.6875 1.04494L1.18555 0.480469L10.0058 8.26717L18.8264 0.48141L19.3245 1.04588L10.2553 9.0516C10.1863 9.11211 10.0976 9.14525 10.0058 9.14474Z" fill="black"/>
<path d="M0.476562 12.6758L6.56915 5.73393L7.13512 6.23066L1.04254 13.1725L0.476562 12.6758Z" fill="black"/>
<path d="M12.8828 6.22266L13.4488 5.72592L19.5415 12.6679L18.9755 13.1647L12.8828 6.22266Z" fill="black"/>
</svg>
