<svg width="16" height="12" viewBox="0 0 16 12" fill="none" xmlns="http://www.w3.org/2000/svg">
<path d="M1.09086 12.0036H3.63621V5.82105L1.96947 2.91016L0 3.09346V10.9125C0 11.5153 0.488166 12.0036 1.09086 12.0036Z" fill="#0085F7"/>
<path d="M12.3643 12.0036H14.9096C15.5123 12.0036 16.0005 11.5153 16.0005 10.9125V3.09346L14.0338 2.91016L12.3643 5.82105V12.0036H12.3643Z" fill="#00A94B"/>
<path d="M12.3633 1.09396L10.8682 3.94751L12.3633 5.82179L15.9995 3.09419V1.6395C15.9995 0.291154 14.4605 -0.478935 13.3815 0.330252L12.3633 1.09396Z" fill="#FFBC00"/>
<path fill-rule="evenodd" clip-rule="evenodd" d="M3.63761 5.82157L2.21289 2.81154L3.63761 1.09375L8.00104 4.36684L12.3645 1.09375V5.82157L8.00104 9.09467L3.63761 5.82157Z" fill="#FF4131"/>
<path d="M0 1.6395V3.09419L3.63621 5.82179V1.09396L2.61807 0.330252C1.53903 -0.478935 0 0.291154 0 1.6395Z" fill="#E51C19"/>
</svg>
