<svg width="18" height="22" viewBox="0 0 18 22" fill="none" xmlns="http://www.w3.org/2000/svg">
<path d="M16.6838 5.17141L10.4963 1.30141C9.57375 0.727656 8.42625 0.727656 7.50375 1.30141L1.31625 5.17141C0.494998 5.67766 0 6.5889 0 7.5564V14.4414C0 15.4089 0.494998 16.3201 1.31625 16.8264L7.50375 20.6964C8.42625 21.2701 9.57375 21.2701 10.4963 20.6964L16.6838 16.8264C17.505 16.3201 18 15.4089 18 14.4414V7.5564C18 6.5889 17.505 5.67766 16.6838 5.17141ZM9 14.3739C7.1325 14.3739 5.625 12.8664 5.625 10.9989C5.625 9.1314 7.1325 7.6239 9 7.6239C10.8675 7.6239 12.375 9.1314 12.375 10.9989C12.375 12.8664 10.8675 14.3739 9 14.3739Z" fill="#25314C"/>
</svg>
