<svg width="18" height="16" viewBox="0 0 18 16" fill="none" xmlns="http://www.w3.org/2000/svg">
<path d="M0.697206 1.35144H0.919947V3.83739C0.919947 4.05417 1.09569 4.22991 1.31247 4.22991C1.52924 4.22991 1.70498 4.05417 1.70498 3.83739V0.958925C1.70498 0.74215 1.52924 0.566406 1.31247 0.566406H0.697206C0.480431 0.566406 0.304688 0.74215 0.304688 0.958925C0.304688 1.1757 0.480431 1.35144 0.697206 1.35144Z" fill="#797979"/>
<path d="M1.74305 8.93381C1.53489 8.93642 1.31573 8.93833 1.12007 8.93918C1.25321 8.75921 1.42607 8.5207 1.64658 8.20566C1.81363 7.96701 1.9228 7.74034 1.97113 7.53193C1.97381 7.52038 1.97591 7.50871 1.97741 7.49694L1.98995 7.39876C1.99186 7.38393 1.9928 7.36899 1.9928 7.35403C1.9928 6.80126 1.5431 6.35156 0.990355 6.35156C0.512402 6.35156 0.0987047 6.69162 0.00668574 7.16011C-0.0308889 7.35137 0.0937167 7.53687 0.284978 7.57442C0.476262 7.61195 0.661736 7.48739 0.699287 7.29613C0.726438 7.1578 0.848856 7.05741 0.990331 7.05741C1.14778 7.05741 1.27698 7.18075 1.28639 7.33587L1.27978 7.3877C1.25785 7.47186 1.20307 7.60832 1.0683 7.80093C0.667029 8.37429 0.42763 8.68773 0.299024 8.85614C0.136538 9.06889 0.0470367 9.18608 0.105951 9.37767C0.141056 9.49176 0.227192 9.57919 0.342363 9.61757C0.390126 9.63349 0.428406 9.64625 0.921158 9.64625C1.11677 9.64625 1.38403 9.64425 1.75194 9.63961C1.94682 9.63716 2.10284 9.47717 2.10042 9.28226C2.09792 9.08738 1.93765 8.93165 1.74305 8.93381Z" fill="#797979"/>
<path d="M1.05022 11.8711C0.549476 11.8711 0.116093 12.2274 0.0197195 12.7182C-0.0197442 12.9191 0.111126 13.1139 0.312003 13.1533C0.512904 13.1927 0.707702 13.0619 0.747141 12.861C0.775435 12.717 0.902895 12.6124 1.05022 12.6124C1.22056 12.6124 1.35911 12.751 1.35911 12.9213C1.35911 13.0917 1.22056 13.2302 1.05022 13.2302C0.845516 13.2302 0.679556 13.3962 0.679556 13.6009C0.679556 13.8056 0.845516 13.9715 1.05022 13.9715C1.22056 13.9715 1.35911 14.1101 1.35911 14.2804C1.35911 14.4508 1.22056 14.5893 1.05022 14.5893C0.896964 14.5893 0.765451 14.4753 0.744348 14.324C0.742347 14.3097 0.741333 14.295 0.741333 14.2804C0.741333 14.0757 0.575374 13.9098 0.370667 13.9098C0.16596 13.9098 0 14.0757 0 14.2804C0 14.3292 0.00341013 14.3783 0.0101068 14.4264C0.0820409 14.9419 0.529213 15.3306 1.05022 15.3306C1.62933 15.3306 2.10045 14.8595 2.10045 14.2804C2.10045 14.0214 2.006 13.7842 1.85002 13.6009C2.00602 13.4176 2.10045 13.1803 2.10045 12.9213C2.10045 12.3422 1.6293 11.8711 1.05022 11.8711Z" fill="#797979"/>
<path d="M16.8667 7.21094H5.56412C5.20509 7.21094 4.91406 7.56505 4.91406 8.0019C4.91406 8.43875 5.20509 8.79287 5.56412 8.79287H16.8667C17.2257 8.79287 17.5167 8.43875 17.5167 8.0019C17.5167 7.56505 17.2257 7.21094 16.8667 7.21094Z" fill="#797979"/>
<path d="M16.8667 1.27734H5.56412C5.20509 1.27734 4.91406 1.63146 4.91406 2.06831C4.91406 2.50516 5.20509 2.85927 5.56412 2.85927H16.8667C17.2257 2.85927 17.5167 2.50516 17.5167 2.06831C17.5167 1.63146 17.2257 1.27734 16.8667 1.27734Z" fill="#797979"/>
<path d="M16.8667 13.1406H5.56412C5.20509 13.1406 4.91406 13.4947 4.91406 13.9316C4.91406 14.3684 5.20509 14.7226 5.56412 14.7226H16.8667C17.2257 14.7226 17.5167 14.3684 17.5167 13.9316C17.5167 13.4947 17.2257 13.1406 16.8667 13.1406Z" fill="#797979"/>
</svg>
