<svg width="15" height="14" viewBox="0 0 15 14" fill="none" xmlns="http://www.w3.org/2000/svg">
<path d="M7.51759 3.5C5.58559 3.5 4.01758 5.06801 4.01758 7.00002C4.01758 8.93202 5.58559 10.5 7.51759 10.5C9.4496 10.5 11.0176 8.93199 11.0176 6.99998C11.0176 5.06798 9.4496 3.5 7.51759 3.5Z" fill="#F64C35"/>
<path d="M7.51758 0C3.65009 0 0.517578 3.13252 0.517578 7C0.517578 10.8675 3.65009 14 7.51758 14C11.3851 14 14.5176 10.8675 14.5176 7C14.5176 3.13248 11.3851 0 7.51758 0ZM7.51758 12.6C4.42358 12.6 1.91756 10.094 1.91756 7C1.91756 3.90597 4.42358 1.40001 7.51758 1.40001C10.6116 1.40001 13.1176 3.90601 13.1176 7C13.1176 10.094 10.6116 12.6 7.51758 12.6Z" fill="#797979"/>
</svg>
