<svg width="15" height="14" viewBox="0 0 15 14" fill="none" xmlns="http://www.w3.org/2000/svg">
<path d="M11.1461 6.50318C11.0789 6.56803 11.0254 6.64561 10.9885 6.73138C10.9517 6.81716 10.9323 6.90941 10.9315 7.00276C10.9307 7.09611 10.9485 7.18869 10.9838 7.27509C11.0192 7.36149 11.0714 7.43999 11.1374 7.506C11.2034 7.57201 11.2819 7.62421 11.3683 7.65956C11.4547 7.69491 11.5473 7.7127 11.6406 7.71189C11.734 7.71108 11.8262 7.69169 11.912 7.65484C11.9977 7.61799 12.0753 7.56443 12.1402 7.49729L13.2256 6.41178C13.92 5.70132 14.3062 4.74574 14.3005 3.75233C14.2948 2.75892 13.8977 1.80782 13.1952 1.10536C12.4928 0.402908 11.5417 0.00575378 10.5484 6.20267e-05C9.55497 -0.00562972 8.59941 0.3806 7.88897 1.07496L6.80349 2.16046C6.73635 2.22532 6.68279 2.3029 6.64594 2.38867C6.6091 2.47444 6.5897 2.5667 6.58889 2.66005C6.58808 2.7534 6.60587 2.84597 6.64122 2.93238C6.67657 3.01878 6.72877 3.09727 6.79478 3.16329C6.86079 3.2293 6.93928 3.2815 7.02568 3.31685C7.11208 3.3522 7.20466 3.36999 7.298 3.36918C7.39135 3.36837 7.4836 3.34897 7.56937 3.31212C7.65515 3.27528 7.73272 3.22172 7.79757 3.15457L8.88305 2.06907C9.10248 1.84722 9.36359 1.67093 9.65138 1.55033C9.93917 1.42974 10.248 1.36722 10.56 1.36636C10.872 1.36551 11.1811 1.42634 11.4696 1.54536C11.758 1.66438 12.0201 1.83924 12.2408 2.05988C12.4614 2.28053 12.6362 2.54261 12.7553 2.83107C12.8743 3.11952 12.9351 3.42865 12.9343 3.74069C12.9334 4.05273 12.8709 4.36152 12.7503 4.64932C12.6297 4.93712 12.4534 5.19824 12.2316 5.41768L11.1461 6.50318Z" fill="#797979"/>
<path d="M3.44648 7.4978C3.51363 7.43295 3.56719 7.35537 3.60403 7.2696C3.64088 7.18382 3.66027 7.09157 3.66108 6.99822C3.66189 6.90487 3.6441 6.81229 3.60875 6.72589C3.57341 6.63949 3.5212 6.56099 3.45519 6.49498C3.38919 6.42897 3.31069 6.37677 3.22429 6.34142C3.13789 6.30607 3.04532 6.28828 2.95197 6.28909C2.85862 6.2899 2.76637 6.30929 2.6806 6.34614C2.59483 6.38299 2.51725 6.43655 2.4524 6.50369L1.36693 7.5892C0.672582 8.29966 0.286363 9.25524 0.292054 10.2487C0.297746 11.2421 0.69489 12.1932 1.39733 12.8956C2.09977 13.5981 3.05084 13.9952 4.04422 14.0009C5.0376 14.0066 5.99317 13.6204 6.70361 12.926L7.78908 11.8405C7.91714 11.7079 7.988 11.5303 7.9864 11.346C7.9848 11.1617 7.91086 10.9853 7.78052 10.855C7.65017 10.7246 7.47384 10.6507 7.28951 10.6491C7.10518 10.6475 6.92759 10.7183 6.795 10.8464L5.70953 11.9319C5.26465 12.372 4.66368 12.618 4.03795 12.6163C3.41222 12.6146 2.8126 12.3653 2.37014 11.9228C1.92768 11.4803 1.67835 10.8807 1.67664 10.2549C1.67493 9.62918 1.92097 9.02819 2.36101 8.5833L3.44648 7.4978Z" fill="#797979"/>
<path d="M4.62459 9.67145C4.75643 9.80325 4.93521 9.8773 5.12163 9.8773C5.30805 9.8773 5.48684 9.80325 5.61867 9.67145L9.96409 5.32593C10.0312 5.26107 10.0848 5.18349 10.1216 5.09772C10.1585 5.01195 10.1779 4.91969 10.1787 4.82634C10.1795 4.73299 10.1617 4.64042 10.1264 4.55401C10.091 4.46761 10.0388 4.38912 9.9728 4.3231C9.90679 4.25709 9.8283 4.20489 9.7419 4.16954C9.6555 4.13419 9.56292 4.1164 9.46958 4.11721C9.37623 4.11803 9.28398 4.13742 9.1982 4.17427C9.11243 4.21111 9.03486 4.26467 8.97001 4.33182L4.62459 8.67383C4.5588 8.73918 4.50659 8.81689 4.47096 8.9025C4.43533 8.98811 4.41699 9.07992 4.41699 9.17264C4.41699 9.26537 4.43533 9.35718 4.47096 9.44279C4.50659 9.52839 4.5588 9.60611 4.62459 9.67145Z" fill="#797979"/>
</svg>
