<svg width="18" height="16" viewBox="0 0 18 16" fill="none" xmlns="http://www.w3.org/2000/svg">
<path d="M15.3206 0H2.67455C1.19968 0 0 1.19547 0 2.67475V10.5528C0 12.0278 1.19538 13.2275 2.67455 13.2275H15.3249C16.7998 13.2275 17.9995 12.0321 17.9995 10.5528V2.67475C17.9952 1.19977 16.7998 0 15.3206 0Z" fill="#0897FF"/>
<path d="M14.9468 11.25L15.5789 16.0018L11.6875 13.1765L14.9468 11.25Z" fill="#0897FF"/>
<path d="M5.05132 7.70033C5.05132 7.52402 4.99112 7.38642 4.87072 7.27891C4.75032 7.17141 4.53533 7.0725 4.23003 6.9779C3.70544 6.81879 3.30985 6.63388 3.03466 6.41886C2.76376 6.20385 2.62616 5.91143 2.62616 5.54161C2.62616 5.16749 2.78096 4.86648 3.08625 4.62996C3.39155 4.39345 3.78284 4.27734 4.25583 4.27734C4.75892 4.27734 5.16312 4.40635 5.47271 4.66007C5.778 4.91378 5.9285 5.2449 5.9156 5.65772L5.9113 5.67492H5.02982C5.02982 5.44701 4.96102 5.275 4.82342 5.15029C4.68582 5.02989 4.49233 4.96968 4.24723 4.96968C4.02364 4.96968 3.84734 5.02559 3.72694 5.13309C3.60224 5.2406 3.54205 5.37821 3.54205 5.54591C3.54205 5.70072 3.60654 5.82543 3.73984 5.92434C3.87314 6.02324 4.10104 6.12645 4.42783 6.23825C4.92662 6.38016 5.30931 6.56507 5.57161 6.79298C5.8339 7.0209 5.9629 7.32191 5.9629 7.69173C5.9629 8.07876 5.8124 8.38837 5.50711 8.61199C5.20181 8.8356 4.80192 8.9474 4.30313 8.9474C3.81294 8.9474 3.39585 8.827 3.04325 8.58188C2.69066 8.33677 2.52296 7.97555 2.53156 7.49392L2.53586 7.47672H3.41735C3.41735 7.74334 3.49475 7.94115 3.65384 8.07016C3.81294 8.19916 4.02794 8.25937 4.29453 8.25937C4.53963 8.25937 4.72452 8.20776 4.85352 8.10456C4.98682 8.00565 5.05132 7.87234 5.05132 7.70033Z" fill="white"/>
<path d="M8.97706 7.69364H8.99426L10.1595 4.34375H11.3463V8.8848H10.4347V5.78433L10.4175 5.78003L9.29525 8.8848H8.67606L7.55378 5.77573L7.53658 5.78003V8.8891H6.625V4.34375H7.82038L8.97706 7.69364Z" fill="white"/>
<path d="M14.5591 7.70033C14.5591 7.52402 14.4989 7.38642 14.3785 7.27891C14.2581 7.17141 14.0431 7.0725 13.7378 6.9779C13.2133 6.81879 12.8177 6.63388 12.5425 6.41886C12.2716 6.20385 12.134 5.91143 12.134 5.54161C12.134 5.16749 12.2888 4.86648 12.5941 4.62996C12.8994 4.39345 13.2907 4.27734 13.7636 4.27734C14.2667 4.27734 14.6709 4.40635 14.9805 4.66007C15.2858 4.91378 15.4363 5.2449 15.4234 5.65772L15.4191 5.67492H14.5376C14.5376 5.44701 14.4688 5.275 14.3312 5.15029C14.1936 5.02989 14.0001 4.96968 13.755 4.96968C13.5315 4.96968 13.3552 5.02559 13.2348 5.13309C13.1101 5.2406 13.0499 5.37821 13.0499 5.54591C13.0499 5.70072 13.1144 5.82543 13.2477 5.92434C13.381 6.02324 13.6088 6.12645 13.9356 6.23825C14.4344 6.38016 14.8171 6.56507 15.0794 6.79298C15.3417 7.0209 15.4707 7.32191 15.4707 7.69173C15.4707 8.07876 15.3202 8.38837 15.0149 8.61199C14.7096 8.8356 14.3097 8.9474 13.8109 8.9474C13.3208 8.9474 12.9037 8.827 12.5511 8.58188C12.1985 8.33677 12.0308 7.97555 12.0394 7.49392L12.0437 7.47672H12.9295C12.9295 7.74334 13.0069 7.94115 13.166 8.07016C13.3251 8.19916 13.54 8.25937 13.8066 8.25937C14.0517 8.25937 14.2366 8.20776 14.3656 8.10456C14.4946 8.00565 14.5591 7.87234 14.5591 7.70033Z" fill="white"/>
</svg>
