<svg width="10" height="14" viewBox="0 0 10 14" fill="none" xmlns="http://www.w3.org/2000/svg">
<path d="M9.02995 0C8.64336 0 8.32995 0.313408 8.32995 0.699989V6.76656C8.32995 8.43911 6.96915 9.79984 5.29652 9.79984C4.48629 9.79984 3.7246 9.48429 3.15167 8.91142C2.5787 8.3385 2.26323 7.57672 2.26328 6.76651V0.699989C2.26328 0.313408 1.94987 0 1.56328 0C1.17669 0 0.863281 0.313408 0.863281 0.699989V6.76646C0.863235 7.95061 1.3243 9.06392 2.16169 9.90134C2.99903 10.7387 4.11235 11.1998 5.29652 11.1998C7.74111 11.1998 9.72995 9.21106 9.72995 6.76656V0.699989C9.72995 0.313408 9.41653 0 9.02995 0Z" fill="#797979"/>
<path d="M9.02995 12.6016H1.56328C1.17669 12.6016 0.863281 12.915 0.863281 13.3016C0.863281 13.6881 1.17669 14.0015 1.56328 14.0015H9.02995C9.41653 14.0015 9.72995 13.6881 9.72995 13.3016C9.72995 12.915 9.41653 12.6016 9.02995 12.6016Z" fill="#797979"/>
</svg>
