<svg width="19" height="14" viewBox="0 0 19 14" fill="none" xmlns="http://www.w3.org/2000/svg">
<path d="M17.3822 6.21094H6.07975C5.72072 6.21094 5.42969 6.56505 5.42969 7.00189C5.42969 7.43873 5.72072 7.79283 6.07975 7.79283H17.3822C17.7413 7.79283 18.0323 7.43873 18.0323 7.00189C18.0323 6.56505 17.7413 6.21094 17.3822 6.21094Z" fill="#797979"/>
<path d="M17.3822 0.277344H6.07975C5.72072 0.277344 5.42969 0.631451 5.42969 1.06829C5.42969 1.50513 5.72072 1.85924 6.07975 1.85924H17.3822C17.7413 1.85924 18.0323 1.50513 18.0323 1.06829C18.0323 0.631451 17.7413 0.277344 17.3822 0.277344Z" fill="#797979"/>
<path d="M17.3822 12.1406H6.07975C5.72072 12.1406 5.42969 12.4947 5.42969 12.9316C5.42969 13.3684 5.72072 13.7225 6.07975 13.7225H17.3822C17.7413 13.7225 18.0323 13.3684 18.0323 12.9316C18.0323 12.4947 17.7413 12.1406 17.3822 12.1406Z" fill="#797979"/>
<path d="M1.58364 2.13556C2.17349 2.13556 2.65166 1.6575 2.65166 1.06778C2.65166 0.478062 2.17349 0 1.58364 0C0.993793 0 0.515625 0.478062 0.515625 1.06778C0.515625 1.6575 0.993793 2.13556 1.58364 2.13556Z" fill="#797979"/>
<path d="M1.58364 8.06916C2.17349 8.06916 2.65166 7.59109 2.65166 7.00137C2.65166 6.41166 2.17349 5.93359 1.58364 5.93359C0.993793 5.93359 0.515625 6.41166 0.515625 7.00137C0.515625 7.59109 0.993793 8.06916 1.58364 8.06916Z" fill="#797979"/>
<path d="M1.58364 13.9988C2.17349 13.9988 2.65166 13.5208 2.65166 12.9311C2.65166 12.3413 2.17349 11.8633 1.58364 11.8633C0.993793 11.8633 0.515625 12.3413 0.515625 12.9311C0.515625 13.5208 0.993793 13.9988 1.58364 13.9988Z" fill="#797979"/>
</svg>
