<svg width="12" height="12" viewBox="0 0 12 12" fill="none" xmlns="http://www.w3.org/2000/svg">
<path fill-rule="evenodd" clip-rule="evenodd" d="M9.73955 2.27678C8.74755 1.28318 7.42595 0.735975 6.01955 0.734375C3.12195 0.734375 0.76195 3.09277 0.76195 5.99197C0.76195 6.91838 1.00355 7.82398 1.46435 8.62078L0.71875 11.3456L3.50595 10.6144C4.27395 11.0336 5.13795 11.2544 6.01795 11.2544H6.01955C8.91715 11.2544 11.2755 8.89598 11.2771 5.99678C11.2787 4.59198 10.7332 3.27038 9.73955 2.27678ZM6.02115 10.3664H6.01955C5.23555 10.3664 4.46595 10.1552 3.79555 9.75678L3.63555 9.66238L1.98115 10.096L2.42275 8.48318L2.31875 8.31838C1.88195 7.62238 1.64995 6.81917 1.64995 5.99197C1.65155 3.58237 3.61155 1.62238 6.02275 1.62238C7.19075 1.62238 8.28675 2.07837 9.11235 2.90398C9.93795 3.72957 10.3923 4.82877 10.3907 5.99517C10.3907 8.40637 8.42915 10.3664 6.02115 10.3664ZM8.41795 7.09278C8.28675 7.02718 7.64035 6.70878 7.52035 6.66558C7.40035 6.62238 7.31235 6.59998 7.22435 6.73117C7.13635 6.86238 6.88515 7.15838 6.80835 7.24638C6.73155 7.33438 6.65475 7.34558 6.52355 7.27998C6.39235 7.21438 5.96835 7.07518 5.46755 6.62717C5.07715 6.27838 4.81315 5.84798 4.73635 5.71678C4.65955 5.58558 4.72835 5.51357 4.79395 5.44797C4.85315 5.38877 4.92515 5.29438 4.99075 5.21758C5.05635 5.14078 5.07875 5.08638 5.12195 4.99838C5.16515 4.91038 5.14435 4.83358 5.11075 4.76797C5.07715 4.70237 4.81475 4.05597 4.70595 3.79198C4.59875 3.53597 4.49155 3.57117 4.40995 3.56637C4.33315 3.56317 4.24515 3.56158 4.15875 3.56158C4.07075 3.56158 3.92835 3.59517 3.80835 3.72637C3.68835 3.85757 3.34915 4.17597 3.34915 4.82237C3.34915 5.46877 3.81955 6.09438 3.88515 6.18078C3.95075 6.26878 4.81155 7.59518 6.12995 8.16478C6.44355 8.30078 6.68835 8.38078 6.87875 8.44158C7.19395 8.54238 7.48035 8.52798 7.70595 8.49438C7.95875 8.45598 8.48355 8.17598 8.59235 7.87038C8.70115 7.56318 8.70115 7.30078 8.66915 7.24638C8.63715 7.19198 8.54915 7.15998 8.41795 7.09278Z" fill="white"/>
</svg>
