<svg width="16" height="16" viewBox="0 0 16 16" fill="none" xmlns="http://www.w3.org/2000/svg">
<path d="M8 16C3.5824 16 0 12.4176 0 8C0 3.5824 3.5824 0 8 0C12.4176 0 16 3.5824 16 8C16 12.4176 12.4176 16 8 16Z" fill="#25D366"/>
<path fill-rule="evenodd" clip-rule="evenodd" d="M11.7396 4.27678C10.7476 3.28318 9.42595 2.73598 8.01955 2.73438C5.12195 2.73438 2.76195 5.09277 2.76195 7.99197C2.76195 8.91838 3.00355 9.82398 3.46435 10.6208L2.71875 13.3456L5.50595 12.6144C6.27395 13.0336 7.13795 13.2544 8.01795 13.2544H8.01955C10.9171 13.2544 13.2755 10.896 13.2771 7.99678C13.2787 6.59198 12.7332 5.27038 11.7396 4.27678ZM8.02115 12.3664H8.01955C7.23555 12.3664 6.46595 12.1552 5.79555 11.7568L5.63555 11.6624L3.98115 12.096L4.42275 10.4832L4.31875 10.3184C3.88195 9.62238 3.64995 8.81917 3.64995 7.99197C3.65155 5.58237 5.61155 3.62238 8.02275 3.62238C9.19075 3.62238 10.2867 4.07837 11.1123 4.90398C11.9379 5.72957 12.3923 6.82877 12.3907 7.99517C12.3907 10.4064 10.4291 12.3664 8.02115 12.3664ZM10.4179 9.09278C10.2867 9.02718 9.64035 8.70878 9.52035 8.66558C9.40035 8.62238 9.31235 8.59998 9.22435 8.73117C9.13635 8.86238 8.88515 9.15838 8.80835 9.24638C8.73155 9.33438 8.65475 9.34558 8.52355 9.27998C8.39235 9.21438 7.96835 9.07518 7.46755 8.62717C7.07715 8.27838 6.81315 7.84798 6.73635 7.71678C6.65955 7.58558 6.72835 7.51357 6.79395 7.44797C6.85315 7.38877 6.92515 7.29438 6.99075 7.21758C7.05635 7.14078 7.07875 7.08638 7.12195 6.99838C7.16515 6.91038 7.14435 6.83358 7.11075 6.76797C7.07715 6.70237 6.81475 6.05597 6.70595 5.79198C6.59875 5.53597 6.49155 5.57117 6.40995 5.56637C6.33315 5.56317 6.24515 5.56158 6.15875 5.56158C6.07075 5.56158 5.92835 5.59517 5.80835 5.72637C5.68835 5.85757 5.34915 6.17597 5.34915 6.82237C5.34915 7.46877 5.81955 8.09438 5.88515 8.18078C5.95075 8.26878 6.81155 9.59518 8.12995 10.1648C8.44355 10.3008 8.68835 10.3808 8.87875 10.4416C9.19395 10.5424 9.48035 10.528 9.70595 10.4944C9.95875 10.456 10.4835 10.176 10.5923 9.87038C10.7011 9.56318 10.7011 9.30078 10.6691 9.24638C10.6371 9.19198 10.5491 9.15998 10.4179 9.09278Z" fill="white"/>
</svg>
