<svg width="22" height="22" viewBox="0 0 22 22" fill="none" xmlns="http://www.w3.org/2000/svg">
<path d="M9.1665 17.4167C9.1665 18.425 9.9915 19.25 10.9998 19.25C12.0082 19.25 12.8332 18.425 12.8332 17.4167C12.8332 16.4083 12.0082 15.5833 10.9998 15.5833C9.9915 15.5833 9.1665 16.4083 9.1665 17.4167Z" fill="#333333"/>
<path d="M9.1665 4.58464C9.1665 5.59297 9.9915 6.41797 10.9998 6.41797C12.0082 6.41797 12.8332 5.59297 12.8332 4.58464C12.8332 3.5763 12.0082 2.7513 10.9998 2.7513C9.9915 2.7513 9.1665 3.5763 9.1665 4.58464Z" fill="#333333"/>
<path d="M9.1665 10.9987C9.1665 12.007 9.9915 12.832 10.9998 12.832C12.0082 12.832 12.8332 12.007 12.8332 10.9987C12.8332 9.99036 12.0082 9.16537 10.9998 9.16537C9.9915 9.16537 9.1665 9.99037 9.1665 10.9987Z" fill="#333333"/>
</svg>
