<svg width="16" height="17" viewBox="0 0 16 17" fill="none" xmlns="http://www.w3.org/2000/svg">
<path d="M13.5998 2.10584C13.3591 2.10942 13.1202 2.14855 12.8909 2.22195C12.7748 1.46417 11.9437 0.889724 10.8926 0.889724C10.5739 0.879188 10.2563 0.931089 9.95758 1.0425C9.76761 0.707961 9.48773 0.43332 9.14966 0.249703C8.81159 0.0660863 8.42885 -0.0191639 8.0448 0.00361325C7.70935 -0.0113136 7.37518 0.0541005 7.07011 0.194411C6.76504 0.334721 6.4979 0.545869 6.29092 0.81028C5.94148 0.603159 5.54211 0.495395 5.13592 0.498613C4.64922 0.466407 4.16929 0.626264 3.79912 0.943881C3.42895 1.2615 3.19803 1.71157 3.15592 2.1975V2.75361C2.50814 2.99806 0.644249 3.85361 0.15536 5.71139C-0.333529 7.56917 0.363138 10.6003 1.79925 12.9103C2.76467 14.4154 3.98473 15.7409 5.4048 16.8275C5.49908 16.8955 5.61247 16.9319 5.72869 16.9314H12.0476C12.1692 16.9301 12.2872 16.8893 12.3837 16.8153C13.4811 15.804 14.2747 14.5067 14.6754 13.0692C15.3683 11.1764 15.692 9.16828 15.6287 7.15361V3.7925C15.5791 3.30152 15.3387 2.84964 14.9592 2.53417C14.5798 2.21871 14.0916 2.06489 13.5998 2.10584ZM14.5287 7.15361C14.5954 9.05816 14.2902 10.9575 13.6304 12.7453C13.2846 13.9019 12.6687 14.9596 11.8337 15.8314H5.88758C4.64453 14.8476 3.57106 13.6667 2.7098 12.3358C1.26147 9.97695 0.876471 7.30639 1.19425 5.98639C1.36086 5.52894 1.62151 5.11149 1.95939 4.76098C2.29728 4.41046 2.70488 4.13467 3.15592 3.95139V8.62639C3.15592 8.77226 3.21386 8.91216 3.31701 9.0153C3.42015 9.11844 3.56005 9.17639 3.70592 9.17639C3.85178 9.17639 3.99168 9.11844 4.09482 9.0153C4.19797 8.91216 4.25592 8.77226 4.25592 8.62639V2.1975C4.25592 1.91028 4.61647 1.58639 5.14814 1.58639C5.6798 1.58639 6.05869 1.90417 6.05869 2.1975V5.69306H7.15869V1.5375C7.15869 1.36639 7.51314 1.10361 8.05092 1.10361C8.58869 1.10361 8.98592 1.39695 8.98592 1.56195V5.7725H10.0859V2.26472L10.1898 2.19139C10.4055 2.05613 10.6565 1.98806 10.9109 1.99584C11.4792 1.99584 11.8276 2.26472 11.8276 2.41139V6.38361H12.9337V3.4075C13.1352 3.27048 13.3745 3.19997 13.6181 3.20584C14.1437 3.20584 14.547 3.5175 14.547 3.78028L14.5287 7.15361Z" fill="#333333"/>
</svg>
