<svg width="454" height="303" viewBox="0 0 454 303" fill="none" xmlns="http://www.w3.org/2000/svg">
<path d="M403.727 91.0662L397.934 119.154L394.205 115.512L387.861 120.045L383.013 114.015L372.141 121.93L362.849 106.374L352.486 112.452L348.375 106.78L335.215 114.203L331.257 105.713L340.482 60.9844L389.938 71.2076L403.727 91.0662Z" fill="#EBEBEB"/>
<path d="M389.938 71.207L403.727 91.0657L386.572 87.5205L389.938 71.207Z" fill="#DBDBDB"/>
<path d="M396.699 124.763L388.206 165.971L321.589 152.203L330.022 111.328L333.981 119.812L347.147 112.389L351.251 118.061L361.62 111.989L370.906 127.545L381.784 119.63L386.626 125.654L392.976 121.127L396.699 124.763Z" fill="#EBEBEB"/>
<path d="M301.353 119.935L233.465 124.14L228.071 36.9004L278.484 33.7734L296.989 49.3173L301.353 119.935Z" fill="#EBEBEB"/>
<path d="M278.484 33.7734L296.989 49.3173L279.507 50.4021L278.484 33.7734Z" fill="#DBDBDB"/>
<path d="M259.688 92.475L259.422 90.5055C258.738 86.4271 259.851 81.8639 263.393 77.0947C266.589 72.8527 268.32 69.8227 268.126 66.3806C267.908 62.5022 265.336 60.054 260.548 60.2479C257.811 60.3902 255.183 61.3624 253.011 63.0355L250.923 58.3511C253.344 56.3816 257.581 54.9272 261.607 54.7151C270.342 54.2303 274.591 59.4056 274.924 65.1808C275.215 70.3499 272.539 74.2344 269.137 78.7733C266.014 82.9123 264.991 86.3241 265.433 90.1843L265.62 92.1599L259.688 92.475ZM258.611 103.207C258.453 100.395 260.239 98.3108 262.896 98.1653C265.554 98.0199 267.491 99.8864 267.648 102.704C267.793 105.365 266.165 107.51 263.356 107.667C260.675 107.819 258.738 105.868 258.586 103.207H258.611Z" fill="#DBDBDB"/>
<path d="M89.8799 77.6357L83.0517 74.5391L82.1014 76.6298C81.961 76.9285 81.7421 77.1834 81.468 77.3671C81.1939 77.5507 80.8751 77.6561 80.5457 77.6721C80.1704 77.6844 79.7964 77.7208 79.4258 77.7812C79.1005 77.8295 78.7682 77.7885 78.4643 77.6626C78.1605 77.5367 77.8965 77.3305 77.7006 77.0661L76.3628 75.1935L70.2671 79.5689L71.6049 81.4414C71.7909 81.7117 71.9005 82.0273 71.9218 82.3549C71.9431 82.6824 71.8754 83.0097 71.7259 83.3018C71.5534 83.6351 71.3978 83.9769 71.2598 84.326C71.1399 84.6337 70.9385 84.903 70.6772 85.1048C70.4159 85.3066 70.1046 85.4333 69.7768 85.4713L67.4947 85.6955L68.2271 93.1675L70.5213 92.9372C70.8504 92.9109 71.1803 92.9748 71.4757 93.1222C71.7712 93.2695 72.0209 93.4947 72.1981 93.7735C72.295 93.9311 72.3979 94.0826 72.5068 94.234C72.6158 94.3855 72.7247 94.531 72.8398 94.6764C73.0487 94.9309 73.183 95.2383 73.2279 95.5646C73.2728 95.8909 73.2264 96.2232 73.094 96.5247L72.1376 98.6336L78.9718 101.736L79.9222 99.6335C80.0638 99.335 80.2841 99.0808 80.5592 98.8982C80.8344 98.7156 81.1541 98.6115 81.4839 98.5972C81.8549 98.5819 82.2248 98.5455 82.5917 98.4882C82.917 98.4398 83.2493 98.4808 83.5531 98.6067C83.857 98.7327 84.1209 98.9388 84.3169 99.2032L85.6547 101.076L91.7564 96.7005L90.4186 94.8279C90.2268 94.5601 90.1138 94.2439 90.0924 93.915C90.071 93.5862 90.1421 93.258 90.2976 92.9675C90.4662 92.6361 90.6177 92.2963 90.7516 91.9494C90.868 91.6394 91.0684 91.368 91.3304 91.1656C91.5924 90.9633 91.9055 90.8381 92.2346 90.8041L94.5289 90.5738L93.7903 83.1018L91.4961 83.3261C91.1692 83.3548 90.8406 83.2925 90.5468 83.146C90.2531 82.9994 90.0055 82.7744 89.8315 82.4958C89.7286 82.3383 89.6257 82.1868 89.5167 82.0353C89.4077 81.8838 89.2988 81.7323 89.1838 81.5929C88.9763 81.3353 88.8429 81.0259 88.7981 80.6981C88.7533 80.3702 88.7988 80.0364 88.9295 79.7325L89.8799 77.6357ZM86.0058 84.5502C86.7136 85.5391 87.1127 86.716 87.1524 87.9319C87.1921 89.1479 86.8707 90.3483 86.2289 91.3814C85.5871 92.4145 84.6537 93.2339 83.5466 93.7359C82.4396 94.2379 81.2088 94.3999 80.0098 94.2016C78.8108 94.0032 77.6974 93.4533 76.8106 92.6215C75.9238 91.7897 75.3033 90.7132 75.0276 89.5283C74.7519 88.3434 74.8334 87.1033 75.2618 85.9648C75.6902 84.8263 76.4462 83.8405 77.4342 83.1321C78.7588 82.1825 80.4059 81.7985 82.0133 82.0644C83.6207 82.3303 85.0568 83.2244 86.0058 84.5502Z" fill="#EBEBEB"/>
<path d="M398.539 176.777L393.987 179.407L394.792 180.801C394.913 181.001 394.972 181.232 394.965 181.465C394.957 181.698 394.883 181.924 394.75 182.116C394.611 182.334 394.478 182.559 394.356 182.795C394.257 183.004 394.1 183.18 393.904 183.303C393.707 183.425 393.48 183.489 393.249 183.486H391.651V188.752H393.261C393.492 188.749 393.719 188.813 393.916 188.935C394.112 189.058 394.269 189.234 394.369 189.443C394.49 189.679 394.623 189.903 394.762 190.121C394.895 190.313 394.969 190.539 394.977 190.773C394.985 191.006 394.925 191.236 394.804 191.436L393.999 192.83L398.551 195.46L399.363 194.06C399.48 193.862 399.65 193.7 399.855 193.593C400.059 193.486 400.289 193.438 400.519 193.454H401.294C401.523 193.439 401.753 193.487 401.957 193.594C402.161 193.701 402.332 193.862 402.45 194.06L403.261 195.466L407.807 192.836L407.002 191.436C406.887 191.235 406.831 191.006 406.84 190.775C406.848 190.544 406.921 190.32 407.05 190.128C407.19 189.909 407.323 189.679 407.444 189.449C407.543 189.24 407.7 189.064 407.897 188.941C408.093 188.819 408.32 188.755 408.552 188.758H410.162V183.492H408.54C408.308 183.495 408.081 183.431 407.885 183.309C407.688 183.186 407.531 183.01 407.432 182.801C407.311 182.571 407.177 182.34 407.038 182.122C406.909 181.93 406.836 181.706 406.828 181.475C406.819 181.243 406.875 181.014 406.99 180.813L407.795 179.413L403.249 176.783L402.438 178.165C402.32 178.364 402.15 178.525 401.946 178.633C401.741 178.74 401.511 178.788 401.282 178.771H400.894H400.507C400.276 178.787 400.046 178.738 399.841 178.631C399.636 178.524 399.464 178.363 399.344 178.165L398.539 176.777ZM400.894 181.807C401.747 181.806 402.581 182.058 403.291 182.532C404.001 183.005 404.554 183.679 404.881 184.468C405.208 185.257 405.294 186.125 405.128 186.962C404.962 187.8 404.551 188.569 403.948 189.173C403.345 189.777 402.576 190.188 401.74 190.354C400.903 190.52 400.036 190.434 399.248 190.107C398.46 189.78 397.787 189.226 397.314 188.515C396.841 187.805 396.589 186.97 396.59 186.116C396.589 185.549 396.7 184.989 396.916 184.465C397.132 183.942 397.449 183.466 397.849 183.065C398.248 182.664 398.723 182.347 399.246 182.13C399.768 181.913 400.328 181.801 400.894 181.801V181.807Z" fill="#EBEBEB"/>
<path d="M103.694 55.2437L99.5229 58.4433L100.485 59.722C100.629 59.9042 100.717 60.1238 100.74 60.3548C100.762 60.5858 100.718 60.8183 100.612 61.0249C100.497 61.2608 100.396 61.5037 100.31 61.7521C100.235 61.971 100.101 62.1646 99.9224 62.3113C99.7438 62.458 99.5279 62.5519 99.2989 62.5823L97.7008 62.7884L98.3788 68.006L99.9769 67.8C100.209 67.7675 100.447 67.8015 100.661 67.898C100.875 67.9945 101.058 68.1496 101.188 68.3454C101.333 68.5562 101.491 68.7585 101.66 68.9514C101.816 69.1231 101.919 69.336 101.958 69.5648C101.996 69.7936 101.969 70.0287 101.878 70.2422L101.272 71.7329L106.115 73.7509L106.72 72.2601C106.81 72.0463 106.958 71.862 107.148 71.7281C107.337 71.5942 107.56 71.5161 107.792 71.5026L108.179 71.4602L108.56 71.3996C108.784 71.3574 109.016 71.3774 109.229 71.4575C109.443 71.5376 109.63 71.6748 109.771 71.8541L110.758 73.1449L114.929 69.9452L113.954 68.6666C113.813 68.4818 113.727 68.2615 113.704 68.0302C113.682 67.799 113.724 67.566 113.827 67.3576C113.942 67.1233 114.043 66.8825 114.13 66.6365C114.204 66.4176 114.338 66.2239 114.517 66.0773C114.696 65.9306 114.911 65.8367 115.14 65.8062L116.739 65.6002L116.061 60.3825L114.462 60.5886C114.23 60.6217 113.994 60.5886 113.78 60.4932C113.566 60.3978 113.383 60.244 113.252 60.0492C113.1 59.8311 112.943 59.625 112.774 59.4432C112.633 59.2679 112.541 59.0577 112.509 58.8349C112.477 58.6121 112.506 58.3847 112.592 58.1767L113.197 56.6859L108.355 54.668L107.749 56.1587C107.658 56.3718 107.51 56.5553 107.321 56.689C107.131 56.8228 106.909 56.9014 106.678 56.9162L106.29 56.9526L105.933 56.9647C105.709 57.007 105.478 56.9869 105.265 56.9068C105.051 56.8267 104.864 56.6895 104.723 56.5102L103.694 55.2437ZM106.678 59.928C107.521 59.8195 108.378 59.9635 109.139 60.3416C109.901 60.7198 110.533 61.3154 110.957 62.0531C111.381 62.7909 111.577 63.6378 111.521 64.487C111.465 65.3362 111.158 66.1497 110.641 66.8249C110.123 67.5 109.418 68.0066 108.613 68.2807C107.808 68.5547 106.94 68.5841 106.118 68.3649C105.297 68.1457 104.559 67.6879 103.997 67.0492C103.435 66.4105 103.075 65.6195 102.961 64.776C102.886 64.2132 102.922 63.6409 103.068 63.0921C103.214 62.5433 103.467 62.0288 103.812 61.5782C104.158 61.1277 104.589 60.7499 105.081 60.4667C105.572 60.1835 106.115 60.0005 106.678 59.928Z" fill="#EBEBEB"/>
<path d="M72.531 191.969C72.7585 186.11 72.6776 180.244 72.2889 174.395C71.4228 162.315 69.5826 150.326 66.7864 138.544C65.2489 131.914 63.3602 125.393 61.3869 118.879C61.3263 118.679 61.0115 118.733 61.066 118.939C67.1617 141.907 72.1618 165.601 71.8168 189.478C71.7199 196.144 70.9451 202.719 70.3155 209.361C70.3155 209.536 70.5879 209.609 70.6303 209.427C71.8833 203.725 72.295 197.774 72.531 191.969Z" fill="#EBEBEB"/>
<path d="M61.066 118.922C61.066 118.922 51.8407 142.374 53.9049 147.864C55.9691 153.355 60.2307 154.53 60.2307 154.53C60.2307 154.53 54.5829 162.602 58.5297 170.171C62.4764 177.74 71.2417 177.383 71.847 185.964C71.8288 186.006 72.3131 150.125 61.066 118.922Z" fill="#EBEBEB"/>
<path d="M70.824 171.189C70.8389 171.15 70.8389 171.107 70.824 171.068C69.6132 155.057 66.6122 139.232 61.8772 123.891C61.8772 123.848 61.7864 123.86 61.7985 123.891C63.6266 130.759 65.2408 137.655 66.6411 144.58C65.4009 143.403 63.8857 142.557 62.2343 142.119C62.2343 142.119 62.1859 142.156 62.2343 142.168C63.9692 142.804 65.529 143.842 66.7864 145.198C67.0528 146.561 67.3191 147.919 67.5673 149.282C65.5031 146.973 62.6459 145.828 59.7827 144.737C59.7762 144.74 59.7707 144.745 59.7668 144.751C59.763 144.756 59.7609 144.763 59.7609 144.77C59.7609 144.778 59.763 144.784 59.7668 144.79C59.7707 144.796 59.7762 144.801 59.7827 144.804C62.767 146.016 65.7331 147.579 67.755 150.155C68.4571 154.045 69.0746 157.95 69.6073 161.869C68.1168 160.306 66.2054 159.209 64.1048 158.711C64.0382 158.711 64.0019 158.79 64.0685 158.808C66.2263 159.445 68.1529 160.695 69.6133 162.408H69.6496C69.8312 163.782 70.0048 165.161 70.1702 166.547C69.0172 165.57 67.7154 164.785 66.3143 164.22C66.2779 164.22 66.2537 164.262 66.3143 164.275C67.7442 164.895 69.0536 165.762 70.1823 166.838C70.1823 166.838 70.2126 166.838 70.2308 166.838C70.3821 168.153 70.5334 169.468 70.6666 170.783C68.588 168.267 65.8903 166.337 62.8396 165.184C62.8268 165.184 62.8145 165.189 62.8054 165.198C62.7963 165.207 62.7912 165.219 62.7912 165.232C62.7912 165.245 62.7963 165.257 62.8054 165.266C62.8145 165.275 62.8268 165.281 62.8396 165.281C65.852 166.61 68.4981 168.65 70.5516 171.225C70.5742 171.254 70.6047 171.275 70.6392 171.285C70.6737 171.296 70.7107 171.296 70.7453 171.286C70.9451 173.304 71.1267 175.322 71.2719 177.346C71.2719 177.376 71.3204 177.376 71.3204 177.346C71.163 175.314 70.9975 173.262 70.824 171.189Z" fill="white"/>
<path d="M63.4087 139.811C61.7379 138.77 59.8293 138.174 57.8638 138.078C57.8542 138.078 57.8449 138.082 57.8381 138.089C57.8313 138.096 57.8275 138.105 57.8275 138.114C57.8275 138.124 57.8313 138.133 57.8381 138.14C57.8449 138.147 57.8542 138.151 57.8638 138.151C59.7641 138.512 61.6083 139.123 63.3481 139.969C63.4208 139.987 63.4753 139.86 63.4087 139.811Z" fill="white"/>
<path d="M64.5285 164.639C63.2444 163.901 61.8305 163.418 60.3638 163.215C60.3154 163.215 60.3094 163.282 60.3638 163.294C61.796 163.581 63.1814 164.067 64.4801 164.736C64.5346 164.766 64.583 164.669 64.5285 164.639Z" fill="white"/>
<path d="M96.7928 148.271C92.8901 150.972 89.3059 154.107 86.1087 157.616C82.8114 161.331 80.2681 165.653 78.6207 170.342C75.1145 180.109 73.2292 190.385 73.0395 200.763C72.9219 206.51 73.4724 212.251 74.68 217.87C74.6898 217.911 74.7149 217.947 74.7501 217.969C74.7853 217.992 74.828 218.001 74.8692 217.993C74.9104 217.985 74.9471 217.962 74.9716 217.927C74.9961 217.893 75.0065 217.851 75.0008 217.81C73.4982 207.893 73.5554 197.802 75.1703 187.903C76.7563 178.207 79.2442 167.651 85.4065 159.767C88.76 155.47 92.9429 152.095 97.0773 148.604C97.2952 148.41 97.0168 148.113 96.7928 148.271Z" fill="#EBEBEB"/>
<path d="M74.3955 193.771C76.6169 190.174 79.2275 186.833 82.18 183.808C86.7987 179.185 90.685 175.9 91.2903 172.846C91.8956 169.792 86.6656 167.537 86.6656 167.537C86.6656 167.537 93.0518 168.689 94.8013 166.004C96.5507 163.319 97.3921 147.77 97.3921 147.77C97.3921 147.77 85.7697 156.078 80.352 167.725C74.9342 179.372 74.3955 193.771 74.3955 193.771Z" fill="#EBEBEB"/>
<path d="M93.2213 162.353C92.456 162.239 91.6802 162.213 90.909 162.275C90.8182 162.275 90.8242 162.432 90.909 162.438C91.6717 162.438 92.4405 162.402 93.2032 162.438C93.2119 162.436 93.2198 162.431 93.226 162.425C93.2323 162.418 93.2366 162.41 93.2385 162.401C93.2404 162.393 93.2397 162.383 93.2367 162.375C93.2337 162.366 93.2284 162.359 93.2213 162.353Z" fill="white"/>
<path d="M84.8738 177.438C83.6465 177.463 82.4333 177.705 81.2902 178.153C81.2902 178.153 81.2902 178.213 81.2902 178.207C82.5009 177.922 83.6692 177.807 84.8677 177.601C84.8834 177.594 84.8968 177.583 84.9064 177.569C84.916 177.555 84.9214 177.538 84.9221 177.521C84.9227 177.504 84.9185 177.487 84.91 177.472C84.9014 177.458 84.8889 177.445 84.8738 177.438Z" fill="white"/>
<path d="M82.3677 172.227C81.8582 172.223 81.3494 172.267 80.8483 172.36C80.8391 172.364 80.8311 172.37 80.8254 172.378C80.8198 172.386 80.8167 172.396 80.8167 172.406C80.8167 172.415 80.8198 172.425 80.8254 172.433C80.8311 172.441 80.8391 172.448 80.8483 172.451C81.3557 172.48 81.8648 172.458 82.3677 172.384C82.3886 172.384 82.4086 172.376 82.4234 172.361C82.4381 172.347 82.4464 172.326 82.4464 172.306C82.4464 172.285 82.4381 172.265 82.4234 172.25C82.4086 172.235 82.3886 172.227 82.3677 172.227Z" fill="white"/>
<path d="M40.3213 164.765C44.1041 166.049 47.7291 167.758 51.1265 169.861C54.6516 172.104 57.7085 175.01 60.1278 178.418C65.218 185.511 69.1153 193.39 71.6654 201.743C73.0877 206.368 73.9653 211.143 74.2805 215.972C74.2738 216.003 74.2567 216.031 74.2319 216.051C74.2071 216.071 74.1762 216.082 74.1443 216.082C74.1124 216.082 74.0814 216.071 74.0566 216.051C74.0318 216.031 74.0147 216.003 74.0081 215.972C72.9395 207.6 70.5661 199.447 66.9741 191.811C63.445 184.327 58.9958 176.364 52.1918 171.407C48.4872 168.71 44.3225 166.94 40.1699 165.074C39.952 165.001 40.1033 164.692 40.3213 164.765Z" fill="#EBEBEB"/>
<path d="M68.9535 196.404C66.3236 194.008 63.4391 191.909 60.3517 190.144C55.5454 187.471 51.641 185.714 50.4485 183.381C49.256 181.048 52.9667 178.018 52.9667 178.018C52.9667 178.018 48.0635 180.442 46.0295 178.654C43.9956 176.866 39.722 164.504 39.722 164.504C39.722 164.504 51.0478 168.534 58.112 176.709C65.1762 184.884 68.9535 196.404 68.9535 196.404Z" fill="#EBEBEB"/>
<path d="M59.5527 185.025C58.4392 184.947 57.3211 185.085 56.2597 185.431C56.2597 185.431 56.2597 185.486 56.2597 185.479C57.3425 185.294 58.4366 185.18 59.5345 185.14C59.6132 185.14 59.6314 185.031 59.5527 185.025Z" fill="white"/>
<path d="M49.6737 172.058C49.1657 172.016 48.6545 172.045 48.1543 172.142C48.0998 172.142 48.118 172.239 48.1543 172.233C48.6567 172.179 49.147 172.197 49.6434 172.185C49.6588 172.185 49.674 172.181 49.6863 172.171C49.6986 172.162 49.7072 172.149 49.7108 172.134C49.7144 172.119 49.7126 172.103 49.7059 172.089C49.6991 172.075 49.6877 172.064 49.6737 172.058Z" fill="white"/>
<path d="M83.5602 231.604H57.997L61.6411 204.873L62.5733 198.02H78.9839L79.9161 204.873L83.5602 231.604Z" fill="#DBDBDB"/>
<path d="M79.9161 204.873H61.6411L62.5733 198.02H78.9839L79.9161 204.873Z" fill="#C7C7C7"/>
<path d="M81.3265 195.641H60.2246V201.446H81.3265V195.641Z" fill="#DBDBDB"/>
<path d="M41.7438 231.6L87.7552 231.454L133.767 231.4L225.789 231.297L317.812 231.4L363.824 231.454L409.835 231.6L363.824 231.751L317.812 231.8L225.789 231.903L133.767 231.8L87.7552 231.745L41.7438 231.6Z" fill="#263238"/>
<path d="M227 276.765C322.862 276.765 400.573 268.24 400.573 257.724C400.573 247.208 322.862 238.684 227 238.684C131.138 238.684 53.4267 247.208 53.4267 257.724C53.4267 268.24 131.138 276.765 227 276.765Z" fill="#EBEBEB"/>
<path d="M186.594 254.573C185.184 255.052 144.741 255.179 143.192 254.222C142.586 253.858 142.241 247.962 141.981 240.823C141.926 239.284 141.884 237.69 141.848 236.078L138.621 214.48L165.662 214.305L168.21 235.909L168.107 240.66C168.107 240.66 183.616 247.538 185.202 248.786C186.788 250.034 188.004 254.095 186.594 254.573Z" fill="#EB9481"/>
<path d="M186.594 254.575C185.184 255.054 144.741 255.181 143.192 254.223C142.477 253.775 142.09 245.164 141.872 236.08L168.18 235.91L168.077 240.661C168.077 240.661 183.585 247.539 185.171 248.788C186.757 250.036 188.004 254.096 186.594 254.575Z" fill="white"/>
<path d="M186.594 254.574C185.184 255.053 144.741 255.18 143.192 254.222C142.586 253.859 142.241 247.962 141.981 240.824L168.053 240.66C168.053 240.66 183.561 247.538 185.147 248.787C186.733 250.035 188.004 254.095 186.594 254.574Z" fill="#A6A6A6"/>
<path d="M186.007 252.954C179.227 252.809 151.866 252.875 145.153 253.251C145.098 253.251 145.098 253.287 145.153 253.293C151.872 253.578 179.233 253.293 186.007 253.063C186.152 253.057 186.152 252.954 186.007 252.954Z" fill="#263238"/>
<path d="M182.562 247.337C181.809 247.32 181.059 247.46 180.362 247.748C179.665 248.036 179.035 248.466 178.513 249.01C177.56 249.981 177.022 251.285 177.012 252.646C177.012 252.688 177.084 252.688 177.09 252.646C177.315 251.305 177.968 250.073 178.949 249.134C179.931 248.195 181.19 247.598 182.538 247.434C182.551 247.437 182.565 247.435 182.576 247.429C182.587 247.422 182.596 247.411 182.599 247.398C182.602 247.385 182.6 247.371 182.593 247.36C182.586 247.349 182.575 247.341 182.562 247.337Z" fill="#263238"/>
<path d="M170.704 241.325C167.992 241.295 164.85 242.264 163.168 244.494C163.107 244.579 163.228 244.67 163.307 244.628C165.676 243.376 168.172 242.38 170.752 241.658C170.792 241.647 170.827 241.622 170.85 241.587C170.872 241.553 170.881 241.511 170.875 241.47C170.869 241.429 170.849 241.392 170.817 241.365C170.786 241.338 170.745 241.324 170.704 241.325Z" fill="#263238"/>
<path d="M172.811 242.133C170.093 242.133 166.951 243.078 165.274 245.302C165.208 245.393 165.329 245.484 165.413 245.442C167.779 244.185 170.274 243.188 172.853 242.466C172.892 242.455 172.926 242.431 172.949 242.397C172.972 242.363 172.981 242.322 172.976 242.281C172.971 242.241 172.952 242.203 172.921 242.176C172.891 242.149 172.851 242.133 172.811 242.133Z" fill="#263238"/>
<path d="M174.905 242.945C172.193 242.945 169.051 243.885 167.369 246.115C167.308 246.2 167.429 246.29 167.508 246.248C169.877 244.996 172.373 244.001 174.953 243.279C174.993 243.268 175.028 243.243 175.051 243.208C175.073 243.173 175.082 243.132 175.076 243.091C175.07 243.05 175.05 243.012 175.018 242.985C174.987 242.959 174.946 242.944 174.905 242.945Z" fill="#263238"/>
<path d="M177.006 243.755C174.288 243.724 171.146 244.694 169.469 246.924C169.403 247.009 169.53 247.1 169.608 247.057C171.977 245.804 174.473 244.809 177.054 244.088C177.094 244.077 177.128 244.052 177.151 244.017C177.174 243.983 177.183 243.941 177.177 243.9C177.171 243.859 177.15 243.821 177.119 243.795C177.087 243.768 177.047 243.754 177.006 243.755Z" fill="#263238"/>
<path d="M146.86 246.797C143.833 246.797 143.833 251.554 146.86 251.536C149.887 251.518 149.911 246.779 146.86 246.797Z" fill="#263238"/>
<path d="M173.616 234.065C172.242 232.926 170.51 234.065 169.669 235.234C168.268 237.302 167.433 239.7 167.248 242.191C167.248 242.246 167.29 242.27 167.332 242.27C167.343 242.321 167.366 242.369 167.399 242.41C167.432 242.451 167.475 242.483 167.523 242.503C167.571 242.524 167.623 242.533 167.675 242.529C167.727 242.526 167.778 242.51 167.823 242.482C169.748 241.143 171.975 239.943 173.434 238.046C174.263 236.943 174.941 235.125 173.616 234.065ZM170.311 239.846C169.378 240.531 168.416 241.167 167.508 241.888C167.992 240.531 168.41 239.161 169.027 237.852C169.313 237.225 169.64 236.617 170.008 236.034C170.613 235.131 173.252 232.853 173.531 235.804C173.688 237.422 171.418 239.034 170.311 239.846Z" fill="#263238"/>
<path d="M160.492 243.222C162.853 243.573 165.292 242.894 167.611 242.525C167.661 242.512 167.708 242.487 167.747 242.453C167.786 242.418 167.816 242.375 167.836 242.327C167.855 242.278 167.863 242.226 167.859 242.174C167.854 242.122 167.838 242.072 167.811 242.028C167.819 242.021 167.826 242.012 167.831 242.002C167.836 241.992 167.839 241.981 167.839 241.97C167.839 241.959 167.836 241.948 167.831 241.938C167.826 241.928 167.819 241.92 167.811 241.913C165.948 240.25 163.68 239.106 161.237 238.598C159.808 238.325 157.786 238.719 157.605 240.495C157.387 242.167 159.112 243.004 160.492 243.222ZM158.846 241.682C157.03 239.355 160.498 239.155 161.539 239.398C162.215 239.567 162.878 239.782 163.525 240.04C164.849 240.59 166.144 241.207 167.405 241.889C166.255 242.004 165.123 242.21 163.979 242.367C162.611 242.549 159.862 242.961 158.846 241.682Z" fill="#263238"/>
<path d="M98.8631 114.652C98.8631 114.652 130.262 168.126 131.103 171.883C132.392 177.652 139.227 234.622 139.227 234.622L171.915 234.016C171.915 234.016 166.285 183.785 160.952 167.235C157.114 155.315 129.402 115.78 129.402 115.78L98.8631 114.652Z" fill="#37474F"/>
<path d="M168.942 229.023C164.251 228.986 147.623 228.798 141.376 229.38C141.327 229.38 141.333 229.465 141.376 229.471C143.525 229.78 164.245 229.301 168.936 229.15C168.946 229.153 168.957 229.155 168.967 229.153C168.977 229.152 168.987 229.148 168.996 229.143C169.005 229.137 169.012 229.129 169.017 229.12C169.022 229.111 169.025 229.101 169.026 229.09C169.026 229.08 169.024 229.07 169.02 229.06C169.016 229.05 169.009 229.042 169.001 229.035C168.993 229.029 168.984 229.024 168.973 229.022C168.963 229.02 168.953 229.02 168.942 229.023Z" fill="#263238"/>
<path d="M104.22 119.562C106.278 122.792 108.458 125.955 110.552 129.161C112.646 132.367 114.753 135.573 116.829 138.772C120.97 145.236 125.005 151.743 128.936 158.292C130.854 161.327 132.495 164.53 133.839 167.86C135.066 171.192 135.988 174.628 136.593 178.126C137.235 181.635 137.659 185.18 138.052 188.725C138.456 192.494 138.878 196.266 139.317 200.039C140.177 207.759 141.039 215.48 141.902 223.2C142.005 224.146 142.108 225.091 142.205 226.042C142.205 226.182 141.969 226.206 141.951 226.042C140.988 218.377 140.189 210.68 139.317 203.014C138.882 199.189 138.448 195.365 138.016 191.543C137.61 187.986 137.223 184.422 136.672 180.889C136.167 177.402 135.398 173.958 134.372 170.587C133.242 167.097 131.727 163.743 129.856 160.588C126.073 154.05 122.065 147.626 118.058 141.196C114.051 134.767 109.935 128.282 105.709 121.932C105.189 121.15 104.662 120.368 104.117 119.598C104.075 119.556 104.184 119.502 104.22 119.562Z" fill="#263238"/>
<path d="M109.154 257.726C107.665 257.635 69.2017 242.036 68.1363 240.558C68.0889 240.471 68.0678 240.372 68.0758 240.273C68.0758 238.946 70.7453 234.316 72.9729 228.232C73.1122 227.844 74.1049 226.038 75.479 223.608C79.2987 216.948 85.9573 205.477 85.9573 205.477L111.097 215.476L99.0628 233.504L97.1923 237.867C97.1923 237.867 108.99 250.078 109.983 251.805C110.976 253.532 110.637 257.811 109.154 257.726Z" fill="#EB9481"/>
<path d="M109.154 257.723C107.665 257.632 69.2017 242.034 68.1363 240.555C68.0889 240.468 68.0678 240.369 68.0758 240.27C68.0758 238.943 70.7453 234.313 72.9729 228.229C73.1122 227.841 74.1049 226.036 75.479 223.605L99.087 233.501L97.2165 237.865C97.2165 237.865 109.014 250.076 110.007 251.803C111 253.53 110.637 257.808 109.154 257.723Z" fill="white"/>
<path d="M109.154 257.725C107.665 257.634 69.2017 242.035 68.1363 240.557C67.7247 239.993 69.4438 234.739 72.979 228.23L97.1923 237.872C97.1923 237.872 108.99 250.071 109.989 251.81C110.988 253.549 110.637 257.809 109.154 257.725Z" fill="#A6A6A6"/>
<path d="M109.214 256.003C102.985 253.324 77.5977 243.107 71.2356 240.938C71.1811 240.938 71.169 240.937 71.2356 240.974C77.3555 243.761 102.822 253.773 109.19 256.124C109.311 256.154 109.347 256.057 109.214 256.003Z" fill="#263238"/>
<path d="M108.125 249.5C107.434 249.196 106.688 249.039 105.933 249.039C105.179 249.039 104.433 249.196 103.742 249.5C102.5 250.044 101.516 251.047 100.994 252.299C100.994 252.336 101.048 252.366 101.066 252.33C101.78 251.168 102.851 250.269 104.118 249.767C105.385 249.266 106.78 249.189 108.094 249.548C108.105 249.545 108.113 249.539 108.119 249.53C108.124 249.521 108.127 249.51 108.125 249.5Z" fill="#263238"/>
<path d="M99.3897 239.476C96.8897 238.428 93.6087 238.149 91.2177 239.585C91.1269 239.64 91.2177 239.767 91.2964 239.761C93.9618 239.49 96.6485 239.504 99.311 239.803C99.352 239.808 99.3931 239.797 99.4268 239.773C99.4605 239.75 99.4845 239.714 99.4941 239.674C99.5037 239.634 99.4985 239.592 99.4792 239.555C99.46 239.519 99.4282 239.491 99.3897 239.476Z" fill="#263238"/>
<path d="M101.03 241.019C98.5301 239.971 95.2492 239.692 92.8581 241.128C92.7673 241.183 92.8581 241.31 92.9368 241.304C95.6022 241.03 98.2892 241.044 100.951 241.346C100.992 241.351 101.034 241.34 101.067 241.316C101.101 241.292 101.125 241.257 101.135 241.217C101.144 241.177 101.139 241.135 101.12 241.098C101.1 241.062 101.069 241.034 101.03 241.019Z" fill="#263238"/>
<path d="M102.677 242.558C100.171 241.51 96.8896 241.231 94.5046 242.667C94.4078 242.722 94.5046 242.849 94.5773 242.843C97.2426 242.569 99.9296 242.583 102.592 242.885C102.634 242.892 102.677 242.883 102.712 242.86C102.748 242.837 102.773 242.801 102.784 242.76C102.795 242.719 102.79 242.676 102.77 242.638C102.75 242.601 102.717 242.572 102.677 242.558Z" fill="#263238"/>
<path d="M104.317 244.094C101.811 243.046 98.5362 242.767 96.1451 244.197C96.0482 244.258 96.1451 244.385 96.2177 244.379C98.8831 244.105 101.57 244.119 104.232 244.421C104.274 244.428 104.317 244.419 104.353 244.396C104.388 244.373 104.414 244.338 104.424 244.296C104.435 244.255 104.43 244.212 104.41 244.174C104.39 244.137 104.357 244.108 104.317 244.094Z" fill="#263238"/>
<path d="M75.2308 235.593C72.4039 234.466 70.6485 238.872 73.4875 239.999C76.3265 241.126 78.088 236.72 75.2308 235.593Z" fill="#263238"/>
<path d="M104.807 233.843C103.954 232.274 101.938 232.662 100.709 233.443C98.6393 234.832 96.9695 236.74 95.8666 238.976C95.8618 238.986 95.8592 238.997 95.8591 239.008C95.859 239.019 95.8614 239.03 95.866 239.039C95.8707 239.049 95.8775 239.058 95.886 239.065C95.8945 239.072 95.9044 239.077 95.9151 239.079C95.9151 239.279 96.0482 239.516 96.2843 239.467C98.5785 238.94 101.091 238.667 103.149 237.455C104.329 236.752 105.613 235.328 104.807 233.843ZM99.5713 237.958C98.4514 238.243 97.3255 238.473 96.2177 238.801C97.134 237.695 98.1058 236.638 99.1294 235.631C99.6333 235.151 100.169 234.705 100.734 234.298C101.611 233.692 104.928 232.571 104.081 235.413C103.615 236.983 100.909 237.619 99.5713 237.958Z" fill="#263238"/>
<path d="M89.208 237.4C91.2661 238.612 93.7782 238.896 96.0664 239.43C96.3025 239.484 96.4599 239.248 96.4417 239.042C96.4531 239.041 96.4639 239.037 96.4732 239.03C96.4825 239.023 96.49 239.014 96.4948 239.004C96.4997 238.994 96.5018 238.982 96.501 238.971C96.5002 238.959 96.4964 238.948 96.4901 238.939C95.3891 236.698 93.7191 234.786 91.6475 233.394C90.4368 232.606 88.4089 232.212 87.5494 233.776C86.6898 235.339 88.0034 236.691 89.208 237.4ZM88.2637 235.351C87.4222 232.509 90.7334 233.636 91.6111 234.248C92.1748 234.657 92.7088 235.104 93.2092 235.588C94.2308 236.596 95.2006 237.656 96.1148 238.763C95.0071 238.436 93.8811 238.2 92.7613 237.915C91.4053 237.551 88.7237 236.945 88.2637 235.351Z" fill="#263238"/>
<path d="M101.018 232.497L72.8761 221.123C72.8761 221.123 107.767 169.764 108.022 165.94C108.252 162.559 92.9247 133.095 92.3254 124.508C91.6717 115.236 96.1269 108.067 101.03 103.613L130.056 115.97C130.056 115.97 126.993 120.872 122.187 123.605C122.187 123.605 137.072 157.662 136.224 168.134C135.377 178.606 101.018 232.497 101.018 232.497Z" fill="#37474F"/>
<path d="M102.265 227.141C98.1972 225.389 99.3897 225.832 95.2976 224.111C93.3 223.274 80.1643 217.802 78.1425 217.348C78.1001 217.348 78.0698 217.408 78.1122 217.432C79.8616 218.505 93.1063 223.747 95.1221 224.547C99.2444 226.171 98.0761 225.662 102.217 227.238C102.223 227.246 102.231 227.252 102.24 227.257C102.25 227.261 102.26 227.263 102.27 227.262C102.281 227.261 102.291 227.257 102.299 227.251C102.308 227.245 102.315 227.238 102.319 227.228C102.324 227.219 102.326 227.209 102.325 227.198C102.325 227.188 102.322 227.178 102.317 227.169C102.311 227.161 102.303 227.153 102.294 227.148C102.285 227.143 102.275 227.141 102.265 227.141Z" fill="#263238"/>
<path d="M126.944 122.982C123.923 123.687 120.966 124.648 118.107 125.854C118.095 125.858 118.084 125.864 118.075 125.872C118.066 125.88 118.059 125.89 118.053 125.901C118.048 125.912 118.045 125.924 118.044 125.936C118.043 125.948 118.045 125.961 118.049 125.972C118.053 125.984 118.059 125.994 118.067 126.004C118.075 126.013 118.085 126.02 118.096 126.025C118.107 126.031 118.119 126.034 118.131 126.035C118.143 126.035 118.156 126.034 118.167 126.03C121.133 125.163 124.148 124.351 127.066 123.327C127.289 123.248 127.174 122.933 126.944 122.982Z" fill="#263238"/>
<path d="M123.488 121.806C123.206 122.308 122.957 122.828 122.743 123.363C122.535 123.769 122.405 124.211 122.362 124.666C122.362 124.757 122.483 124.775 122.538 124.721C122.841 124.357 123.086 123.948 123.264 123.509C123.512 123.03 123.766 122.557 124.003 122.066C124.166 121.709 123.676 121.479 123.488 121.806Z" fill="#263238"/>
<path d="M123.851 119.052C124.033 118.604 124.208 118.161 124.396 117.713C124.584 117.265 124.82 116.804 125.001 116.331C125.001 116.259 125.147 116.331 125.116 116.386C124.935 116.834 124.82 117.307 124.681 117.768C124.541 118.228 124.384 118.689 124.233 119.149C123.948 120.004 123.627 120.852 123.234 121.682C123.71 121.706 124.186 121.623 124.626 121.44C125.076 121.152 125.422 120.727 125.613 120.228C125.867 119.731 126.103 119.222 126.363 118.725C126.684 118.188 126.953 117.622 127.168 117.034C127.168 116.962 127.314 117.034 127.283 117.089C126.889 118.331 126.372 119.531 125.74 120.67C125.467 121.113 125.256 121.579 124.759 121.749C124.222 121.899 123.66 121.939 123.107 121.864C123.034 121.864 122.949 121.864 122.973 121.755C123.221 120.84 123.514 119.938 123.851 119.052Z" fill="#263238"/>
<path d="M122.616 124.712C123.651 126.899 124.559 129.081 125.522 131.262C126.484 133.444 127.338 135.553 128.204 137.722C129.935 142.098 131.484 146.558 132.846 151.054C133.518 153.284 134.142 155.533 134.699 157.799C135.312 160.058 135.761 162.359 136.043 164.683C136.285 167.004 136.08 169.349 135.437 171.592C134.77 173.808 133.913 175.964 132.877 178.034C132.241 179.342 132.029 179.167 132.332 178.506C133.198 176.628 135.468 170.937 135.304 166.156C135.172 163.867 134.819 161.596 134.251 159.375C133.722 157.084 133.127 154.812 132.465 152.557C131.176 148.109 129.644 143.752 128.07 139.401C127.187 136.977 126.254 134.553 125.346 132.129C124.438 129.705 123.53 127.475 122.513 124.796C122.483 124.687 122.586 124.645 122.616 124.712Z" fill="#263238"/>
<path d="M101.254 117.484C101.757 117.297 102.465 117.606 102.973 117.691C103.632 117.802 104.297 117.869 104.965 117.891C105.625 117.914 106.287 117.892 106.944 117.824C107.606 117.807 108.255 117.634 108.839 117.321C109.796 116.623 110.617 115.754 111.26 114.757C112.026 113.74 112.659 112.628 113.143 111.449C113.143 111.376 113.27 111.449 113.246 111.497C113.034 112.17 112.877 112.849 112.64 113.509C112.379 114.13 112.068 114.728 111.708 115.297C111.125 116.442 110.263 117.422 109.202 118.145C108.034 118.812 106.533 118.751 105.231 118.696C104.476 118.652 103.726 118.553 102.985 118.4C102.453 118.284 101.557 118.2 101.218 117.733C101.202 117.715 101.19 117.694 101.183 117.671C101.176 117.648 101.174 117.624 101.178 117.6C101.181 117.577 101.19 117.554 101.203 117.534C101.216 117.514 101.234 117.497 101.254 117.484Z" fill="#263238"/>
<path d="M80.9088 215.733C85.5336 208.72 90.0736 201.65 94.5289 194.523C98.9841 187.396 103.379 180.215 107.713 172.98C108.748 171.253 109.941 169.532 110.607 167.617C111.333 165.538 110.921 163.52 110.268 161.484C109.033 157.769 107.59 154.128 105.945 150.576C104.323 146.994 102.574 143.474 100.855 139.941C99.1354 136.408 97.3376 132.917 96.0119 129.233C94.8012 125.712 94.3109 122.064 95.2552 118.416C96.1996 114.767 98.2335 111.543 100.358 108.507C100.915 107.707 101.49 106.914 102.053 106.083C102.096 106.023 102.186 106.083 102.144 106.156C99.8013 109.319 97.5192 112.671 96.1451 116.385C95.4428 118.216 95.05 120.152 94.9829 122.112C94.9714 124.102 95.28 126.081 95.8969 127.972C97.0349 131.657 98.8328 135.141 100.51 138.607C102.186 142.074 103.978 145.661 105.631 149.231C107.336 152.823 108.851 156.502 110.171 160.254C110.734 161.92 111.381 163.666 111.333 165.453C111.291 167.411 110.358 169.174 109.39 170.822C105.152 178.003 100.812 185.1 96.3933 192.154C91.9743 199.207 87.4283 206.261 82.8278 213.242L81.0844 215.878C80.9936 215.988 80.8362 215.86 80.9088 215.733Z" fill="#263238"/>
<path d="M131.666 83.3068C134.287 89.0638 147.526 96.9963 153.724 97.8508C158.18 98.4568 171.727 98.675 176.37 97.9659C181.818 97.1297 177.653 82.4342 174.439 82.8159C165.601 83.8461 158.095 84.9975 155.734 84.9975C152.853 84.9975 137.265 79.992 135.389 79.283C130.788 77.568 130.183 80.0405 131.666 83.3068Z" fill="#EB9481"/>
<path d="M131.751 84.8393C135.068 89.754 146.091 97.7896 146.091 97.7896L147.623 94.396L152.689 83.1728C152.689 83.1728 142.562 79.9913 135.897 78.5369C135.113 78.3583 134.315 78.2447 133.512 78.1976C129.257 77.9673 128.888 80.5973 131.751 84.8393Z" fill="#23A455"/>
<path d="M131.751 84.8404C135.068 89.755 146.091 97.7906 146.091 97.7906L147.623 94.397C143.512 89.6157 137.162 82.374 133.512 78.2108C129.257 77.9684 128.888 80.5984 131.751 84.8404Z" fill="#263238"/>
<path d="M144.106 95.5111C144.947 93.4446 148.688 85.1243 149.62 83.3911C149.681 83.2699 149.778 83.282 149.723 83.3911C148.1 87.5288 146.253 91.5748 144.19 95.5111C144.166 95.5838 144.069 95.5596 144.106 95.5111Z" fill="#263238"/>
<path d="M172.817 82.9651C178.192 82.2622 184.845 81.0562 190.48 83.4499C191.113 83.6985 191.644 84.1531 191.988 84.7407C194.53 85.7709 194.808 87.2798 194.808 87.2798C196.885 88.9645 196.957 90.5522 196.957 90.5522C196.957 90.5522 199.936 91.7642 199.482 93.7155C198.985 95.8729 194.905 93.7155 191.939 93.8913C185.129 94.3155 175.595 96.8183 173.628 97.1334L172.817 82.9651Z" fill="#EB9481"/>
<path d="M184.494 89.3172C186.485 89.1809 188.483 89.1809 190.474 89.3172C192.643 89.5896 194.788 90.0251 196.891 90.6201C196.904 90.6249 196.919 90.6241 196.932 90.6179C196.945 90.6116 196.956 90.6005 196.96 90.5868C196.965 90.5731 196.964 90.5581 196.958 90.545C196.952 90.532 196.941 90.5219 196.927 90.5171C192.976 88.9652 188.675 88.5292 184.494 89.2566C184.397 89.2445 184.397 89.3233 184.494 89.3172Z" fill="#263238"/>
<path d="M183.228 83.0204C186.552 83.1901 188.628 83.7234 191.969 84.7294V84.693C188.289 83.1538 186.782 83.0083 183.21 82.875C183.095 82.9235 183.101 83.0204 183.228 83.0204Z" fill="#263238"/>
<path d="M183.767 94.9219C182.901 95.3279 183.113 95.7824 184.766 96.1642C186.418 96.546 193.289 96.6611 193.047 99.0609C192.805 101.461 183.113 101.158 180.408 100.309C177.702 99.4608 173.628 97.1338 173.628 97.1338C175.547 96.8126 180.05 95.5945 183.767 94.9219Z" fill="#EB9481"/>
<path d="M138.863 92.4796C138.821 93.5158 138.724 94.5703 138.579 95.6186C138.579 95.5762 138.579 95.5399 138.621 95.5035C138.821 94.9581 139.021 94.4006 139.263 93.8734C139.263 93.8734 139.324 93.8734 139.317 93.8734C139.201 94.4511 139.027 95.0155 138.797 95.558C138.688 95.8186 138.585 96.0732 138.47 96.3277C138.397 96.7943 138.313 97.2548 138.222 97.7154C138.04 98.582 137.223 102.266 137.011 102.891C136.975 103.018 136.817 102.988 136.83 102.842C136.872 102.163 137.556 98.3275 137.695 97.4548C137.966 95.7699 138.327 94.1009 138.779 92.4553C138.809 92.425 138.87 92.4493 138.863 92.4796Z" fill="#263238"/>
<path d="M132.568 120.036C130.952 120.866 128.869 122.157 119.487 120.308C118.881 120.187 118.312 120.042 117.719 119.866C108.924 117.224 98.3485 106.867 97.7734 106.134C97.7734 106.134 111.751 83.4516 129.626 76.3189C131.836 75.4402 135.492 77.137 137.495 79.252C138.216 80.0095 139.784 85.5786 139.184 90.0872C138.585 94.5959 134.178 119.206 132.568 120.036Z" fill="#23A455"/>
<path d="M131.309 89.8789C131.376 90.8374 131.242 91.7994 130.915 92.7029C130.839 91.7441 130.973 90.7801 131.309 89.8789Z" fill="white"/>
<path d="M125.213 105.328C125.252 105.805 125.235 106.285 125.165 106.758C125.106 107.235 124.991 107.703 124.82 108.152C124.778 107.673 124.794 107.191 124.868 106.716C124.93 106.242 125.046 105.776 125.213 105.328Z" fill="white"/>
<path d="M114.856 93.6484C114.924 94.609 114.79 95.5731 114.462 96.4785C114.386 95.5177 114.521 94.5519 114.856 93.6484Z" fill="white"/>
<path d="M135.298 104.539C135.337 105.018 135.32 105.5 135.25 105.975C135.191 106.452 135.075 106.92 134.905 107.369C134.863 106.89 134.879 106.408 134.953 105.933C135.014 105.457 135.13 104.989 135.298 104.539Z" fill="white"/>
<path d="M121.999 91.6514C122.475 91.6109 122.954 91.6251 123.427 91.6939C123.904 91.7543 124.372 91.8723 124.82 92.0453C123.862 92.1142 122.901 91.98 121.999 91.6514Z" fill="white"/>
<path d="M110.243 102.806C111.201 102.739 112.162 102.873 113.064 103.2C112.106 103.277 111.143 103.142 110.243 102.806Z" fill="white"/>
<path d="M124.093 114.885C125.051 114.816 126.012 114.95 126.914 115.279C125.956 115.354 124.994 115.22 124.093 114.885Z" fill="white"/>
<path d="M106.617 110.497C107.575 110.43 108.536 110.564 109.438 110.891C108.48 110.967 107.518 110.833 106.617 110.497Z" fill="white"/>
<path d="M131.218 79.0209C132.176 78.9533 133.137 79.0875 134.039 79.4148C133.082 79.4824 132.121 79.3482 131.218 79.0209Z" fill="white"/>
<path d="M127.798 82.8867C127.492 83.255 127.142 83.5847 126.757 83.8684C126.382 84.1588 125.976 84.4068 125.546 84.6078C125.85 84.2418 126.195 83.9124 126.575 83.626C126.954 83.3346 127.364 83.0866 127.798 82.8867Z" fill="white"/>
<path d="M109.16 93.875C108.85 94.2401 108.499 94.5675 108.113 94.8507C107.741 95.1465 107.335 95.3949 106.902 95.59C107.213 95.2265 107.565 94.8992 107.949 94.6143C108.321 94.3197 108.728 94.0715 109.16 93.875Z" fill="white"/>
<path d="M132.435 98.832C132.125 99.199 131.774 99.5285 131.388 99.8138C131.015 100.108 130.609 100.357 130.177 100.553C130.487 100.186 130.838 99.8566 131.224 99.5714C131.598 99.2797 132.005 99.0317 132.435 98.832Z" fill="white"/>
<path d="M117.362 108.332C117.052 108.699 116.701 109.028 116.315 109.314C115.942 109.607 115.536 109.856 115.104 110.053C115.414 109.686 115.765 109.357 116.151 109.071C116.526 108.78 116.932 108.532 117.362 108.332Z" fill="white"/>
<path d="M138.21 85.8516C137.9 86.2185 137.549 86.548 137.162 86.8333C136.787 87.1237 136.381 87.3716 135.952 87.5726C136.261 87.2056 136.613 86.8761 136.999 86.5909C137.372 86.2972 137.778 86.049 138.21 85.8516Z" fill="white"/>
<path d="M137.895 96.8619C137.528 96.5519 137.199 96.2001 136.914 95.8136C136.62 95.4412 136.372 95.0342 136.176 94.6016C136.544 94.9079 136.873 95.2579 137.156 95.6439C137.446 96.0221 137.693 96.4305 137.895 96.8619Z" fill="white"/>
<path d="M104.299 104.448C103.932 104.138 103.603 103.786 103.318 103.4C103.027 103.025 102.779 102.618 102.58 102.188C102.946 102.498 103.275 102.849 103.56 103.236C103.854 103.609 104.102 104.016 104.299 104.448Z" fill="white"/>
<path d="M133.809 113.473C133.441 113.167 133.112 112.817 132.828 112.431C132.538 112.055 132.291 111.649 132.09 111.219C132.456 111.529 132.785 111.881 133.07 112.267C133.363 112.639 133.61 113.044 133.809 113.473Z" fill="white"/>
<path d="M119.021 87.7465C118.654 87.4386 118.325 87.0888 118.04 86.7042C117.751 86.3278 117.504 85.9215 117.301 85.4922C117.669 85.7985 117.999 86.1486 118.282 86.5345C118.571 86.9109 118.819 87.3172 119.021 87.7465Z" fill="white"/>
<path d="M119.281 118.612C118.914 118.302 118.585 117.95 118.3 117.564C118.01 117.188 117.762 116.782 117.562 116.352C117.93 116.658 118.259 117.008 118.542 117.394C118.834 117.771 119.081 118.179 119.281 118.612Z" fill="white"/>
<path d="M121.793 100.405C121.43 100.093 121.103 99.7415 120.818 99.3565C120.523 98.9848 120.275 98.5777 120.08 98.1445C120.445 98.4546 120.772 98.8065 121.055 99.1929C121.349 99.5655 121.597 99.9725 121.793 100.405Z" fill="white"/>
<path d="M134.221 85.2928C131.938 84.8686 129.796 80.1479 129.523 76.9724C129.523 76.7543 130.589 75.0272 131.805 72.8638C132.544 71.5487 133.325 70.064 133.948 68.6581C134.075 68.3733 134.82 69.3368 134.82 69.3368L136.442 70.5488L141.799 74.6636C140.524 76.1961 139.44 77.8791 138.573 79.6752C138.487 79.8698 138.422 80.0729 138.379 80.2812C138.377 80.3155 138.377 80.3499 138.379 80.3842C138.046 81.5841 136.418 85.6988 134.221 85.2928Z" fill="#EB9481"/>
<path d="M138.379 80.3131C138.377 80.3473 138.377 80.3818 138.379 80.4161C138.061 80.3227 137.751 80.2031 137.453 80.0585C131.587 77.3073 134.172 69.4414 134.172 69.4414L136.472 70.5807L141.83 74.6954C140.554 76.2279 139.47 77.911 138.603 79.7071C138.507 79.9005 138.432 80.1036 138.379 80.3131Z" fill="#263238"/>
<path d="M147.956 57.9219C147.956 57.9219 150.637 59.6247 150.649 62.6547C150.661 65.6847 149.439 68.6481 149.184 68.7572C148.93 68.8662 147.956 57.9219 147.956 57.9219Z" fill="#263238"/>
<path d="M134.65 59.4951C133.04 62.6766 133.125 72.7059 135.135 75.2875C138.052 79.0326 143.67 80.3234 147.066 76.6207C150.353 73.0332 150.014 59.9678 147.671 57.5317C144.263 53.9321 137.035 54.7865 134.65 59.4951Z" fill="#EB9481"/>
<path d="M143.198 67.5234C143.198 67.5234 143.143 67.5598 143.149 67.584C143.186 68.2688 143.113 69.0566 142.502 69.299C142.502 69.299 142.502 69.3414 142.502 69.3354C143.258 69.2142 143.343 68.1658 143.198 67.5234Z" fill="#263238"/>
<path d="M142.574 66.8294C141.472 66.7688 141.436 68.9746 142.459 69.0291C143.482 69.0837 143.494 66.8778 142.574 66.8294Z" fill="#263238"/>
<path d="M146.933 67.5C146.933 67.5 146.987 67.5 146.987 67.5606C146.951 68.2454 147.029 69.0332 147.647 69.2695C147.647 69.2695 147.647 69.3119 147.647 69.3059C146.884 69.1907 146.793 68.1424 146.933 67.5Z" fill="#263238"/>
<path d="M147.556 66.7984C148.652 66.7317 148.706 68.9375 147.689 68.9981C146.672 69.0587 146.636 66.8529 147.556 66.7984Z" fill="#263238"/>
<path d="M141.884 65.1487C142.173 65.0663 142.458 64.9692 142.738 64.8578C143.056 64.8002 143.345 64.6382 143.561 64.3973C143.613 64.3091 143.635 64.2061 143.623 64.1042C143.611 64.0023 143.566 63.9072 143.494 63.8337C143.33 63.709 143.136 63.6304 142.932 63.6059C142.728 63.5814 142.521 63.6119 142.332 63.6943C141.924 63.8038 141.57 64.0606 141.339 64.4155C141.293 64.4999 141.272 64.5957 141.279 64.6917C141.286 64.7876 141.32 64.8796 141.377 64.9568C141.434 65.034 141.513 65.0931 141.602 65.1271C141.692 65.1611 141.79 65.1686 141.884 65.1487Z" fill="#263238"/>
<path d="M148.307 66.1239C148.012 66.058 147.721 65.9771 147.435 65.8815C147.116 65.8392 146.82 65.6922 146.594 65.4634C146.535 65.3791 146.507 65.2776 146.514 65.1752C146.52 65.0729 146.561 64.9759 146.63 64.8998C146.786 64.7662 146.975 64.6771 147.178 64.6419C147.38 64.6067 147.588 64.6267 147.78 64.6998C148.194 64.7857 148.561 65.0235 148.809 65.3664C148.861 65.4476 148.888 65.5421 148.887 65.6384C148.887 65.7348 148.858 65.8288 148.804 65.9091C148.751 65.9893 148.676 66.0524 148.587 66.0905C148.499 66.1287 148.402 66.1403 148.307 66.1239Z" fill="#263238"/>
<path d="M141.648 74.0023C141.811 74.166 141.969 74.3841 142.217 74.4084C142.472 74.4082 142.723 74.3546 142.956 74.2508C142.956 74.2508 142.998 74.2508 142.956 74.2872C142.856 74.4204 142.723 74.524 142.569 74.587C142.416 74.65 142.248 74.67 142.084 74.6447C141.946 74.607 141.821 74.5294 141.727 74.4217C141.632 74.314 141.571 74.1808 141.551 74.0387C141.546 74.0258 141.547 74.0116 141.553 73.9991C141.558 73.9866 141.569 73.9769 141.581 73.972C141.594 73.9672 141.608 73.9677 141.621 73.9734C141.633 73.9791 141.643 73.9895 141.648 74.0023Z" fill="#263238"/>
<path d="M145.607 71.0805C145.607 71.0805 145.637 72.0986 145.607 72.5774C144.677 72.4785 143.737 72.5112 142.816 72.6743C142.598 72.7228 142.623 72.5471 142.871 72.4319C143.613 72.0924 144.439 71.9827 145.244 72.1168C145.292 71.9895 145.165 70.5412 145.244 70.5473C145.61 70.6192 145.964 70.7416 146.297 70.9109C146.297 68.7777 145.958 66.6689 145.988 64.5357C145.988 64.463 146.103 64.4509 146.115 64.5357C146.546 66.7923 146.748 69.0864 146.721 71.3835C146.727 71.6441 145.788 71.1775 145.607 71.0805Z" fill="#263238"/>
<path d="M144.245 72.2159C144.004 72.8514 143.556 73.3871 142.974 73.737C142.06 74.1067 141.763 73.2764 142.683 72.525C143.166 72.2809 143.706 72.1739 144.245 72.2159Z" fill="#263238"/>
<path d="M143.295 73.5507C143.198 73.6295 143.09 73.6929 142.974 73.7386C142.132 74.0779 141.799 73.4053 142.477 72.7266C142.937 72.7629 143.464 72.9326 143.295 73.5507Z" fill="#FF99BA"/>
<path d="M134.19 68.0707C135.298 68.41 136.569 65.077 136.932 63.8287C137.247 62.7015 137.61 59.12 137.665 58.8716C137.719 58.6231 142.508 62.041 145.28 61.2289C148.052 60.4169 149.935 57.902 149.977 56.7324C150.02 55.5628 146.551 52.5934 143.555 52.4419C140.558 52.2904 136.497 56.0779 136.497 56.0779C136.987 55.5205 137.433 54.9247 137.828 54.2963C137.78 54.163 135.843 54.9386 135.486 56.3203C135.486 56.3203 135.873 54.5811 135.728 54.5508C135.583 54.5205 134.075 56.0052 134.414 57.1324C134.414 57.1324 132.671 58.6413 132.514 60.2957C132.356 61.9501 132.889 67.6707 134.19 68.0707Z" fill="#263238"/>
<path d="M147.266 60.5976C146.441 61.0452 145.553 61.364 144.632 61.543C143.599 61.6353 142.559 61.4687 141.606 61.0582C140.645 60.6869 139.754 60.1585 138.966 59.4947C138.27 58.9251 137.647 58.2282 136.902 57.7191C136.715 57.5858 136.503 57.8585 136.618 58.0282C137.86 59.7847 139.634 61.0937 141.678 61.7611C142.628 62.071 143.641 62.1289 144.619 61.9292C145.597 61.7295 146.507 61.279 147.259 60.6219C147.259 60.6219 147.278 60.5976 147.266 60.5976Z" fill="#263238"/>
<path d="M135.346 67.7737C135.346 67.7737 133.627 64.2832 132.078 64.8467C130.528 65.4103 131.472 70.2401 133.064 71.1249C133.259 71.2512 133.478 71.3368 133.707 71.3765C133.936 71.4162 134.17 71.4093 134.396 71.3561C134.622 71.3029 134.835 71.2046 135.023 71.0669C135.21 70.9293 135.367 70.7553 135.486 70.5552L135.346 67.7737Z" fill="#EB9481"/>
<path d="M132.386 66.2227C132.386 66.2227 132.35 66.2227 132.386 66.2711C133.488 66.9256 133.936 68.0891 134.202 69.3011C134.152 69.1728 134.075 69.057 133.976 68.9615C133.876 68.8661 133.758 68.7934 133.627 68.7485C133.497 68.7035 133.359 68.6874 133.222 68.7012C133.085 68.715 132.953 68.7584 132.834 68.8285C132.798 68.8285 132.834 68.8951 132.834 68.8951C133.051 68.8614 133.273 68.8958 133.469 68.9934C133.665 69.0911 133.826 69.2473 133.93 69.4405C134.103 69.7641 134.241 70.1054 134.342 70.4586C134.378 70.5737 134.578 70.5434 134.56 70.4162C134.82 68.9072 133.972 66.6226 132.386 66.2227Z" fill="#263238"/>
<path d="M123.996 83.3591C122.786 90.2251 130.219 113.356 134.983 117.677C142.072 124.1 155.177 128.324 159.929 129.7C161.999 130.306 167.726 115.719 165.631 114.756C161.146 112.714 147.211 108.351 145.885 107.26C144.56 106.169 136.569 94.6125 133.01 87.9586C128.246 79.0019 124.596 79.8867 123.996 83.3591Z" fill="#EB9481"/>
<path d="M162.102 113.473C162.102 113.473 168.289 115.054 172.278 116.272C174.505 116.957 178.222 118.466 179.633 119.714C181.739 121.587 189.354 130.75 187.175 132.646C185.202 134.368 179.657 125.659 179.657 125.659C179.657 125.659 186.025 133.949 183.289 135.58C180.553 137.21 175.547 126.538 175.547 126.538C175.547 126.538 181.897 135.204 178.791 136.434C176.443 137.361 171.406 127.95 171.406 127.95C171.406 127.95 176.818 135.434 174.433 136.495C171.806 137.67 166.618 129.271 166.618 129.271C160.129 130.95 156.327 129.089 153.827 127.453C153.24 127.053 162.102 113.473 162.102 113.473Z" fill="#EB9481"/>
<path d="M177.635 122.647C178.422 123.592 179.221 124.55 179.917 125.562C180.613 126.574 181.273 127.616 181.872 128.689C182.684 130.076 183.334 131.552 183.809 133.088C182.768 130.422 180.329 126.755 179.633 125.743C178.937 124.731 178.289 123.683 177.599 122.671C177.581 122.647 177.617 122.623 177.635 122.647Z" fill="#263238"/>
<path d="M173.936 125.101C175.28 126.168 178.095 130.131 179.179 132.791C179.227 132.9 179.179 132.894 179.1 132.791C178.253 131.476 174.814 126.386 173.906 125.119C173.888 125.101 173.918 125.083 173.936 125.101Z" fill="#263238"/>
<path d="M170.383 126.651C172.053 128.405 173.372 130.462 174.269 132.712C174.312 132.821 174.227 132.802 174.16 132.712C172.907 130.669 171.939 129.075 170.317 126.706C170.292 126.651 170.347 126.597 170.383 126.651Z" fill="#263238"/>
<path d="M130.752 83.8636C125.225 76.0401 121.92 78.9368 123.028 87.4329C124.069 95.3776 126.848 104.843 126.848 104.843L140.77 98.0803C140.77 98.0803 134.269 88.8752 130.752 83.8636Z" fill="#23A455"/>
<path d="M134.112 86.9414C134.295 87.3833 134.427 87.8449 134.505 88.317C134.59 88.7907 134.621 89.2726 134.596 89.7532C134.414 89.3091 134.284 88.8455 134.208 88.3716C134.118 87.9005 134.086 87.4203 134.112 86.9414Z" fill="white"/>
<path d="M125.861 91.6983C126.749 91.3365 127.705 91.1712 128.664 91.2135C128.222 91.3953 127.761 91.5254 127.289 91.6014C126.819 91.6913 126.339 91.7239 125.861 91.6983Z" fill="white"/>
<path d="M126.218 79.5312C125.843 80.4169 125.284 81.2123 124.578 81.8643C124.952 80.9787 125.512 80.1833 126.218 79.5312Z" fill="white"/>
<path d="M138.016 95.3516C137.832 95.7948 137.599 96.2156 137.32 96.606C137.048 97.0013 136.731 97.3634 136.376 97.6847C136.75 96.799 137.31 96.0036 138.016 95.3516Z" fill="white"/>
<path d="M128.331 100.099C127.887 99.9175 127.466 99.6836 127.078 99.4024C126.683 99.1308 126.321 98.8135 126 98.457C126.885 98.8323 127.679 99.3922 128.331 100.099Z" fill="white"/>
<path d="M132.568 86.2188C133.313 87.2429 134.081 88.2428 134.844 89.2487C134.65 88.7397 134.481 88.2246 134.336 87.7034H134.372C134.523 88.1034 134.699 88.4973 134.844 88.9154L135.062 89.5214C135.081 89.5628 135.097 89.6053 135.11 89.6487C135.716 90.4305 136.321 91.2122 136.878 92.0121C137.562 92.9696 138.222 93.9392 138.888 94.9088C139.554 95.8784 140.225 97.0843 140.946 98.06C141.012 98.1448 139.735 98.666 139.596 98.7326C139.457 98.7993 139.384 98.6842 139.517 98.6417C139.65 98.5993 140.667 97.9752 140.679 97.963C140.014 96.9813 139.245 96.0784 138.549 95.1269C137.853 94.1755 137.162 93.2241 136.491 92.2606C135.129 90.2971 133.882 88.261 132.526 86.2915L132.568 86.2188Z" fill="#263238"/>
<path d="M123.355 93.0546C123.567 93.4667 123.797 93.8727 123.96 94.2969L124.19 94.8241C123.869 93.3152 123.585 91.7941 123.252 90.2852C123.894 92.7092 124.541 95.1877 125.135 97.6481C125.697 99.9993 126.382 102.375 126.708 104.775C127.13 104.589 127.568 104.441 128.016 104.332C127.566 104.623 127.082 104.858 126.575 105.029C125.846 102.589 125.239 100.113 124.759 97.6117C124.608 96.933 124.469 96.2543 124.323 95.5755C124.166 95.1635 123.978 94.7696 123.791 94.3635C123.603 93.9575 123.434 93.503 123.264 93.0728C123.3 93.0485 123.343 93.0243 123.355 93.0546Z" fill="#263238"/>
<path d="M127.053 102.504C128.99 101.413 137.084 97.2194 138.894 96.4438C139.021 96.3892 139.087 96.4438 138.96 96.5286C135.119 98.7634 131.158 100.786 127.096 102.589C127.047 102.601 126.999 102.534 127.053 102.504Z" fill="#263238"/>
<path d="M348.866 261.823H164.433L191.098 110.414H375.531L348.866 261.823Z" fill="#1E9A4E"/>
<path d="M254.222 94.7305H193.864L191.098 110.414H255.693L254.222 94.7305Z" fill="#1E9A4E"/>
<g opacity="0.1">
<path opacity="0.1" d="M348.866 261.823H164.433L191.098 110.414H375.531L348.866 261.823Z" fill="black"/>
<path opacity="0.1" d="M254.222 94.7305H193.864L191.098 110.414H255.693L254.222 94.7305Z" fill="black"/>
</g>
<path d="M187.351 101.132C186.947 99.3974 186.947 97.5936 187.351 95.8594C187.754 97.5936 187.754 99.3974 187.351 101.132Z" fill="#263238"/>
<path d="M181.987 102.682C181.371 102.042 180.84 101.325 180.407 100.549C179.954 99.7889 179.598 98.9744 179.348 98.125C179.966 98.7611 180.498 99.4763 180.928 100.252C181.381 101.015 181.737 101.831 181.987 102.682Z" fill="#263238"/>
<path d="M178.113 106.71C176.412 106.193 174.853 105.291 173.555 104.074C174.404 104.321 175.217 104.675 175.976 105.129C176.752 105.564 177.47 106.096 178.113 106.71Z" fill="#263238"/>
<path d="M176.757 112.139C175.025 112.543 173.223 112.543 171.491 112.139C173.223 111.735 175.025 111.735 176.757 112.139Z" fill="#263238"/>
<path d="M178.331 117.512C177.689 118.126 176.974 118.657 176.2 119.093C175.441 119.547 174.628 119.901 173.779 120.148C174.418 119.531 175.134 118.999 175.91 118.566C176.668 118.111 177.482 117.756 178.331 117.512Z" fill="#263238"/>
<path d="M182.351 121.383C181.835 123.088 180.934 124.652 179.717 125.952C179.964 125.101 180.32 124.287 180.777 123.528C181.208 122.749 181.737 122.028 182.351 121.383Z" fill="#263238"/>
<path d="M187.774 122.723C187.985 123.585 188.087 124.471 188.077 125.359C188.09 126.247 187.988 127.133 187.774 127.995C187.557 127.133 187.456 126.247 187.472 125.359C187.462 124.471 187.563 123.585 187.774 122.723Z" fill="#263238"/>
<path d="M193.138 121.2C193.754 121.839 194.285 122.556 194.718 123.333C195.172 124.091 195.526 124.906 195.771 125.757C194.554 124.456 193.653 122.893 193.138 121.188V121.2Z" fill="#263238"/>
<path d="M197.006 117.141C197.855 117.385 198.669 117.74 199.427 118.195C200.203 118.628 200.919 119.16 201.558 119.777C200.708 119.532 199.894 119.178 199.137 118.722C198.361 118.289 197.645 117.758 197.006 117.141Z" fill="#263238"/>
<path d="M198.344 111.709C200.078 111.305 201.882 111.305 203.616 111.709C201.882 112.113 200.078 112.113 198.344 111.709Z" fill="#263238"/>
<path d="M196.794 106.343C197.435 105.73 198.151 105.2 198.925 104.768C199.681 104.308 200.495 103.951 201.346 103.707C200.047 104.925 198.485 105.827 196.782 106.343H196.794Z" fill="#263238"/>
<path d="M192.768 102.467C193.018 101.619 193.371 100.804 193.822 100.043C194.254 99.267 194.785 98.55 195.402 97.9102C195.157 98.7605 194.803 99.5754 194.348 100.334C193.916 101.11 193.385 101.827 192.768 102.467Z" fill="#263238"/>
<path d="M348.593 261.823H163.767L137.52 115.91H322.352L348.593 261.823Z" fill="#23A455"/>
<path d="M201.57 205.107C205.812 205.107 209.252 201.664 209.252 197.417C209.252 193.17 205.812 189.727 201.57 189.727C197.327 189.727 193.888 193.17 193.888 197.417C193.888 201.664 197.327 205.107 201.57 205.107Z" fill="#263238"/>
<path d="M262.297 205.107C266.539 205.107 269.979 201.664 269.979 197.417C269.979 193.17 266.539 189.727 262.297 189.727C258.055 189.727 254.615 193.17 254.615 197.417C254.615 201.664 258.055 205.107 262.297 205.107Z" fill="#263238"/>
<path d="M242.969 206.338L242.545 205.532C242.509 205.46 238.538 198.115 230.553 198.115C223.289 198.115 221.473 205.029 221.425 205.326L221.207 206.205L219.445 205.781L219.657 204.896C219.657 204.811 221.824 196.297 230.553 196.297C239.633 196.297 243.974 204.345 244.155 204.69L244.579 205.49L242.969 206.338Z" fill="#263238"/>
<path d="M336.39 196.83L336.263 196.224C336.656 196.139 337.044 196.048 337.431 195.945L337.582 196.551C337.171 196.654 336.789 196.745 336.39 196.83Z" fill="#263238"/>
<path d="M339.925 195.851L339.731 195.281C340.488 195.02 341.245 194.736 341.977 194.427L342.213 194.984C341.469 195.299 340.7 195.59 339.925 195.851ZM344.435 193.918L344.162 193.384C344.87 193.015 345.579 192.615 346.251 192.172L346.565 192.687C345.875 193.166 345.155 193.572 344.435 193.918ZM348.599 191.354L348.242 190.863C348.896 190.385 349.526 189.882 350.119 189.366L350.518 189.821C349.883 190.372 349.277 190.888 348.593 191.378L348.599 191.354ZM352.292 188.13L351.85 187.712C352.407 187.106 352.934 186.5 353.418 185.894L353.896 186.264C353.394 186.93 352.855 187.555 352.304 188.154L352.292 188.13ZM355.288 184.252L354.774 183.931C355.192 183.254 355.564 182.549 355.888 181.822L356.444 182.07C356.102 182.828 355.714 183.565 355.282 184.276L355.288 184.252ZM357.292 179.755L356.687 179.586C356.908 178.825 357.072 178.049 357.177 177.265L357.782 177.343C357.682 178.167 357.516 178.982 357.286 179.78L357.292 179.755ZM357.964 174.907H357.359V174.732C357.359 173.998 357.316 173.253 357.244 172.52L357.849 172.459C357.928 173.214 357.969 173.972 357.97 174.732L357.964 174.907ZM356.874 170.162C356.711 169.381 356.509 168.608 356.269 167.847L356.874 167.666C357.122 168.453 357.334 169.253 357.48 170.035L356.874 170.162ZM355.44 165.599C355.149 164.884 354.834 164.151 354.447 163.411L354.992 163.139C355.361 163.89 355.7 164.642 355.997 165.369L355.44 165.599ZM353.321 161.278C352.946 160.618 352.534 159.921 352.11 159.206L352.625 158.885C353.067 159.606 353.484 160.309 353.836 160.981L353.321 161.278ZM350.791 157.164C350.349 156.497 349.901 155.824 349.441 155.152L349.943 154.812C350.403 155.485 350.851 156.158 351.293 156.836L350.791 157.164ZM348.067 153.152C347.613 152.485 347.153 151.813 346.705 151.146L347.207 150.807C347.655 151.473 348.109 152.146 348.563 152.806L348.067 153.152ZM345.361 149.116C344.919 148.437 344.489 147.746 344.065 147.056L344.58 146.74C345.004 147.431 345.433 148.11 345.869 148.789L345.361 149.116ZM342.837 144.953C342.425 144.219 342.044 143.492 341.699 142.795L342.243 142.523C342.582 143.213 342.964 143.929 343.363 144.656L342.837 144.953ZM340.688 140.59C340.367 139.832 340.082 139.062 339.816 138.311L340.421 138.117C340.676 138.85 340.96 139.608 341.275 140.353L340.688 140.59ZM339.114 135.966C338.914 135.178 338.738 134.372 338.605 133.542L339.211 133.445C339.344 134.22 339.507 135.008 339.707 135.784L339.114 135.966ZM338.303 131.118C338.242 130.372 338.212 129.621 338.212 128.869V128.669H338.817V128.863C338.817 129.597 338.817 130.336 338.908 131.063L338.303 131.118ZM338.908 126.27L338.303 126.209C338.303 126.046 338.333 125.876 338.351 125.7C338.424 125.052 338.515 124.403 338.623 123.785L339.229 123.888C339.126 124.494 339.035 125.13 338.962 125.767C338.987 125.955 338.987 126.118 338.938 126.288L338.908 126.27ZM339.749 121.555L339.144 121.391C339.368 120.592 339.628 119.81 339.919 119.064L340.482 119.283C340.207 120.033 339.972 120.798 339.78 121.573L339.749 121.555ZM369.913 118.022C369.574 118.022 369.223 117.974 368.878 117.925C368.406 117.858 367.934 117.78 367.468 117.689L367.589 117.083C368.037 117.168 368.503 117.246 368.963 117.313C369.29 117.355 369.623 117.386 369.943 117.404L369.913 118.022ZM372.401 117.834L372.274 117.228C373.034 117.071 373.762 116.789 374.429 116.392L374.744 116.907C374.031 117.349 373.249 117.668 372.431 117.852L372.401 117.834ZM341.493 117.113L340.954 116.828C341.339 116.106 341.766 115.405 342.231 114.731L342.728 115.077C342.285 115.737 341.883 116.423 341.523 117.131L341.493 117.113ZM365.101 117.077C364.319 116.829 363.551 116.539 362.8 116.21L363.049 115.653C363.776 115.976 364.522 116.258 365.282 116.495L365.101 117.077ZM376.602 115.186L376.1 114.847C376.531 114.221 376.786 113.49 376.838 112.732L377.444 112.774C377.392 113.643 377.108 114.483 376.62 115.204L376.602 115.186ZM360.621 115.095C359.913 114.683 359.228 114.232 358.569 113.744L358.926 113.259C359.567 113.732 360.234 114.169 360.924 114.568L360.621 115.095ZM344.217 113.204L343.769 112.798C344.317 112.188 344.901 111.611 345.518 111.071L345.918 111.526C345.324 112.058 344.762 112.624 344.235 113.223L344.217 113.204ZM356.681 112.18C356.078 111.624 355.506 111.036 354.967 110.417L355.421 110.017C355.945 110.618 356.501 111.19 357.086 111.732L356.681 112.18ZM376.384 110.538C376.037 109.845 375.558 109.228 374.974 108.72L375.373 108.265C376.016 108.822 376.545 109.5 376.929 110.259L376.384 110.538ZM347.8 110.059L347.455 109.562C348.133 109.099 348.834 108.673 349.556 108.284L349.84 108.817C349.145 109.202 348.47 109.622 347.818 110.077L347.8 110.059ZM353.454 108.484C353.224 108.156 353 107.823 352.788 107.478L352.001 107.787L351.771 107.229L352.467 106.95C352.358 106.769 352.25 106.587 352.147 106.405L352.673 106.108C352.794 106.32 352.915 106.532 353.042 106.714C353.381 106.593 353.727 106.478 354.078 106.369L354.253 106.975C353.957 107.066 353.648 107.163 353.369 107.266C353.557 107.562 353.751 107.872 353.975 108.132L353.454 108.484ZM373.025 107.441C372.439 107.149 371.832 106.902 371.209 106.702L370.809 106.575L370.985 105.969L371.396 106.102C372.045 106.309 372.676 106.566 373.285 106.872L373.025 107.441ZM356.572 106.357L356.444 105.751C357.225 105.575 358.037 105.429 358.866 105.314L358.957 105.92C358.158 106.047 357.365 106.199 356.59 106.375L356.572 106.357ZM368.497 106.029C367.74 105.896 366.941 105.793 366.124 105.72L366.172 105.114C367.014 105.187 367.831 105.29 368.594 105.429L368.497 106.029ZM361.323 105.678L361.281 105.072C362.001 105.029 362.722 105.005 363.436 105.005H363.733V105.611H363.442C362.758 105.629 362.044 105.648 361.342 105.696L361.323 105.678ZM351.093 104.229C350.766 103.49 350.488 102.721 350.216 101.939L350.821 101.751C351.075 102.515 351.36 103.266 351.674 103.987L351.093 104.229ZM349.562 99.5754C349.38 98.7937 349.229 97.9816 349.114 97.1514L349.719 97.0666C349.834 97.8665 349.98 98.6604 350.155 99.43L349.562 99.5754ZM348.884 94.7274C348.854 94.182 348.835 93.6245 348.835 93.067C348.835 92.8064 348.835 92.5398 348.835 92.2792H349.441C349.441 92.5398 349.441 92.7943 349.441 93.0549C349.441 93.6003 349.441 94.1517 349.483 94.6789L348.884 94.7274ZM349.604 89.8794L348.999 89.8188C349.084 89.0189 349.199 88.2008 349.338 87.3948L349.943 87.4978C349.78 88.3038 349.665 89.0795 349.586 89.8915L349.604 89.8794ZM350.434 85.1466L349.828 85.0011C350.022 84.2194 350.246 83.4316 350.494 82.6438L351.099 82.8316C350.827 83.6255 350.603 84.3951 350.415 85.1587L350.434 85.1466ZM351.886 80.5591L351.323 80.341C351.62 79.5835 351.929 78.826 352.298 78.0927L352.843 78.3594C352.48 79.0866 352.159 79.8259 351.868 80.5955L351.886 80.5591ZM353.969 76.2384L353.442 75.9293C353.854 75.2324 354.296 74.5355 354.756 73.8689L355.252 74.2143C354.78 74.8809 354.35 75.5596 353.95 76.2505L353.969 76.2384ZM356.699 72.2933L356.227 71.9115C356.735 71.3055 357.28 70.6632 357.843 70.0935L358.279 70.5117C357.71 71.0813 357.177 71.6873 356.681 72.3054L356.699 72.2933ZM359.992 68.8027L359.586 68.3543C360.192 67.815 360.797 67.2817 361.445 66.7666L361.82 67.2453C361.172 67.7604 360.555 68.2876 359.974 68.8149L359.992 68.8027ZM363.751 65.8091L363.406 65.3061C364.066 64.8516 364.756 64.4032 365.458 63.979L365.767 64.4941C365.064 64.9243 364.411 65.3667 363.733 65.8212L363.751 65.8091ZM367.861 63.3063L367.577 62.773C368.291 62.3913 369.029 62.0277 369.768 61.6883L370.022 62.2398C369.253 62.5852 368.545 62.9488 367.843 63.3184L367.861 63.3063ZM372.238 61.2944L372.014 60.7248C372.776 60.4278 373.545 60.1188 374.308 59.8945L374.502 60.5005C373.733 60.7308 372.97 61.0096 372.219 61.3065L372.238 61.2944Z" fill="#263238"/>
<path d="M376.905 59.7637L376.753 59.1577C377.504 58.9637 377.964 58.8789 377.964 58.8789L378.073 59.4849C378.073 59.4849 377.637 59.5758 376.905 59.7637Z" fill="#263238"/>
<path d="M387.607 55.8499C386.063 51.0625 375.724 52.7835 377.74 59.0435C379.756 65.3035 389.151 60.6433 387.607 55.8499Z" fill="#263238"/>
<path d="M372.117 53.9334C372.195 51.8306 375.113 50.2125 379.241 50.9579C383.37 51.7033 387.25 54.4909 387.25 54.4909C387.25 54.4909 383.176 56.9634 379.005 57.4179C374.834 57.8724 372.038 56.0301 372.117 53.9334Z" fill="#EBEBEB"/>
<path d="M387.25 54.4805C385.107 54.4805 382.97 54.4199 380.833 54.3532C378.697 54.2866 376.554 54.1775 374.417 54.0078C376.56 54.0078 378.703 54.0624 380.839 54.129C382.976 54.1957 385.119 54.3048 387.25 54.4805Z" fill="#263238"/>
<path d="M376.263 52.0625C377.48 52.6451 378.627 53.3627 379.683 54.2017C379.074 53.9157 378.484 53.5919 377.916 53.2321C377.343 52.8748 376.791 52.4843 376.263 52.0625Z" fill="#263238"/>
<path d="M381.875 54.2773C380.78 55.1658 379.592 55.9338 378.333 56.568C379.434 55.6785 380.627 54.9105 381.893 54.2773H381.875Z" fill="#263238"/>
<path d="M382.498 53.0977C383.109 53.3913 383.644 53.8227 384.06 54.3581C383.754 54.2138 383.468 54.0327 383.206 53.8188C382.943 53.6062 382.706 53.3643 382.498 53.0977Z" fill="#263238"/>
<path d="M376.051 66.3884C377.341 68.0489 380.652 67.6489 383.563 64.631C386.475 61.6132 388.019 57.0742 388.019 57.0742C388.019 57.0742 383.249 57.4378 379.611 59.4982C375.973 61.5586 374.756 64.7219 376.051 66.3884Z" fill="#EBEBEB"/>
<path d="M388.019 57.0742C386.275 58.2862 384.58 59.6315 382.879 60.9344C381.178 62.2373 379.514 63.5827 377.885 64.9704C379.629 63.7584 381.324 62.4191 383.019 61.1162C384.714 59.8133 386.366 58.468 388.019 57.0742Z" fill="#263238"/>
<path d="M380.5 65.4478C380.824 64.8592 381.113 64.2521 381.366 63.6298C381.624 63.0058 381.842 62.3662 382.02 61.7148C381.695 62.303 381.406 62.9101 381.154 63.5328C380.899 64.1578 380.681 64.7972 380.5 65.4478Z" fill="#263238"/>
<path d="M383.781 60.3801C382.365 60.3043 380.945 60.3795 379.544 60.6043C380.25 60.6468 380.957 60.6468 381.663 60.6043C382.373 60.5697 383.08 60.4948 383.781 60.3801Z" fill="#263238"/>
<path d="M384.95 60.9804C385.111 60.6811 385.237 60.3638 385.325 60.0351C385.415 59.7087 385.467 59.3733 385.482 59.0352C385.16 59.6351 384.978 60.3001 384.95 60.9804Z" fill="#263238"/>
<path d="M387.607 55.8479C387.265 55.959 386.898 55.9661 386.552 55.8682C386.206 55.7703 385.897 55.5719 385.664 55.298C385.431 55.0242 385.284 54.6872 385.242 54.3298C385.201 53.9724 385.266 53.6106 385.43 53.2903C385.594 52.97 385.849 52.7056 386.163 52.5305C386.477 52.3554 386.835 52.2776 387.194 52.3068C387.552 52.336 387.893 52.471 388.175 52.6947C388.457 52.9184 388.665 53.2207 388.775 53.5633C388.922 54.0214 388.882 54.519 388.663 54.9472C388.444 55.3755 388.064 55.6993 387.607 55.8479Z" fill="#455A64"/>
<path d="M388.721 59.3094C388.379 59.4201 388.012 59.4269 387.667 59.3289C387.321 59.2309 387.013 59.0326 386.78 58.759C386.547 58.4854 386.4 58.1488 386.358 57.7917C386.316 57.4347 386.381 57.0732 386.544 56.753C386.708 56.4328 386.962 56.1683 387.276 55.9929C387.589 55.8174 387.947 55.739 388.305 55.7674C388.663 55.7959 389.005 55.9299 389.287 56.1526C389.569 56.3754 389.778 56.6768 389.889 57.0187C389.963 57.2459 389.991 57.4854 389.972 57.7235C389.953 57.9617 389.888 58.1937 389.779 58.4064C389.671 58.6192 389.521 58.8084 389.34 58.9633C389.158 59.1183 388.948 59.2359 388.721 59.3094Z" fill="#455A64"/>
<path d="M190.262 57.7609C189.972 60.5443 188.915 63.1924 187.209 65.4094C185.504 67.6265 183.216 69.3254 180.602 70.3166C177.987 71.3078 175.149 71.5522 172.404 71.0226C169.659 70.493 167.115 69.2103 165.056 67.3175L157.508 68.4265L161.285 61.8938C160.421 59.7682 160.053 57.4735 160.207 55.1839C160.362 52.8943 161.036 50.6702 162.178 48.6804C163.32 46.6906 164.9 44.9875 166.797 43.7004C168.695 42.4134 170.861 41.5762 173.13 41.2525C175.4 40.9289 177.713 41.1272 179.894 41.8325C182.075 42.5378 184.067 43.7314 185.719 45.3228C187.371 46.9142 188.638 48.8615 189.425 51.0167C190.213 53.1719 190.499 55.4783 190.262 57.7609Z" fill="white"/>
<path d="M190.262 57.7628C189.978 60.5448 188.931 63.1939 187.236 65.4166C186.407 66.5408 185.409 67.5284 184.276 68.3436C183.167 69.1894 181.944 69.8729 180.644 70.3737C179.342 70.8868 177.975 71.2132 176.582 71.3433C175.885 71.4058 175.186 71.42 174.487 71.3857C173.787 71.3677 173.088 71.2947 172.399 71.1675C169.617 70.6551 167.032 69.3772 164.935 67.477L165.111 67.5315L157.574 68.689L157.023 68.7738L157.302 68.289L161.055 61.7442V62.0048C160.169 59.8399 159.793 57.5002 159.954 55.1664C160.116 52.8327 160.812 50.5674 161.987 48.5456C163.161 46.5301 164.775 44.8065 166.709 43.5036C168.639 42.2181 170.835 41.3867 173.132 41.0718C175.429 40.757 177.767 40.9668 179.972 41.6856C182.153 42.4285 184.14 43.6501 185.789 45.261C187.434 46.868 188.692 48.8289 189.467 50.9951C190.242 53.1613 190.514 55.4757 190.262 57.7628ZM190.262 57.7628C190.507 55.487 190.226 53.1853 189.441 51.0355C188.656 48.8857 187.387 46.9452 185.734 45.364C184.081 43.7827 182.087 42.603 179.906 41.9158C177.725 41.2287 175.415 41.0525 173.156 41.4008C170.918 41.7323 168.787 42.5741 166.927 43.8612C165.082 45.1584 163.541 46.8415 162.411 48.794C161.298 50.7508 160.642 52.9345 160.492 55.1813C160.345 57.4432 160.709 59.7093 161.557 61.8109L161.612 61.9442L161.539 62.0715L157.738 68.592L157.471 68.1921L165.026 67.1316H165.129L165.202 67.1982C167.221 69.0799 169.723 70.3619 172.429 70.9009C173.103 71.0384 173.788 71.1215 174.475 71.1494C175.162 71.1978 175.852 71.1978 176.539 71.1494C177.918 71.0382 179.274 70.7385 180.571 70.2585C181.871 69.7848 183.094 69.1233 184.203 68.2951C185.331 67.4865 186.331 66.5119 187.169 65.4045C188.886 63.1925 189.957 60.5473 190.262 57.7628Z" fill="#263238"/>
<path d="M167.883 63.2334C167.872 63.0328 167.901 62.8319 167.97 62.6432C168.04 62.4546 168.147 62.2822 168.285 62.1367C168.424 61.9912 168.591 61.8758 168.776 61.7976C168.96 61.7194 169.159 61.68 169.36 61.682C169.771 61.682 170.165 61.8455 170.456 62.1364C170.747 62.4274 170.91 62.822 170.91 63.2334C170.91 63.6448 170.747 64.0394 170.456 64.3304C170.165 64.6213 169.771 64.7848 169.36 64.7848C169.159 64.7868 168.96 64.7474 168.776 64.6692C168.591 64.591 168.424 64.4756 168.285 64.3301C168.147 64.1846 168.04 64.0122 167.97 63.8236C167.901 63.6349 167.872 63.434 167.883 63.2334ZM168.488 59.6519L168.137 47.6289H170.559L170.208 59.6519H168.488Z" fill="#23A455"/>
<path d="M173.64 63.2334C173.628 63.0333 173.658 62.8329 173.727 62.6447C173.795 62.4564 173.902 62.2843 174.04 62.1389C174.178 61.9935 174.344 61.878 174.528 61.7994C174.712 61.7208 174.911 61.6809 175.111 61.682C175.522 61.682 175.916 61.8455 176.207 62.1364C176.497 62.4274 176.66 62.822 176.66 63.2334C176.66 63.6448 176.497 64.0394 176.207 64.3304C175.916 64.6213 175.522 64.7848 175.111 64.7848C174.911 64.7859 174.712 64.746 174.528 64.6674C174.344 64.5888 174.178 64.4733 174.04 64.3279C173.902 64.1825 173.795 64.0104 173.727 63.8221C173.658 63.6339 173.628 63.4335 173.64 63.2334ZM174.245 59.6519L173.912 47.6289H176.334L175.983 59.6519H174.245Z" fill="#23A455"/>
<path d="M179.391 63.2334C179.379 63.0328 179.409 62.8319 179.478 62.6432C179.547 62.4546 179.654 62.2822 179.793 62.1367C179.931 61.9912 180.098 61.8758 180.283 61.7976C180.468 61.7194 180.667 61.68 180.868 61.682C181.279 61.682 181.673 61.8455 181.963 62.1364C182.254 62.4274 182.417 62.822 182.417 63.2334C182.417 63.6448 182.254 64.0394 181.963 64.3304C181.673 64.6213 181.279 64.7848 180.868 64.7848C180.667 64.7868 180.468 64.7474 180.283 64.6692C180.098 64.591 179.931 64.4756 179.793 64.3301C179.654 64.1846 179.547 64.0122 179.478 63.8236C179.409 63.6349 179.379 63.434 179.391 63.2334ZM179.996 59.6519L179.645 47.6289H182.066L181.721 59.6519H179.996Z" fill="#23A455"/>
</svg>
