<svg width="73" height="72" viewBox="0 0 73 72" fill="none" xmlns="http://www.w3.org/2000/svg">
<g id="icons8-swap 1">
<path id="Vector" d="M24.5002 41.6068C24.5002 39.2938 21.7102 38.1298 20.0662 39.7588L8.38719 51.3268C6.90219 52.7998 6.90219 55.1998 8.38719 56.6728L20.0662 68.2408C21.7102 69.8698 24.5002 68.7058 24.5002 66.3928V41.6068Z" fill="#23A455" style="fill:#23A455;fill:color(display-p3 0.1373 0.6431 0.3333);fill-opacity:1;"/>
<path id="Vector_2" d="M21.5 60C21.5 60 40.409 60 42.5 60C45.815 60 48.5 57.315 48.5 54C48.5 50.685 45.815 48 42.5 48C40.409 48 21.5 48 21.5 48V60Z" fill="#23A455" style="fill:#23A455;fill:color(display-p3 0.1373 0.6431 0.3333);fill-opacity:1;"/>
<path id="Vector_3" d="M60.5 60C63.8137 60 66.5 57.3137 66.5 54C66.5 50.6863 63.8137 48 60.5 48C57.1863 48 54.5 50.6863 54.5 54C54.5 57.3137 57.1863 60 60.5 60Z" fill="#23A455" style="fill:#23A455;fill:color(display-p3 0.1373 0.6431 0.3333);fill-opacity:1;"/>
<path id="Vector_4" opacity="0.35" d="M52.934 32.2408L64.613 20.6728C66.098 19.1998 66.098 16.7998 64.613 15.3268L52.934 3.75876C51.29 2.12976 48.5 3.29376 48.5 5.60676V11.9998H30.5C27.185 11.9998 24.5 14.6848 24.5 17.9998C24.5 21.3148 27.185 23.9998 30.5 23.9998H48.5V30.3928C48.5 32.7058 51.29 33.8698 52.934 32.2408Z" fill="#23A455" style="fill:#23A455;fill:color(display-p3 0.1373 0.6431 0.3333);fill-opacity:1;"/>
<path id="Vector_5" opacity="0.35" d="M12.5 24C15.8137 24 18.5 21.3137 18.5 18C18.5 14.6863 15.8137 12 12.5 12C9.18629 12 6.5 14.6863 6.5 18C6.5 21.3137 9.18629 24 12.5 24Z" fill="#23A455" style="fill:#23A455;fill:color(display-p3 0.1373 0.6431 0.3333);fill-opacity:1;"/>
</g>
</svg>
