<svg width="171" height="171" viewBox="0 0 171 171" fill="none" xmlns="http://www.w3.org/2000/svg">
<g clip-path="url(#clip0_1662_63605)">
<path d="M36.2787 121.494C27.2757 117.156 10.1265 107.426 6.0931 112.181C2.86443 116.888 13.8535 123.695 36.2787 121.494ZM107.208 128.709C112.629 116.339 131.375 106.012 136.205 109.955C140.238 113.993 129.553 126.44 107.208 128.709Z" fill="#1B1D1C"/>
<path d="M133.27 115.635C120.201 91.3037 109.482 74.7653 96.0025 78.9381C88.3307 81.312 107.357 129.735 107.357 129.735C110.764 137.947 116.226 148.18 132.45 146.491C145.676 145.108 136.704 122.032 133.27 115.635Z" fill="white"/>
<path d="M129.039 146.921C126.524 146.921 124.198 146.606 122.094 145.978C119.445 145.193 117.001 143.838 114.934 142.007C111.107 138.627 108.841 133.952 107.129 129.825C107.086 129.716 102.983 119.248 99.3962 107.952C94.564 92.7329 92.9248 83.3343 94.525 80.0092C94.8562 79.3244 95.3272 78.8818 95.9324 78.6957C99.2861 77.6577 102.506 77.8413 105.777 79.2574C108.799 80.5659 111.809 82.9108 114.978 86.4269C121.27 93.4021 127.592 104.529 133.493 115.514C135.008 118.335 137.118 123.411 138.414 128.39C139.18 131.328 139.606 133.989 139.682 136.296C139.771 139.031 139.365 141.271 138.472 142.955C137.297 145.17 135.282 146.441 132.48 146.733C131.337 146.855 130.188 146.918 129.039 146.921ZM100.135 78.5369C98.7589 78.5437 97.3913 78.7584 96.0789 79.1738C95.6079 79.3202 95.2511 79.6651 94.9754 80.2284C91.2749 87.9207 107.429 129.227 107.592 129.643C110.603 136.901 113.16 139.781 115.266 141.636C117.28 143.417 119.66 144.735 122.239 145.498C125.208 146.385 128.636 146.634 132.428 146.242C135.055 145.969 136.941 144.785 138.033 142.725C139.135 140.648 140.011 136.497 137.934 128.518C136.648 123.579 134.557 118.547 133.056 115.751C123.094 97.211 118.298 90.862 114.607 86.7627C111.486 83.3012 108.533 80.9968 105.577 79.7172C103.758 78.9298 101.955 78.5369 100.135 78.5369ZM96.0069 38.8223C94.2916 38.1127 92.3494 38.2119 90.7541 39.1606C88.6282 33.4534 80.9853 34.91 80.1898 39.3856C74.6323 35.6222 68.4341 41.9497 70.8945 46.6925C71.7985 48.4336 73.3375 52.092 72.7025 55.1664C75.3708 56.1995 80.5855 62.2847 80.5855 62.2847C80.5855 62.2847 90.9942 51.5461 95.3604 49.9605C100.811 47.9737 99.8747 40.4237 96.0069 38.8223Z" fill="#1B1D1C"/>
<path d="M99.4593 67.3128C99.5901 68.8844 98.7564 70.5296 97.1023 71.4642C92.7966 73.8927 87.1257 72.5941 87.1257 72.5941C87.1257 72.5941 86.9088 75.8885 87.6291 81.0415C86.8939 82.0663 83.0841 84.4088 77.5896 84.1888C72.8269 83.9985 69.0187 81.6247 67.3158 79.7462C68.5882 76.6412 70.7605 71.5577 73.6903 65.4832C70.6463 65.0837 65.9275 61.9117 66.6626 57.7909C67.0823 55.4402 69.575 53.5147 72.0164 54.2111C74.3866 54.8869 75.2906 56.2988 77.2063 58.3691C78.9845 60.2905 79.4978 59.207 80.675 56.8753C81.7198 54.8075 83.3134 52.9878 84.4998 51.9878C87.1796 49.7215 92.1161 49.6561 95.3837 49.9878C95.3886 52.4658 95.5576 54.9407 95.8895 57.3964C96.4533 61.709 99.1579 63.6387 99.4626 67.3153L99.4593 67.3128Z" fill="white"/>
<path d="M78.2896 84.4509C78.0544 84.4509 77.8177 84.4509 77.5768 84.4368C73.0235 84.2549 69.0498 82.0332 67.1291 79.9125C67.0977 79.8777 67.0768 79.8348 67.0687 79.7887C67.0607 79.7426 67.0658 79.6952 67.0836 79.6519C68.3659 76.5212 70.4778 71.5742 73.3166 65.6734C71.4597 65.3211 68.9686 64.0068 67.5157 62.0241C66.5331 60.6825 66.1514 59.2028 66.4114 57.7446C66.6432 56.4476 67.4818 55.2367 68.6549 54.5047C69.7311 53.8356 70.9431 53.6453 72.0781 53.9687C74.1221 54.5518 75.1188 55.6701 76.4981 57.2185C76.7762 57.5303 77.0635 57.8529 77.3822 58.197C77.989 58.8529 78.4468 59.149 78.7813 59.1011C79.3029 59.0283 79.7648 58.1085 80.4056 56.8422L80.447 56.7595C81.5381 54.5982 83.1698 52.7777 84.333 51.7967C85.5698 50.7512 87.3696 50.068 89.6826 49.7661C91.845 49.484 93.9875 49.5957 95.4023 49.7396C95.4638 49.7458 95.5208 49.7746 95.5621 49.8205C95.6034 49.8664 95.6262 49.926 95.6259 49.9878C95.6308 52.4547 95.7989 54.9185 96.1292 57.3633C96.409 59.5014 97.2253 61.0415 98.0142 62.5303C98.8032 64.0192 99.5491 65.4253 99.7039 67.2946C99.8504 69.0531 98.8992 70.7346 97.2203 71.6784C93.3865 73.8421 88.5882 73.1283 87.3572 72.8943C87.3249 73.7983 87.2826 76.7917 87.8713 81.0051C87.8801 81.0681 87.8644 81.132 87.8274 81.1837C87.0045 82.3343 83.3023 84.4509 78.2896 84.4509ZM67.6027 79.6941C69.4902 81.7024 73.2694 83.7677 77.5966 83.9414C83.0415 84.1589 86.6063 81.886 87.3654 80.972C86.6667 75.9125 86.8687 72.6106 86.8737 72.5783C86.876 72.5424 86.8861 72.5074 86.9033 72.4758C86.9205 72.4441 86.9444 72.4166 86.9733 72.3951C87.0022 72.3737 87.0354 72.3587 87.0707 72.3514C87.106 72.344 87.1424 72.3444 87.1775 72.3525C87.233 72.3649 92.807 73.6023 96.9761 71.2474C98.4828 70.3972 99.338 68.8976 99.2113 67.3335C99.0648 65.5676 98.3429 64.2044 97.578 62.7611C96.7675 61.2334 95.9305 59.6528 95.6399 57.4269C95.3165 55.0353 95.147 52.6253 95.1325 50.2119C92.7523 49.9902 87.4515 49.8124 84.6567 52.1755C83.5308 53.1267 81.9504 54.8901 80.8932 56.9853L80.8518 57.068C80.1167 58.5245 79.6315 59.4857 78.8525 59.5949C78.3309 59.6685 77.7655 59.3418 77.0204 58.5361C76.6984 58.1887 76.4095 57.8645 76.1297 57.551C74.7571 56.0101 73.8497 54.9919 71.9448 54.4485C70.9464 54.1639 69.8751 54.3343 68.9198 54.9282C67.8643 55.5899 67.1101 56.6734 66.9031 57.8339C66.6639 59.1747 67.0058 60.4865 67.9197 61.733C69.3793 63.7264 71.9423 65.0051 73.7148 65.2384C73.7537 65.2435 73.791 65.2578 73.8233 65.28C73.8557 65.3023 73.8823 65.332 73.901 65.3665C73.9196 65.4011 73.9298 65.4396 73.9307 65.4788C73.9316 65.5181 73.9231 65.557 73.906 65.5924C71.0507 71.5196 68.9107 76.5088 67.6027 79.6941Z" fill="#1B1D1C"/>
<path d="M86.6809 50.6717C87.7058 50.369 90.7374 51.1597 89.5536 52.1788C88.8863 52.752 88.017 52.9811 87.286 53.4459C86.541 53.7627 84.0574 55.8959 84.0524 54.2615C84.0441 52.742 84.9813 51.1738 86.6809 50.6717ZM85.324 56.4037C86.036 56.2532 87.7513 55.9315 89.3408 55.1233C89.3934 55.0964 89.4507 55.0802 89.5096 55.0754C89.5684 55.0707 89.6277 55.0775 89.6839 55.0957C89.7401 55.1138 89.7921 55.1428 89.8371 55.1811C89.8821 55.2193 89.9191 55.266 89.946 55.3186V55.3235C90.2349 55.9025 90.5362 56.9133 89.383 57.3252C87.9657 57.8314 85.68 57.3864 85.1849 56.7702C85.1476 56.7217 85.1311 56.6604 85.1391 56.5997C85.147 56.5391 85.1787 56.4841 85.2271 56.4468C85.2549 56.4254 85.2872 56.4106 85.3215 56.4037H85.324ZM95.0448 54.9778C94.3229 55.0696 93.7897 55.0166 92.4701 54.8578C92.4113 54.8499 92.3515 54.8537 92.2941 54.8689C92.2368 54.8842 92.183 54.9105 92.1358 54.9466C92.0887 54.9826 92.0491 55.0276 92.0194 55.0789C91.9897 55.1303 91.9704 55.187 91.9626 55.2458C91.8799 55.8851 92.1961 56.5311 93.2251 56.6428C94.3717 56.7669 95.0887 55.919 95.2948 55.2789C95.3042 55.2499 95.3078 55.2193 95.3054 55.1889C95.3029 55.1585 95.2945 55.1289 95.2806 55.1018C95.2666 55.0746 95.2475 55.0505 95.2242 55.0308C95.201 55.0111 95.174 54.9962 95.145 54.9869C95.1127 54.9764 95.0784 54.9733 95.0448 54.9778ZM76.013 65.2242C76.0044 65.1906 75.9893 65.159 75.9684 65.1312C75.9476 65.1034 75.9215 65.08 75.8915 65.0623C75.8616 65.0447 75.8285 65.0331 75.7941 65.0282C75.7597 65.0233 75.7246 65.0253 75.691 65.034C75.0095 65.2111 74.3041 65.2782 73.6015 65.2325C73.5965 65.2458 73.5907 65.259 73.5849 65.273C73.5236 65.4186 73.4621 65.5639 73.4003 65.7089L73.3829 65.7495C74.2017 65.824 75.0273 65.7555 75.8226 65.5468C75.8563 65.5382 75.888 65.5229 75.9158 65.502C75.9436 65.4811 75.967 65.4549 75.9847 65.425C76.0024 65.395 76.014 65.3619 76.0189 65.3274C76.0237 65.293 76.0217 65.2579 76.013 65.2242ZM93.8957 49.8744C92.7864 50.1755 91.2764 51.2863 92.4122 51.8181C93.1424 52.1597 93.9437 52.1449 94.6938 52.3723C94.9214 52.4294 95.1797 52.5104 95.4447 52.5981C95.4027 51.728 95.3801 50.8573 95.3768 49.9861C94.9132 49.9389 94.4156 49.9009 93.8957 49.8744ZM81.5605 69.2945C80.8155 69.7395 80.7567 75.3946 87.0509 76.6031C87.1337 76.6188 87.1403 72.3516 87.1403 72.3516C87.1403 72.3516 83.4679 71.2391 81.5605 69.2945ZM93.4321 63.0903C93.0901 63.3195 92.6898 63.4466 92.2781 63.4567C91.8693 63.4806 91.4607 63.4071 91.0859 63.2424C90.7188 63.069 90.4013 62.8058 90.1629 62.4774C89.923 62.1419 89.7798 61.7471 89.7489 61.3359V61.3276C89.7455 61.2694 89.7207 61.2145 89.6792 61.1734C89.6378 61.1323 89.5826 61.108 89.5242 61.1052C89.4659 61.1023 89.4086 61.1211 89.3633 61.1579C89.318 61.1946 89.2878 61.2469 89.2787 61.3045C89.1966 61.8394 89.3072 62.386 89.5908 62.8471C89.729 63.0787 89.9015 63.2882 90.1024 63.4683C90.4038 63.7386 90.7617 63.9382 91.1501 64.0527C91.5386 64.1672 91.9477 64.1936 92.3476 64.13C92.6121 64.096 92.8698 64.0218 93.1117 63.9099C93.3596 63.797 93.5809 63.633 93.7608 63.4285C93.7977 63.3844 93.8173 63.3283 93.8159 63.2708C93.8146 63.2132 93.7923 63.1581 93.7534 63.1158C93.7144 63.0734 93.6613 63.0466 93.6041 63.0404C93.5468 63.0342 93.4892 63.0489 93.442 63.082L93.4321 63.0903ZM75.4277 61.3922C74.0204 56.9 70.1253 57.1879 70.0863 57.1912C70.0053 57.1978 69.9302 57.2362 69.8776 57.2981C69.825 57.36 69.7991 57.4402 69.8057 57.5212C69.8123 57.6021 69.8508 57.6772 69.9127 57.7297C69.9747 57.7823 70.055 57.8082 70.136 57.8016C70.2768 57.7917 73.5915 57.5824 74.8432 61.5758C74.8676 61.6532 74.9218 61.7178 74.9938 61.7554C75.0659 61.7929 75.1499 61.8003 75.2274 61.7759C75.3049 61.7516 75.3695 61.6975 75.4071 61.6255C75.4447 61.5535 75.4521 61.4696 75.4277 61.3922Z" fill="#1B1D1C"/>
<path d="M92.9756 60.1374C93.0039 60.1437 93.0333 60.144 93.0617 60.1385C93.0902 60.1329 93.1172 60.1216 93.1412 60.1052C93.8515 59.6147 94.1868 59.2094 94.2306 58.7909C94.2853 58.259 93.8589 57.8107 93.3647 57.2921C92.2562 56.1291 92.4764 55.3442 92.4789 55.3368C92.495 55.2833 92.4896 55.2257 92.4638 55.1762C92.438 55.1268 92.3937 55.0894 92.3406 55.0721C92.2878 55.0548 92.2303 55.0591 92.1807 55.0841C92.131 55.109 92.0933 55.1526 92.0757 55.2052C92.0625 55.245 91.7561 56.2185 93.0576 57.5841C93.5476 58.0977 93.8424 58.4319 93.8093 58.747C93.7811 59.0241 93.4839 59.355 92.8986 59.7569C92.8648 59.7804 92.8386 59.8132 92.8231 59.8513C92.8077 59.8894 92.8037 59.9311 92.8116 59.9715C92.8195 60.0118 92.8389 60.049 92.8676 60.0785C92.8963 60.1079 92.933 60.1284 92.9731 60.1374H92.9756Z" fill="#1B1D1C"/>
<path d="M88.2834 42.6446C88.3082 42.6502 88.3334 42.6529 88.3588 42.6529C88.4336 42.6527 88.5061 42.6273 88.5645 42.5807C88.623 42.5342 88.664 42.4692 88.6808 42.3965C88.6874 42.3692 89.1726 40.3568 90.7621 39.1558L90.7505 39.1624C90.6705 38.9478 90.5795 38.7374 90.4781 38.5321C88.6138 39.8464 88.0649 42.1227 88.0359 42.2476C88.0161 42.333 88.031 42.4228 88.0774 42.4973C88.1238 42.5717 88.1979 42.6247 88.2834 42.6446Z" fill="white"/>
<path d="M136.367 110.121C129.114 106.827 110.754 122.634 107.309 130.246C106.917 133.156 107.732 142.546 107.732 142.546C85.7112 145.441 63.3001 145.232 39.4195 142.582L42.9355 136.141L47.1857 127.952C47.1857 127.952 30.1144 118.242 21.1345 114.54H21.1279C14.2136 111.692 8.10642 110.085 6.11954 112.152C6.11954 112.158 6.10961 112.162 6.10547 112.168C6.49374 111.672 16.6599 98.742 29.467 88.4666C35.7339 83.4385 42.635 79.0456 49.334 77.0572C55.4602 75.2375 62.4333 75.6197 67.6025 79.6991C74.2983 85.465 82.2557 84.838 87.3727 80.9679C95.3815 75.7181 105.477 76.5096 113.106 82.0109C124.572 90.2822 136.4 110.088 136.367 110.121Z" fill="#E7E7E7"/>
<path d="M40.3699 124.391C40.328 124.391 40.2864 124.383 40.2474 124.368C40.207 124.352 40.1701 124.328 40.139 124.298C40.1079 124.267 40.083 124.231 40.0659 124.191C40.0487 124.151 40.0396 124.108 40.0391 124.065C40.0386 124.022 40.0466 123.978 40.0627 123.938C40.1116 123.815 45.0299 111.538 49.1759 105.143C49.2236 105.07 49.2987 105.018 49.3847 104.999C49.4706 104.981 49.5603 104.997 49.6341 105.045C49.7079 105.093 49.7596 105.168 49.778 105.254C49.7964 105.34 49.7799 105.429 49.7322 105.503C45.6218 111.843 40.7267 124.06 40.6778 124.182C40.6534 124.244 40.611 124.297 40.5561 124.334C40.5012 124.371 40.4363 124.391 40.3699 124.391ZM67.3591 86.0051C68.4014 90.8852 70.1283 93.7934 72.4918 94.6544C72.8531 94.791 73.2356 94.8627 73.6219 94.8661C74.2635 94.8661 74.8728 94.6511 75.4432 94.2218C77.238 92.8678 78.3167 89.5254 78.8018 86.4509L78.5203 83.953H78.4185C78.3262 85.4156 78.1085 86.8675 77.7678 88.2929C77.1295 90.9307 76.1601 92.8479 75.04 93.6924C74.3247 94.2309 73.5647 94.3426 72.7145 94.0324C68.0669 92.3384 67.2829 81.5601 67.1678 79.3839C66.959 79.2107 66.7377 79.0531 66.5055 78.9125C66.4949 78.9467 66.4896 78.9825 66.4898 79.0183C66.5907 81.3669 66.8814 83.7034 67.3591 86.0051ZM79.8391 87.6064C80.5751 89.5915 81.417 91.1631 82.3401 92.2739C83.466 93.6296 84.7194 94.3161 86.0713 94.3161C86.1541 94.3161 86.2369 94.3161 86.3246 94.3078C87.1732 94.2549 87.862 93.8686 88.3703 93.1598C90.2255 90.5709 89.2304 84.068 88.4382 80.293C88.2345 80.4137 88.033 80.5383 87.8338 80.6668C88.035 81.6437 88.2477 82.7834 88.4133 83.9753C89.0317 88.3393 88.8272 91.3814 87.8338 92.7752C87.4414 93.3227 86.9356 93.6081 86.2857 93.6486C86.2145 93.6486 86.145 93.6552 86.0754 93.6552C82.461 93.6552 80.3772 87.7578 79.4037 83.9149L79.1901 83.929L79.4923 86.6081C79.5991 86.9389 79.7125 87.2731 79.8391 87.6064ZM79.4898 86.6073L79.1876 83.9282L79.0825 83.934C79.0146 83.9381 78.9459 83.9414 78.8772 83.9439L78.724 83.9489H78.5237L78.8051 86.4468L79.9451 96.5444C80.1694 96.5485 80.3913 96.551 80.6132 96.5535L79.4898 86.6073Z" fill="white"/>
<path d="M78.0301 95.7346C78.394 95.7346 78.6891 95.4399 78.6891 95.0762C78.6891 94.7126 78.394 94.4178 78.0301 94.4178C77.6661 94.4178 77.3711 94.7126 77.3711 95.0762C77.3711 95.4399 77.6661 95.7346 78.0301 95.7346Z" fill="white"/>
<path d="M89.3829 103.63C88.9003 103.873 88.3489 103.897 87.8191 103.866C89.0021 105.01 87.685 106.926 86.1038 107.193C87.959 108.907 85.8041 110.402 83.9008 110.589C87.2843 115.457 74.2521 115.617 72.2577 115.32C67.7815 119.361 59.6411 138.429 39.6399 145.213C14.1541 152.079 5.24461 128.462 14.4074 112.171C17.9788 113.156 34.7207 119.781 35.537 120.474C52.0943 106.137 66.9031 96.7627 78.3583 96.5295C88.6503 96.3202 93.4312 101.726 89.3829 103.63Z" fill="white"/>
<path d="M31.075 146.68C28.9571 146.693 26.8476 146.414 24.8056 145.853C20.8525 144.742 17.5973 142.573 15.132 139.401C12.3835 135.879 10.8411 131.378 10.6706 126.394C10.5082 121.38 11.7276 116.418 14.1956 112.05C14.2228 112.002 14.2654 111.964 14.3166 111.943C14.3677 111.921 14.4245 111.918 14.4779 111.932C17.8134 112.852 33.4741 118.999 35.5189 120.166C53.8636 104.309 67.881 96.4948 78.3584 96.2814C82.6451 96.1937 85.5451 97.063 87.2224 97.8083C89.3318 98.7446 90.7135 100.013 91.0123 101.287C91.2607 102.347 90.7085 103.282 89.4965 103.851C89.1317 104.024 88.7338 104.116 88.3301 104.121C88.4407 104.329 88.5073 104.559 88.5257 104.794C88.544 105.029 88.5138 105.266 88.4369 105.489C88.1827 106.31 87.4368 107.032 86.5791 107.331C87.1404 108.003 87.1214 108.592 86.9881 108.985C86.6694 109.93 85.4681 110.57 84.3207 110.78C84.8067 111.627 84.8414 112.395 84.4242 113.066C83.5135 114.524 80.5771 115.154 78.2699 115.426C75.869 115.71 73.3258 115.697 72.3448 115.582C71.2686 116.588 69.9622 118.477 68.3197 120.846C65.8163 124.46 62.3881 129.41 57.7719 133.993C52.2799 139.445 46.3772 143.192 39.7245 145.449L39.7096 145.453C36.6655 146.273 33.7796 146.68 31.075 146.68ZM14.5334 112.464C12.1734 116.713 11.0099 121.521 11.1665 126.377C11.3321 131.257 12.8396 135.658 15.5235 139.105C17.9243 142.188 21.0909 144.299 24.9405 145.38C29.2032 146.577 34.1298 146.441 39.5722 144.976C46.1487 142.743 51.9901 139.037 57.4217 133.64C62.0056 129.091 65.4189 124.161 67.9108 120.563C69.6145 118.104 70.9606 116.161 72.0956 115.136C72.1229 115.111 72.1554 115.093 72.1906 115.082C72.2258 115.072 72.2629 115.069 72.2993 115.075C73.003 115.18 75.5379 115.249 78.2119 114.933C81.3197 114.567 83.3761 113.811 84.002 112.804C84.3646 112.221 84.2661 111.543 83.7015 110.731C83.6767 110.695 83.6617 110.654 83.6579 110.61C83.6541 110.567 83.6616 110.524 83.6798 110.485C83.698 110.445 83.7261 110.412 83.7614 110.386C83.7967 110.361 83.838 110.346 83.8811 110.342C84.9615 110.236 86.243 109.64 86.517 108.826C86.6735 108.362 86.479 107.874 85.9375 107.376C85.9035 107.344 85.8789 107.304 85.8666 107.259C85.8543 107.215 85.8548 107.167 85.868 107.123C85.8812 107.079 85.9065 107.039 85.9412 107.008C85.9759 106.977 86.0185 106.957 86.0642 106.949C86.9053 106.805 87.7199 106.113 87.96 105.338C88.0676 104.99 88.1007 104.482 87.6479 104.045C87.6115 104.01 87.5867 103.964 87.577 103.914C87.5672 103.865 87.5729 103.813 87.5933 103.767C87.6136 103.721 87.6477 103.681 87.6909 103.655C87.7341 103.629 87.7844 103.616 87.835 103.619C88.2613 103.643 88.8102 103.641 89.273 103.409H89.2788C89.985 103.078 90.7739 102.46 90.5256 101.404C90.2664 100.299 88.9526 99.1251 87.0179 98.2607C85.387 97.537 82.5623 96.6892 78.3659 96.7769C67.9795 96.9878 54.0267 104.8 35.7019 120.661C35.6569 120.7 35.5994 120.721 35.5401 120.721C35.4807 120.721 35.4233 120.7 35.3782 120.661C34.6778 120.063 18.6024 113.649 14.5334 112.464Z" fill="#1B1D1C"/>
<path d="M30.7249 125.097C30.6751 125.097 30.6264 125.082 30.5852 125.054C30.544 125.026 30.5122 124.986 30.4939 124.94C30.4756 124.894 30.4717 124.843 30.4826 124.794C30.4935 124.746 30.5188 124.702 30.5552 124.668C33.8906 121.553 35.3667 120.297 35.3816 120.284C35.4319 120.241 35.4971 120.22 35.5627 120.226C35.6284 120.231 35.6892 120.263 35.7318 120.313C35.7744 120.363 35.7953 120.428 35.7899 120.494C35.7844 120.559 35.7531 120.62 35.7028 120.663C35.6879 120.675 34.2193 121.924 30.8946 125.029C30.8487 125.072 30.788 125.097 30.7249 125.097ZM87.8235 104.114C87.7598 104.114 87.6984 104.09 87.6521 104.046C84.0418 100.623 79.3097 100.986 79.2617 100.992C79.2291 100.995 79.1963 100.991 79.1651 100.981C79.1339 100.971 79.105 100.955 79.0799 100.934C79.0549 100.913 79.0343 100.887 79.0193 100.858C79.0042 100.829 78.995 100.797 78.9923 100.765C78.9895 100.732 78.9932 100.699 79.0031 100.668C79.013 100.637 79.029 100.608 79.0501 100.583C79.0712 100.558 79.097 100.538 79.1261 100.523C79.1552 100.508 79.1869 100.498 79.2195 100.496C79.4223 100.477 84.2231 100.109 87.9949 103.684C88.0307 103.718 88.0555 103.762 88.066 103.811C88.0766 103.859 88.0724 103.91 88.0541 103.956C88.0358 104.001 88.0041 104.041 87.9632 104.069C87.9222 104.097 87.8739 104.112 87.8243 104.112L87.8235 104.114ZM86.1082 107.441C86.0498 107.441 85.9932 107.421 85.9484 107.383C82.8108 104.741 78.1392 105.01 78.092 105.013C78.0261 105.018 77.9612 104.996 77.9116 104.952C77.862 104.909 77.8317 104.847 77.8275 104.781C77.8232 104.716 77.8452 104.651 77.8888 104.601C77.9323 104.552 77.9938 104.521 78.0597 104.517C78.2592 104.505 82.9755 104.23 86.2688 106.998C86.3076 107.031 86.3354 107.075 86.3484 107.124C86.3615 107.174 86.359 107.226 86.3415 107.273C86.324 107.321 86.2922 107.362 86.2505 107.391C86.2087 107.42 86.1591 107.436 86.1082 107.436V107.441ZM83.9052 110.837C83.8716 110.837 83.8383 110.83 83.8074 110.817C83.7765 110.803 83.7487 110.784 83.7256 110.759C81.3107 108.223 77.0828 109.098 77.0406 109.105C76.9761 109.119 76.9088 109.107 76.8535 109.071C76.7981 109.035 76.7593 108.979 76.7454 108.915C76.7316 108.85 76.7439 108.783 76.7797 108.728C76.8155 108.672 76.8718 108.633 76.9363 108.62C77.7851 108.462 78.6507 108.414 79.5117 108.477C81.4225 108.61 83.0037 109.28 84.0857 110.416C84.1193 110.451 84.1418 110.496 84.1504 110.544C84.159 110.591 84.1533 110.641 84.1341 110.685C84.1149 110.73 84.0829 110.768 84.0422 110.795C84.0015 110.822 83.9539 110.836 83.9052 110.836V110.837ZM72.263 115.568C72.212 115.569 72.1622 115.553 72.1204 115.524C72.0785 115.495 72.0466 115.454 72.0289 115.406C72.0113 115.358 72.0088 115.306 72.0218 115.257C72.0348 115.208 72.0626 115.164 72.1015 115.131C73.8152 113.678 77.6358 111.922 81.1377 113.041C81.1713 113.049 81.2029 113.064 81.2306 113.084C81.2582 113.105 81.2813 113.131 81.2984 113.161C81.3154 113.19 81.3261 113.224 81.3296 113.258C81.3332 113.292 81.3296 113.327 81.319 113.359C81.3085 113.392 81.2912 113.422 81.2684 113.448C81.2455 113.474 81.2175 113.495 81.1862 113.509C81.1549 113.523 81.121 113.531 81.0865 113.532C81.0521 113.532 81.0179 113.525 80.9862 113.512C77.6747 112.456 74.0528 114.127 72.4236 115.507C72.379 115.546 72.3221 115.568 72.263 115.568Z" fill="#1B1D1C"/>
<path d="M99.1242 111.007C100.683 116.955 104.963 126.608 107.02 131.247L107.224 131.706C107.236 131.203 107.263 130.721 107.307 130.266C105.162 125.424 101.232 116.448 99.7617 110.839C99.7371 110.757 99.6817 110.688 99.6071 110.646C99.5325 110.604 99.4445 110.592 99.3616 110.613C99.2787 110.635 99.2073 110.688 99.1624 110.76C99.1175 110.833 99.1026 110.921 99.1209 111.004L99.1242 111.007ZM120.182 126.486C120.448 125.411 120.733 124.407 121.005 123.514C124.499 112.032 134.672 102.869 135.005 94.1772C135.145 90.561 149.27 88.1391 150.45 94.2938C152.564 105.324 154.142 144.248 132.452 146.49" fill="white"/>
<path d="M132.454 146.738C132.388 146.741 132.323 146.718 132.275 146.674C132.226 146.63 132.196 146.568 132.193 146.502C132.19 146.436 132.213 146.372 132.257 146.323C132.301 146.274 132.363 146.245 132.429 146.242C137.143 145.754 141.061 143.453 144.075 139.401C146.786 135.762 150.211 128.649 151.13 115.476C151.71 107.204 151.085 98.8984 150.211 94.3385C149.638 91.3484 145.801 90.5568 142.401 90.8141C138.593 91.1019 135.318 92.6453 135.259 94.1846C135.076 98.9423 131.969 103.867 128.681 109.08C125.813 113.63 122.846 118.33 121.247 123.585C120.94 124.593 120.667 125.589 120.427 126.544C120.412 126.608 120.371 126.663 120.315 126.697C120.258 126.731 120.19 126.742 120.126 126.726C120.062 126.71 120.007 126.67 119.973 126.613C119.939 126.557 119.929 126.489 119.945 126.425C120.184 125.462 120.462 124.458 120.773 123.44C122.391 118.122 125.376 113.391 128.261 108.816C131.513 103.66 134.586 98.7901 134.764 94.1656C134.846 92.111 138.69 90.5965 142.365 90.3194C145.978 90.0457 150.064 90.934 150.7 94.245C151.58 98.8372 152.208 107.193 151.627 115.51C151.115 122.848 149.457 133.001 144.475 139.697C141.374 143.865 137.339 146.232 132.48 146.735L132.454 146.738Z" fill="#1B1D1C"/>
<path d="M150.444 94.2939C149.368 88.6454 147.494 83.8423 142.045 79.0036C134.745 72.523 116.805 72.8257 127.91 77.5147C120.703 77.7902 121.64 79.7794 128.088 82.0176C127.564 82.006 127.035 82.0176 126.515 82.0524C116.526 82.9622 128.124 86.8026 131.311 87.5759C129.985 87.4197 128.646 87.4138 127.319 87.5586C118.831 88.5189 129.614 92.0176 130.981 92.475C132.606 93.0201 133.811 93.3923 135.43 93.7083C135.43 93.7083 134.446 97.8249 138.647 99.5197" fill="white"/>
<path d="M138.651 99.7635C138.62 99.7634 138.588 99.7573 138.559 99.7453C136.289 98.8297 135.496 97.2193 135.225 96.029C135.069 95.3302 135.041 94.6088 135.142 93.9C133.688 93.6039 132.551 93.259 130.902 92.7065L130.793 92.6684C130.143 92.4517 128.414 91.8752 126.853 91.1796C124.733 90.2325 123.781 89.4591 123.856 88.7462C123.904 88.2912 124.313 87.6477 127.299 87.3103C127.904 87.2445 128.512 87.2094 129.12 87.2052C128.105 86.8851 126.977 86.4906 125.947 86.0679C122.222 84.5386 122.285 83.6643 122.304 83.3773C122.343 82.862 122.819 82.1366 126.504 81.8057L126.753 81.7908C123.893 80.6858 122.511 79.6874 122.641 78.8181C122.802 77.7429 125.243 77.4261 126.868 77.3186C125.042 76.4592 124.146 75.7131 124.136 75.0489C124.136 74.8049 124.247 74.4608 124.808 74.2036C126.108 73.6089 129.23 73.6966 132.574 74.4228C134.892 74.9265 139.231 76.168 142.222 78.8231C144.817 81.1275 146.746 83.5526 148.119 86.2375C149.284 88.5146 150.079 90.9869 150.699 94.2524C150.709 94.3158 150.693 94.3805 150.656 94.4328C150.619 94.4851 150.563 94.5211 150.5 94.5331C150.437 94.545 150.372 94.5321 150.318 94.4971C150.264 94.462 150.226 94.4075 150.212 94.345C149.138 88.7346 147.316 84.0133 141.887 79.1862C138.98 76.6056 134.736 75.393 132.463 74.8992C129.267 74.2052 126.201 74.101 125.012 74.6511C124.837 74.7338 124.628 74.8636 124.631 75.0373C124.631 75.2301 124.887 75.9621 128.017 77.2822C128.069 77.3039 128.113 77.343 128.14 77.3928C128.167 77.4427 128.176 77.5004 128.166 77.5562C128.156 77.6121 128.126 77.6627 128.083 77.6997C128.04 77.7366 127.986 77.7577 127.929 77.7594C123.608 77.9248 123.164 78.6643 123.127 78.8868C123.1 79.0679 123.217 80.0588 128.177 81.7817C128.233 81.8012 128.279 81.8396 128.309 81.8901C128.339 81.9406 128.35 82 128.34 82.0578C128.33 82.1155 128.3 82.1679 128.255 82.2056C128.21 82.2434 128.153 82.264 128.095 82.264H128.089C127.581 82.2524 127.06 82.264 126.54 82.2979C123.121 82.6097 122.814 83.2309 122.797 83.4137C122.78 83.5965 122.982 84.3169 126.132 85.6089C127.839 86.2972 129.59 86.8722 131.373 87.3301C131.434 87.3455 131.487 87.3835 131.521 87.4364C131.555 87.4893 131.568 87.5532 131.556 87.6151C131.545 87.677 131.511 87.7323 131.46 87.7698C131.41 87.8074 131.347 87.8243 131.284 87.8173C129.977 87.6645 128.657 87.6589 127.349 87.8008C124.626 88.1084 124.361 88.6403 124.344 88.7933C124.328 88.9463 124.473 89.57 127.05 90.7213C128.589 91.4087 130.301 91.9794 130.941 92.1945L131.058 92.2333C132.777 92.8123 133.932 93.1564 135.476 93.4583C135.509 93.4648 135.54 93.4778 135.567 93.4965C135.595 93.5153 135.619 93.5395 135.637 93.5676C135.655 93.5957 135.667 93.6272 135.673 93.6602C135.678 93.6931 135.677 93.7269 135.669 93.7594C135.534 94.4801 135.547 95.221 135.708 95.9364C136.064 97.4889 137.083 98.6146 138.738 99.283C138.792 99.3046 138.836 99.344 138.863 99.3946C138.891 99.4451 138.9 99.5036 138.889 99.5601C138.878 99.6166 138.848 99.6675 138.803 99.7041C138.759 99.7408 138.703 99.7609 138.646 99.761L138.651 99.7635Z" fill="#1B1D1C"/>
<path d="M136.88 79.8083C136.841 79.8084 136.803 79.7993 136.769 79.7818C134.358 78.5751 131.375 77.8935 127.903 77.7587C127.837 77.7561 127.775 77.7274 127.73 77.679C127.685 77.6306 127.662 77.5664 127.664 77.5006C127.667 77.4348 127.696 77.3727 127.744 77.3281C127.792 77.2834 127.857 77.2598 127.923 77.2624C131.465 77.4005 134.516 78.0995 136.992 79.3385C137.042 79.3636 137.082 79.4048 137.105 79.4554C137.129 79.5061 137.135 79.5632 137.122 79.6175C137.109 79.6719 137.078 79.7203 137.034 79.7549C136.99 79.7895 136.936 79.8083 136.88 79.8083ZM137.198 84.2822C137.159 84.2819 137.121 84.2728 137.086 84.2558C134.72 83.0647 131.523 82.3534 128.083 82.2616C128.051 82.2607 128.018 82.2534 127.989 82.2402C127.959 82.2269 127.932 82.2079 127.909 82.1842C127.887 82.1606 127.869 82.1327 127.858 82.1023C127.846 82.0718 127.841 82.0394 127.841 82.0068C127.842 81.9742 127.85 81.9421 127.863 81.9124C127.876 81.8826 127.895 81.8557 127.919 81.8333C127.943 81.8109 127.97 81.7933 128.001 81.7817C128.031 81.77 128.064 81.7644 128.096 81.7653C131.608 81.8612 134.88 82.5883 137.31 83.8116C137.36 83.8367 137.4 83.8779 137.423 83.9286C137.447 83.9792 137.453 84.0363 137.44 84.0907C137.427 84.145 137.396 84.1934 137.352 84.228C137.308 84.2626 137.254 84.2815 137.198 84.2814V84.2822ZM137.078 89.6081C137.033 89.6083 136.989 89.5963 136.95 89.5734C135.517 88.7157 133.586 88.1119 131.366 87.829C131.302 87.8193 131.245 87.7849 131.206 87.7331C131.166 87.6814 131.149 87.6165 131.157 87.5522C131.166 87.4879 131.199 87.4294 131.249 87.3892C131.3 87.3489 131.365 87.3301 131.429 87.3368C133.717 87.6288 135.714 88.2549 137.206 89.1474C137.253 89.1754 137.289 89.2179 137.309 89.2683C137.329 89.3187 137.332 89.3743 137.317 89.4265C137.303 89.4788 137.272 89.5248 137.228 89.5576C137.185 89.5904 137.132 89.6082 137.078 89.6081Z" fill="#1B1D1C"/>
</g>
<g clip-path="url(#clip1_1662_63605)">
<path d="M120.431 45.3385C120.597 47.28 121.32 49.1325 122.512 50.6744C123.704 52.2164 125.315 53.3825 127.152 54.0335C128.99 54.6845 130.976 54.7927 132.873 54.3453C134.77 53.8979 136.499 52.9137 137.851 51.5104C138.302 52.8992 139.202 54.0987 140.41 54.9201C141.618 55.7416 143.065 56.1384 144.523 56.0482C145.98 55.958 147.367 55.3858 148.464 54.4217C149.561 53.4576 150.306 52.1562 150.583 50.7224L150.668 50.7249C152.726 50.7838 154.754 50.2154 156.481 49.0953C158.209 47.9751 159.555 46.3562 160.34 44.4535C161.125 42.5508 161.313 40.4542 160.878 38.4423C160.444 36.4304 159.407 34.5982 157.906 33.1892C158.827 31.6597 159.19 29.8579 158.93 28.0913C158.671 26.3246 157.806 24.7028 156.484 23.5025C155.161 22.3023 153.463 21.5981 151.679 21.5101C149.895 21.4222 148.135 21.956 146.701 23.0204C145.77 21.4815 144.446 20.2175 142.866 19.358C141.286 18.4985 139.505 18.0743 137.707 18.1288C135.908 18.1833 134.157 18.7145 132.631 19.6682C131.106 20.6218 129.862 21.9636 129.026 23.556C126.233 22.8211 123.267 23.1356 120.691 24.4401C118.115 25.7445 116.107 27.9481 115.048 30.6335C113.988 33.3189 113.951 36.2995 114.943 39.0105C115.935 41.7215 117.888 43.9747 120.43 45.3431L120.431 45.3385Z" fill="white"/>
<path d="M143.912 56.3368C142.573 56.2958 141.275 55.8649 140.178 55.097C139.081 54.329 138.232 53.2574 137.735 52.0138C136.323 53.361 134.56 54.2846 132.648 54.6795C130.736 55.0743 128.752 54.9246 126.92 54.2472C125.089 53.5699 123.485 52.3922 122.291 50.8483C121.097 49.3043 120.36 47.4562 120.165 45.5144C118.229 44.4411 116.625 42.856 115.529 40.9324C114.433 39.0089 113.888 36.8211 113.953 34.6086C114.146 27.9589 119.719 22.7065 126.369 22.9001C127.216 22.9247 128.058 23.0379 128.881 23.2378C129.753 21.6585 131.019 20.3323 132.557 19.3888C134.095 18.4454 135.851 17.917 137.654 17.8554C139.457 17.7937 141.246 18.2008 142.845 19.037C144.443 19.8732 145.798 21.1098 146.775 22.6258C148.167 21.6643 149.832 21.175 151.523 21.2298C152.899 21.2692 154.242 21.6634 155.421 22.3741C156.6 23.0849 157.575 24.0881 158.251 25.2864C158.928 26.4848 159.284 27.8376 159.283 29.2137C159.283 30.5897 158.927 31.9424 158.25 33.1404C159.742 34.5976 160.762 36.4687 161.179 38.5117C161.596 40.5548 161.39 42.6758 160.588 44.6006C159.786 46.5254 158.424 48.1653 156.68 49.3084C154.935 50.4515 152.888 51.0451 150.802 51.0125C150.448 52.5606 149.568 53.9381 148.312 54.9099C147.055 55.8818 145.501 56.3877 143.913 56.3414L143.912 56.3368ZM137.855 51.2387C137.873 51.2393 137.891 51.2416 137.909 51.2458C137.956 51.2564 137.998 51.2788 138.034 51.3109C138.069 51.343 138.095 51.3836 138.11 51.4288C138.542 52.7596 139.404 53.909 140.561 54.6962C141.718 55.4834 143.104 55.8637 144.501 55.7772C145.898 55.6908 147.227 55.1425 148.278 54.2187C149.329 53.2948 150.043 52.0478 150.308 50.674C150.32 50.6091 150.355 50.5509 150.407 50.51C150.459 50.469 150.524 50.448 150.59 50.4508L150.673 50.4532C152.677 50.5114 154.65 49.9589 156.332 48.8689C158.013 47.779 159.323 46.2033 160.087 44.3513C160.852 42.4993 161.034 40.4587 160.61 38.5006C160.186 36.5425 159.176 34.7598 157.714 33.3893C157.668 33.3462 157.638 33.2887 157.63 33.2262C157.621 33.1638 157.634 33.1003 157.666 33.0463C158.336 31.9338 158.703 30.6653 158.73 29.3671C158.757 28.0689 158.444 26.7862 157.821 25.6467C157.198 24.5072 156.287 23.5507 155.18 22.8723C154.072 22.194 152.806 21.8175 151.507 21.7803C149.836 21.7265 148.196 22.2428 146.858 23.2444C146.827 23.2672 146.792 23.2834 146.755 23.292C146.718 23.3006 146.679 23.3013 146.642 23.2941C146.604 23.2864 146.569 23.2711 146.538 23.2492C146.507 23.2273 146.481 23.1992 146.462 23.1667C145.556 21.6703 144.268 20.4414 142.731 19.6057C141.194 18.77 139.462 18.3576 137.713 18.4106C135.964 18.4636 134.26 18.9802 132.777 19.9075C131.293 20.8348 130.082 22.1394 129.269 23.688C129.239 23.7435 129.192 23.7874 129.134 23.8122C129.076 23.8371 129.012 23.8415 128.951 23.8247C126.225 23.1084 123.33 23.4164 120.815 24.6904C118.3 25.9644 116.339 28.1161 115.305 30.7379C114.271 33.3597 114.234 36.2696 115.202 38.9167C116.17 41.5638 118.075 43.7643 120.557 45.1016C120.597 45.1232 120.631 45.1546 120.657 45.1928C120.682 45.2311 120.697 45.275 120.701 45.3206C120.863 47.2093 121.566 49.0114 122.726 50.5113C123.886 52.0112 125.453 53.1455 127.241 53.7787C129.028 54.4118 130.96 54.517 132.806 54.0816C134.652 53.6463 136.333 52.6887 137.649 51.3236C137.675 51.2958 137.707 51.2739 137.743 51.2593C137.779 51.2447 137.817 51.2377 137.855 51.2387Z" fill="#232323"/>
<path d="M108.12 27.7539C110.46 27.8221 112.413 25.9809 112.481 23.6415C112.549 21.3021 110.707 19.3504 108.366 19.2822C106.026 19.2141 104.074 21.0553 104.006 23.3947C103.937 25.7341 105.779 27.6858 108.12 27.7539Z" fill="white"/>
<path d="M108.1 28.0298C107.264 28.0037 106.453 27.7463 105.755 27.2864C105.058 26.8265 104.501 26.1821 104.148 25.4249C103.796 24.6678 103.66 23.8275 103.756 22.9978C103.853 22.1681 104.178 21.3814 104.695 20.7254C105.248 20.0246 105.996 19.5033 106.844 19.2274C107.693 18.9514 108.605 18.9332 109.464 19.175C110.323 19.4168 111.092 19.9078 111.672 20.5859C112.252 21.264 112.618 22.0988 112.724 22.9848C112.864 24.1731 112.526 25.3683 111.786 26.3081C111.045 27.248 109.962 27.8557 108.773 27.998C108.55 28.025 108.325 28.0356 108.1 28.0298ZM108.359 19.5576C107.551 19.5334 106.754 19.7571 106.076 20.1987C105.399 20.6402 104.872 21.2785 104.568 22.0278C104.264 22.777 104.196 23.6014 104.374 24.3902C104.552 25.179 104.968 25.8945 105.564 26.4406C106.161 26.9866 106.911 27.3371 107.712 27.445C108.514 27.5529 109.33 27.4129 110.049 27.044C110.769 26.6751 111.359 26.0948 111.739 25.3812C112.12 24.6675 112.272 23.8545 112.177 23.0515C112.072 22.1059 111.626 21.2307 110.924 20.5882C110.222 19.9457 109.311 19.5795 108.359 19.5576Z" fill="#232323"/>
<path d="M96.0499 26.3446C97.6071 26.39 98.9062 25.1649 98.9515 23.6084C98.9968 22.0518 97.7712 20.7532 96.2141 20.7079C94.6569 20.6625 93.3578 21.8876 93.3124 23.4441C93.2671 25.0007 94.4927 26.2993 96.0499 26.3446Z" fill="white"/>
<path d="M96.0347 26.6197C95.2316 26.596 94.469 26.2621 93.9071 25.688C93.3452 25.114 93.0279 24.3446 93.0217 23.5415C93.0156 22.7384 93.3211 21.9643 93.8741 21.3817C94.4271 20.7992 95.1846 20.4537 95.9872 20.4177C96.7898 20.3818 97.5751 20.6583 98.178 21.1891C98.7809 21.72 99.1544 22.4637 99.2201 23.2641C99.2858 24.0645 99.0385 24.8592 98.5303 25.4811C98.022 26.1031 97.2923 26.5038 96.4945 26.5991C96.342 26.6173 96.1882 26.6241 96.0347 26.6197ZM96.2071 20.9831C96.0818 20.9796 95.9563 20.9852 95.8318 20.9998C95.1779 21.0774 94.5795 21.4054 94.1625 21.9148C93.7455 22.4243 93.5424 23.0756 93.5958 23.7317C93.6493 24.3878 93.9551 24.9976 94.4491 25.433C94.943 25.8683 95.5866 26.0953 96.2445 26.0662C96.9023 26.037 97.5233 25.7541 97.9768 25.2768C98.4302 24.7994 98.6809 24.165 98.6761 23.5067C98.6712 22.8485 98.4113 22.2177 97.9508 21.7471C97.4904 21.2765 96.8653 21.0026 96.2071 20.9831Z" fill="#232323"/>
<path d="M88.7128 32.6265C89.825 32.6589 90.7528 31.784 90.7852 30.6723C90.8175 29.5606 89.9422 28.6332 88.8301 28.6008C87.718 28.5684 86.7902 29.4433 86.7578 30.555C86.7254 31.6667 87.6007 32.5941 88.7128 32.6265Z" fill="white"/>
<path d="M88.6996 32.9025C88.1034 32.8858 87.5368 32.6387 87.1191 32.2132C86.7013 31.7877 86.4648 31.2168 86.4594 30.6206C86.4539 30.0244 86.6799 29.4494 87.0899 29.0163C87.4998 28.5832 88.0617 28.3259 88.6575 28.2983C89.2533 28.2708 89.8366 28.4752 90.2848 28.8686C90.7329 29.2621 91.0111 29.8138 91.0607 30.408C91.1103 31.0021 90.9276 31.5923 90.5509 32.0546C90.1742 32.5168 89.6329 32.8151 89.0408 32.8867C88.9276 32.9006 88.8136 32.9059 88.6996 32.9025ZM88.8233 28.8751C88.4683 28.8643 88.1185 28.9623 87.8209 29.156C87.5233 29.3497 87.2921 29.6299 87.1584 29.9587C87.0247 30.2876 86.9949 30.6496 87.0729 30.9959C87.151 31.3422 87.3332 31.6564 87.5951 31.8962C87.857 32.1359 88.1861 32.2899 88.538 32.3373C88.89 32.3847 89.2481 32.3233 89.5641 32.1614C89.8802 31.9995 90.1391 31.7447 90.306 31.4314C90.473 31.1181 90.5401 30.7612 90.4982 30.4086C90.4497 29.9953 90.2543 29.613 89.9476 29.3316C89.6408 29.0501 89.2431 28.8882 88.827 28.8752L88.8233 28.8751Z" fill="#232323"/>
</g>
<g clip-path="url(#clip2_1662_63605)">
<path d="M113.861 69.0133C113.817 69.013 113.772 69.0058 113.73 68.9918C112.159 68.4651 111.571 66.3167 112.351 63.9931C112.367 63.9409 112.394 63.8927 112.43 63.851C112.465 63.8094 112.509 63.7752 112.558 63.7505C112.607 63.7258 112.66 63.711 112.714 63.707C112.769 63.7031 112.824 63.71 112.876 63.7274C112.928 63.7448 112.976 63.7724 113.017 63.8085C113.058 63.8446 113.092 63.8885 113.116 63.9376C113.14 63.9868 113.154 64.0403 113.157 64.095C113.16 64.1496 113.153 64.2044 113.134 64.256C112.591 65.8743 112.764 67.7944 113.993 68.2079C114.086 68.2391 114.164 68.3024 114.215 68.3864C114.266 68.4704 114.285 68.5696 114.269 68.6665C114.253 68.7633 114.204 68.8513 114.129 68.9148C114.054 68.9784 113.959 69.0133 113.861 69.0133ZM123.576 68.5775C123.531 68.5773 123.486 68.5698 123.444 68.5552C122.629 68.2823 122.056 67.5769 121.83 66.5706C121.629 65.6767 121.712 64.6067 122.065 63.5565C122.082 63.5043 122.109 63.456 122.145 63.4144C122.18 63.3728 122.224 63.3386 122.272 63.3139C122.321 63.2892 122.374 63.2744 122.429 63.2704C122.484 63.2665 122.539 63.2734 122.59 63.2908C122.642 63.3082 122.69 63.3358 122.731 63.3719C122.773 63.408 122.806 63.4519 122.83 63.501C122.854 63.5502 122.868 63.6037 122.872 63.6583C122.875 63.713 122.867 63.7678 122.849 63.8194C122.544 64.729 122.468 65.6386 122.637 66.3887C122.75 66.8931 123.028 67.5463 123.711 67.7713C123.804 67.8025 123.883 67.8658 123.934 67.9498C123.985 68.0338 124.004 68.133 123.988 68.2298C123.972 68.3267 123.922 68.4147 123.848 68.4782C123.773 68.5418 123.678 68.5767 123.58 68.5767L123.576 68.5775ZM133.329 68.1393C133.285 68.1394 133.24 68.1321 133.198 68.1178C132.384 67.844 131.81 67.1395 131.584 66.1331C131.383 65.2392 131.467 64.1692 131.82 63.119C131.836 63.0669 131.863 63.0186 131.899 62.977C131.934 62.9353 131.978 62.9011 132.027 62.8764C132.076 62.8517 132.129 62.8369 132.183 62.833C132.238 62.829 132.293 62.836 132.345 62.8534C132.397 62.8708 132.445 62.8983 132.486 62.9344C132.527 62.9705 132.561 63.0144 132.585 63.0636C132.609 63.1128 132.623 63.1662 132.626 63.2209C132.629 63.2756 132.622 63.3303 132.603 63.382C132.298 64.2916 132.222 65.2012 132.39 65.9512C132.504 66.4556 132.782 67.1089 133.461 67.333C133.554 67.3642 133.633 67.4275 133.683 67.5115C133.734 67.5955 133.753 67.6948 133.737 67.7916C133.721 67.8884 133.672 67.9764 133.597 68.04C133.522 68.1035 133.427 68.1384 133.329 68.1384V68.1393Z" fill="#232323"/>
<path d="M130.354 105.795L100.411 107.138C100.158 107.15 99.9065 107.104 99.6746 107.003C99.4426 106.903 99.2367 106.75 99.0726 106.558C98.9085 106.366 98.7905 106.138 98.7277 105.893C98.665 105.648 98.659 105.392 98.7103 105.145L106.551 67.2958C106.625 66.9343 106.818 66.6079 107.098 66.3682C107.379 66.1286 107.731 65.9894 108.1 65.9727L138.047 64.6314C138.299 64.6201 138.551 64.6666 138.782 64.7674C139.014 64.8681 139.22 65.0205 139.384 65.2128C139.547 65.4052 139.665 65.6324 139.728 65.8771C139.79 66.1219 139.796 66.3777 139.745 66.6251L131.905 104.474C131.83 104.835 131.637 105.161 131.356 105.4C131.075 105.639 130.723 105.778 130.354 105.795Z" fill="white"/>
<path d="M100.326 107.388C100.044 107.387 99.7648 107.323 99.5098 107.201C99.2548 107.079 99.0302 106.902 98.8521 106.682C98.674 106.463 98.5469 106.207 98.48 105.932C98.4131 105.657 98.4081 105.371 98.4653 105.094L106.306 67.2494C106.392 66.8343 106.614 66.4598 106.936 66.1848C107.259 65.9099 107.664 65.7503 108.087 65.7312L138.034 64.3833C138.324 64.3705 138.613 64.4241 138.88 64.54C139.146 64.6559 139.382 64.8311 139.57 65.0522C139.759 65.2733 139.894 65.5344 139.966 65.8158C140.038 66.0971 140.045 66.3912 139.986 66.6755L132.146 104.524C132.06 104.94 131.838 105.314 131.515 105.589C131.193 105.864 130.788 106.024 130.364 106.043L100.417 107.386L100.326 107.388ZM138.121 64.8778H138.056L108.11 66.2232C107.796 66.2364 107.496 66.3542 107.257 66.5577C107.018 66.7612 106.855 67.0387 106.792 67.3462L98.9506 105.195C98.9071 105.405 98.9122 105.623 98.9655 105.831C99.0188 106.039 99.1189 106.232 99.2583 106.396C99.3976 106.559 99.5724 106.689 99.7694 106.775C99.9664 106.86 100.18 106.9 100.395 106.89L130.338 105.546C130.653 105.534 130.954 105.417 131.194 105.214C131.434 105.01 131.598 104.732 131.661 104.424L139.501 66.5747C139.543 66.3696 139.54 66.1576 139.49 65.9542C139.44 65.7507 139.346 65.5609 139.214 65.3984C139.082 65.2359 138.915 65.1049 138.726 65.0149C138.537 64.9248 138.33 64.878 138.121 64.8778Z" fill="#232323"/>
<path d="M131.908 105.724L101.963 107.068C101.711 107.079 101.459 107.033 101.228 106.932C100.996 106.831 100.79 106.679 100.626 106.487C100.463 106.294 100.345 106.067 100.282 105.822C100.22 105.578 100.214 105.322 100.265 105.074L108.106 67.2254C108.181 66.864 108.373 66.5377 108.654 66.2981C108.935 66.0585 109.287 65.9192 109.656 65.9024L139.602 64.5611C139.855 64.5498 140.106 64.5963 140.338 64.6971C140.57 64.7978 140.775 64.9502 140.939 65.1425C141.103 65.3348 141.221 65.562 141.283 65.8068C141.346 66.0516 141.352 66.3074 141.301 66.5548L133.46 104.404C133.385 104.765 133.192 105.091 132.911 105.33C132.63 105.57 132.277 105.708 131.908 105.724Z" fill="white"/>
<path d="M101.889 107.318C101.606 107.317 101.327 107.254 101.071 107.132C100.816 107.011 100.59 106.834 100.412 106.614C100.233 106.394 100.106 106.138 100.039 105.863C99.9716 105.588 99.9666 105.301 100.024 105.024L107.865 67.1758C107.95 66.7602 108.172 66.3851 108.495 66.11C108.818 65.8349 109.223 65.6757 109.647 65.6576L139.593 64.3138C139.883 64.3007 140.172 64.3541 140.439 64.4699C140.705 64.5856 140.941 64.7607 141.13 64.9818C141.318 65.2028 141.454 65.464 141.526 65.7453C141.598 66.0267 141.605 66.3208 141.546 66.6052L133.705 104.454C133.619 104.869 133.398 105.245 133.075 105.52C132.753 105.795 132.347 105.954 131.924 105.972L101.981 107.316C101.948 107.318 101.918 107.318 101.889 107.318ZM139.682 64.8075H139.617L109.67 66.1529C109.356 66.166 109.055 66.2836 108.816 66.487C108.576 66.6905 108.411 66.9681 108.347 67.2758L100.51 105.122C100.467 105.333 100.472 105.55 100.525 105.759C100.578 105.967 100.678 106.16 100.817 106.324C100.957 106.487 101.132 106.617 101.329 106.703C101.526 106.788 101.74 106.828 101.955 106.818L131.901 105.475C132.215 105.46 132.514 105.342 132.753 105.139C132.992 104.935 133.156 104.658 133.219 104.351L141.06 66.5052C141.102 66.3002 141.098 66.0885 141.049 65.8852C140.999 65.6818 140.905 65.4921 140.773 65.3296C140.642 65.1671 140.475 65.036 140.287 64.9457C140.098 64.8554 139.891 64.8082 139.682 64.8075Z" fill="#232323"/>
<path d="M115.214 70.3413C116.07 70.3413 116.764 69.6471 116.764 68.7908C116.764 67.9345 116.07 67.2404 115.214 67.2404C114.358 67.2404 113.664 67.9345 113.664 68.7908C113.664 69.6471 114.358 70.3413 115.214 70.3413Z" fill="#232323"/>
<path d="M124.933 69.9047C125.789 69.9047 126.483 69.2105 126.483 68.3542C126.483 67.4979 125.789 66.8037 124.933 66.8037C124.077 66.8037 123.383 67.4979 123.383 68.3542C123.383 69.2105 124.077 69.9047 124.933 69.9047Z" fill="#232323"/>
<path d="M134.652 69.4689C135.508 69.4689 136.202 68.7747 136.202 67.9184C136.202 67.0621 135.508 66.3679 134.652 66.3679C133.796 66.3679 133.102 67.0621 133.102 67.9184C133.102 68.7747 133.796 69.4689 134.652 69.4689Z" fill="#232323"/>
<path d="M114.799 69.0629C114.531 69.063 114.264 69.0194 114.009 68.9339C113.905 68.8989 113.819 68.824 113.771 68.7258C113.746 68.6771 113.732 68.6242 113.728 68.57C113.725 68.5159 113.732 68.4615 113.749 68.41C113.766 68.3585 113.794 68.311 113.829 68.2701C113.865 68.2291 113.908 68.1956 113.957 68.1715C114.055 68.1227 114.169 68.115 114.273 68.1499C114.836 68.3393 115.479 68.2078 116.083 67.7811C116.726 67.3255 117.24 66.5986 117.53 65.7337C118.115 63.9972 117.604 62.2474 116.392 61.8406C115.18 61.4337 113.718 62.517 113.134 64.2568C113.099 64.3608 113.024 64.4466 112.925 64.4953C112.827 64.5441 112.714 64.5519 112.61 64.5169C112.506 64.4819 112.42 64.4071 112.371 64.3088C112.322 64.2106 112.315 64.097 112.35 63.993C113.08 61.8215 115.01 60.5034 116.655 61.0566C118.299 61.6098 119.044 63.8252 118.314 65.9966C117.969 67.027 117.345 67.8986 116.561 68.4559C115.993 68.857 115.388 69.0629 114.799 69.0629ZM124.499 68.6238C124.236 68.6243 123.974 68.5818 123.724 68.4981C123.621 68.4621 123.537 68.3873 123.489 68.2896C123.441 68.192 123.434 68.0794 123.468 67.9763C123.503 67.8733 123.577 67.788 123.674 67.7389C123.771 67.6898 123.883 67.6809 123.987 67.7142C125.199 68.121 126.66 67.0377 127.245 65.2979C127.535 64.4329 127.564 63.5432 127.328 62.7915C127.104 62.0861 126.67 61.5941 126.107 61.4048C125.544 61.2154 124.901 61.3461 124.297 61.7736C123.653 62.2284 123.139 62.9552 122.849 63.8202C122.813 63.9228 122.738 64.0071 122.641 64.0549C122.543 64.1027 122.43 64.1101 122.327 64.0756C122.224 64.041 122.139 63.9672 122.09 63.8702C122.041 63.7732 122.032 63.6608 122.065 63.5572C122.411 62.5277 123.034 61.6553 123.82 61.098C124.646 60.5191 125.55 60.3447 126.37 60.6209C127.19 60.897 127.811 61.5784 128.116 62.5418C128.406 63.4588 128.375 64.5313 128.033 65.5609C127.412 67.3983 125.935 68.6238 124.499 68.6238ZM134.254 68.1863C133.99 68.187 133.727 68.1442 133.477 68.0598C133.424 68.0441 133.374 68.0177 133.331 67.9823C133.289 67.947 133.253 67.9033 133.228 67.854C133.202 67.8046 133.186 67.7506 133.182 67.6952C133.178 67.6397 133.185 67.584 133.203 67.5313C133.22 67.4786 133.248 67.43 133.285 67.3885C133.322 67.3469 133.367 67.3132 133.418 67.2895C133.468 67.2657 133.522 67.2523 133.578 67.2501C133.634 67.2479 133.689 67.257 133.741 67.2767C134.953 67.6836 136.415 66.5995 136.999 64.8605C137.584 63.1215 137.072 61.3783 135.86 60.9648C135.297 60.7755 134.654 60.907 134.05 61.3337C133.407 61.7893 132.893 62.5161 132.603 63.3811C132.586 63.4332 132.559 63.4815 132.523 63.5232C132.488 63.5648 132.444 63.599 132.395 63.6237C132.347 63.6484 132.293 63.6632 132.239 63.6671C132.184 63.6711 132.129 63.6642 132.077 63.6468C132.026 63.6293 131.978 63.6018 131.936 63.5657C131.895 63.5296 131.862 63.4857 131.838 63.4365C131.814 63.3874 131.799 63.3339 131.796 63.2792C131.793 63.2246 131.801 63.1698 131.819 63.1181C132.162 62.0895 132.787 61.2129 133.572 60.6605C134.394 60.0767 135.304 59.9072 136.124 60.1826C137.768 60.735 138.512 62.9495 137.784 65.1234C137.166 66.96 135.689 68.1863 134.254 68.1863Z" fill="#232323"/>
</g>
<g clip-path="url(#clip3_1662_63605)">
<path d="M72.3633 90.0227L75.2105 87.3593L95.4703 109.109L92.6231 111.772L72.3633 90.0227Z" fill="#2BC666"/>
<path d="M95.4685 109.108L95.8588 111.114C95.9633 111.65 96.0673 112.185 96.1707 112.721L94.5928 112.3L92.6211 111.771L95.4685 109.108Z" fill="white"/>
<path d="M95.8622 111.117C95.9667 111.652 96.0707 112.188 96.1741 112.723L94.5962 112.299L95.8622 111.117ZM75.9488 88.1519L73.1023 90.819L71.6961 89.3062C71.6245 89.2298 71.5687 89.1401 71.5318 89.0421C71.4948 88.9441 71.4775 88.8397 71.4809 88.735C71.4842 88.6303 71.5081 88.5273 71.5512 88.4318C71.5943 88.3364 71.6557 88.2503 71.732 88.1787L73.4184 86.604C73.4946 86.5323 73.5841 86.4763 73.6819 86.4393C73.7797 86.4023 73.8839 86.385 73.9884 86.3883C74.0928 86.3917 74.1956 86.4156 74.2909 86.4588C74.3862 86.502 74.472 86.5635 74.5435 86.64L75.9488 88.1519Z" fill="#232323"/>
</g>
<g clip-path="url(#clip4_1662_63605)">
<path d="M132.33 27.0309H128.29C127.916 27.0309 127.613 27.3338 127.613 27.7074V31.4267C127.613 31.8003 127.916 32.1032 128.29 32.1032H132.33C132.703 32.1032 133.006 31.8003 133.006 31.4267V27.7074C133.006 27.3338 132.703 27.0309 132.33 27.0309Z" fill="white"/>
<path d="M132.332 32.3533H128.288C128.167 32.3531 128.046 32.3291 127.934 32.2825C127.822 32.2359 127.72 32.1676 127.634 32.0815C127.548 31.9955 127.48 31.8934 127.433 31.781C127.387 31.6687 127.363 31.5483 127.363 31.4267V27.7073C127.364 27.4621 127.461 27.227 127.634 27.0536C127.808 26.8802 128.043 26.7827 128.288 26.7825H132.332C132.577 26.7838 132.811 26.8818 132.983 27.0551C133.156 27.2283 133.253 27.4628 133.253 27.7073V31.4267C133.253 31.6715 133.157 31.9064 132.984 32.0801C132.811 32.2537 132.577 32.3519 132.332 32.3533ZM128.288 27.2793C128.175 27.2795 128.066 27.3247 127.986 27.4049C127.906 27.4851 127.86 27.5939 127.86 27.7073V31.4267C127.86 31.483 127.871 31.5388 127.893 31.5909C127.914 31.643 127.945 31.6903 127.985 31.7302C128.025 31.7702 128.072 31.8018 128.124 31.8235C128.176 31.8451 128.232 31.8563 128.288 31.8565H132.332C132.446 31.8562 132.554 31.811 132.635 31.7308C132.715 31.6505 132.76 31.5418 132.76 31.4284V27.7073C132.76 27.594 132.715 27.4852 132.635 27.4049C132.554 27.3247 132.446 27.2795 132.332 27.2793H128.288Z" fill="#232323"/>
<path d="M130.261 31.0922C130.201 31.0922 130.141 31.0791 130.087 31.0538C130.032 31.0285 129.984 30.9916 129.945 30.9456L128.25 28.9443C128.179 28.8604 128.145 28.7518 128.154 28.6423C128.163 28.5329 128.215 28.4315 128.299 28.3606C128.383 28.2896 128.492 28.2549 128.601 28.2641C128.711 28.2733 128.812 28.3255 128.883 28.4094L130.251 30.0257L133.289 26.2169C133.357 26.131 133.457 26.0759 133.566 26.0636C133.676 26.0514 133.785 26.083 133.871 26.1515C133.957 26.22 134.012 26.3198 134.024 26.429C134.037 26.5381 134.005 26.6477 133.936 26.7336L130.584 30.9365C130.546 30.9842 130.498 31.0229 130.443 31.0498C130.388 31.0768 130.328 31.0912 130.267 31.0922H130.261Z" fill="#2BC666"/>
<path d="M151.315 29.8121H145.501C145.435 29.8121 145.372 29.7859 145.326 29.7394C145.279 29.6928 145.253 29.6296 145.253 29.5637C145.253 29.4978 145.279 29.4346 145.326 29.3881C145.372 29.3415 145.435 29.3153 145.501 29.3153H151.315C151.381 29.3153 151.444 29.3415 151.491 29.3881C151.537 29.4346 151.564 29.4978 151.564 29.5637C151.564 29.6296 151.537 29.6928 151.491 29.7394C151.444 29.7859 151.381 29.8121 151.315 29.8121ZM143.265 29.8121H135.315C135.249 29.8121 135.186 29.7859 135.139 29.7394C135.093 29.6928 135.066 29.6296 135.066 29.5637C135.066 29.4978 135.093 29.4346 135.139 29.3881C135.186 29.3415 135.249 29.3153 135.315 29.3153H143.265C143.331 29.3153 143.394 29.3415 143.441 29.3881C143.488 29.4346 143.514 29.4978 143.514 29.5637C143.514 29.6296 143.488 29.6928 143.441 29.7394C143.394 29.7859 143.331 29.8121 143.265 29.8121Z" fill="#232323"/>
<path d="M132.33 34.8976H128.29C127.916 34.8976 127.613 35.2005 127.613 35.5741V39.2934C127.613 39.667 127.916 39.9699 128.29 39.9699H132.33C132.703 39.9699 133.006 39.667 133.006 39.2934V35.5741C133.006 35.2005 132.703 34.8976 132.33 34.8976Z" fill="white"/>
<path d="M132.332 40.2192H128.288C128.043 40.219 127.808 40.1214 127.634 39.9478C127.461 39.7742 127.363 39.5389 127.363 39.2935V35.5742C127.364 35.3289 127.461 35.0938 127.634 34.9204C127.808 34.747 128.043 34.6495 128.288 34.6493H132.332C132.577 34.6506 132.811 34.7486 132.983 34.9219C133.156 35.0952 133.253 35.3297 133.253 35.5742V39.2935C133.253 39.5382 133.156 39.7729 132.984 39.9464C132.811 40.1198 132.577 40.2179 132.332 40.2192ZM128.288 35.1461C128.175 35.1463 128.066 35.1915 127.986 35.2717C127.906 35.3519 127.86 35.4607 127.86 35.5742V39.2935C127.86 39.4072 127.905 39.5161 127.986 39.5965C128.066 39.6769 128.175 39.7222 128.288 39.7224H132.332C132.446 39.7222 132.554 39.677 132.635 39.5968C132.715 39.5165 132.76 39.4078 132.76 39.2944V35.5742C132.76 35.4608 132.715 35.352 132.635 35.2718C132.554 35.1915 132.446 35.1463 132.332 35.1461H128.288Z" fill="#232323"/>
<path d="M130.261 38.959C130.201 38.9589 130.141 38.9457 130.087 38.9203C130.032 38.8948 129.984 38.8577 129.945 38.8116L128.25 36.8112C128.215 36.7696 128.189 36.7216 128.172 36.6698C128.155 36.618 128.149 36.5634 128.154 36.5092C128.158 36.455 128.173 36.4022 128.198 36.3538C128.223 36.3055 128.258 36.2625 128.299 36.2274C128.341 36.1923 128.389 36.1657 128.441 36.1492C128.492 36.1326 128.547 36.1264 128.601 36.131C128.655 36.1355 128.708 36.1507 128.757 36.1756C128.805 36.2005 128.848 36.2347 128.883 36.2763L130.251 37.8934L133.289 34.0846C133.357 33.9987 133.457 33.9436 133.566 33.9313C133.676 33.919 133.785 33.9506 133.871 34.0192C133.957 34.0877 134.012 34.1875 134.024 34.2966C134.037 34.4058 134.005 34.5154 133.936 34.6012L130.584 38.8033C130.546 38.8511 130.498 38.8898 130.443 38.9167C130.388 38.9436 130.328 38.9581 130.267 38.959H130.261Z" fill="#2BC666"/>
<path d="M149.967 37.5738H140.745C140.679 37.5738 140.615 37.5477 140.569 37.5011C140.522 37.4545 140.496 37.3913 140.496 37.3254C140.496 37.2595 140.522 37.1964 140.569 37.1498C140.615 37.1032 140.679 37.077 140.745 37.077H149.967C150.033 37.077 150.096 37.1032 150.143 37.1498C150.189 37.1964 150.215 37.2595 150.215 37.3254C150.215 37.3913 150.189 37.4545 150.143 37.5011C150.096 37.5477 150.033 37.5738 149.967 37.5738Z" fill="#232323"/>
<path d="M135.32 37.2914L138.558 37.293L135.32 37.2914Z" fill="white"/>
<path d="M138.562 37.5415H135.323C135.257 37.5415 135.194 37.5153 135.147 37.4687C135.1 37.4221 135.074 37.359 135.074 37.2931C135.074 37.2272 135.1 37.164 135.147 37.1174C135.194 37.0708 135.257 37.0447 135.323 37.0447H138.561C138.627 37.0447 138.69 37.0708 138.736 37.1174C138.783 37.164 138.809 37.2272 138.809 37.2931C138.809 37.359 138.783 37.4221 138.736 37.4687C138.69 37.5153 138.627 37.5415 138.561 37.5415H138.562Z" fill="#232323"/>
<path d="M132.33 42.7644H128.29C127.916 42.7644 127.613 43.0673 127.613 43.4409V47.1603C127.613 47.5339 127.916 47.8367 128.29 47.8367H132.33C132.703 47.8367 133.006 47.5339 133.006 47.1603V43.4409C133.006 43.0673 132.703 42.7644 132.33 42.7644Z" fill="white"/>
<path d="M132.332 48.0852H128.288C128.043 48.085 127.808 47.9875 127.634 47.8141C127.461 47.6407 127.364 47.4056 127.363 47.1604V43.441C127.364 43.1958 127.461 42.9606 127.634 42.7872C127.808 42.6138 128.043 42.5163 128.288 42.5161H132.332C132.577 42.5166 132.812 42.6142 132.986 42.7875C133.159 42.9609 133.256 43.1959 133.257 43.441V47.1604C133.256 47.4054 133.159 47.6404 132.986 47.8138C132.812 47.9872 132.577 48.0848 132.332 48.0852ZM128.288 43.0129C128.175 43.0131 128.066 43.0583 127.986 43.1385C127.906 43.2188 127.86 43.3275 127.86 43.441V47.1604C127.86 47.2738 127.906 47.3826 127.986 47.4628C128.066 47.5431 128.175 47.5882 128.288 47.5884H132.332C132.446 47.5882 132.554 47.543 132.635 47.4628C132.715 47.3825 132.76 47.2738 132.76 47.1604V43.441C132.76 43.3276 132.715 43.2188 132.635 43.1386C132.554 43.0583 132.446 43.0131 132.332 43.0129H128.288ZM152.423 45.4406H147.683C147.617 45.4406 147.554 45.4144 147.508 45.3679C147.461 45.3213 147.435 45.2581 147.435 45.1922C147.435 45.1263 147.461 45.0631 147.508 45.0166C147.554 44.97 147.617 44.9438 147.683 44.9438H152.423C152.489 44.9438 152.552 44.97 152.599 45.0166C152.645 45.0631 152.671 45.1263 152.671 45.1922C152.671 45.2581 152.645 45.3213 152.599 45.3679C152.552 45.4144 152.489 45.4406 152.423 45.4406Z" fill="#232323"/>
<path d="M135.32 45.1583L145.498 45.16L135.32 45.1583Z" fill="white"/>
<path d="M145.5 45.4083H135.323C135.257 45.4083 135.194 45.3821 135.147 45.3355C135.1 45.289 135.074 45.2258 135.074 45.1599C135.074 45.094 135.1 45.0308 135.147 44.9843C135.194 44.9377 135.257 44.9115 135.323 44.9115H145.5C145.566 44.9115 145.629 44.9377 145.676 44.9843C145.722 45.0308 145.748 45.094 145.748 45.1599C145.748 45.2258 145.722 45.289 145.676 45.3355C145.629 45.3821 145.566 45.4083 145.5 45.4083Z" fill="#232323"/>
</g>
<g clip-path="url(#clip5_1662_63605)">
<path d="M150.434 94.1954C149.358 88.5543 147.487 83.7559 142.039 78.9228C134.743 72.4497 116.811 72.7521 127.911 77.4315C120.708 77.7066 121.644 79.6936 128.089 81.93C127.566 81.9176 127.036 81.93 126.516 81.9639C116.532 82.8727 128.126 86.7086 131.316 87.4811C129.99 87.325 128.651 87.3192 127.324 87.4637C118.839 88.4229 129.616 91.9176 130.985 92.3753C132.61 92.9189 133.814 93.2907 135.431 93.6071C135.431 93.6071 134.448 97.7182 138.647 99.411" fill="white"/>
<path d="M138.641 99.6588C138.609 99.6588 138.577 99.6526 138.548 99.6407C136.279 98.7261 135.486 97.1175 135.216 95.9287C135.06 95.2306 135.032 94.5102 135.133 93.8021C133.68 93.5063 132.543 93.1618 130.895 92.6099L130.782 92.5719C130.132 92.3547 128.403 91.7788 126.843 91.0848C124.725 90.1364 123.774 89.3647 123.848 88.6526C123.896 88.1982 124.305 87.5546 127.29 87.2175C127.894 87.1518 128.502 87.1168 129.11 87.1126C128.096 86.7929 126.967 86.3988 125.937 85.9766C122.21 84.449 122.273 83.5758 122.293 83.2891C122.331 82.7744 122.807 82.0498 126.49 81.7194C126.573 81.7139 126.656 81.7089 126.738 81.7045C123.881 80.5982 122.5 79.6011 122.63 78.7327C122.789 77.6554 125.231 77.3423 126.855 77.2349C125.03 76.379 124.134 75.6354 124.125 74.9679C124.12 74.7266 124.234 74.3805 124.795 74.1235C126.099 73.5295 129.214 73.6171 132.557 74.3425C134.874 74.8456 139.211 76.0857 142.2 78.7377C144.794 81.0394 146.722 83.4618 148.094 86.1435C149.259 88.418 150.055 90.8874 150.674 94.1491C150.687 94.2137 150.673 94.2806 150.636 94.335C150.599 94.3894 150.541 94.4268 150.477 94.4391C150.412 94.4514 150.345 94.4375 150.29 94.4004C150.236 94.3634 150.198 94.3063 150.186 94.2416C149.122 88.6427 147.301 83.9269 141.87 79.1054C138.966 76.5277 134.723 75.3165 132.452 74.8233C129.256 74.1301 126.193 74.0261 125.005 74.5713C124.83 74.6539 124.621 74.7837 124.624 74.9571C124.623 75.1529 124.876 75.8833 128.002 77.2052C128.054 77.2269 128.097 77.2655 128.123 77.3147C128.15 77.3639 128.16 77.4207 128.15 77.476C128.141 77.5312 128.113 77.5815 128.071 77.6188C128.029 77.656 127.975 77.678 127.919 77.681C123.6 77.8463 123.156 78.5849 123.12 78.8071C123.094 78.988 123.209 79.9778 128.167 81.6987C128.223 81.7182 128.27 81.757 128.3 81.808C128.33 81.859 128.34 81.9189 128.33 81.9769C128.319 82.0349 128.288 82.0873 128.242 82.1246C128.196 82.1619 128.139 82.1817 128.08 82.1804C127.573 82.1688 127.052 82.1804 126.532 82.2142C123.114 82.5257 122.808 83.1462 122.791 83.3287C122.773 83.5113 122.975 84.2276 126.123 85.5181C127.831 86.2067 129.583 86.7819 131.367 87.2398C131.428 87.2552 131.481 87.2931 131.515 87.346C131.549 87.3988 131.562 87.4626 131.551 87.5245C131.54 87.5863 131.505 87.6416 131.455 87.6791C131.404 87.7166 131.341 87.7335 131.279 87.7265C129.972 87.5738 128.653 87.5683 127.345 87.7099C124.623 88.0181 124.359 88.5485 124.342 88.7013C124.326 88.8542 124.47 89.4771 127.045 90.6271C128.581 91.3162 130.295 91.8862 130.939 92.101L131.057 92.1399C132.775 92.7182 133.929 93.0619 135.472 93.3634C135.505 93.3698 135.536 93.3827 135.564 93.4015C135.592 93.4202 135.616 93.4444 135.634 93.4725C135.652 93.5005 135.664 93.532 135.67 93.5649C135.676 93.5979 135.674 93.6316 135.667 93.6641C135.53 94.3839 135.543 95.1241 135.705 95.8386C136.06 97.3893 137.079 98.5146 138.734 99.1813C138.788 99.2029 138.832 99.2424 138.859 99.293C138.887 99.3436 138.896 99.4021 138.884 99.4585C138.873 99.515 138.843 99.5658 138.799 99.6024C138.754 99.6389 138.698 99.6589 138.641 99.6588Z" fill="#232323"/>
<path d="M136.872 79.7266C136.833 79.7267 136.795 79.7177 136.761 79.7002C134.35 78.4948 131.369 77.814 127.899 77.6794C127.833 77.6767 127.771 77.6481 127.726 77.5998C127.681 77.5514 127.658 77.4873 127.66 77.4216C127.663 77.3559 127.692 77.2939 127.74 77.2493C127.788 77.2046 127.853 77.181 127.919 77.1837C131.459 77.3216 134.509 78.0198 136.983 79.2574C137.033 79.2824 137.073 79.3236 137.097 79.3742C137.12 79.4248 137.126 79.4818 137.113 79.5361C137.1 79.5904 137.069 79.6387 137.026 79.6733C136.982 79.7079 136.928 79.7267 136.872 79.7266ZM137.188 84.1954C137.149 84.1955 137.111 84.1864 137.077 84.1689C134.712 82.9793 131.515 82.2688 128.077 82.177C128.045 82.1762 128.013 82.1689 127.983 82.1557C127.953 82.1424 127.926 82.1234 127.904 82.0998C127.881 82.0762 127.864 82.0483 127.852 82.0179C127.84 81.9875 127.835 81.9551 127.836 81.9226C127.837 81.89 127.844 81.858 127.857 81.8282C127.87 81.7985 127.889 81.7717 127.913 81.7493C127.937 81.7269 127.965 81.7093 127.995 81.6977C128.026 81.686 128.058 81.6805 128.091 81.6813C131.601 81.778 134.876 82.5075 137.3 83.7253C137.35 83.7504 137.39 83.7916 137.414 83.8423C137.437 83.893 137.443 83.9501 137.43 84.0044C137.417 84.0588 137.386 84.1071 137.342 84.1416C137.298 84.1761 137.244 84.1948 137.188 84.1946V84.1954ZM137.07 89.5151C137.025 89.515 136.981 89.5027 136.943 89.4796C135.51 88.6228 133.579 88.0206 131.362 87.7372C131.329 87.7331 131.298 87.7226 131.269 87.7063C131.24 87.69 131.215 87.6683 131.195 87.6424C131.155 87.59 131.136 87.5237 131.145 87.4579C131.153 87.3922 131.187 87.3325 131.24 87.2919C131.292 87.2513 131.359 87.2332 131.424 87.2415C133.71 87.5331 135.707 88.1585 137.198 89.05C137.244 89.0777 137.281 89.1201 137.301 89.1705C137.322 89.2209 137.325 89.2766 137.31 89.3291C137.296 89.3815 137.264 89.4277 137.221 89.4605C137.178 89.4934 137.125 89.5111 137.07 89.511V89.5151Z" fill="#232323"/>
</g>
<g clip-path="url(#clip6_1662_63605)">
<path d="M64.0625 100.531C69.2258 98.0917 74.0017 96.7174 78.3057 96.6297C88.6141 96.4202 93.4066 101.831 89.3506 103.737C88.867 103.979 88.3146 104.003 87.7838 103.974C88.9691 105.118 87.6494 107.032 86.0652 107.303C87.924 109.018 85.7649 110.514 83.858 110.701C87.248 115.573 74.1908 115.734 72.1927 115.437C71.632 115.942 71.0141 116.683 70.3231 117.605" fill="white"/>
<path d="M70.3215 117.853C70.2677 117.853 70.2153 117.836 70.1722 117.803C70.1194 117.764 70.0845 117.705 70.0752 117.64C70.0659 117.575 70.0829 117.508 70.1225 117.456C70.893 116.428 71.4977 115.727 72.0235 115.25C72.0509 115.226 72.0834 115.207 72.1187 115.197C72.154 115.186 72.1912 115.184 72.2276 115.189C72.9326 115.294 75.4724 115.364 78.1515 115.048C81.2652 114.681 83.3256 113.924 83.9526 112.917C84.3159 112.337 84.2172 111.654 83.6515 110.841C83.6267 110.806 83.6117 110.764 83.6079 110.721C83.6041 110.678 83.6116 110.635 83.6298 110.595C83.648 110.556 83.6762 110.522 83.7116 110.497C83.747 110.472 83.7883 110.456 83.8315 110.452C84.9098 110.346 86.1979 109.75 86.4725 108.936C86.6292 108.471 86.4343 107.983 85.8919 107.484C85.8577 107.452 85.8331 107.412 85.8208 107.367C85.8085 107.322 85.809 107.275 85.8222 107.231C85.8354 107.186 85.8608 107.146 85.8956 107.115C85.9303 107.085 85.973 107.064 86.0188 107.056C86.8615 106.912 87.6777 106.219 87.9182 105.445C88.026 105.096 88.0592 104.589 87.6055 104.15C87.569 104.115 87.5442 104.069 87.5345 104.019C87.5247 103.97 87.5304 103.918 87.5507 103.872C87.5717 103.826 87.606 103.787 87.6491 103.761C87.6923 103.734 87.7424 103.721 87.7929 103.724C88.2201 103.748 88.77 103.747 89.2337 103.513C89.947 103.182 90.7375 102.56 90.4886 101.503C90.229 100.397 88.9127 99.2225 86.9743 98.3616C85.3403 97.6372 82.5102 96.7887 78.3058 96.8764C74.1901 96.9592 69.4307 98.2647 64.1637 100.755C64.1342 100.769 64.1021 100.777 64.0695 100.778C64.0368 100.78 64.0042 100.775 63.9734 100.764C63.9113 100.742 63.8605 100.696 63.8324 100.636C63.8042 100.576 63.8009 100.508 63.8233 100.446C63.8456 100.384 63.8917 100.333 63.9514 100.305C69.2864 97.787 74.1129 96.4666 78.2991 96.3814C82.594 96.2928 85.4995 97.1645 87.18 97.9096C89.2934 98.8467 90.6778 100.116 90.9772 101.391C91.226 102.454 90.6711 103.39 89.4552 103.958C89.0907 104.13 88.6931 104.222 88.2898 104.226C88.3998 104.434 88.4661 104.662 88.4845 104.897C88.5029 105.131 88.4731 105.367 88.3968 105.589C88.1421 106.412 87.3948 107.134 86.5355 107.433C87.0979 108.105 87.0788 108.696 86.9444 109.089C86.6259 110.034 85.4224 110.675 84.2728 110.886C84.7597 111.733 84.7945 112.501 84.3765 113.173C83.8747 113.979 82.3982 115.042 78.2104 115.535C75.805 115.819 73.2569 115.808 72.274 115.691C71.7905 116.142 71.2306 116.799 70.5206 117.746C70.4982 117.779 70.4685 117.805 70.4339 117.824C70.3993 117.842 70.3608 117.852 70.3215 117.853Z" fill="#232323"/>
<path d="M87.7851 104.222C87.7214 104.222 87.6603 104.197 87.6142 104.153C83.9954 100.727 79.2543 101.094 79.2062 101.094C79.1402 101.1 79.0746 101.079 79.024 101.036C78.9734 100.994 78.9418 100.933 78.9362 100.867C78.9306 100.801 78.9514 100.736 78.9941 100.685C79.0368 100.635 79.0979 100.603 79.1638 100.598C79.3662 100.58 84.177 100.21 87.956 103.789C87.9937 103.823 88.0201 103.867 88.0317 103.917C88.0434 103.966 88.0397 104.018 88.0211 104.065C88.0025 104.112 87.9699 104.152 87.9278 104.18C87.8856 104.208 87.8358 104.223 87.7851 104.222ZM86.0657 107.551C86.007 107.551 85.9503 107.531 85.9056 107.493C82.762 104.849 78.0814 105.118 78.035 105.121C77.969 105.125 77.9039 105.103 77.8542 105.06C77.8044 105.016 77.774 104.955 77.7696 104.889C77.7652 104.823 77.7872 104.758 77.8307 104.709C77.8743 104.659 77.9358 104.629 78.0018 104.624C78.2017 104.611 82.927 104.336 86.2266 107.108C86.2658 107.141 86.294 107.185 86.3072 107.234C86.3204 107.283 86.3181 107.336 86.3005 107.384C86.2829 107.432 86.2509 107.473 86.2089 107.502C86.1669 107.531 86.1168 107.547 86.0657 107.547V107.551ZM83.8585 110.95C83.8248 110.95 83.7914 110.943 83.7605 110.929C83.7296 110.916 83.7017 110.896 83.6785 110.872C81.259 108.334 77.0231 109.209 76.9808 109.216C76.9488 109.223 76.9158 109.224 76.8836 109.218C76.8515 109.212 76.8208 109.2 76.7933 109.182C76.7658 109.164 76.7422 109.141 76.7236 109.114C76.705 109.088 76.6919 109.057 76.6851 109.025C76.6782 108.994 76.6777 108.961 76.6836 108.929C76.6895 108.896 76.7017 108.866 76.7194 108.838C76.7372 108.811 76.7601 108.787 76.7871 108.769C76.814 108.75 76.8443 108.737 76.8762 108.73C77.7267 108.573 78.5939 108.525 79.4566 108.588C81.371 108.72 82.9552 109.391 84.0393 110.528C84.073 110.564 84.0955 110.608 84.1041 110.656C84.1128 110.704 84.1071 110.753 84.0878 110.798C84.0686 110.843 84.0365 110.881 83.9958 110.907C83.955 110.934 83.9073 110.948 83.8585 110.948V110.95ZM72.1915 115.685C72.1401 115.686 72.0896 115.671 72.047 115.643C72.0044 115.614 71.9718 115.573 71.9536 115.525C71.9354 115.477 71.9326 115.424 71.9455 115.374C71.9584 115.325 71.9864 115.28 72.0257 115.247C73.7434 113.793 77.5713 112.037 81.079 113.156C81.1116 113.165 81.142 113.18 81.1685 113.201C81.1951 113.221 81.2171 113.247 81.2332 113.277C81.2494 113.306 81.2594 113.339 81.2627 113.372C81.2659 113.406 81.2623 113.439 81.2521 113.471C81.2418 113.503 81.2252 113.533 81.2031 113.558C81.1811 113.584 81.1541 113.605 81.1238 113.619C81.0935 113.634 81.0606 113.642 81.0269 113.644C80.9933 113.646 80.9596 113.64 80.9281 113.629C77.6103 112.572 73.9807 114.244 72.3475 115.626C72.3038 115.663 72.2487 115.684 72.1915 115.685Z" fill="#232323"/>
</g>
<defs>
<clipPath id="clip0_1662_63605">
<rect width="146.308" height="111.492" fill="white" transform="translate(5.53906 35.4312)"/>
</clipPath>
<clipPath id="clip1_1662_63605">
<rect width="75.1716" height="38.304" fill="white" transform="translate(86.8945 16.3558) rotate(1.66829)"/>
</clipPath>
<clipPath id="clip2_1662_63605">
<rect width="43.1604" height="47.3328" fill="white" transform="translate(98.4258 60.0552)"/>
</clipPath>
<clipPath id="clip3_1662_63605">
<rect width="24.6924" height="26.334" fill="white" transform="translate(71.4805 86.3893)"/>
</clipPath>
<clipPath id="clip4_1662_63605">
<rect width="25.308" height="22.0248" fill="white" transform="translate(127.363 26.0604)"/>
</clipPath>
<clipPath id="clip5_1662_63605">
<rect width="28.386" height="25.9236" fill="white" transform="translate(122.297 73.7352)"/>
</clipPath>
<clipPath id="clip6_1662_63605">
<rect width="27.2232" height="21.4776" fill="white" transform="translate(63.8164 96.3756)"/>
</clipPath>
</defs>
</svg>
