<svg width="18" height="18" viewBox="0 0 18 18" fill="none" xmlns="http://www.w3.org/2000/svg">
<path d="M5.33333 1.4375C5.71303 1.4375 6.02083 1.1297 6.02083 0.75C6.02083 0.370304 5.71303 0.0625 5.33333 0.0625V1.4375ZM0.0625 5.33333C0.0625 5.71303 0.370304 6.02083 0.75 6.02083C1.1297 6.02083 1.4375 5.71303 1.4375 5.33333H0.0625ZM16.5625 5.33333C16.5625 5.71303 16.8703 6.02083 17.25 6.02083C17.6297 6.02083 17.9375 5.71303 17.9375 5.33333H16.5625ZM12.6667 0.0625001C12.287 0.0625001 11.9792 0.370304 11.9792 0.75C11.9792 1.1297 12.287 1.4375 12.6667 1.4375V0.0625001ZM12.6667 16.5625C12.287 16.5625 11.9792 16.8703 11.9792 17.25C11.9792 17.6297 12.287 17.9375 12.6667 17.9375V16.5625ZM17.9375 12.6667C17.9375 12.287 17.6297 11.9792 17.25 11.9792C16.8703 11.9792 16.5625 12.287 16.5625 12.6667H17.9375ZM1.4375 12.6667C1.4375 12.287 1.1297 11.9792 0.75 11.9792C0.370304 11.9792 0.0625001 12.287 0.0625001 12.6667H1.4375ZM5.33333 17.9375C5.71303 17.9375 6.02083 17.6297 6.02083 17.25C6.02083 16.8703 5.71303 16.5625 5.33333 16.5625V17.9375ZM5.33333 0.0625H2.58333V1.4375H5.33333V0.0625ZM2.58333 0.0625C1.19112 0.0625 0.0625 1.19112 0.0625 2.58333H1.4375C1.4375 1.95051 1.95051 1.4375 2.58333 1.4375V0.0625ZM0.0625 2.58333V5.33333H1.4375V2.58333H0.0625ZM17.9375 5.33333V2.58333H16.5625V5.33333H17.9375ZM17.9375 2.58333C17.9375 1.19112 16.8089 0.0625001 15.4167 0.0625001V1.4375C16.0495 1.4375 16.5625 1.95051 16.5625 2.58333H17.9375ZM15.4167 0.0625001H12.6667V1.4375H15.4167V0.0625001ZM12.6667 17.9375H15.4167V16.5625H12.6667V17.9375ZM15.4167 17.9375C16.8089 17.9375 17.9375 16.8089 17.9375 15.4167H16.5625C16.5625 16.0495 16.0495 16.5625 15.4167 16.5625V17.9375ZM17.9375 15.4167V12.6667H16.5625V15.4167H17.9375ZM0.0625001 12.6667V15.4167H1.4375V12.6667H0.0625001ZM0.0625001 15.4167C0.0625001 16.8089 1.19112 17.9375 2.58333 17.9375V16.5625C1.95051 16.5625 1.4375 16.0495 1.4375 15.4167H0.0625001ZM2.58333 17.9375H5.33333V16.5625H2.58333V17.9375Z" fill="#333333"/>
</svg>
