<svg width="390" height="429" viewBox="0 0 390 429" fill="none" xmlns="http://www.w3.org/2000/svg">
<g filter="url(#filter0_d_5805_27707)">
<rect x="18.0957" y="20.3572" width="258.992" height="286.701" rx="6.71646" fill="white"/>
<path d="M108.114 92.1318C108.114 92.2164 108.082 92.2911 108.017 92.3559L104.187 96.1858L108.017 100.016C108.082 100.08 108.114 100.155 108.114 100.24C108.114 100.324 108.082 100.399 108.017 100.464L107.53 100.951C107.465 101.016 107.39 101.048 107.306 101.048C107.221 101.048 107.146 101.016 107.082 100.951L102.541 96.4099C102.476 96.3451 102.443 96.2704 102.443 96.1858C102.443 96.1012 102.476 96.0265 102.541 95.9617L107.082 91.4207C107.146 91.3559 107.221 91.3235 107.306 91.3235C107.39 91.3235 107.465 91.3559 107.53 91.4207L108.017 91.9077C108.082 91.9725 108.114 92.0472 108.114 92.1318Z" fill="#006BFF"/>
<path d="M132.065 99.2446L131.668 98.1573H128.85L128.453 99.2446H126.978L129.417 92.9382H131.1L133.53 99.2446H132.065ZM130.259 94.1011L129.209 96.9944H131.299L130.259 94.1011ZM134.272 96.7296V92.9382H135.633V96.6823C135.633 97.5617 136.115 98.1668 137.099 98.1668C138.063 98.1668 138.545 97.5617 138.545 96.6823V92.9382H139.907V96.7202C139.907 98.2897 139.008 99.3581 137.099 99.3581C135.17 99.3581 134.272 98.2802 134.272 96.7296ZM141.321 96.0961C141.321 94.1011 142.833 92.8342 144.677 92.8342C145.982 92.8342 146.804 93.4677 147.287 94.2146L146.171 94.8197C145.878 94.3753 145.339 94.0255 144.677 94.0255C143.533 94.0255 142.701 94.9048 142.701 96.0961C142.701 97.2875 143.533 98.1668 144.677 98.1668C145.254 98.1668 145.764 97.9304 146.039 97.6846V96.9187H144.356V95.7652H147.362V98.1762C146.719 98.8948 145.821 99.3675 144.677 99.3675C142.833 99.3675 141.321 98.0817 141.321 96.0961ZM148.901 96.7296V92.9382H150.262V96.6823C150.262 97.5617 150.745 98.1668 151.728 98.1668C152.692 98.1668 153.174 97.5617 153.174 96.6823V92.9382H154.536V96.7202C154.536 98.2897 153.638 99.3581 151.728 99.3581C149.799 99.3581 148.901 98.2802 148.901 96.7296ZM155.818 98.3559L156.555 97.3347C156.999 97.798 157.69 98.1857 158.559 98.1857C159.297 98.1857 159.656 97.8358 159.656 97.4766C159.656 97.0038 159.108 96.8431 158.38 96.6729C157.349 96.4365 156.026 96.1529 156.026 94.7441C156.026 93.6946 156.933 92.8436 158.418 92.8436C159.42 92.8436 160.252 93.1462 160.876 93.7229L160.129 94.7063C159.618 94.2335 158.938 94.0161 158.323 94.0161C157.718 94.0161 157.396 94.2808 157.396 94.659C157.396 95.0845 157.926 95.2168 158.654 95.387C159.694 95.6234 161.018 95.9354 161.018 97.3347C161.018 98.4882 160.195 99.3581 158.493 99.3581C157.283 99.3581 156.413 98.9515 155.818 98.3559ZM163.786 99.2446V94.1201H161.942V92.9382H166.972V94.1201H165.138V99.2446H163.786Z" fill="#0B3558"/>
<path d="M186.937 92.1318C186.937 92.2164 186.97 92.2911 187.034 92.3559L190.864 96.1858L187.034 100.016C186.97 100.08 186.937 100.155 186.937 100.24C186.937 100.324 186.97 100.399 187.034 100.464L187.522 100.951C187.586 101.016 187.661 101.048 187.746 101.048C187.83 101.048 187.905 101.016 187.97 100.951L192.511 96.4099C192.576 96.3451 192.608 96.2704 192.608 96.1858C192.608 96.1012 192.576 96.0265 192.511 95.9617L187.97 91.4207C187.905 91.3559 187.83 91.3235 187.746 91.3235C187.661 91.3235 187.586 91.3559 187.522 91.4207L187.034 91.9077C186.97 91.9725 186.937 92.0472 186.937 92.1318Z" fill="#006BFF"/>
<path d="M38.9526 122.948C39.4905 123.542 40.3114 123.948 41.4343 123.948C43.1328 123.948 43.8122 123.033 43.8122 122.052C43.8122 120.712 42.6138 120.391 41.5853 120.117C40.8021 119.919 40.1227 119.74 40.1227 119.174C40.1227 118.645 40.6039 118.287 41.3022 118.287C41.9816 118.287 42.6421 118.513 43.1234 119.023L43.6707 118.324C43.1139 117.758 42.3496 117.447 41.3777 117.447C40.0661 117.447 39.1508 118.202 39.1508 119.24C39.1508 120.523 40.3209 120.815 41.3305 121.08C42.1326 121.287 42.8497 121.476 42.8497 122.136C42.8497 122.589 42.4912 123.108 41.4721 123.108C40.5945 123.108 39.9151 122.693 39.4905 122.221L38.9526 122.948Z" fill="#B9C0D4"/>
<path d="M44.9053 121.372C44.9053 122.92 45.7923 123.948 47.5568 123.948C49.3214 123.948 50.1989 122.929 50.1989 121.363V117.541H49.2459V121.344C49.2459 122.42 48.6609 123.108 47.5568 123.108C46.4528 123.108 45.8584 122.42 45.8584 121.344V117.541H44.9053V121.372Z" fill="#B9C0D4"/>
<path d="M56.0301 123.835H56.9454V117.541H56.0018V122.259L52.5765 117.541H51.6046V123.835H52.5482V119.004L56.0301 123.835Z" fill="#B9C0D4"/>
<path d="M77.4319 123.834H78.3755V117.54H77.0262L75.1956 122.06L73.365 117.54H72.0156V123.834H72.9592V118.833L74.9974 123.834H75.3937L77.4319 118.833V123.834Z" fill="#B9C0D4"/>
<path d="M79.5104 120.692C79.5104 122.56 80.8031 123.947 82.6809 123.947C84.5587 123.947 85.8514 122.56 85.8514 120.692C85.8514 118.824 84.5587 117.437 82.6809 117.437C80.8031 117.437 79.5104 118.824 79.5104 120.692ZM84.8795 120.692C84.8795 122.07 84.0114 123.108 82.6809 123.108C81.3315 123.108 80.4823 122.07 80.4823 120.692C80.4823 119.305 81.3315 118.276 82.6809 118.276C84.0114 118.276 84.8795 119.305 84.8795 120.692Z" fill="#B9C0D4"/>
<path d="M91.4153 123.834H92.3306V117.54H91.387V122.258L87.9618 117.54H86.9898V123.834H87.9334V119.003L91.4153 123.834Z" fill="#B9C0D4"/>
<path d="M109.814 123.834H110.757V118.371H112.701V117.541H107.86V118.371H109.814V123.834Z" fill="#B9C0D4"/>
<path d="M113.685 121.372C113.685 122.919 114.572 123.948 116.336 123.948C118.101 123.948 118.978 122.929 118.978 121.362V117.541H118.025V121.343C118.025 122.419 117.44 123.108 116.336 123.108C115.232 123.108 114.638 122.419 114.638 121.343V117.541H113.685V121.372Z" fill="#B9C0D4"/>
<path d="M120.384 123.834H124.611V123.004H121.328V121.041H124.545V120.211H121.328V118.371H124.611V117.541H120.384V123.834Z" fill="#B9C0D4"/>
<path d="M145.29 123.834H146.3L148.093 117.541H147.036L145.733 122.589L144.365 117.541H143.601L142.223 122.589L140.921 117.541H139.864L141.667 123.834H142.676L143.978 118.975L145.29 123.834Z" fill="#B9C0D4"/>
<path d="M148.891 123.834H153.118V123.004H149.834V121.041H153.052V120.211H149.834V118.371H153.118V117.541H148.891V123.834Z" fill="#B9C0D4"/>
<path d="M154.3 123.834H156.546C158.508 123.834 159.81 122.513 159.81 120.692C159.81 118.88 158.508 117.541 156.546 117.541H154.3V123.834ZM155.243 123.004V118.371H156.546C158.027 118.371 158.838 119.399 158.838 120.692C158.838 121.966 157.999 123.004 156.546 123.004H155.243Z" fill="#B9C0D4"/>
<path d="M176.382 123.834H177.326V118.371H179.27V117.541H174.429V118.371H176.382V123.834Z" fill="#B9C0D4"/>
<path d="M184.679 123.834H185.623V117.541H184.679V120.183H181.197V117.541H180.254V123.834H181.197V121.022H184.679V123.834Z" fill="#B9C0D4"/>
<path d="M187.017 121.372C187.017 122.919 187.904 123.948 189.669 123.948C191.433 123.948 192.311 122.929 192.311 121.362V117.541H191.358V121.343C191.358 122.419 190.773 123.108 189.669 123.108C188.565 123.108 187.97 122.419 187.97 121.343V117.541H187.017V121.372Z" fill="#B9C0D4"/>
<path d="M207.714 123.834H208.657V121.041H211.875V120.211H208.657V118.371H211.941V117.541H207.714V123.834Z" fill="#B9C0D4"/>
<path d="M216.581 123.834H217.675L216.062 121.315C216.864 121.211 217.628 120.607 217.628 119.475C217.628 118.314 216.807 117.541 215.609 117.541H212.957V123.834H213.901V121.409H215.08L216.581 123.834ZM216.656 119.475C216.656 120.135 216.165 120.579 215.486 120.579H213.901V118.371H215.486C216.165 118.371 216.656 118.814 216.656 119.475Z" fill="#B9C0D4"/>
<path d="M218.79 123.834H219.734V117.541H218.79V123.834Z" fill="#B9C0D4"/>
<path d="M234.597 122.947C235.135 123.541 235.956 123.947 237.079 123.947C238.777 123.947 239.457 123.032 239.457 122.05C239.457 120.71 238.258 120.39 237.23 120.116C236.447 119.918 235.767 119.739 235.767 119.172C235.767 118.644 236.248 118.285 236.947 118.285C237.626 118.285 238.287 118.512 238.768 119.021L239.315 118.323C238.758 117.757 237.994 117.446 237.022 117.446C235.711 117.446 234.795 118.2 234.795 119.238C234.795 120.522 235.965 120.814 236.975 121.078C237.777 121.286 238.494 121.475 238.494 122.135C238.494 122.588 238.136 123.107 237.117 123.107C236.239 123.107 235.56 122.692 235.135 122.22L234.597 122.947Z" fill="#B9C0D4"/>
<path d="M244.949 123.834H245.987L243.487 117.54H242.307L239.807 123.834H240.845L241.354 122.532H244.44L244.949 123.834ZM242.892 118.361L244.166 121.692H241.628L242.892 118.361Z" fill="#B9C0D4"/>
<path d="M247.654 123.834H248.597V118.37H250.541V117.54H245.7V118.37H247.654V123.834Z" fill="#B9C0D4"/>
<path d="M143.99 177.801L144.406 177.187C144.743 177.583 145.139 177.861 145.822 177.861C147.159 177.861 147.684 176.524 147.684 175.276C147.684 175.187 147.684 175.098 147.674 175.009C147.387 175.464 146.654 176.038 145.812 176.038C144.624 176.038 143.644 175.335 143.644 173.929C143.644 172.79 144.515 171.77 145.951 171.77C147.803 171.77 148.506 173.385 148.506 175.187C148.506 176.969 147.674 178.593 145.822 178.593C144.981 178.593 144.406 178.276 143.99 177.801ZM147.644 174.345C147.575 173.523 147.139 172.503 145.991 172.503C144.981 172.503 144.476 173.276 144.476 173.899C144.476 174.87 145.149 175.325 146.001 175.325C146.654 175.325 147.298 174.929 147.644 174.345Z" fill="#B9C0D4"/>
<path d="M112.889 210.115H111.482V205.323L110.379 206.44L109.582 205.599L111.661 203.51H112.889V210.115Z" fill="#006BFF"/>
<path d="M116.573 210.236C115.484 210.236 114.634 209.905 114.025 209.245L114.808 208.263C115.273 208.747 115.858 208.988 116.564 208.988C116.944 208.988 117.244 208.895 117.463 208.708C117.682 208.521 117.792 208.287 117.792 208.007C117.792 207.71 117.685 207.473 117.473 207.296C117.263 207.115 116.973 207.025 116.602 207.025C116.054 207.025 115.592 207.204 115.215 207.562L114.233 207.301V203.51H118.768V204.748H115.64V206.363C115.808 206.195 116.019 206.061 116.274 205.961C116.528 205.858 116.802 205.807 117.095 205.807C117.473 205.807 117.821 205.891 118.14 206.058C118.459 206.226 118.719 206.476 118.918 206.808C119.118 207.136 119.218 207.515 119.218 207.944C119.218 208.643 118.978 209.201 118.498 209.617C118.017 210.03 117.376 210.236 116.573 210.236Z" fill="#006BFF"/>
<path d="M140.952 242.469V241.816C143.328 239.944 144.616 238.845 144.616 237.706C144.616 236.864 143.922 236.498 143.239 236.498C142.447 236.498 141.833 236.835 141.447 237.33L140.942 236.805C141.447 236.142 142.308 235.765 143.239 235.765C144.338 235.765 145.457 236.389 145.457 237.706C145.457 239.053 144.091 240.281 142.249 241.736H145.487V242.469H140.952ZM146.526 241.499L147.011 240.984C147.397 241.499 148.071 241.855 148.853 241.855C149.813 241.855 150.398 241.38 150.398 240.617C150.398 239.796 149.724 239.449 148.754 239.449C148.477 239.449 148.17 239.449 148.071 239.459V238.706C148.179 238.716 148.486 238.716 148.754 238.716C149.586 238.716 150.289 238.389 150.289 237.627C150.289 236.894 149.615 236.498 148.813 236.498C148.09 236.498 147.556 236.775 147.07 237.3L146.615 236.785C147.09 236.211 147.853 235.765 148.873 235.765C150.14 235.765 151.111 236.409 151.111 237.528C151.111 238.479 150.308 238.954 149.685 239.063C150.289 239.112 151.21 239.627 151.21 240.687C151.21 241.786 150.328 242.588 148.873 242.588C147.754 242.588 146.932 242.093 146.526 241.499Z" fill="#0B3558"/>
<path d="M81.8291 178.484L84.4929 172.612H80.9379V171.879H85.4436V172.444L82.7402 178.484H81.8291Z" fill="#B9C0D4"/>
<path d="M47.9571 175.197C47.9571 173.404 48.7889 171.78 50.6407 171.78C51.4923 171.78 52.0666 172.107 52.4726 172.573L52.0567 173.187C51.72 172.79 51.3338 172.513 50.6407 172.513C49.3632 172.513 48.779 173.81 48.779 175.108C48.779 175.197 48.779 175.276 48.7889 175.365C49.0761 174.91 49.8088 174.335 50.6605 174.335C51.8488 174.335 52.8192 175.038 52.8192 176.444C52.8192 177.593 51.9478 178.603 50.502 178.603C48.6601 178.603 47.9571 176.989 47.9571 175.197ZM51.9874 176.474C51.9874 175.504 51.314 175.048 50.4624 175.048C49.8088 175.048 49.1751 175.454 48.8087 176.038C48.8879 176.86 49.3236 177.87 50.4723 177.87C51.4923 177.87 51.9874 177.108 51.9874 176.474Z" fill="#B9C0D4"/>
<path d="M80.503 209.666V204.15L79.4434 205.269L78.9483 204.764L80.602 203.061H81.3249V209.666H80.503ZM85.552 209.666V207.992H82.4129V207.309L85.245 203.061H86.3739V207.27H87.3048V207.992H86.3739V209.666H85.552ZM85.552 203.824L83.2348 207.27H85.552V203.824Z" fill="#0B3558"/>
<path d="M79.1252 242.469V241.816C81.5018 239.944 82.7892 238.845 82.7892 237.706C82.7892 236.864 82.096 236.498 81.4127 236.498C80.6205 236.498 80.0065 236.835 79.6203 237.33L79.1153 236.805C79.6203 236.142 80.4819 235.765 81.4127 235.765C82.5119 235.765 83.6309 236.389 83.6309 237.706C83.6309 239.053 82.2643 240.281 80.4224 241.736H83.6606V242.469H79.1252ZM86.1747 242.469V236.954L85.1152 238.073L84.62 237.567L86.2738 235.864H86.9967V242.469H86.1747Z" fill="#0B3558"/>
<path d="M77.9261 273.413V272.76C80.3027 270.888 81.59 269.789 81.59 268.65C81.59 267.808 80.8968 267.442 80.2136 267.442C79.4214 267.442 78.8074 267.779 78.4212 268.274L77.9162 267.749C78.4212 267.085 79.2827 266.709 80.2136 266.709C81.3127 266.709 82.4317 267.333 82.4317 268.65C82.4317 269.997 81.0652 271.225 79.2233 272.68H82.4614V273.413H77.9261ZM83.7279 271.74C83.7279 270.858 84.4805 270.254 85.3024 270.007C84.5399 269.789 83.8368 269.294 83.8368 268.422C83.8368 267.234 84.9954 266.709 86.0946 266.709C87.1839 266.709 88.3623 267.234 88.3623 268.422C88.3623 269.294 87.6493 269.789 86.8868 270.007C87.7087 270.254 88.4613 270.858 88.4613 271.74C88.4613 272.859 87.3918 273.532 86.0946 273.532C84.7875 273.532 83.7279 272.868 83.7279 271.74ZM87.5305 268.531C87.5305 267.848 86.8868 267.442 86.0946 267.442C85.2925 267.442 84.6587 267.848 84.6587 268.531C84.6587 269.333 85.6985 269.601 86.0946 269.67C86.5006 269.601 87.5305 269.333 87.5305 268.531ZM87.6295 271.65C87.6295 270.789 86.5006 270.423 86.0946 270.373C85.6886 270.423 84.5498 270.789 84.5498 271.65C84.5498 272.363 85.2727 272.799 86.0946 272.799C86.9066 272.799 87.6295 272.363 87.6295 271.65Z" fill="#0B3558"/>
<path d="M145.131 146.3V145.646C147.507 143.775 148.795 142.675 148.795 141.537C148.795 140.695 148.101 140.329 147.418 140.329C146.626 140.329 146.012 140.665 145.626 141.16L145.121 140.636C145.626 139.972 146.487 139.596 147.418 139.596C148.517 139.596 149.636 140.22 149.636 141.537C149.636 142.883 148.27 144.111 146.428 145.567H149.666V146.3H145.131Z" fill="#B9C0D4"/>
<path d="M177.339 145.329L177.824 144.814C178.21 145.329 178.884 145.686 179.666 145.686C180.627 145.686 181.211 145.211 181.211 144.448C181.211 143.626 180.538 143.28 179.567 143.28C179.29 143.28 178.983 143.28 178.884 143.289V142.537C178.993 142.547 179.3 142.547 179.567 142.547C180.399 142.547 181.102 142.22 181.102 141.457C181.102 140.725 180.429 140.329 179.627 140.329C178.904 140.329 178.369 140.606 177.884 141.131L177.428 140.616C177.903 140.041 178.666 139.596 179.686 139.596C180.953 139.596 181.924 140.239 181.924 141.358C181.924 142.309 181.122 142.784 180.498 142.893C181.102 142.943 182.023 143.458 182.023 144.517C182.023 145.617 181.142 146.419 179.686 146.419C178.567 146.419 177.745 145.924 177.339 145.329Z" fill="#B9C0D4"/>
<path d="M212.806 146.3V144.626H209.667V143.943L212.499 139.695H213.628V143.903H214.558V144.626H213.628V146.3H212.806ZM212.806 140.457L210.489 143.903H212.806V140.457Z" fill="#B9C0D4"/>
<path d="M242.145 145.359L242.65 144.814C243.086 145.369 243.66 145.686 244.472 145.686C245.373 145.686 245.997 145.072 245.997 144.27C245.997 143.398 245.373 142.844 244.482 142.844C243.898 142.844 243.403 143.032 242.957 143.468L242.353 143.26V139.695H246.393V140.428H243.175V142.725C243.492 142.408 244.056 142.131 244.72 142.131C245.819 142.131 246.819 142.883 246.819 144.24C246.819 145.587 245.799 146.419 244.472 146.419C243.353 146.419 242.64 146.013 242.145 145.359Z" fill="#B9C0D4"/>
<path d="M47.7061 209.666V204.15L46.6465 205.269L46.1514 204.764L47.8051 203.061H48.528V209.666H47.7061ZM49.5863 208.696L50.0715 208.181C50.4577 208.696 51.1311 209.052 51.9134 209.052C52.8739 209.052 53.4582 208.577 53.4582 207.814C53.4582 206.992 52.7848 206.646 51.8143 206.646C51.5371 206.646 51.2301 206.646 51.1311 206.656V205.903C51.24 205.913 51.547 205.913 51.8143 205.913C52.6462 205.913 53.3492 205.586 53.3492 204.824C53.3492 204.091 52.6759 203.695 51.8738 203.695C51.1509 203.695 50.6161 203.972 50.1309 204.497L49.6754 203.982C50.1507 203.408 50.9132 202.962 51.9332 202.962C53.2007 202.962 54.1712 203.606 54.1712 204.725C54.1712 205.675 53.369 206.151 52.7452 206.26C53.3492 206.309 54.2702 206.824 54.2702 207.884C54.2702 208.983 53.3888 209.785 51.9332 209.785C50.8142 209.785 49.9923 209.29 49.5863 208.696Z" fill="#B9C0D4"/>
<path d="M44.9696 242.469V241.816C47.3462 239.944 48.6335 238.845 48.6335 237.706C48.6335 236.864 47.9404 236.498 47.2571 236.498C46.4649 236.498 45.8509 236.835 45.4647 237.33L44.9597 236.805C45.4647 236.142 46.3262 235.765 47.2571 235.765C48.3563 235.765 49.4752 236.389 49.4752 237.706C49.4752 239.053 48.1087 240.281 46.2668 241.736H49.505V242.469H44.9696ZM50.7615 239.172C50.7615 237.558 51.4745 235.765 53.2867 235.765C55.0889 235.765 55.8118 237.558 55.8118 239.172C55.8118 240.776 55.0889 242.588 53.2867 242.588C51.4745 242.588 50.7615 240.776 50.7615 239.172ZM54.9701 239.172C54.9701 237.855 54.5443 236.498 53.2867 236.498C52.029 236.498 51.6032 237.855 51.6032 239.172C51.6032 240.489 52.029 241.855 53.2867 241.855C54.5443 241.855 54.9701 240.489 54.9701 239.172Z" fill="#B9C0D4"/>
<path d="M45.4531 273.413V272.76C47.8297 270.888 49.1171 269.789 49.1171 268.65C49.1171 267.808 48.4239 267.442 47.7406 267.442C46.9484 267.442 46.3344 267.779 45.9482 268.274L45.4432 267.749C45.9482 267.085 46.8098 266.709 47.7406 266.709C48.8398 266.709 49.9588 267.333 49.9588 268.65C49.9588 269.997 48.5922 271.225 46.7503 272.68H49.9885V273.413H45.4531ZM51.9382 273.413L54.602 267.541H51.047V266.808H55.5526V267.373L52.8492 273.413H51.9382Z" fill="#B9C0D4"/>
<path d="M112.156 176.811C112.156 175.93 112.909 175.325 113.731 175.078C112.968 174.86 112.265 174.365 112.265 173.493C112.265 172.305 113.424 171.78 114.523 171.78C115.612 171.78 116.791 172.305 116.791 173.493C116.791 174.365 116.078 174.86 115.315 175.078C116.137 175.325 116.89 175.93 116.89 176.811C116.89 177.93 115.82 178.603 114.523 178.603C113.216 178.603 112.156 177.94 112.156 176.811ZM115.959 173.602C115.959 172.919 115.315 172.513 114.523 172.513C113.721 172.513 113.087 172.919 113.087 173.602C113.087 174.405 114.127 174.672 114.523 174.741C114.929 174.672 115.959 174.405 115.959 173.602ZM116.058 176.722C116.058 175.86 114.929 175.494 114.523 175.444C114.117 175.494 112.978 175.86 112.978 176.722C112.978 177.435 113.701 177.87 114.523 177.87C115.335 177.87 116.058 177.435 116.058 176.722Z" fill="#B9C0D4"/>
<path d="M109.231 242.469V241.816C111.608 239.944 112.895 238.845 112.895 237.706C112.895 236.864 112.202 236.498 111.519 236.498C110.727 236.498 110.113 236.835 109.727 237.33L109.222 236.805C109.727 236.142 110.588 235.765 111.519 235.765C112.618 235.765 113.737 236.389 113.737 237.706C113.737 239.053 112.371 240.281 110.529 241.736H113.767V242.469H109.231ZM115.053 242.469V241.816C117.43 239.944 118.717 238.845 118.717 237.706C118.717 236.864 118.024 236.498 117.341 236.498C116.548 236.498 115.934 236.835 115.548 237.33L115.043 236.805C115.548 236.142 116.41 235.765 117.341 235.765C118.44 235.765 119.559 236.389 119.559 237.706C119.559 239.053 118.192 240.281 116.35 241.736H119.588V242.469H115.053Z" fill="#0B3558"/>
<path d="M109.217 273.413V272.76C111.594 270.888 112.881 269.789 112.881 268.65C112.881 267.808 112.188 267.442 111.504 267.442C110.712 267.442 110.098 267.779 109.712 268.274L109.207 267.749C109.712 267.085 110.574 266.709 111.504 266.709C112.604 266.709 113.723 267.333 113.723 268.65C113.723 269.997 112.356 271.225 110.514 272.68H113.752V273.413H109.217ZM115.336 272.73L115.752 272.116C116.088 272.512 116.484 272.789 117.168 272.789C118.505 272.789 119.029 271.452 119.029 270.205C119.029 270.116 119.029 270.026 119.019 269.937C118.732 270.393 117.999 270.967 117.158 270.967C115.969 270.967 114.989 270.264 114.989 268.858C114.989 267.719 115.861 266.699 117.296 266.699C119.148 266.699 119.851 268.313 119.851 270.116C119.851 271.898 119.019 273.522 117.168 273.522C116.326 273.522 115.752 273.205 115.336 272.73ZM118.99 269.274C118.92 268.452 118.485 267.432 117.336 267.432C116.326 267.432 115.821 268.204 115.821 268.828C115.821 269.799 116.494 270.254 117.346 270.254C117.999 270.254 118.643 269.858 118.99 269.274Z" fill="#0B3558"/>
<path d="M140.583 272.443L141.068 271.928C141.455 272.443 142.128 272.799 142.91 272.799C143.871 272.799 144.455 272.324 144.455 271.561C144.455 270.739 143.782 270.393 142.811 270.393C142.534 270.393 142.227 270.393 142.128 270.403V269.65C142.237 269.66 142.544 269.66 142.811 269.66C143.643 269.66 144.346 269.333 144.346 268.571C144.346 267.838 143.673 267.442 142.871 267.442C142.148 267.442 141.613 267.719 141.128 268.244L140.672 267.729C141.148 267.155 141.91 266.709 142.93 266.709C144.198 266.709 145.168 267.353 145.168 268.472C145.168 269.422 144.366 269.898 143.742 270.007C144.346 270.056 145.267 270.571 145.267 271.631C145.267 272.73 144.386 273.532 142.93 273.532C141.811 273.532 140.989 273.037 140.583 272.443ZM146.313 270.116C146.313 268.501 147.026 266.709 148.838 266.709C150.641 266.709 151.364 268.501 151.364 270.116C151.364 271.72 150.641 273.532 148.838 273.532C147.026 273.532 146.313 271.72 146.313 270.116ZM150.522 270.116C150.522 268.798 150.096 267.442 148.838 267.442C147.581 267.442 147.155 268.798 147.155 270.116C147.155 271.433 147.581 272.799 148.838 272.799C150.096 272.799 150.522 271.433 150.522 270.116Z" fill="#0B3558"/>
<path d="M172.991 272.443L173.477 271.928C173.863 272.443 174.536 272.799 175.319 272.799C176.279 272.799 176.863 272.324 176.863 271.561C176.863 270.739 176.19 270.393 175.22 270.393C174.942 270.393 174.635 270.393 174.536 270.403V269.65C174.645 269.66 174.952 269.66 175.22 269.66C176.051 269.66 176.754 269.333 176.754 268.571C176.754 267.838 176.081 267.442 175.279 267.442C174.556 267.442 174.021 267.719 173.536 268.244L173.081 267.729C173.556 267.155 174.318 266.709 175.338 266.709C176.606 266.709 177.576 267.353 177.576 268.472C177.576 269.422 176.774 269.898 176.15 270.007C176.754 270.056 177.675 270.571 177.675 271.631C177.675 272.73 176.794 273.532 175.338 273.532C174.219 273.532 173.397 273.037 172.991 272.443ZM178.722 270.116C178.722 268.501 179.435 266.709 181.247 266.709C183.049 266.709 183.772 268.501 183.772 270.116C183.772 271.72 183.049 273.532 181.247 273.532C179.435 273.532 178.722 271.72 178.722 270.116ZM182.93 270.116C182.93 268.798 182.504 267.442 181.247 267.442C179.989 267.442 179.563 268.798 179.563 270.116C179.563 271.433 179.989 272.799 181.247 272.799C182.504 272.799 182.93 271.433 182.93 270.116Z" fill="#0B3558"/>
<path d="M211.379 273.413V267.897L210.319 269.016L209.824 268.511L211.478 266.808H212.201V273.413H211.379Z" fill="#0B3558"/>
<path d="M239.863 273.413V272.76C242.24 270.888 243.527 269.789 243.527 268.65C243.527 267.808 242.834 267.442 242.151 267.442C241.358 267.442 240.744 267.779 240.358 268.274L239.853 267.749C240.358 267.085 241.22 266.709 242.151 266.709C243.25 266.709 244.369 267.333 244.369 268.65C244.369 269.997 243.002 271.225 241.16 272.68H244.398V273.413H239.863Z" fill="#B9C0D4"/>
<path d="M175.32 178.484V172.969L174.26 174.088L173.765 173.583L175.419 171.879H176.142V178.484H175.32ZM177.418 175.187C177.418 173.573 178.131 171.78 179.943 171.78C181.745 171.78 182.468 173.573 182.468 175.187C182.468 176.791 181.745 178.603 179.943 178.603C178.131 178.603 177.418 176.791 177.418 175.187ZM181.627 175.187C181.627 173.87 181.201 172.513 179.943 172.513C178.686 172.513 178.26 173.87 178.26 175.187C178.26 176.504 178.686 177.87 179.943 177.87C181.201 177.87 181.627 176.504 181.627 175.187Z" fill="#B9C0D4"/>
<path d="M176.627 210.114H175.805V204.597L174.741 205.719L174.248 205.212L175.902 203.51H176.627V210.114Z" fill="#0B3558"/>
<path d="M179.504 210.114H178.595L181.259 204.244H177.7V203.51H182.207V204.075L179.504 210.114Z" fill="#0B3558"/>
<path d="M173.13 242.469V241.816C175.507 239.944 176.794 238.845 176.794 237.706C176.794 236.864 176.101 236.498 175.417 236.498C174.625 236.498 174.011 236.835 173.625 237.33L173.12 236.805C173.625 236.142 174.487 235.765 175.417 235.765C176.517 235.765 177.636 236.389 177.636 237.706C177.636 239.053 176.269 240.281 174.427 241.736H177.665V242.469H173.13ZM181.873 242.469V240.796H178.734V240.112L181.566 235.864H182.695V240.073H183.626V240.796H182.695V242.469H181.873ZM181.873 236.627L179.556 240.073H181.873V236.627Z" fill="#0B3558"/>
<path d="M79.1505 144.329L79.6358 143.814C80.022 144.329 80.6953 144.686 81.4776 144.686C82.4382 144.686 83.0224 144.211 83.0224 143.448C83.0224 142.626 82.3491 142.28 81.3786 142.28C81.1013 142.28 80.7944 142.28 80.6953 142.289V141.537C80.8043 141.547 81.1112 141.547 81.3786 141.547C82.2104 141.547 82.9135 141.22 82.9135 140.457C82.9135 139.725 82.2401 139.329 81.438 139.329C80.7151 139.329 80.1804 139.606 79.6952 140.131L79.2397 139.616C79.715 139.041 80.4775 138.596 81.4974 138.596C82.765 138.596 83.7354 139.239 83.7354 140.358C83.7354 141.309 82.9333 141.784 82.3095 141.893C82.9135 141.943 83.8344 142.458 83.8344 143.517C83.8344 144.617 82.9531 145.419 81.4974 145.419C80.3785 145.419 79.5565 144.924 79.1505 144.329ZM86.1382 145.3V139.784L85.0786 140.903L84.5835 140.398L86.2372 138.695H86.9601V145.3H86.1382Z" fill="#B9C0D4"/>
<path d="M45.8894 144.329L46.3746 143.814C46.7608 144.329 47.4342 144.686 48.2165 144.686C49.177 144.686 49.7613 144.211 49.7613 143.448C49.7613 142.626 49.0879 142.28 48.1174 142.28C47.8402 142.28 47.5332 142.28 47.4342 142.289V141.537C47.5431 141.547 47.8501 141.547 48.1174 141.547C48.9492 141.547 49.6523 141.22 49.6523 140.457C49.6523 139.725 48.979 139.329 48.1768 139.329C47.454 139.329 46.9192 139.606 46.434 140.131L45.9785 139.616C46.4538 139.041 47.2163 138.596 48.2363 138.596C49.5038 138.596 50.4742 139.239 50.4742 140.358C50.4742 141.309 49.6721 141.784 49.0483 141.893C49.6523 141.943 50.5733 142.458 50.5733 143.517C50.5733 144.617 49.6919 145.419 48.2363 145.419C47.1173 145.419 46.2954 144.924 45.8894 144.329ZM51.6194 142.002C51.6194 140.388 52.3324 138.596 54.1445 138.596C55.9468 138.596 56.6697 140.388 56.6697 142.002C56.6697 143.606 55.9468 145.419 54.1445 145.419C52.3324 145.419 51.6194 143.606 51.6194 142.002ZM55.828 142.002C55.828 140.685 55.4022 139.329 54.1445 139.329C52.8869 139.329 52.4611 140.685 52.4611 142.002C52.4611 143.319 52.8869 144.686 54.1445 144.686C55.4022 144.686 55.828 143.319 55.828 142.002Z" fill="#B9C0D4"/>
<path d="M210.095 178.484V172.969L209.035 174.088L208.54 173.583L210.194 171.879H210.917V178.484H210.095ZM213.45 178.484V172.969L212.391 174.088L211.896 173.583L213.549 171.879H214.272V178.484H213.45Z" fill="#B9C0D4"/>
<path d="M209.448 210.113H208.041V205.322L206.938 206.439L206.141 205.597L208.22 203.509H209.448V210.113Z" fill="#006BFF"/>
<path d="M213.103 210.234C212.823 210.234 212.554 210.21 212.296 210.162C212.038 210.117 211.796 210.044 211.571 209.944C211.345 209.844 211.148 209.723 210.981 209.582C210.816 209.44 210.686 209.269 210.589 209.069C210.496 208.866 210.449 208.644 210.449 208.402C210.449 208.015 210.581 207.672 210.845 207.372C211.11 207.072 211.45 206.85 211.866 206.705C210.992 206.402 210.555 205.884 210.555 205.153C210.555 204.856 210.629 204.593 210.778 204.364C210.926 204.132 211.124 203.95 211.372 203.818C211.621 203.683 211.891 203.581 212.185 203.513C212.478 203.446 212.784 203.412 213.103 203.412C213.419 203.412 213.724 203.446 214.017 203.513C214.311 203.581 214.581 203.683 214.83 203.818C215.078 203.95 215.276 204.132 215.424 204.364C215.573 204.593 215.647 204.856 215.647 205.153C215.647 205.881 215.207 206.398 214.327 206.705C214.743 206.85 215.084 207.072 215.352 207.372C215.619 207.672 215.753 208.015 215.753 208.402C215.753 208.795 215.626 209.134 215.371 209.417C215.12 209.701 214.797 209.909 214.404 210.041C214.014 210.17 213.58 210.234 213.103 210.234ZM213.103 206.153C213.216 206.137 213.331 206.112 213.447 206.076C213.566 206.037 213.685 205.987 213.804 205.926C213.924 205.865 214.02 205.786 214.095 205.689C214.172 205.593 214.211 205.486 214.211 205.37C214.211 205.138 214.107 204.954 213.901 204.819C213.698 204.684 213.432 204.616 213.103 204.616C212.771 204.616 212.501 204.684 212.291 204.819C212.085 204.954 211.982 205.138 211.982 205.37C211.982 205.486 212.02 205.593 212.098 205.689C212.175 205.786 212.273 205.865 212.393 205.926C212.515 205.987 212.634 206.037 212.75 206.076C212.87 206.112 212.987 206.137 213.103 206.153ZM213.103 209.026C213.448 209.026 213.738 208.951 213.974 208.803C214.209 208.652 214.327 208.458 214.327 208.223C214.327 208.091 214.283 207.97 214.196 207.86C214.109 207.751 213.998 207.662 213.862 207.594C213.727 207.527 213.595 207.472 213.466 207.43C213.34 207.388 213.219 207.359 213.103 207.343C212.984 207.359 212.86 207.388 212.731 207.43C212.602 207.472 212.47 207.527 212.335 207.594C212.202 207.662 212.093 207.751 212.006 207.86C211.919 207.97 211.875 208.091 211.875 208.223C211.875 208.461 211.991 208.655 212.223 208.803C212.459 208.951 212.752 209.026 213.103 209.026Z" fill="#006BFF"/>
<path d="M205.772 242.469V241.816C208.149 239.944 209.436 238.845 209.436 237.706C209.436 236.864 208.743 236.498 208.06 236.498C207.267 236.498 206.653 236.835 206.267 237.33L205.762 236.805C206.267 236.142 207.129 235.765 208.06 235.765C209.159 235.765 210.278 236.389 210.278 237.706C210.278 239.053 208.911 240.281 207.069 241.736H210.307V242.469H205.772ZM211.713 241.528L212.218 240.984C212.653 241.538 213.228 241.855 214.04 241.855C214.941 241.855 215.565 241.241 215.565 240.439C215.565 239.568 214.941 239.013 214.05 239.013C213.465 239.013 212.97 239.201 212.525 239.637L211.921 239.429V235.864H215.961V236.597H212.742V238.894C213.059 238.578 213.624 238.3 214.287 238.3C215.386 238.3 216.387 239.053 216.387 240.41C216.387 241.756 215.367 242.588 214.04 242.588C212.921 242.588 212.208 242.182 211.713 241.528Z" fill="#0B3558"/>
<path d="M115.291 145.3V139.784L114.231 140.903L113.736 140.398L115.39 138.695H116.113V145.3H115.291Z" fill="#B9C0D4"/>
<path d="M240.179 178.484V172.969L239.12 174.088L238.625 173.583L240.278 171.879H241.001V178.484H240.179ZM242.307 178.484V177.831C244.684 175.959 245.971 174.86 245.971 173.721C245.971 172.88 245.278 172.513 244.594 172.513C243.802 172.513 243.188 172.85 242.802 173.345L242.297 172.82C242.802 172.157 243.664 171.78 244.594 171.78C245.694 171.78 246.813 172.404 246.813 173.721C246.813 175.068 245.446 176.296 243.604 177.752H246.842V178.484H242.307Z" fill="#B9C0D4"/>
<path d="M239.173 209.666V204.15L238.114 205.269L237.619 204.764L239.273 203.061H239.995V209.666H239.173ZM241.598 208.983L242.014 208.369C242.351 208.765 242.747 209.042 243.43 209.042C244.767 209.042 245.292 207.705 245.292 206.458C245.292 206.368 245.292 206.279 245.282 206.19C244.995 206.646 244.262 207.22 243.42 207.22C242.232 207.22 241.252 206.517 241.252 205.111C241.252 203.972 242.123 202.952 243.559 202.952C245.411 202.952 246.114 204.566 246.114 206.368C246.114 208.151 245.282 209.775 243.43 209.775C242.589 209.775 242.014 209.458 241.598 208.983ZM245.252 205.527C245.183 204.705 244.747 203.685 243.599 203.685C242.589 203.685 242.084 204.457 242.084 205.081C242.084 206.052 242.757 206.507 243.609 206.507C244.262 206.507 244.906 206.111 245.252 205.527Z" fill="#B9C0D4"/>
<path d="M236.713 242.469V241.816C239.089 239.944 240.377 238.845 240.377 237.706C240.377 236.864 239.683 236.498 239 236.498C238.208 236.498 237.594 236.835 237.208 237.33L236.703 236.805C237.208 236.142 238.069 235.765 239 235.765C240.099 235.765 241.218 236.389 241.218 237.706C241.218 239.053 239.852 240.281 238.01 241.736H241.248V242.469H236.713ZM242.505 239.182C242.505 237.389 243.336 235.765 245.188 235.765C246.04 235.765 246.614 236.092 247.02 236.557L246.604 237.171C246.267 236.775 245.881 236.498 245.188 236.498C243.911 236.498 243.326 237.795 243.326 239.092C243.326 239.182 243.326 239.261 243.336 239.35C243.623 238.894 244.356 238.32 245.208 238.32C246.396 238.32 247.367 239.023 247.367 240.429C247.367 241.578 246.495 242.588 245.049 242.588C243.208 242.588 242.505 240.974 242.505 239.182ZM246.535 240.459C246.535 239.489 245.861 239.033 245.01 239.033C244.356 239.033 243.723 239.439 243.356 240.023C243.435 240.845 243.871 241.855 245.02 241.855C246.04 241.855 246.535 241.093 246.535 240.459Z" fill="#B9C0D4"/>
<circle cx="114.348" cy="206.773" r="13.0005" fill="#006BFF" fill-opacity="0.1"/>
<circle cx="237.472" cy="229.79" r="13.0005" fill="#006BFF" fill-opacity="0.1"/>
<circle cx="146.016" cy="206.773" r="13.0005" fill="#006BFF"/>
<path d="M89.6712 55.7769L90.6367 54.44C91.2185 55.0466 92.1221 55.5541 93.2609 55.5541C94.2264 55.5541 94.6968 55.0961 94.6968 54.6257C94.6968 54.0068 93.9788 53.7964 93.0257 53.5736C91.6765 53.2641 89.9435 52.8928 89.9435 51.0484C89.9435 49.6744 91.1319 48.5604 93.0752 48.5604C94.3873 48.5604 95.4766 48.9565 96.2936 49.7116L95.3157 50.9989C94.6473 50.38 93.756 50.0953 92.9515 50.0953C92.1592 50.0953 91.7384 50.4419 91.7384 50.937C91.7384 51.494 92.4316 51.6673 93.3847 51.8901C94.7463 52.1996 96.4792 52.6081 96.4792 54.44C96.4792 55.9502 95.4023 57.089 93.1743 57.089C91.5898 57.089 90.4511 56.5567 89.6712 55.7769ZM97.2419 53.9449C97.2419 52.212 98.5168 50.8132 100.336 50.8132C102.119 50.8132 103.332 52.1501 103.332 54.1058V54.4524H98.8882C98.9872 55.2075 99.5937 55.8388 100.609 55.8388C101.166 55.8388 101.822 55.616 102.206 55.2446L102.899 56.2596C102.305 56.8043 101.364 57.089 100.435 57.089C98.6158 57.089 97.2419 55.8635 97.2419 53.9449ZM100.336 52.0634C99.3585 52.0634 98.9377 52.7937 98.8634 53.3879H101.809C101.772 52.8185 101.376 52.0634 100.336 52.0634ZM104.467 56.9404V48.6842H106.039V56.9404H104.467ZM107.215 53.9449C107.215 52.212 108.489 50.8132 110.309 50.8132C112.092 50.8132 113.305 52.1501 113.305 54.1058V54.4524H108.861C108.96 55.2075 109.566 55.8388 110.581 55.8388C111.138 55.8388 111.794 55.616 112.178 55.2446L112.871 56.2596C112.277 56.8043 111.336 57.089 110.408 57.089C108.589 57.089 107.215 55.8635 107.215 53.9449ZM110.309 52.0634C109.331 52.0634 108.91 52.7937 108.836 53.3879H111.782C111.745 52.8185 111.349 52.0634 110.309 52.0634ZM114.056 53.9449C114.056 52.1129 115.381 50.8132 117.225 50.8132C118.451 50.8132 119.193 51.3455 119.589 51.8901L118.562 52.8556C118.277 52.4348 117.844 52.212 117.299 52.212C116.346 52.212 115.678 52.9051 115.678 53.9449C115.678 54.9847 116.346 55.6902 117.299 55.6902C117.844 55.6902 118.277 55.4427 118.562 55.0466L119.589 55.9997C119.193 56.5567 118.451 57.089 117.225 57.089C115.381 57.089 114.056 55.7893 114.056 53.9449ZM122.622 57.089C121.521 57.089 120.927 56.5196 120.927 55.455V52.3357H119.936V50.9618H120.927V49.3278H122.511V50.9618H123.724V52.3357H122.511V55.0342C122.511 55.4055 122.709 55.6902 123.056 55.6902C123.291 55.6902 123.514 55.6036 123.6 55.5169L123.934 56.7052C123.699 56.9157 123.278 57.089 122.622 57.089ZM131.556 56.9404V56.3215C131.148 56.8043 130.442 57.089 129.662 57.089C128.709 57.089 127.583 56.4453 127.583 55.1085C127.583 53.7097 128.709 53.2022 129.662 53.2022C130.455 53.2022 131.16 53.4498 131.556 53.9325V53.1032C131.556 52.4967 131.036 52.1006 130.244 52.1006C129.601 52.1006 129.006 52.3357 128.499 52.8061L127.905 51.754C128.635 51.1103 129.576 50.8132 130.517 50.8132C131.878 50.8132 133.128 51.3579 133.128 53.0784V56.9404H131.556ZM131.556 55.5046V54.7619C131.296 54.4153 130.801 54.242 130.294 54.242C129.675 54.242 129.167 54.5638 129.167 55.1456C129.167 55.7026 129.675 56.0244 130.294 56.0244C130.801 56.0244 131.296 55.8511 131.556 55.5046ZM137.892 56.9404V48.6842H141.147C143.734 48.6842 145.529 50.3305 145.529 52.8185C145.529 55.3065 143.734 56.9404 141.147 56.9404H137.892ZM139.65 55.3932H141.147C142.781 55.3932 143.734 54.2172 143.734 52.8185C143.734 51.3579 142.843 50.2314 141.147 50.2314H139.65V55.3932ZM150.329 56.9404V56.3215C149.921 56.8043 149.215 57.089 148.435 57.089C147.482 57.089 146.356 56.4453 146.356 55.1085C146.356 53.7097 147.482 53.2022 148.435 53.2022C149.227 53.2022 149.933 53.4498 150.329 53.9325V53.1032C150.329 52.4967 149.809 52.1006 149.017 52.1006C148.373 52.1006 147.779 52.3357 147.272 52.8061L146.678 51.754C147.408 51.1103 148.349 50.8132 149.289 50.8132C150.651 50.8132 151.901 51.3579 151.901 53.0784V56.9404H150.329ZM150.329 55.5046V54.7619C150.069 54.4153 149.574 54.242 149.067 54.242C148.448 54.242 147.94 54.5638 147.94 55.1456C147.94 55.7026 148.448 56.0244 149.067 56.0244C149.574 56.0244 150.069 55.8511 150.329 55.5046ZM155.466 57.089C154.364 57.089 153.77 56.5196 153.77 55.455V52.3357H152.78V50.9618H153.77V49.3278H155.354V50.9618H156.567V52.3357H155.354V55.0342C155.354 55.4055 155.552 55.6902 155.899 55.6902C156.134 55.6902 156.357 55.6036 156.444 55.5169L156.778 56.7052C156.543 56.9157 156.122 57.089 155.466 57.089ZM157.259 53.9449C157.259 52.212 158.534 50.8132 160.354 50.8132C162.136 50.8132 163.349 52.1501 163.349 54.1058V54.4524H158.906C159.005 55.2075 159.611 55.8388 160.626 55.8388C161.183 55.8388 161.839 55.616 162.223 55.2446L162.916 56.2596C162.322 56.8043 161.381 57.089 160.453 57.089C158.633 57.089 157.259 55.8635 157.259 53.9449ZM160.354 52.0634C159.376 52.0634 158.955 52.7937 158.881 53.3879H161.827C161.79 52.8185 161.394 52.0634 160.354 52.0634ZM173.173 55.2818C173.668 55.814 174.188 56.3587 174.757 56.9404H172.752C172.578 56.7795 172.368 56.5567 172.133 56.3215C171.514 56.7919 170.784 57.089 169.892 57.089C168.37 57.089 167.157 56.2968 167.157 54.7C167.157 53.4374 167.998 52.7937 168.939 52.311C168.617 51.7045 168.395 51.0979 168.395 50.5409C168.395 49.4269 169.372 48.5604 170.746 48.5604C171.922 48.5604 172.925 49.2041 172.925 50.3057C172.925 51.5683 171.91 52.1006 170.895 52.5709C171.143 52.9051 171.39 53.2146 171.6 53.4622C171.836 53.7592 172.071 54.0316 172.306 54.3039C172.653 53.7716 172.913 53.1898 173.061 52.7071L174.324 53.2889C174.027 53.9449 173.643 54.6505 173.173 55.2818ZM169.967 50.578C169.967 50.9122 170.115 51.296 170.326 51.6797C171.019 51.3579 171.551 50.9989 171.551 50.3924C171.551 49.9591 171.242 49.6992 170.833 49.6992C170.338 49.6992 169.967 50.0705 169.967 50.578ZM170.103 55.8511C170.536 55.8511 170.932 55.6902 171.291 55.4179C170.92 55.0094 170.573 54.6257 170.375 54.3781C170.103 54.0439 169.818 53.6726 169.546 53.2889C169.125 53.5983 168.828 53.982 168.828 54.5514C168.828 55.356 169.422 55.8511 170.103 55.8511ZM180.765 56.9404V50.2314H178.351V48.6842H184.936V50.2314H182.535V56.9404H180.765ZM186.806 50.0829C186.298 50.0829 185.865 49.662 185.865 49.1422C185.865 48.6223 186.298 48.2014 186.806 48.2014C187.325 48.2014 187.746 48.6223 187.746 49.1422C187.746 49.662 187.325 50.0829 186.806 50.0829ZM186.026 56.9404V50.9618H187.598V56.9404H186.026ZM196.571 56.9404V53.1651C196.571 52.6081 196.324 52.212 195.68 52.212C195.123 52.212 194.665 52.5833 194.442 52.9051V56.9404H192.858V53.1651C192.858 52.6081 192.61 52.212 191.966 52.212C191.422 52.212 190.964 52.5833 190.729 52.9175V56.9404H189.157V50.9618H190.729V51.7416C190.976 51.3826 191.768 50.8132 192.684 50.8132C193.563 50.8132 194.12 51.2217 194.343 51.9025C194.69 51.3579 195.482 50.8132 196.398 50.8132C197.499 50.8132 198.156 51.395 198.156 52.6204V56.9404H196.571ZM199.314 53.9449C199.314 52.212 200.589 50.8132 202.408 50.8132C204.191 50.8132 205.404 52.1501 205.404 54.1058V54.4524H200.96C201.059 55.2075 201.666 55.8388 202.681 55.8388C203.238 55.8388 203.894 55.616 204.277 55.2446L204.97 56.2596C204.376 56.8043 203.436 57.089 202.507 57.089C200.688 57.089 199.314 55.8635 199.314 53.9449ZM202.408 52.0634C201.43 52.0634 201.009 52.7937 200.935 53.3879H203.881C203.844 52.8185 203.448 52.0634 202.408 52.0634Z" fill="#0B3558"/>
<path d="M144.239 210.15H142.832V205.358L141.729 206.475L140.932 205.634L143.011 203.545H144.239V210.15Z" fill="white"/>
<path d="M148.078 210.271C147.591 210.271 147.161 210.182 146.787 210.005C146.416 209.825 146.12 209.576 145.897 209.26C145.675 208.945 145.507 208.585 145.395 208.182C145.285 207.779 145.23 207.339 145.23 206.862C145.23 206.192 145.349 205.602 145.588 205.092C145.83 204.58 146.184 204.179 146.652 203.888C147.119 203.595 147.672 203.448 148.31 203.448C149.081 203.448 149.73 203.676 150.259 204.13L149.625 205.209C149.438 205.031 149.243 204.902 149.04 204.822C148.837 204.738 148.594 204.696 148.31 204.696C147.83 204.696 147.433 204.875 147.121 205.233C146.811 205.59 146.657 206.035 146.657 206.567C146.657 206.625 146.66 206.67 146.666 206.703C146.827 206.467 147.063 206.267 147.372 206.103C147.685 205.935 148.014 205.852 148.359 205.852C148.765 205.852 149.135 205.932 149.471 206.093C149.806 206.251 150.078 206.496 150.288 206.828C150.501 207.16 150.607 207.552 150.607 208.003C150.607 208.654 150.372 209.196 149.901 209.628C149.43 210.057 148.823 210.271 148.078 210.271ZM148.001 209.024C148.362 209.024 148.649 208.925 148.861 208.729C149.074 208.529 149.181 208.303 149.181 208.052C149.181 207.726 149.061 207.479 148.823 207.312C148.587 207.144 148.297 207.06 147.952 207.06C147.704 207.06 147.467 207.115 147.242 207.225C147.016 207.334 146.824 207.488 146.666 207.684C146.682 207.852 146.718 208.011 146.773 208.163C146.827 208.314 146.905 208.456 147.005 208.588C147.108 208.721 147.245 208.827 147.416 208.907C147.587 208.985 147.782 209.024 148.001 209.024Z" fill="white"/>
</g>
<g filter="url(#filter1_d_5805_27707)">
<rect x="169.417" y="193.815" width="198.36" height="190.598" rx="7.4091" fill="white"/>
<path d="M222.165 222.629L220.877 217.587L219.6 222.629H217.938L215.835 215.286H217.585L218.873 220.592L220.272 215.286H221.494L222.881 220.592L224.158 215.286H225.919L223.828 222.629H222.165ZM225.842 219.965C225.842 218.423 226.976 217.179 228.594 217.179C230.179 217.179 231.258 218.368 231.258 220.108V220.416H227.306C227.394 221.088 227.933 221.649 228.836 221.649C229.332 221.649 229.915 221.451 230.256 221.121L230.873 222.023C230.344 222.508 229.508 222.761 228.682 222.761C227.064 222.761 225.842 221.671 225.842 219.965ZM228.594 218.291C227.724 218.291 227.35 218.941 227.284 219.469H229.904C229.871 218.963 229.519 218.291 228.594 218.291ZM235.923 222.629V221.946C235.505 222.475 234.921 222.761 234.283 222.761C232.94 222.761 231.927 221.748 231.927 219.976C231.927 218.236 232.929 217.179 234.283 217.179C234.91 217.179 235.505 217.454 235.923 217.994V215.286H237.333V222.629H235.923ZM235.923 220.911V219.029C235.692 218.677 235.186 218.423 234.712 218.423C233.92 218.423 233.369 219.051 233.369 219.976C233.369 220.889 233.92 221.517 234.712 221.517C235.186 221.517 235.692 221.264 235.923 220.911ZM242.308 222.629V219.414C242.308 218.677 241.923 218.423 241.328 218.423C240.778 218.423 240.348 218.732 240.117 219.051V222.629H238.719V217.311H240.117V218.005C240.458 217.598 241.108 217.179 241.978 217.179C243.145 217.179 243.706 217.84 243.706 218.875V222.629H242.308ZM244.753 219.965C244.753 218.423 245.887 217.179 247.506 217.179C249.091 217.179 250.17 218.368 250.17 220.108V220.416H246.218C246.306 221.088 246.845 221.649 247.748 221.649C248.243 221.649 248.827 221.451 249.168 221.121L249.785 222.023C249.256 222.508 248.419 222.761 247.594 222.761C245.975 222.761 244.753 221.671 244.753 219.965ZM247.506 218.291C246.636 218.291 246.262 218.941 246.196 219.469H248.816C248.783 218.963 248.43 218.291 247.506 218.291ZM250.717 221.935L251.323 220.955C251.708 221.319 252.501 221.682 253.162 221.682C253.767 221.682 254.053 221.473 254.053 221.143C254.053 220.768 253.591 220.636 252.985 220.515C252.072 220.339 250.894 220.119 250.894 218.853C250.894 217.961 251.675 217.179 253.073 217.179C253.976 217.179 254.692 217.488 255.22 217.906L254.659 218.864C254.34 218.522 253.734 218.247 253.084 218.247C252.578 218.247 252.248 218.434 252.248 218.743C252.248 219.073 252.666 219.194 253.261 219.315C254.174 219.491 255.396 219.733 255.396 221.055C255.396 222.023 254.571 222.761 253.096 222.761C252.171 222.761 251.279 222.453 250.717 221.935ZM260.082 222.629V221.946C259.663 222.475 259.08 222.761 258.441 222.761C257.098 222.761 256.085 221.748 256.085 219.976C256.085 218.236 257.087 217.179 258.441 217.179C259.069 217.179 259.663 217.454 260.082 217.994V215.286H261.491V222.629H260.082ZM260.082 220.911V219.029C259.85 218.677 259.344 218.423 258.871 218.423C258.078 218.423 257.527 219.051 257.527 219.976C257.527 220.889 258.078 221.517 258.871 221.517C259.344 221.517 259.85 221.264 260.082 220.911ZM266.07 222.629V222.078C265.707 222.508 265.079 222.761 264.386 222.761C263.538 222.761 262.536 222.189 262.536 221C262.536 219.755 263.538 219.304 264.386 219.304C265.09 219.304 265.718 219.524 266.07 219.954V219.216C266.07 218.677 265.608 218.324 264.903 218.324C264.331 218.324 263.802 218.533 263.351 218.952L262.822 218.016C263.472 217.443 264.309 217.179 265.145 217.179C266.356 217.179 267.468 217.664 267.468 219.194V222.629H266.07ZM266.07 221.352V220.691C265.839 220.383 265.399 220.229 264.947 220.229C264.397 220.229 263.945 220.515 263.945 221.033C263.945 221.528 264.397 221.814 264.947 221.814C265.399 221.814 265.839 221.66 266.07 221.352ZM268.877 223.455C268.998 223.51 269.185 223.543 269.318 223.543C269.681 223.543 269.923 223.444 270.055 223.157L270.253 222.706L268.096 217.311H269.593L270.98 221.011L272.367 217.311H273.875L271.376 223.499C270.98 224.501 270.275 224.765 269.362 224.787C269.196 224.787 268.844 224.754 268.668 224.71L268.877 223.455ZM274.448 224.137L273.842 223.642C274.195 223.455 274.602 223.003 274.69 222.618C274.657 222.629 274.558 222.651 274.481 222.651C274.062 222.651 273.732 222.321 273.732 221.847C273.732 221.363 274.128 220.966 274.591 220.966C275.108 220.966 275.582 221.374 275.582 222.089C275.582 222.915 275.119 223.653 274.448 224.137ZM284.716 222.629L284.254 221.363H280.973L280.511 222.629H278.793L281.634 215.286H283.593L286.423 222.629H284.716ZM282.614 216.64L281.392 220.009H283.825L282.614 216.64ZM290.507 222.629V221.957C290.143 222.365 289.505 222.761 288.635 222.761C287.468 222.761 286.917 222.122 286.917 221.088V217.311H288.316V220.537C288.316 221.275 288.701 221.517 289.296 221.517C289.835 221.517 290.264 221.22 290.507 220.911V217.311H291.905V222.629H290.507ZM293.183 223.994L293.811 222.981C294.24 223.455 294.801 223.642 295.473 223.642C296.144 223.642 296.937 223.345 296.937 222.299V221.759C296.519 222.288 295.946 222.596 295.297 222.596C293.965 222.596 292.952 221.66 292.952 219.888C292.952 218.148 293.954 217.179 295.297 217.179C295.935 217.179 296.508 217.454 296.937 217.994V217.311H298.346V222.266C298.346 224.291 296.783 224.787 295.473 224.787C294.559 224.787 293.855 224.578 293.183 223.994ZM296.937 220.746V219.029C296.706 218.677 296.2 218.423 295.737 218.423C294.944 218.423 294.394 218.974 294.394 219.888C294.394 220.801 294.944 221.352 295.737 221.352C296.2 221.352 296.706 221.088 296.937 220.746ZM303.322 222.629V221.957C302.959 222.365 302.32 222.761 301.451 222.761C300.284 222.761 299.733 222.122 299.733 221.088V217.311H301.131V220.537C301.131 221.275 301.517 221.517 302.111 221.517C302.651 221.517 303.08 221.22 303.322 220.911V217.311H304.72V222.629H303.322ZM305.646 221.935L306.252 220.955C306.637 221.319 307.43 221.682 308.09 221.682C308.696 221.682 308.982 221.473 308.982 221.143C308.982 220.768 308.52 220.636 307.914 220.515C307 220.339 305.822 220.119 305.822 218.853C305.822 217.961 306.604 217.179 308.002 217.179C308.905 217.179 309.621 217.488 310.149 217.906L309.588 218.864C309.268 218.522 308.663 218.247 308.013 218.247C307.507 218.247 307.177 218.434 307.177 218.743C307.177 219.073 307.595 219.194 308.189 219.315C309.103 219.491 310.325 219.733 310.325 221.055C310.325 222.023 309.5 222.761 308.024 222.761C307.1 222.761 306.208 222.453 305.646 221.935ZM313.139 222.761C312.159 222.761 311.631 222.255 311.631 221.308V218.533H310.75V217.311H311.631V215.858H313.04V217.311H314.119V218.533H313.04V220.933C313.04 221.264 313.216 221.517 313.524 221.517C313.733 221.517 313.932 221.44 314.009 221.363L314.306 222.42C314.097 222.607 313.722 222.761 313.139 222.761ZM319.434 222.629V217.3L318.212 218.544L317.32 217.609L319.632 215.286H320.997V222.629H319.434ZM322.099 218.974C322.099 216.75 323.354 215.176 325.523 215.176C326.415 215.176 327.164 215.484 327.692 215.935L326.987 217.113C326.591 216.739 326.173 216.53 325.523 216.53C324.411 216.53 323.685 217.488 323.685 218.655C323.685 218.71 323.685 218.765 323.696 218.809C324.037 218.313 324.775 217.873 325.578 217.873C326.899 217.873 328.077 218.677 328.077 220.24C328.077 221.671 326.943 222.761 325.27 222.761C323.035 222.761 322.099 221.044 322.099 218.974ZM326.492 220.306C326.492 219.513 325.843 219.172 325.127 219.172C324.576 219.172 324.048 219.447 323.696 219.877C323.762 220.581 324.158 221.396 325.193 221.396C326.041 221.396 326.492 220.823 326.492 220.306Z" fill="#476788"/>
<g filter="url(#filter2_d_5805_27707)">
<rect x="188.231" y="238.172" width="167.785" height="30.8182" rx="7.4091" fill="white"/>
<rect x="188.694" y="238.635" width="166.859" height="29.8921" rx="6.94603" stroke="#006BFF" stroke-width="0.926138"/>
<path d="M251.813 249.801H252.924V257.581H251.646V251.168L250.079 251.613L249.768 250.524L251.813 249.801ZM257.259 257.726C255.303 257.726 254.203 256.092 254.203 253.691C254.203 251.291 255.303 249.657 257.259 249.657C259.215 249.657 260.316 251.291 260.316 253.691C260.316 256.092 259.215 257.726 257.259 257.726ZM257.259 256.481C258.415 256.481 259.038 255.481 259.038 253.691C259.038 251.902 258.415 250.902 257.259 250.902C256.115 250.902 255.481 251.902 255.481 253.691C255.481 255.481 256.115 256.481 257.259 256.481ZM262.181 253.547C261.715 253.547 261.348 253.169 261.348 252.713C261.348 252.247 261.715 251.88 262.181 251.88C262.637 251.88 263.015 252.247 263.015 252.713C263.015 253.169 262.637 253.547 262.181 253.547ZM262.181 257.714C261.715 257.714 261.348 257.337 261.348 256.881C261.348 256.414 261.715 256.047 262.181 256.047C262.637 256.047 263.015 256.414 263.015 256.881C263.015 257.337 262.637 257.714 262.181 257.714ZM267.092 257.726C265.136 257.726 264.036 256.092 264.036 253.691C264.036 251.291 265.136 249.657 267.092 249.657C269.048 249.657 270.149 251.291 270.149 253.691C270.149 256.092 269.048 257.726 267.092 257.726ZM267.092 256.481C268.248 256.481 268.871 255.481 268.871 253.691C268.871 251.902 268.248 250.902 267.092 250.902C265.948 250.902 265.314 251.902 265.314 253.691C265.314 255.481 265.948 256.481 267.092 256.481ZM274.093 257.726C272.137 257.726 271.036 256.092 271.036 253.691C271.036 251.291 272.137 249.657 274.093 249.657C276.049 249.657 277.149 251.291 277.149 253.691C277.149 256.092 276.049 257.726 274.093 257.726ZM274.093 256.481C275.248 256.481 275.871 255.481 275.871 253.691C275.871 251.902 275.248 250.902 274.093 250.902C272.948 250.902 272.314 251.902 272.314 253.691C272.314 255.481 272.948 256.481 274.093 256.481ZM282.693 252.024H283.894V257.581H282.693V256.781C282.271 257.37 281.615 257.726 280.748 257.726C279.237 257.726 277.981 256.447 277.981 254.803C277.981 253.147 279.237 251.88 280.748 251.88C281.615 251.88 282.271 252.235 282.693 252.813V252.024ZM280.937 256.581C281.938 256.581 282.693 255.836 282.693 254.803C282.693 253.769 281.938 253.024 280.937 253.024C279.937 253.024 279.181 253.769 279.181 254.803C279.181 255.836 279.937 256.581 280.937 256.581ZM291.361 251.88C292.617 251.88 293.461 252.747 293.461 254.136V257.581H292.261V254.214C292.261 253.436 291.839 253.002 291.183 253.002C290.472 253.002 289.971 253.458 289.971 254.469V257.581H288.771V254.214C288.771 253.436 288.382 253.002 287.727 253.002C287.049 253.002 286.493 253.458 286.493 254.469V257.581H285.293V252.024H286.493V252.691C286.849 252.146 287.393 251.88 288.082 251.88C288.805 251.88 289.338 252.202 289.66 252.758C290.027 252.18 290.616 251.88 291.361 251.88Z" fill="#006BFF"/>
</g>
<rect x="188.623" y="275.653" width="167.001" height="26.7588" rx="5.87942" fill="white"/>
<rect x="188.623" y="275.653" width="167.001" height="26.7588" rx="5.87942" stroke="#006BFF" stroke-width="0.783922"/>
<path d="M252.786 284.851H253.883V292.533H252.621V286.2L251.074 286.639L250.766 285.564L252.786 284.851ZM258.164 292.676C256.232 292.676 255.146 291.062 255.146 288.692C255.146 286.321 256.232 284.708 258.164 284.708C260.096 284.708 261.182 286.321 261.182 288.692C261.182 291.062 260.096 292.676 258.164 292.676ZM258.164 291.446C259.305 291.446 259.92 290.459 259.92 288.692C259.92 286.925 259.305 285.937 258.164 285.937C257.034 285.937 256.408 286.925 256.408 288.692C256.408 290.459 257.034 291.446 258.164 291.446ZM263.025 288.549C262.564 288.549 262.202 288.176 262.202 287.726C262.202 287.265 262.564 286.903 263.025 286.903C263.475 286.903 263.848 287.265 263.848 287.726C263.848 288.176 263.475 288.549 263.025 288.549ZM263.025 292.665C262.564 292.665 262.202 292.292 262.202 291.842C262.202 291.381 262.564 291.018 263.025 291.018C263.475 291.018 263.848 291.381 263.848 291.842C263.848 292.292 263.475 292.665 263.025 292.665ZM268.083 287.989C269.136 288.242 269.96 289.01 269.96 290.206C269.96 291.82 268.686 292.676 267.271 292.676C266.14 292.676 265.12 292.16 264.692 291.084L265.767 290.459C265.987 291.106 266.502 291.446 267.271 291.446C268.138 291.446 268.697 290.975 268.697 290.206C268.697 289.438 268.138 288.977 267.271 288.977H266.985L266.48 288.22L268.138 286.036H264.922V284.851H269.641V285.926L268.083 287.989ZM273.801 292.676C271.87 292.676 270.783 291.062 270.783 288.692C270.783 286.321 271.87 284.708 273.801 284.708C275.733 284.708 276.819 286.321 276.819 288.692C276.819 291.062 275.733 292.676 273.801 292.676ZM273.801 291.446C274.943 291.446 275.557 290.459 275.557 288.692C275.557 286.925 274.943 285.937 273.801 285.937C272.671 285.937 272.045 286.925 272.045 288.692C272.045 290.459 272.671 291.446 273.801 291.446ZM282.294 287.046H283.48V292.533H282.294V291.743C281.877 292.324 281.23 292.676 280.374 292.676C278.881 292.676 277.641 291.414 277.641 289.789C277.641 288.154 278.881 286.903 280.374 286.903C281.23 286.903 281.877 287.254 282.294 287.825V287.046ZM280.56 291.545C281.548 291.545 282.294 290.81 282.294 289.789C282.294 288.769 281.548 288.033 280.56 288.033C279.573 288.033 278.826 288.769 278.826 289.789C278.826 290.81 279.573 291.545 280.56 291.545ZM290.854 286.903C292.094 286.903 292.928 287.759 292.928 289.131V292.533H291.743V289.208C291.743 288.439 291.326 288.011 290.678 288.011C289.976 288.011 289.482 288.461 289.482 289.46V292.533H288.296V289.208C288.296 288.439 287.912 288.011 287.265 288.011C286.595 288.011 286.047 288.461 286.047 289.46V292.533H284.861V287.046H286.047V287.704C286.398 287.166 286.936 286.903 287.616 286.903C288.329 286.903 288.856 287.221 289.174 287.77C289.537 287.199 290.118 286.903 290.854 286.903Z" fill="#006BFF"/>
<rect x="188.231" y="309.076" width="80.7568" height="27.5428" rx="6.27138" fill="#0A2540"/>
<path d="M209.771 318.665H210.869V326.347H209.607V320.015L208.059 320.454L207.752 319.378L209.771 318.665ZM213.855 318.665H214.952V326.347H213.69V320.015L212.143 320.454L211.835 319.378L213.855 318.665ZM217.181 322.363C216.72 322.363 216.358 321.99 216.358 321.54C216.358 321.079 216.72 320.717 217.181 320.717C217.631 320.717 218.004 321.079 218.004 321.54C218.004 321.99 217.631 322.363 217.181 322.363ZM217.181 326.479C216.72 326.479 216.358 326.106 216.358 325.656C216.358 325.195 216.72 324.833 217.181 324.833C217.631 324.833 218.004 325.195 218.004 325.656C218.004 326.106 217.631 326.479 217.181 326.479ZM222.031 326.49C220.099 326.49 219.013 324.877 219.013 322.506C219.013 320.135 220.099 318.522 222.031 318.522C223.962 318.522 225.049 320.135 225.049 322.506C225.049 324.877 223.962 326.49 222.031 326.49ZM222.031 325.261C223.172 325.261 223.787 324.273 223.787 322.506C223.787 320.739 223.172 319.751 222.031 319.751C220.9 319.751 220.275 320.739 220.275 322.506C220.275 324.273 220.9 325.261 222.031 325.261ZM228.944 326.49C227.012 326.49 225.925 324.877 225.925 322.506C225.925 320.135 227.012 318.522 228.944 318.522C230.875 318.522 231.962 320.135 231.962 322.506C231.962 324.877 230.875 326.49 228.944 326.49ZM228.944 325.261C230.085 325.261 230.7 324.273 230.7 322.506C230.7 320.739 230.085 319.751 228.944 319.751C227.813 319.751 227.188 320.739 227.188 322.506C227.188 324.273 227.813 325.261 228.944 325.261ZM237.437 320.86H238.622V326.347H237.437V325.557C237.02 326.139 236.372 326.49 235.516 326.49C234.024 326.49 232.784 325.228 232.784 323.603C232.784 321.968 234.024 320.717 235.516 320.717C236.372 320.717 237.02 321.068 237.437 321.639V320.86ZM235.703 325.359C236.691 325.359 237.437 324.624 237.437 323.603C237.437 322.583 236.691 321.847 235.703 321.847C234.715 321.847 233.969 322.583 233.969 323.603C233.969 324.624 234.715 325.359 235.703 325.359ZM245.996 320.717C247.236 320.717 248.07 321.573 248.07 322.945V326.347H246.885V323.022C246.885 322.254 246.468 321.826 245.82 321.826C245.118 321.826 244.624 322.275 244.624 323.274V326.347H243.439V323.022C243.439 322.254 243.055 321.826 242.407 321.826C241.738 321.826 241.189 322.275 241.189 323.274V326.347H240.004V320.86H241.189V321.518C241.54 320.98 242.078 320.717 242.758 320.717C243.472 320.717 243.999 321.035 244.317 321.584C244.679 321.013 245.261 320.717 245.996 320.717Z" fill="white"/>
<rect x="275.651" y="309.468" width="79.9729" height="26.7588" rx="5.87942" fill="#006BFF"/>
<rect x="275.651" y="309.468" width="79.9729" height="26.7588" rx="5.87942" stroke="#006BFF" stroke-width="0.783922"/>
<path d="M300.039 326.49C297.701 326.49 296.022 324.734 296.022 322.506C296.022 320.278 297.701 318.522 300.039 318.522C301.443 318.522 302.695 319.235 303.342 320.355L302.245 320.991C301.839 320.234 301.004 319.751 300.039 319.751C298.381 319.751 297.284 320.926 297.284 322.506C297.284 324.086 298.381 325.261 300.039 325.261C301.004 325.261 301.849 324.778 302.245 324.02L303.342 324.646C302.706 325.765 301.454 326.49 300.039 326.49ZM306.893 326.49C305.291 326.49 303.996 325.228 303.996 323.603C303.996 321.968 305.291 320.717 306.893 320.717C308.506 320.717 309.791 321.968 309.791 323.603C309.791 325.228 308.506 326.49 306.893 326.49ZM306.893 325.337C307.859 325.337 308.605 324.602 308.605 323.603C308.605 322.605 307.859 321.869 306.893 321.869C305.927 321.869 305.181 322.605 305.181 323.603C305.181 324.602 305.927 325.337 306.893 325.337ZM313.749 320.717C314.978 320.717 315.856 321.551 315.856 322.978V326.347H314.671V323.099C314.671 322.265 314.188 321.826 313.441 321.826C312.662 321.826 312.048 322.286 312.048 323.406V326.347H310.862V320.86H312.048V321.562C312.41 320.991 313.002 320.717 313.749 320.717ZM321.72 320.86V326.347H320.534V322.001H318.713V326.347H317.527V322.001H316.693V320.86H317.527V320.75C317.527 319.268 318.361 318.522 320.008 318.522C320.403 318.522 320.787 318.566 321.226 318.665V319.751C320.787 319.685 320.392 319.663 320.008 319.663C319.173 319.663 318.713 319.905 318.713 320.75V320.86H321.72ZM324.276 321.782C324.606 321.035 325.275 320.761 325.967 320.761V322.045C325.187 321.99 324.276 322.352 324.276 323.581V326.347H323.091V320.86H324.276V321.782ZM332.835 320.717C334.075 320.717 334.909 321.573 334.909 322.945V326.347H333.724V323.022C333.724 322.254 333.307 321.826 332.659 321.826C331.957 321.826 331.463 322.275 331.463 323.274V326.347H330.278V323.022C330.278 322.254 329.893 321.826 329.246 321.826C328.576 321.826 328.028 322.275 328.028 323.274V326.347H326.842V320.86H328.028V321.518C328.379 320.98 328.917 320.717 329.597 320.717C330.31 320.717 330.837 321.035 331.156 321.584C331.518 321.013 332.099 320.717 332.835 320.717Z" fill="white"/>
<rect x="188.623" y="343.282" width="167.001" height="26.7588" rx="5.87942" fill="white"/>
<rect x="188.623" y="343.282" width="167.001" height="26.7588" rx="5.87942" stroke="#006BFF" stroke-width="0.783922"/>
<path d="M253.786 352.479H254.883V360.161H253.621V353.829L252.074 354.268L251.766 353.192L253.786 352.479ZM257.869 352.479H258.967V360.161H257.704V353.829L256.157 354.268L255.85 353.192L257.869 352.479ZM261.195 356.177C260.734 356.177 260.372 355.804 260.372 355.354C260.372 354.893 260.734 354.531 261.195 354.531C261.645 354.531 262.018 354.893 262.018 355.354C262.018 355.804 261.645 356.177 261.195 356.177ZM261.195 360.293C260.734 360.293 260.372 359.92 260.372 359.47C260.372 359.009 260.734 358.647 261.195 358.647C261.645 358.647 262.018 359.009 262.018 359.47C262.018 359.92 261.645 360.293 261.195 360.293ZM266.253 355.618C267.307 355.87 268.13 356.638 268.13 357.834C268.13 359.448 266.857 360.304 265.441 360.304C264.311 360.304 263.29 359.788 262.862 358.712L263.938 358.087C264.157 358.734 264.673 359.075 265.441 359.075C266.308 359.075 266.868 358.603 266.868 357.834C266.868 357.066 266.308 356.605 265.441 356.605H265.156L264.651 355.848L266.308 353.664H263.093V352.479H267.812V353.554L266.253 355.618ZM271.972 360.304C270.04 360.304 268.954 358.69 268.954 356.32C268.954 353.949 270.04 352.336 271.972 352.336C273.903 352.336 274.99 353.949 274.99 356.32C274.99 358.69 273.903 360.304 271.972 360.304ZM271.972 359.075C273.113 359.075 273.728 358.087 273.728 356.32C273.728 354.553 273.113 353.565 271.972 353.565C270.841 353.565 270.216 354.553 270.216 356.32C270.216 358.087 270.841 359.075 271.972 359.075ZM280.465 354.674H281.65V360.161H280.465V359.371C280.048 359.953 279.4 360.304 278.544 360.304C277.052 360.304 275.812 359.042 275.812 357.417C275.812 355.782 277.052 354.531 278.544 354.531C279.4 354.531 280.048 354.882 280.465 355.453V354.674ZM278.731 359.173C279.719 359.173 280.465 358.438 280.465 357.417C280.465 356.397 279.719 355.661 278.731 355.661C277.743 355.661 276.997 356.397 276.997 357.417C276.997 358.438 277.743 359.173 278.731 359.173ZM289.024 354.531C290.264 354.531 291.098 355.387 291.098 356.759V360.161H289.913V356.836C289.913 356.067 289.496 355.639 288.849 355.639C288.146 355.639 287.652 356.089 287.652 357.088V360.161H286.467V356.836C286.467 356.067 286.083 355.639 285.435 355.639C284.766 355.639 284.217 356.089 284.217 357.088V360.161H283.032V354.674H284.217V355.332C284.568 354.794 285.106 354.531 285.787 354.531C286.5 354.531 287.027 354.849 287.345 355.398C287.707 354.827 288.289 354.531 289.024 354.531Z" fill="#006BFF"/>
</g>
<defs>
<filter id="filter0_d_5805_27707" x="4.90107" y="8.92183" width="285.381" height="313.09" filterUnits="userSpaceOnUse" color-interpolation-filters="sRGB">
<feFlood flood-opacity="0" result="BackgroundImageFix"/>
<feColorMatrix in="SourceAlpha" type="matrix" values="0 0 0 0 0 0 0 0 0 0 0 0 0 0 0 0 0 0 127 0" result="hardAlpha"/>
<feOffset dy="1.75928"/>
<feGaussianBlur stdDeviation="6.59732"/>
<feColorMatrix type="matrix" values="0 0 0 0 0 0 0 0 0 0 0 0 0 0 0 0 0 0 0.1 0"/>
<feBlend mode="normal" in2="BackgroundImageFix" result="effect1_dropShadow_5805_27707"/>
<feBlend mode="normal" in="SourceGraphic" in2="effect1_dropShadow_5805_27707" result="shape"/>
</filter>
<filter id="filter1_d_5805_27707" x="156.222" y="182.38" width="224.75" height="216.987" filterUnits="userSpaceOnUse" color-interpolation-filters="sRGB">
<feFlood flood-opacity="0" result="BackgroundImageFix"/>
<feColorMatrix in="SourceAlpha" type="matrix" values="0 0 0 0 0 0 0 0 0 0 0 0 0 0 0 0 0 0 127 0" result="hardAlpha"/>
<feOffset dy="1.75928"/>
<feGaussianBlur stdDeviation="6.59732"/>
<feColorMatrix type="matrix" values="0 0 0 0 0 0 0 0 0 0 0 0 0 0 0 0 0 0 0.1 0"/>
<feBlend mode="normal" in2="BackgroundImageFix" result="effect1_dropShadow_5805_27707"/>
<feBlend mode="normal" in="SourceGraphic" in2="effect1_dropShadow_5805_27707" result="shape"/>
</filter>
<filter id="filter2_d_5805_27707" x="186.379" y="237.246" width="171.49" height="34.5227" filterUnits="userSpaceOnUse" color-interpolation-filters="sRGB">
<feFlood flood-opacity="0" result="BackgroundImageFix"/>
<feColorMatrix in="SourceAlpha" type="matrix" values="0 0 0 0 0 0 0 0 0 0 0 0 0 0 0 0 0 0 127 0" result="hardAlpha"/>
<feOffset dy="0.926138"/>
<feGaussianBlur stdDeviation="0.926138"/>
<feColorMatrix type="matrix" values="0 0 0 0 0.0627451 0 0 0 0 0.0941176 0 0 0 0 0.156863 0 0 0 0.05 0"/>
<feBlend mode="normal" in2="BackgroundImageFix" result="effect1_dropShadow_5805_27707"/>
<feBlend mode="normal" in="SourceGraphic" in2="effect1_dropShadow_5805_27707" result="shape"/>
</filter>
</defs>
</svg>
