<svg width="261" height="309" viewBox="0 0 261 309" fill="none" xmlns="http://www.w3.org/2000/svg">
<path d="M213.343 158.657C211.785 154.98 208.822 151.896 204.833 150.272C199.602 148.135 195.728 144.078 193.7 139.249C191.667 134.423 191.479 128.815 193.615 123.583C195.244 119.581 195.099 115.304 193.551 111.612C191.998 107.922 189.04 104.825 185.04 103.189L157.475 91.9388C148.246 133.793 165.511 177.045 201.026 201.041L213.443 170.612C215.052 166.614 214.898 162.34 213.338 158.659L213.343 158.657Z" fill="#E55CFF"/>
<path d="M158.636 87.1957L158.662 87.2055C158.662 87.2055 158.667 87.1814 158.67 87.1638L186.895 98.6828C197.355 102.952 202.373 114.893 198.104 125.353C194.853 133.36 198.693 142.481 206.688 145.755C217.148 150.023 222.166 161.964 217.897 172.425L205.14 203.677C205.14 203.677 205.131 203.67 205.127 203.672C233.868 221.246 269.304 223.917 300.349 210.848L301.453 210.345C336.459 195.165 335.497 144.971 300.141 130.539C297.201 129.336 294.405 127.819 291.796 126.01C289.876 124.679 288.07 123.192 286.391 121.567C273.63 109.247 269.652 90.3951 276.353 73.9716C278.918 67.8238 280.035 61.1649 279.61 54.515C279.499 52.8087 279.279 51.114 278.957 49.4333C274.767 27.6901 253.745 11.1562 230.46 14.4986C228.414 14.781 226.392 15.2098 224.411 15.7881C222.699 16.2811 221.02 16.868 219.378 17.5467C217.224 18.4478 215.091 19.4203 212.98 20.4752C186.158 33.8962 166.375 58.1624 158.636 87.1361C158.636 87.1361 158.628 87.1777 158.625 87.1953L158.636 87.1957Z" fill="#E55CFF"/>
<path d="M101.545 85.9353C98.2736 93.9346 89.1367 97.7765 81.1305 94.5139C70.6697 90.245 58.7288 95.2627 54.4599 105.724L30.493 164.44C26.2242 174.901 31.2419 186.842 41.7026 191.111L41.6977 191.124C49.6967 194.406 53.5274 203.543 50.2628 211.544C45.9939 222.005 51.0117 233.946 61.4725 238.215L120.141 262.16C130.602 266.429 142.543 261.411 146.812 250.951C150.082 242.936 159.229 239.094 167.244 242.364C177.705 246.633 189.646 241.615 193.915 231.154L205.129 203.676C203.74 202.829 202.358 201.941 201.006 201.034L189.461 229.319C186.2 237.33 177.063 241.183 169.05 237.929C158.589 233.66 146.648 238.678 142.379 249.138C139.097 257.137 129.961 260.968 121.959 257.704L63.3031 233.763C55.3172 230.486 51.4836 221.367 54.7282 213.369C58.9971 202.908 53.9794 190.967 43.5186 186.698C35.5038 183.429 31.6623 174.281 34.9318 166.266L34.9367 166.253L58.9036 107.536C62.1834 99.5438 71.3087 95.7126 79.3109 98.9662C89.7716 103.235 101.713 98.2173 105.982 87.7566C109.255 79.7617 118.376 75.9216 126.383 79.1731L157.484 91.8636C157.829 90.3017 158.219 88.7414 158.634 87.1908L158.629 87.1929C158.629 87.1929 158.638 87.1512 158.64 87.1336L128.216 74.7147C117.755 70.4458 105.814 75.4635 101.545 85.9243L101.545 85.9353Z" fill="#BFB0FF"/>
<path d="M185.032 103.171C189.038 104.809 191.996 107.917 193.55 111.612C195.105 115.306 195.25 119.594 193.623 123.601C191.489 128.826 191.677 134.423 193.699 139.249C195.73 144.071 199.595 148.122 204.824 150.254C208.82 151.88 211.781 154.971 213.342 158.657C214.902 162.338 215.067 166.612 213.456 170.617L201.034 201.048C201.034 201.048 201.03 201.039 201.025 201.041C202.377 201.948 203.75 202.83 205.14 203.677L217.893 172.427C222.162 161.966 217.144 150.025 206.683 145.756C198.694 142.497 194.845 133.39 198.072 125.39C202.341 114.929 197.323 102.988 186.862 98.719L158.67 87.2122C158.252 88.7803 157.863 90.3296 157.511 91.9111L185.04 103.178L185.032 103.171Z" fill="#8247F5"/>
</svg>
