<svg width="360" height="288" viewBox="0 0 360 288" fill="none" xmlns="http://www.w3.org/2000/svg">
<g filter="url(#filter0_d_5805_27445)">
<g clip-path="url(#clip0_5805_27445)">
<rect width="336" height="21.5518" transform="translate(12 10.6973)" fill="#E7EDF6"/>
<circle cx="22.5706" cy="21.4732" r="1.93" fill="#8EB1D6"/>
<circle cx="29.3255" cy="21.4732" r="1.93" fill="#8EB1D6"/>
<circle cx="36.0804" cy="21.4732" r="1.93" fill="#8EB1D6"/>
<g clip-path="url(#clip1_5805_27445)">
<path d="M51.6456 21.1472H47.682L49.5025 19.3267L49.0401 18.8674L46.4346 21.4729L49.0401 24.0784L49.4993 23.6192L47.682 21.7986H51.6456V21.1472Z" fill="#8EB1D6"/>
</g>
<g clip-path="url(#clip2_5805_27445)">
<path d="M58.8111 18.8674L58.3518 19.3267L60.1692 21.1472H56.2056V21.7986H60.1692L58.3518 23.6192L58.8111 24.0784L61.4166 21.4729L58.8111 18.8674Z" fill="#8EB1D6"/>
</g>
<g clip-path="url(#clip3_5805_27445)">
<path d="M70.4219 19.6328C69.9496 19.1606 69.3015 18.8674 68.5817 18.8674C67.1422 18.8674 65.9795 20.0334 65.9795 21.4729C65.9795 22.9125 67.1422 24.0784 68.5817 24.0784C69.7965 24.0784 70.8094 23.2479 71.0993 22.1243H70.4219C70.1548 22.8832 69.4318 23.4271 68.5817 23.4271C67.5037 23.4271 66.6276 22.551 66.6276 21.4729C66.6276 20.3949 67.5037 19.5188 68.5817 19.5188C69.1224 19.5188 69.6044 19.7435 69.9561 20.0985L68.9074 21.1472H71.1872V18.8674L70.4219 19.6328Z" fill="#8EB1D6"/>
</g>
<rect x="79.6113" y="17.3479" width="242.839" height="8.25074" rx="4.12537" fill="#D4E0ED"/>
<path d="M336.28 22.9623C335.964 23.2449 335.568 23.5966 334.851 23.5966H334.422C333.903 23.5966 333.431 23.407 333.094 23.0631C332.764 22.7272 332.582 22.2674 332.582 21.7682V21.1782C332.582 20.679 332.764 20.2192 333.094 19.8833C333.431 19.5394 333.903 19.35 334.422 19.35H334.851C335.569 19.35 335.964 19.7014 336.28 19.9841C336.609 20.2755 336.893 20.5301 337.649 20.5301C337.765 20.5301 337.88 20.5208 337.994 20.5024L337.991 20.4957C337.946 20.3826 337.893 20.2727 337.832 20.1671L337.326 19.2862C337.098 18.8891 336.771 18.5594 336.376 18.3301C335.981 18.1009 335.533 17.9802 335.077 17.9802H334.066C333.61 17.9802 333.162 18.1009 332.767 18.3301C332.372 18.5594 332.044 18.8891 331.816 19.2862L331.311 20.1671C331.083 20.5642 330.963 21.0147 330.963 21.4732C330.963 21.9317 331.083 22.3822 331.311 22.7793L331.816 23.6602C332.044 24.0573 332.372 24.387 332.767 24.6162C333.162 24.8455 333.61 24.9662 334.066 24.9661H335.077C335.533 24.9662 335.981 24.8455 336.376 24.6162C336.771 24.387 337.098 24.0573 337.326 23.6602L337.832 22.7808C337.893 22.6751 337.946 22.5653 337.991 22.4521L337.994 22.4457C337.88 22.4267 337.765 22.4169 337.649 22.4165C336.893 22.4165 336.609 22.6698 336.28 22.9626" fill="#006BFF"/>
<path d="M334.851 19.8845H334.422C333.633 19.8845 333.114 20.4518 333.114 21.178V21.768C333.114 22.4942 333.633 23.0615 334.422 23.0615H334.851C336.002 23.0615 335.912 21.8814 337.649 21.8814C337.814 21.8812 337.978 21.8964 338.14 21.9268C338.193 21.6266 338.193 21.3194 338.14 21.0192C337.978 21.0495 337.814 21.0647 337.649 21.0646C335.911 21.0646 336.002 19.8845 334.851 19.8845Z" fill="#006BFF"/>
<path d="M339.138 22.3582C338.842 22.1402 338.501 21.9927 338.14 21.9267C338.14 21.9299 338.14 21.9325 338.14 21.9354C338.109 22.1094 338.061 22.2797 337.995 22.4439C338.294 22.4903 338.576 22.6075 338.821 22.7857C338.821 22.788 338.819 22.7909 338.818 22.7935C338.504 23.8169 337.835 24.693 336.933 25.2626C336.031 25.8322 334.956 26.0576 333.903 25.8978C332.85 25.738 331.889 25.2036 331.195 24.3917C330.5 23.5798 330.118 22.5442 330.118 21.4731C330.118 20.402 330.5 19.3665 331.195 18.5546C331.889 17.7426 332.85 17.2082 333.903 17.0484C334.956 16.8886 336.031 17.114 336.933 17.6836C337.835 18.2532 338.504 19.1293 338.818 20.1527C338.818 20.1553 338.82 20.1582 338.821 20.1606C338.576 20.3388 338.294 20.4559 337.995 20.5021C338.061 20.6664 338.109 20.837 338.14 21.0111C338.14 21.0138 338.14 21.0166 338.14 21.0193C338.501 20.9534 338.842 20.8059 339.138 20.588C339.423 20.3762 339.368 20.137 339.325 19.9954C338.973 18.8479 338.224 17.8655 337.213 17.2266C336.202 16.5876 334.997 16.3346 333.816 16.5135C332.636 16.6924 331.558 17.2913 330.779 18.2014C330.001 19.1115 329.572 20.2724 329.572 21.4731C329.572 22.6739 330.001 23.8347 330.779 24.7448C331.558 25.6549 332.636 26.2538 333.816 26.4327C334.997 26.6116 336.202 26.3586 337.213 25.7197C338.224 25.0808 338.973 24.0983 339.325 22.9509C339.368 22.8093 339.423 22.57 339.138 22.3582Z" fill="#006BFF"/>
<path d="M337.994 20.5021C337.88 20.5211 337.765 20.5309 337.649 20.5312C336.893 20.5312 336.609 20.278 336.281 19.9852C335.964 19.7025 335.569 19.3508 334.851 19.3508H334.422C333.903 19.3508 333.431 19.5405 333.094 19.8844C332.764 20.2203 332.582 20.6801 332.582 21.1793V21.7693C332.582 22.2685 332.764 22.7283 333.094 23.0642C333.431 23.4081 333.903 23.5975 334.422 23.5975H334.851C335.569 23.5975 335.964 23.246 336.281 22.9634C336.609 22.672 336.893 22.4174 337.649 22.4174C337.765 22.4174 337.88 22.4266 337.994 22.445C338.059 22.281 338.108 22.1106 338.138 21.9366C338.139 21.9337 338.139 21.9307 338.138 21.9278C337.977 21.8976 337.812 21.8825 337.648 21.8827C335.909 21.8827 336 23.0631 334.85 23.0631H334.421C333.631 23.0631 333.112 22.4954 333.112 21.7693V21.1781C333.112 20.452 333.631 19.8846 334.421 19.8846H334.85C336 19.8846 335.91 21.0645 337.648 21.0645C337.812 21.0647 337.977 21.0496 338.138 21.0193C338.138 21.0167 338.138 21.014 338.138 21.0111C338.107 20.837 338.059 20.6664 337.994 20.5021Z" fill="#14AA51"/>
<path d="M337.994 20.5021C337.88 20.5211 337.765 20.5309 337.649 20.5312C336.893 20.5312 336.609 20.278 336.281 19.9852C335.964 19.7025 335.569 19.3508 334.851 19.3508H334.422C333.903 19.3508 333.431 19.5405 333.094 19.8844C332.764 20.2203 332.582 20.6801 332.582 21.1793V21.7693C332.582 22.2685 332.764 22.7283 333.094 23.0642C333.431 23.4081 333.903 23.5975 334.422 23.5975H334.851C335.569 23.5975 335.964 23.246 336.281 22.9634C336.609 22.672 336.893 22.4174 337.649 22.4174C337.765 22.4174 337.88 22.4266 337.994 22.445C338.059 22.281 338.108 22.1106 338.138 21.9366C338.139 21.9337 338.139 21.9307 338.138 21.9278C337.977 21.8976 337.812 21.8825 337.648 21.8827C335.909 21.8827 336 23.0631 334.85 23.0631H334.421C333.631 23.0631 333.112 22.4954 333.112 21.7693V21.1781C333.112 20.452 333.631 19.8846 334.421 19.8846H334.85C336 19.8846 335.91 21.0645 337.648 21.0645C337.812 21.0647 337.977 21.0496 338.138 21.0193C338.138 21.0167 338.138 21.014 338.138 21.0111C338.107 20.837 338.059 20.6664 337.994 20.5021Z" fill="#0AE8F0"/>
<rect width="336" height="242.667" transform="translate(12 31.6973)" fill="white"/>
<path d="M33.7977 83.6685V86.1859H33.3821V84.3913L32.6124 85.6572H32.5618L31.792 84.3877V86.1859H31.3765V83.6685H31.8246L32.5871 84.9272L33.3532 83.6685H33.7977Z" fill="#476788"/>
<path d="M30.6562 86.1859L30.4791 85.6788H29.4022L29.2252 86.1859H28.7734L29.6913 83.6685H30.19L31.1043 86.1859H30.6562ZM29.5396 85.2904H30.3418L29.9407 84.154L29.5396 85.2904Z" fill="#476788"/>
<path d="M27.3543 84.8772C27.5892 85.0067 27.7265 85.2225 27.7265 85.4886C27.7265 85.9561 27.3688 86.233 26.8411 86.233C26.3135 86.233 25.9521 85.9561 25.9521 85.4886C25.9521 85.226 26.0931 85.0067 26.3244 84.8772C26.1545 84.7657 26.0389 84.5859 26.0389 84.3449C26.0389 83.8594 26.4183 83.6221 26.8411 83.6221C27.2603 83.6221 27.6434 83.8594 27.6434 84.3449C27.6434 84.5859 27.5278 84.7657 27.3543 84.8772ZM26.8411 84.0141C26.6279 84.0141 26.4545 84.1292 26.4545 84.3629C26.4545 84.5859 26.6279 84.7118 26.8411 84.7118C27.0507 84.7118 27.2278 84.5859 27.2278 84.3629C27.2278 84.1292 27.0507 84.0141 26.8411 84.0141ZM26.8411 85.841C27.1122 85.841 27.3109 85.7044 27.3109 85.449C27.3109 85.1901 27.1122 85.057 26.8411 85.057C26.5665 85.057 26.3677 85.1901 26.3677 85.449C26.3677 85.7044 26.5665 85.841 26.8411 85.841Z" fill="#476788"/>
<path d="M33.7977 100.931V103.449H33.3821V101.654L32.6124 102.92H32.5618L31.792 101.65V103.449H31.3765V100.931H31.8246L32.5871 102.19L33.3532 100.931H33.7977Z" fill="#476788"/>
<path d="M30.6562 103.449L30.4791 102.942H29.4022L29.2252 103.449H28.7734L29.6913 100.931H30.19L31.1043 103.449H30.6562ZM29.5396 102.553H30.3418L29.9407 101.417L29.5396 102.553Z" fill="#476788"/>
<path d="M27.7615 101.744C27.7615 101.938 27.7073 102.111 27.6097 102.251L26.8111 103.449H26.334L26.9122 102.604H26.8689C26.3449 102.604 25.9727 102.251 25.9727 101.744C25.9727 101.237 26.3449 100.885 26.8689 100.885C27.3929 100.885 27.7615 101.237 27.7615 101.744ZM26.3882 101.744C26.3882 102.028 26.5942 102.212 26.8689 102.212C27.1435 102.212 27.3459 102.032 27.3459 101.744C27.3459 101.457 27.1435 101.277 26.8689 101.277C26.5942 101.277 26.3882 101.457 26.3882 101.744Z" fill="#476788"/>
<path d="M33.7235 118.194V120.711H33.3079V118.917L32.5382 120.183H32.4876L31.7178 118.913V120.711H31.3022V118.194H31.7504L32.5129 119.453L33.279 118.194H33.7235Z" fill="#476788"/>
<path d="M30.583 120.711L30.4059 120.204H29.329L29.1519 120.711H28.7002L29.6181 118.194H30.1168L31.0311 120.711H30.583ZM29.4663 119.816H30.2686L29.8674 118.679L29.4663 119.816Z" fill="#476788"/>
<path d="M26.6403 120.758C26.0042 120.758 25.6465 120.229 25.6465 119.452C25.6465 118.676 26.0042 118.147 26.6403 118.147C27.2763 118.147 27.6341 118.676 27.6341 119.452C27.6341 120.229 27.2763 120.758 26.6403 120.758ZM26.6403 120.355C27.0161 120.355 27.2185 120.031 27.2185 119.452C27.2185 118.873 27.0161 118.55 26.6403 118.55C26.2681 118.55 26.0621 118.873 26.0621 119.452C26.0621 120.031 26.2681 120.355 26.6403 120.355Z" fill="#476788"/>
<path d="M24.8695 118.194H25.2309V120.711H24.8153V118.636L24.3058 118.78L24.2046 118.428L24.8695 118.194Z" fill="#476788"/>
<path d="M33.7625 135.457V137.974H33.347V136.179L32.5772 137.445H32.5266L31.7569 136.176V137.974H31.3413V135.457H31.7894L32.5519 136.715L33.318 135.457H33.7625Z" fill="#476788"/>
<path d="M30.6211 137.974L30.444 137.467H29.3671L29.19 137.974H28.7383L29.6562 135.457H30.1549L31.0692 137.974H30.6211ZM29.5044 137.079H30.3067L29.9055 135.942L29.5044 137.079Z" fill="#476788"/>
<path d="M27.1835 135.457H27.5449V137.974H27.1293V135.899L26.6197 136.043L26.5186 135.69L27.1835 135.457Z" fill="#476788"/>
<path d="M25.8393 135.457H26.2006V137.974H25.785V135.899L25.2755 136.043L25.1743 135.69L25.8393 135.457Z" fill="#476788"/>
<path d="M33.7577 152.719V155.236H33.3421V153.441L32.5723 154.707H32.5217L31.752 153.438V155.236H31.3364V152.719H31.7845L32.547 153.977L33.3132 152.719H33.7577Z" fill="#476788"/>
<path d="M30.1379 152.719C30.6149 152.719 30.9763 153.078 30.9763 153.546C30.9763 154.01 30.6149 154.373 30.1379 154.373H29.6212V155.236H29.2056V152.719H30.1379ZM30.1379 153.984C30.3837 153.984 30.5607 153.797 30.5607 153.546C30.5607 153.29 30.3837 153.107 30.1379 153.107H29.6212V153.984H30.1379Z" fill="#476788"/>
<path d="M26.248 155.236V154.912L27.1297 154.017C27.3104 153.837 27.4513 153.654 27.4513 153.463C27.4513 153.211 27.2779 153.075 27.0611 153.075C26.8515 153.075 26.6888 153.186 26.5913 153.388L26.2407 153.183C26.4033 152.837 26.7214 152.672 27.0574 152.672C27.473 152.672 27.8669 152.949 27.8669 153.449C27.8669 153.762 27.679 154.024 27.4369 154.269L26.8659 154.837H27.9139V155.236H26.248Z" fill="#476788"/>
<path d="M25.5033 152.719H25.8647V155.236H25.4491V153.161L24.9396 153.305L24.8384 152.952L25.5033 152.719Z" fill="#476788"/>
<path d="M33.4266 169.981V172.498H33.011V170.704L32.2413 171.97H32.1907L31.421 170.7V172.498H31.0054V169.981H31.4535L32.216 171.24L32.9821 169.981H33.4266Z" fill="#476788"/>
<path d="M29.8064 169.981C30.2834 169.981 30.6448 170.341 30.6448 170.808C30.6448 171.272 30.2834 171.635 29.8064 171.635H29.2896V172.498H28.874V169.981H29.8064ZM29.8064 171.247C30.0521 171.247 30.2292 171.06 30.2292 170.808C30.2292 170.553 30.0521 170.369 29.8064 170.369H29.2896V171.247H29.8064Z" fill="#476788"/>
<path d="M27.0849 169.981H27.4462V172.499H27.0307V170.424L26.5211 170.567L26.4199 170.215L27.0849 169.981Z" fill="#476788"/>
<path d="M33.8026 187.244V189.761H33.387V187.967L32.6173 189.232H32.5667L31.7969 187.963V189.761H31.3813V187.244H31.8295L32.592 188.502L33.3581 187.244H33.8026Z" fill="#476788"/>
<path d="M30.1824 187.244C30.6594 187.244 31.0208 187.603 31.0208 188.071C31.0208 188.535 30.6594 188.898 30.1824 188.898H29.6656V189.761H29.25V187.244H30.1824ZM30.1824 188.51C30.4281 188.51 30.6052 188.323 30.6052 188.071C30.6052 187.815 30.4281 187.632 30.1824 187.632H29.6656V188.51H30.1824Z" fill="#476788"/>
<path d="M26.2929 189.761V189.438L27.1746 188.542C27.3553 188.362 27.4963 188.179 27.4963 187.988C27.4963 187.736 27.3228 187.6 27.106 187.6C26.8964 187.6 26.7338 187.711 26.6362 187.913L26.2856 187.708C26.4483 187.362 26.7663 187.197 27.1024 187.197C27.5179 187.197 27.9118 187.474 27.9118 187.974C27.9118 188.287 27.7239 188.549 27.4818 188.794L26.9108 189.362H27.9588V189.761H26.2929Z" fill="#476788"/>
<path d="M33.8016 204.506V207.024H33.386V205.229L32.6163 206.495H32.5657L31.796 205.226V207.024H31.3804V204.506H31.8285L32.591 205.765L33.3571 204.506H33.8016Z" fill="#476788"/>
<path d="M30.1819 204.506C30.6589 204.506 31.0203 204.866 31.0203 205.334C31.0203 205.797 30.6589 206.161 30.1819 206.161H29.6651V207.024H29.2495V204.506H30.1819ZM30.1819 205.772C30.4276 205.772 30.6047 205.585 30.6047 205.334C30.6047 205.078 30.4276 204.895 30.1819 204.895H29.6651V205.772H30.1819Z" fill="#476788"/>
<path d="M27.3486 205.535C27.6955 205.618 27.9665 205.87 27.9665 206.262C27.9665 206.79 27.5473 207.071 27.0812 207.071C26.709 207.071 26.3729 206.902 26.2319 206.549L26.5861 206.344C26.6584 206.557 26.8282 206.668 27.0812 206.668C27.3667 206.668 27.551 206.513 27.551 206.262C27.551 206.01 27.3667 205.859 27.0812 205.859H26.9872L26.821 205.611L27.3667 204.895H26.3078V204.507H27.8617V204.859L27.3486 205.535Z" fill="#476788"/>
<path d="M34.1336 221.77V224.287H33.7181V222.492L32.9483 223.758H32.8977L32.128 222.489V224.287H31.7124V221.77H32.1605L32.923 223.028L33.6891 221.77H34.1336Z" fill="#476788"/>
<path d="M30.5139 221.77C30.9909 221.77 31.3523 222.129 31.3523 222.597C31.3523 223.061 30.9909 223.424 30.5139 223.424H29.9971V224.287H29.5815V221.77H30.5139ZM30.5139 223.035C30.7596 223.035 30.9367 222.848 30.9367 222.597C30.9367 222.341 30.7596 222.158 30.5139 222.158H29.9971V223.035H30.5139Z" fill="#476788"/>
<path d="M28.3631 223.449V223.834H28.074V224.287H27.6548V223.834H26.4116V223.449L27.2825 221.769H27.7343L26.8633 223.449H27.6548V222.794H28.074V223.449H28.3631Z" fill="#476788"/>
<path d="M34.1629 239.032V241.55H33.7473V239.755L32.9776 241.021H32.927L32.1573 239.751V241.55H31.7417V239.032H32.1898L32.9523 240.291L33.7184 239.032H34.1629Z" fill="#476788"/>
<path d="M30.5422 239.032C31.0192 239.032 31.3806 239.392 31.3806 239.859C31.3806 240.323 31.0192 240.687 30.5422 240.687H30.0254V241.55H29.6099V239.032H30.5422ZM30.5422 240.298C30.788 240.298 30.965 240.111 30.965 239.859C30.965 239.604 30.788 239.421 30.5422 239.421H30.0254V240.298H30.5422Z" fill="#476788"/>
<path d="M27.4786 239.981C27.9376 239.981 28.3387 240.262 28.3387 240.787C28.3387 241.316 27.9195 241.596 27.4533 241.596C27.0703 241.596 26.727 241.42 26.5933 241.057L26.951 240.852C27.0161 241.075 27.1895 241.193 27.4533 241.193C27.7352 241.193 27.9231 241.039 27.9231 240.787C27.9231 240.535 27.7352 240.384 27.4606 240.384H26.7234L26.8209 239.032H28.2303V239.42H27.204L27.1606 239.981H27.4786Z" fill="#476788"/>
<path d="M33.8026 256.294V258.812H33.387V257.017L32.6173 258.283H32.5667L31.7969 257.014V258.812H31.3813V256.294H31.8295L32.592 257.553L33.3581 256.294H33.8026Z" fill="#476788"/>
<path d="M30.1819 256.294C30.6589 256.294 31.0203 256.654 31.0203 257.122C31.0203 257.586 30.6589 257.949 30.1819 257.949H29.6651V258.812H29.2495V256.294H30.1819ZM30.1819 257.56C30.4276 257.56 30.6047 257.373 30.6047 257.122C30.6047 256.866 30.4276 256.683 30.1819 256.683H29.6651V257.56H30.1819Z" fill="#476788"/>
<path d="M27.1106 257.139C27.6346 257.139 28.0032 257.492 28.0032 257.999C28.0032 258.506 27.6346 258.858 27.1106 258.858C26.583 258.858 26.2144 258.506 26.2144 257.999C26.2144 257.805 26.2686 257.632 26.3661 257.492L27.1684 256.294H27.6418L27.0636 257.139H27.1106ZM27.1106 258.466C27.3852 258.466 27.5876 258.283 27.5876 257.999C27.5876 257.711 27.3852 257.531 27.1106 257.531C26.8323 257.531 26.6299 257.711 26.6299 257.999C26.6299 258.287 26.8323 258.466 27.1106 258.466Z" fill="#476788"/>
<line x1="12.3311" y1="59.0327" x2="346.736" y2="59.0327" stroke="#E7EDF6" stroke-width="0.22905"/>
<path d="M73.0938 64.1663H73.4903V66.5684H73.18L72.0421 64.9384V66.5684H71.6455V64.1663H71.9558L73.0938 65.7963V64.1663Z" fill="#476788"/>
<path d="M70.0666 66.6129C69.3701 66.6129 68.8149 66.0639 68.8149 65.3672C68.8149 64.6706 69.3701 64.1216 70.0666 64.1216C70.7666 64.1216 71.3183 64.6706 71.3183 65.3672C71.3183 66.0639 70.7666 66.6129 70.0666 66.6129ZM70.0666 66.2286C70.5494 66.2286 70.9218 65.8614 70.9218 65.3672C70.9218 64.8731 70.5494 64.5059 70.0666 64.5059C69.5839 64.5059 69.2115 64.8731 69.2115 65.3672C69.2115 65.8614 69.5839 66.2286 70.0666 66.2286Z" fill="#476788"/>
<path d="M68.489 64.1663V66.5684H68.0925V64.856L67.358 66.0639H67.3097L66.5753 64.8526V66.5684H66.1787V64.1663H66.6063L67.3339 65.3673L68.0649 64.1663H68.489Z" fill="#476788"/>
<path d="M73.9428 72.607C73.9428 72.9968 73.834 73.3432 73.6382 73.6247L72.0353 76.0284H71.0779L72.2384 74.3321H72.1513C71.0996 74.3321 70.3525 73.6247 70.3525 72.607C70.3525 71.5892 71.0996 70.8818 72.1513 70.8818C73.203 70.8818 73.9428 71.5892 73.9428 72.607ZM71.1866 72.607C71.1866 73.1772 71.6001 73.5453 72.1513 73.5453C72.7026 73.5453 73.1087 73.1844 73.1087 72.607C73.1087 72.0295 72.7026 71.6686 72.1513 71.6686C71.6001 71.6686 71.1866 72.0295 71.1866 72.607Z" fill="#476788"/>
<path d="M67.9599 76.1222C66.6834 76.1222 65.9653 75.0612 65.9653 73.502C65.9653 71.9429 66.6834 70.8818 67.9599 70.8818C69.2365 70.8818 69.9546 71.9429 69.9546 73.502C69.9546 75.0612 69.2365 76.1222 67.9599 76.1222ZM67.9599 75.3138C68.7143 75.3138 69.1204 74.6642 69.1204 73.502C69.1204 72.3399 68.7143 71.6903 67.9599 71.6903C67.2129 71.6903 66.7994 72.3399 66.7994 73.502C66.7994 74.6642 67.2129 75.3138 67.9599 75.3138Z" fill="#476788"/>
<path d="M128.749 76.122C127.473 76.122 126.755 75.0609 126.755 73.5018C126.755 71.9427 127.473 70.8816 128.749 70.8816C130.026 70.8816 130.744 71.9427 130.744 73.5018C130.744 75.0609 130.026 76.122 128.749 76.122ZM128.749 75.3135C129.504 75.3135 129.91 74.6639 129.91 73.5018C129.91 72.3397 129.504 71.69 128.749 71.69C128.002 71.69 127.589 72.3397 127.589 73.5018C127.589 74.6639 128.002 75.3135 128.749 75.3135Z" fill="#476788"/>
<path d="M125.268 70.9758H125.993V76.0285H125.159V71.8637L124.136 72.1524L123.933 71.445L125.268 70.9758Z" fill="#476788"/>
<path d="M129.116 66.1914H130.185V66.5689H128.719V64.1667H130.167V64.5442H129.116V65.1688H130.081V65.5428H129.116V66.1914Z" fill="#476788"/>
<path d="M127.384 66.6135C126.853 66.6135 126.47 66.2909 126.47 65.7727V64.1667H126.867V65.7487C126.867 66.0301 127.029 66.2291 127.384 66.2291C127.739 66.2291 127.901 66.0301 127.901 65.7487V64.1667H128.298V65.7727C128.298 66.2909 127.912 66.6135 127.384 66.6135Z" fill="#476788"/>
<path d="M126.236 64.1665V64.544H125.556V66.5686H125.16V64.544H124.477V64.1665H126.236Z" fill="#476788"/>
<path d="M187.238 70.4612H187.964V75.5139H187.13V71.349L186.107 71.6377L185.904 70.9304L187.238 70.4612Z" fill="#476788"/>
<path d="M184.612 70.4612H185.337V75.5139H184.503V71.349L183.48 71.6377L183.277 70.9304L184.612 70.4612Z" fill="#476788"/>
<path d="M188.334 64.1665C188.999 64.1665 189.489 64.695 189.489 65.3676C189.489 66.0367 188.999 66.5686 188.334 66.5686H187.385V64.1665H188.334ZM188.334 66.1911C188.792 66.1911 189.106 65.8411 189.106 65.3676C189.106 64.8906 188.792 64.544 188.334 64.544H187.782V66.1911H188.334Z" fill="#476788"/>
<path d="M185.988 66.1911H187.057V66.5686H185.591V64.1665H187.04V64.544H185.988V65.1685H186.953V65.5426H185.988V66.1911Z" fill="#476788"/>
<path d="M182.691 66.5686L182.008 64.1665H182.426L182.932 66.0436L183.481 64.1665H183.846L184.391 66.0436L184.898 64.1665H185.315L184.632 66.5686H184.174L183.663 64.8151L183.15 66.5686H182.691Z" fill="#476788"/>
<path d="M243.873 75.3421V74.6925L245.643 72.8952C246.005 72.5342 246.288 72.1661 246.288 71.7836C246.288 71.2783 245.94 71.004 245.505 71.004C245.084 71.004 244.758 71.2278 244.562 71.632L243.858 71.2205C244.185 70.5276 244.823 70.1956 245.498 70.1956C246.332 70.1956 247.122 70.7514 247.122 71.7547C247.122 72.3827 246.745 72.9096 246.259 73.4004L245.113 74.5409H247.217V75.3421H243.873Z" fill="#476788"/>
<path d="M242.451 70.2896H243.176V75.3423H242.342V71.1774L241.319 71.4661L241.116 70.7587L242.451 70.2896Z" fill="#476788"/>
<path d="M246.237 66.6132C245.706 66.6132 245.323 66.2907 245.323 65.7725V64.1665H245.719V65.7485C245.719 66.0299 245.881 66.2289 246.237 66.2289C246.592 66.2289 246.754 66.0299 246.754 65.7485V64.1665H247.15V65.7725C247.15 66.2907 246.764 66.6132 246.237 66.6132Z" fill="#476788"/>
<path d="M244.502 64.1665H244.899V66.5686H244.502V65.5288H243.468V66.5686H243.071V64.1665H243.468V65.1514H244.502V64.1665Z" fill="#476788"/>
<path d="M242.813 64.1663V64.5437H242.133V66.5684H241.737V64.5437H241.054V64.1663H242.813Z" fill="#476788"/>
<path d="M306.185 71.6682C306.881 71.8342 307.425 72.3394 307.425 73.1262C307.425 74.1873 306.583 74.7503 305.648 74.7503C304.901 74.7503 304.226 74.4111 303.943 73.7037L304.654 73.2922C304.799 73.7181 305.14 73.9419 305.648 73.9419C306.221 73.9419 306.591 73.6315 306.591 73.1262C306.591 72.621 306.221 72.3178 305.648 72.3178H305.459L305.126 71.8197L306.221 70.3833H304.096V69.6038H307.215V70.3111L306.185 71.6682Z" fill="#476788"/>
<path d="M302.565 69.6038H303.29V74.6565H302.456V70.4916L301.433 70.7803L301.23 70.0729L302.565 69.6038Z" fill="#476788"/>
<path d="M306.053 64.1667H306.449V66.5689H306.053V64.1667Z" fill="#476788"/>
<path d="M305.348 66.5689L304.838 65.6938H304.369V66.5689H303.972V64.1667H304.938C305.369 64.1667 305.714 64.5099 305.714 64.9389C305.714 65.2477 305.517 65.5222 305.234 65.6355L305.782 66.5689H305.348ZM304.369 64.5374V65.3404H304.938C305.148 65.3404 305.317 65.1619 305.317 64.9389C305.317 64.7124 305.148 64.5374 304.938 64.5374H304.369Z" fill="#476788"/>
<path d="M303.635 64.544H302.618V65.2166H303.601V65.594H302.618V66.5686H302.222V64.1665H303.635V64.544Z" fill="#476788"/>
<line x1="19.9882" y1="43.2933" x2="26.6879" y2="43.2933" stroke="#476788" stroke-width="0.343575" stroke-linecap="round"/>
<line x1="19.9877" y1="45.3548" x2="26.6874" y2="45.3548" stroke="#476788" stroke-width="0.343575" stroke-linecap="round"/>
<line x1="19.9877" y1="47.4168" x2="26.6874" y2="47.4168" stroke="#476788" stroke-width="0.343575" stroke-linecap="round"/>
<path d="M40.6694 82.8831C40.6694 82.1636 41.2527 81.5803 41.9722 81.5803H95.5296C96.2491 81.5803 96.8324 82.1636 96.8324 82.8831V98.5161C96.8324 99.2355 96.2491 99.8188 95.5296 99.8188H41.9722C41.2527 99.8188 40.6694 99.2355 40.6694 98.5161V82.8831Z" fill="#F5F7F9"/>
<rect x="40.6694" y="101.979" width="56.1629" height="43.5623" rx="1.08006" fill="#CDD5DF" fill-opacity="0.2"/>
<path d="M63.2795 108.422C63.3629 108.728 63.6178 108.858 63.933 108.858C64.1647 108.858 64.3501 108.76 64.4521 108.626L64.9341 108.904C64.7163 109.219 64.3687 109.4 63.9237 109.4C63.1451 109.4 62.6538 108.867 62.6538 108.176C62.6538 107.486 63.1497 106.953 63.8774 106.953C64.5633 106.953 65.05 107.495 65.05 108.176C65.05 108.265 65.0407 108.343 65.0268 108.422H63.2795ZM63.2702 107.959H64.4521C64.3779 107.625 64.1277 107.491 63.8774 107.491C63.5576 107.491 63.3398 107.662 63.2702 107.959Z" fill="#0B3558"/>
<path d="M61.6289 109.335V105.952H62.2268V109.335H61.6289Z" fill="#0B3558"/>
<path d="M60.0767 106.953C60.6978 106.953 61.2076 107.486 61.2076 108.176C61.2076 108.867 60.6978 109.4 60.0767 109.4C59.7384 109.4 59.4928 109.275 59.3259 109.062V109.335H58.728V106.091H59.3259V107.291C59.4928 107.078 59.7384 106.953 60.0767 106.953ZM59.9655 108.83C60.3363 108.83 60.6097 108.566 60.6097 108.176C60.6097 107.787 60.3363 107.523 59.9655 107.523C59.5994 107.523 59.3259 107.787 59.3259 108.176C59.3259 108.566 59.5994 108.83 59.9655 108.83Z" fill="#0B3558"/>
<path d="M57.5873 107.018H58.1852V109.335H57.5873V109.062C57.4204 109.27 57.1701 109.4 56.8318 109.4C56.2154 109.4 55.7056 108.867 55.7056 108.176C55.7056 107.486 56.2154 106.953 56.8318 106.953C57.1701 106.953 57.4204 107.083 57.5873 107.291V107.018ZM56.943 108.83C57.3138 108.83 57.5873 108.566 57.5873 108.176C57.5873 107.787 57.3138 107.523 56.943 107.523C56.5769 107.523 56.3034 107.787 56.3034 108.176C56.3034 108.566 56.5769 108.83 56.943 108.83Z" fill="#0B3558"/>
<path d="M54.6812 109.335V105.952H55.279V109.335H54.6812Z" fill="#0B3558"/>
<path d="M53.8329 106.74C53.6336 106.74 53.4668 106.573 53.4668 106.373C53.4668 106.174 53.6336 106.003 53.8329 106.003C54.0369 106.003 54.2037 106.174 54.2037 106.373C54.2037 106.573 54.0369 106.74 53.8329 106.74ZM53.5363 109.335V107.018H54.1342V109.335H53.5363Z" fill="#0B3558"/>
<path d="M52.3959 107.018H52.9938V109.335H52.3959V109.062C52.229 109.27 51.9787 109.4 51.6404 109.4C51.024 109.4 50.5142 108.867 50.5142 108.176C50.5142 107.486 51.024 106.953 51.6404 106.953C51.9787 106.953 52.229 107.083 52.3959 107.291V107.018ZM51.7516 108.83C52.1224 108.83 52.3959 108.566 52.3959 108.176C52.3959 107.787 52.1224 107.523 51.7516 107.523C51.3855 107.523 51.112 107.787 51.112 108.176C51.112 108.566 51.3855 108.83 51.7516 108.83Z" fill="#0B3558"/>
<path d="M49.779 107.018H50.4371L49.5565 109.335H48.8752L47.9946 107.018H48.6528L49.2136 108.64L49.779 107.018Z" fill="#0B3558"/>
<path d="M47.3627 109.335L47.1681 108.751H45.875L45.6803 109.335H44.9897L46.1253 106.091H46.9178L48.058 109.335H47.3627ZM46.0789 108.153H46.9688L46.5238 106.828L46.0789 108.153Z" fill="#0B3558"/>
<path d="M44.9897 115.83C44.9897 115.205 45.4968 114.698 46.1223 114.698H91.3797C92.0052 114.698 92.5122 115.205 92.5122 115.83C92.5122 116.456 92.0052 116.963 91.3797 116.963H46.1223C45.4968 116.963 44.9897 116.456 44.9897 115.83Z" fill="#D4E0ED"/>
<path d="M40.6694 149.004C40.6694 148.285 41.2527 147.701 41.9722 147.701H95.5296C96.2491 147.701 96.8324 148.285 96.8324 149.004V164.637C96.8324 165.357 96.2491 165.94 95.5296 165.94H41.9722C41.2527 165.94 40.6694 165.357 40.6694 164.637V149.004Z" fill="#0066E6"/>
<path d="M40.6694 169.403C40.6694 168.683 41.2527 168.1 41.9722 168.1H95.5296C96.2491 168.1 96.8324 168.683 96.8324 169.403V192.359C96.8324 193.078 96.2491 193.661 95.5296 193.661H41.9722C41.2527 193.661 40.6694 193.078 40.6694 192.359V169.403Z" fill="#F2F8FF"/>
<path d="M40.6694 197.124C40.6694 196.405 41.2527 195.821 41.9722 195.821H95.5296C96.2491 195.821 96.8324 196.405 96.8324 197.124V227.64C96.8324 228.36 96.2491 228.943 95.5296 228.943H41.9722C41.2527 228.943 40.6694 228.36 40.6694 227.64V197.124Z" fill="#0066E6"/>
<rect x="40.4574" y="230.891" width="56.587" height="30.9106" rx="1.29209" fill="#CDD5DF" fill-opacity="0.2"/>
<rect x="40.4574" y="230.891" width="56.587" height="30.9106" rx="1.29209" stroke="white" stroke-width="0.424059"/>
<path d="M61.1198 237.547C61.2033 237.853 61.4582 237.983 61.7733 237.983C62.0051 237.983 62.1905 237.885 62.2924 237.751L62.7744 238.029C62.5566 238.344 62.209 238.525 61.7641 238.525C60.9854 238.525 60.4941 237.992 60.4941 237.301C60.4941 236.611 60.9901 236.078 61.7177 236.078C62.4037 236.078 62.8903 236.62 62.8903 237.301C62.8903 237.389 62.881 237.468 62.8671 237.547H61.1198ZM61.1106 237.083H62.2924C62.2183 236.75 61.968 236.615 61.7177 236.615C61.3979 236.615 61.1801 236.787 61.1106 237.083Z" fill="#0B3558"/>
<path d="M59.4692 238.46V235.076H60.0671V238.46H59.4692Z" fill="#0B3558"/>
<path d="M57.9171 236.078C58.5381 236.078 59.048 236.611 59.048 237.301C59.048 237.992 58.5381 238.525 57.9171 238.525C57.5787 238.525 57.3331 238.4 57.1662 238.186V238.46H56.5684V235.216H57.1662V236.416C57.3331 236.203 57.5787 236.078 57.9171 236.078ZM57.8058 237.955C58.1766 237.955 58.4501 237.691 58.4501 237.301C58.4501 236.912 58.1766 236.648 57.8058 236.648C57.4397 236.648 57.1662 236.912 57.1662 237.301C57.1662 237.691 57.4397 237.955 57.8058 237.955Z" fill="#0B3558"/>
<path d="M55.4281 236.143H56.026V238.46H55.4281V238.186C55.2612 238.395 55.011 238.525 54.6726 238.525C54.0562 238.525 53.5464 237.992 53.5464 237.301C53.5464 236.611 54.0562 236.078 54.6726 236.078C55.011 236.078 55.2612 236.207 55.4281 236.416V236.143ZM54.7839 237.955C55.1546 237.955 55.4281 237.691 55.4281 237.301C55.4281 236.912 55.1546 236.648 54.7839 236.648C54.4177 236.648 54.1443 236.912 54.1443 237.301C54.1443 237.691 54.4177 237.955 54.7839 237.955Z" fill="#0B3558"/>
<path d="M52.5215 238.46V235.076H53.1194V238.46H52.5215Z" fill="#0B3558"/>
<path d="M51.6733 235.864C51.474 235.864 51.3071 235.698 51.3071 235.498C51.3071 235.299 51.474 235.127 51.6733 235.127C51.8772 235.127 52.0441 235.299 52.0441 235.498C52.0441 235.698 51.8772 235.864 51.6733 235.864ZM51.3767 238.46V236.142H51.9745V238.46H51.3767Z" fill="#0B3558"/>
<path d="M50.2367 236.143H50.8346V238.46H50.2367V238.186C50.0698 238.395 49.8196 238.525 49.4812 238.525C48.8648 238.525 48.355 237.992 48.355 237.301C48.355 236.611 48.8648 236.078 49.4812 236.078C49.8196 236.078 50.0698 236.207 50.2367 236.416V236.143ZM49.5925 237.955C49.9632 237.955 50.2367 237.691 50.2367 237.301C50.2367 236.912 49.9632 236.648 49.5925 236.648C49.2263 236.648 48.9529 236.912 48.9529 237.301C48.9529 237.691 49.2263 237.955 49.5925 237.955Z" fill="#0B3558"/>
<path d="M47.6198 236.143H48.278L47.3974 238.46H46.7161L45.8354 236.143H46.4936L47.0544 237.765L47.6198 236.143Z" fill="#0B3558"/>
<path d="M45.2026 238.46L45.0079 237.876H43.7148L43.5202 238.46H42.8296L43.9651 235.216H44.7576L45.8978 238.46H45.2026ZM43.9188 237.278H44.8086L44.3637 235.953L43.9188 237.278Z" fill="#0B3558"/>
<path d="M42.8296 244.955C42.8296 244.329 43.3367 243.822 43.9622 243.822H89.6775C90.303 243.822 90.8101 244.329 90.8101 244.955C90.8101 245.58 90.303 246.087 89.6775 246.087H43.9622C43.3367 246.087 42.8296 245.58 42.8296 244.955Z" fill="#D4E0ED"/>
<rect x="98.9927" y="81.5803" width="56.1629" height="54.0028" rx="1.08006" fill="#CDD5DF" fill-opacity="0.2"/>
<path d="M121.603 88.0241C121.686 88.33 121.941 88.4598 122.256 88.4598C122.488 88.4598 122.673 88.3625 122.775 88.2281L123.257 88.5062C123.04 88.8213 122.692 89.0021 122.247 89.0021C121.468 89.0021 120.977 88.4691 120.977 87.7785C120.977 87.0879 121.473 86.5549 122.201 86.5549C122.887 86.5549 123.373 87.0972 123.373 87.7785C123.373 87.8666 123.364 87.9454 123.35 88.0241H121.603ZM121.593 87.5607H122.775C122.701 87.227 122.451 87.0926 122.201 87.0926C121.881 87.0926 121.663 87.264 121.593 87.5607Z" fill="#0B3558"/>
<path d="M119.953 88.9368V85.5535H120.551V88.9368H119.953Z" fill="#0B3558"/>
<path d="M118.4 86.5549C119.022 86.5549 119.531 87.0879 119.531 87.7785C119.531 88.4691 119.022 89.0021 118.4 89.0021C118.062 89.0021 117.816 88.8769 117.65 88.6637V88.9372H117.052V85.6929H117.65V86.8933C117.816 86.6801 118.062 86.5549 118.4 86.5549ZM118.289 88.432C118.66 88.432 118.933 88.1678 118.933 87.7785C118.933 87.3892 118.66 87.125 118.289 87.125C117.923 87.125 117.65 87.3892 117.65 87.7785C117.65 88.1678 117.923 88.432 118.289 88.432Z" fill="#0B3558"/>
<path d="M115.911 86.6198H116.509V88.9372H115.911V88.6637C115.745 88.8723 115.494 89.0021 115.156 89.0021C114.54 89.0021 114.03 88.4691 114.03 87.7785C114.03 87.0879 114.54 86.5549 115.156 86.5549C115.494 86.5549 115.745 86.6847 115.911 86.8933V86.6198ZM115.267 88.432C115.638 88.432 115.911 88.1678 115.911 87.7785C115.911 87.3892 115.638 87.125 115.267 87.125C114.901 87.125 114.628 87.3892 114.628 87.7785C114.628 88.1678 114.901 88.432 115.267 88.432Z" fill="#0B3558"/>
<path d="M113.005 88.9368V85.5535H113.603V88.9368H113.005Z" fill="#0B3558"/>
<path d="M112.157 86.3417C111.958 86.3417 111.791 86.1748 111.791 85.9755C111.791 85.7762 111.958 85.6047 112.157 85.6047C112.361 85.6047 112.528 85.7762 112.528 85.9755C112.528 86.1748 112.361 86.3417 112.157 86.3417ZM111.861 88.9371V86.6197H112.458V88.9371H111.861Z" fill="#0B3558"/>
<path d="M110.72 86.6198H111.318V88.9372H110.72V88.6637C110.553 88.8723 110.303 89.0021 109.965 89.0021C109.348 89.0021 108.838 88.4691 108.838 87.7785C108.838 87.0879 109.348 86.5549 109.965 86.5549C110.303 86.5549 110.553 86.6847 110.72 86.8933V86.6198ZM110.076 88.432C110.447 88.432 110.72 88.1678 110.72 87.7785C110.72 87.3892 110.447 87.125 110.076 87.125C109.71 87.125 109.436 87.3892 109.436 87.7785C109.436 88.1678 109.71 88.432 110.076 88.432Z" fill="#0B3558"/>
<path d="M108.103 86.6199H108.761L107.881 88.9372H107.199L106.319 86.6199H106.977L107.538 88.242L108.103 86.6199Z" fill="#0B3558"/>
<path d="M105.686 88.9372L105.491 88.3532H104.198L104.004 88.9372H103.313L104.449 85.6929H105.241L106.381 88.9372H105.686ZM104.402 87.7553H105.292L104.847 86.4298L104.402 87.7553Z" fill="#0B3558"/>
<path d="M103.313 95.4319C103.313 94.8064 103.82 94.2993 104.446 94.2993H149.703C150.328 94.2993 150.835 94.8064 150.835 95.4319C150.835 96.0574 150.328 96.5645 149.703 96.5645H104.446C103.82 96.5645 103.313 96.0574 103.313 95.4319Z" fill="#D4E0ED"/>
<path d="M98.9927 139.046C98.9927 138.326 99.5759 137.743 100.295 137.743H153.853C154.572 137.743 155.156 138.326 155.156 139.046V154.679C155.156 155.398 154.572 155.982 153.853 155.982H100.295C99.5759 155.982 98.9927 155.398 98.9927 154.679V139.046Z" fill="#F5F7F9"/>
<path d="M98.9927 159.445C98.9927 158.725 99.5759 158.142 100.295 158.142H154.118C154.837 158.142 155.42 158.725 155.42 159.445V174.476C155.42 175.195 154.837 175.779 154.118 175.779H100.295C99.5759 175.779 98.9927 175.195 98.9927 174.476V159.445Z" fill="#F2F8FF"/>
<rect x="98.7806" y="177.727" width="56.587" height="30.9702" rx="1.29209" fill="#CDD5DF" fill-opacity="0.2"/>
<rect x="98.7806" y="177.727" width="56.587" height="30.9702" rx="1.29209" stroke="white" stroke-width="0.424059"/>
<path d="M119.443 184.382C119.526 184.688 119.781 184.818 120.096 184.818C120.328 184.818 120.513 184.721 120.615 184.586L121.097 184.864C120.879 185.179 120.532 185.36 120.087 185.36C119.308 185.36 118.817 184.827 118.817 184.137C118.817 183.446 119.313 182.913 120.04 182.913C120.726 182.913 121.213 183.455 121.213 184.137C121.213 184.225 121.204 184.304 121.19 184.382H119.443ZM119.433 183.919H120.615C120.541 183.585 120.291 183.451 120.04 183.451C119.721 183.451 119.503 183.622 119.433 183.919Z" fill="#0B3558"/>
<path d="M117.792 185.295V181.912H118.39V185.295H117.792Z" fill="#0B3558"/>
<path d="M116.24 182.913C116.861 182.913 117.371 183.446 117.371 184.137C117.371 184.827 116.861 185.36 116.24 185.36C115.901 185.36 115.656 185.235 115.489 185.022V185.295H114.891V182.051H115.489V183.251C115.656 183.038 115.901 182.913 116.24 182.913ZM116.129 184.79C116.499 184.79 116.773 184.526 116.773 184.137C116.773 183.747 116.499 183.483 116.129 183.483C115.762 183.483 115.489 183.747 115.489 184.137C115.489 184.526 115.762 184.79 116.129 184.79Z" fill="#0B3558"/>
<path d="M113.751 182.978H114.349V185.295H113.751V185.022C113.584 185.23 113.334 185.36 112.996 185.36C112.379 185.36 111.87 184.827 111.87 184.137C111.87 183.446 112.379 182.913 112.996 182.913C113.334 182.913 113.584 183.043 113.751 183.251V182.978ZM113.107 184.79C113.478 184.79 113.751 184.526 113.751 184.137C113.751 183.747 113.478 183.483 113.107 183.483C112.741 183.483 112.468 183.747 112.468 184.137C112.468 184.526 112.741 184.79 113.107 184.79Z" fill="#0B3558"/>
<path d="M110.845 185.295V181.912H111.443V185.295H110.845Z" fill="#0B3558"/>
<path d="M109.997 182.7C109.797 182.7 109.63 182.533 109.63 182.334C109.63 182.135 109.797 181.963 109.997 181.963C110.2 181.963 110.367 182.135 110.367 182.334C110.367 182.533 110.2 182.7 109.997 182.7ZM109.7 185.296V182.978H110.298V185.296H109.7Z" fill="#0B3558"/>
<path d="M108.559 182.978H109.157V185.295H108.559V185.022C108.393 185.23 108.142 185.36 107.804 185.36C107.188 185.36 106.678 184.827 106.678 184.137C106.678 183.446 107.188 182.913 107.804 182.913C108.142 182.913 108.393 183.043 108.559 183.251V182.978ZM107.915 184.79C108.286 184.79 108.559 184.526 108.559 184.137C108.559 183.747 108.286 183.483 107.915 183.483C107.549 183.483 107.276 183.747 107.276 184.137C107.276 184.526 107.549 184.79 107.915 184.79Z" fill="#0B3558"/>
<path d="M105.943 182.978H106.601L105.721 185.296H105.039L104.159 182.978H104.817L105.378 184.6L105.943 182.978Z" fill="#0B3558"/>
<path d="M103.526 185.295L103.331 184.711H102.038L101.843 185.295H101.153L102.288 182.051H103.081L104.221 185.295H103.526ZM102.242 184.113H103.132L102.687 182.788L102.242 184.113Z" fill="#0B3558"/>
<path d="M101.153 191.791C101.153 191.165 101.66 190.658 102.285 190.658H148.001C148.626 190.658 149.133 191.165 149.133 191.791C149.133 192.416 148.626 192.923 148.001 192.923H102.285C101.66 192.923 101.153 192.416 101.153 191.791Z" fill="#D4E0ED"/>
<path d="M98.9927 211.948C98.9927 211.228 99.5759 210.645 100.295 210.645H153.853C154.572 210.645 155.156 211.228 155.156 211.948V227.581C155.156 228.3 154.572 228.884 153.853 228.884H100.295C99.5759 228.884 98.9927 228.3 98.9927 227.581V211.948Z" fill="#8AD0FF"/>
<path d="M98.9927 232.346C98.9927 231.627 99.5759 231.044 100.295 231.044H153.853C154.572 231.044 155.156 231.627 155.156 232.346V260.287C155.156 261.007 154.572 261.59 153.853 261.59H100.295C99.5759 261.59 98.9927 261.007 98.9927 260.287V232.346Z" fill="#BFB0FF"/>
<rect x="157.315" y="81.5803" width="56.1629" height="42.4822" rx="1.08006" fill="#CDD5DF" fill-opacity="0.2"/>
<path d="M179.925 88.0241C180.009 88.33 180.264 88.4598 180.579 88.4598C180.811 88.4598 180.996 88.3625 181.098 88.2281L181.58 88.5062C181.362 88.8213 181.015 89.0021 180.57 89.0021C179.791 89.0021 179.3 88.4691 179.3 87.7785C179.3 87.0879 179.796 86.5549 180.523 86.5549C181.209 86.5549 181.696 87.0972 181.696 87.7785C181.696 87.8666 181.687 87.9454 181.673 88.0241H179.925ZM179.916 87.5607H181.098C181.024 87.227 180.774 87.0926 180.523 87.0926C180.204 87.0926 179.986 87.264 179.916 87.5607Z" fill="#0B3558"/>
<path d="M178.275 88.9368V85.5535H178.873V88.9368H178.275Z" fill="#0B3558"/>
<path d="M176.723 86.5549C177.344 86.5549 177.854 87.0879 177.854 87.7785C177.854 88.4691 177.344 89.0021 176.723 89.0021C176.384 89.0021 176.139 88.8769 175.972 88.6637V88.9372H175.374V85.6929H175.972V86.8933C176.139 86.6801 176.384 86.5549 176.723 86.5549ZM176.612 88.432C176.982 88.432 177.256 88.1678 177.256 87.7785C177.256 87.3892 176.982 87.125 176.612 87.125C176.245 87.125 175.972 87.3892 175.972 87.7785C175.972 88.1678 176.245 88.432 176.612 88.432Z" fill="#0B3558"/>
<path d="M174.234 86.6198H174.832V88.9372H174.234V88.6637C174.067 88.8723 173.817 89.0021 173.478 89.0021C172.862 89.0021 172.352 88.4691 172.352 87.7785C172.352 87.0879 172.862 86.5549 173.478 86.5549C173.817 86.5549 174.067 86.6847 174.234 86.8933V86.6198ZM173.59 88.432C173.96 88.432 174.234 88.1678 174.234 87.7785C174.234 87.3892 173.96 87.125 173.59 87.125C173.223 87.125 172.95 87.3892 172.95 87.7785C172.95 88.1678 173.223 88.432 173.59 88.432Z" fill="#0B3558"/>
<path d="M171.328 88.9368V85.5535H171.926V88.9368H171.328Z" fill="#0B3558"/>
<path d="M170.479 86.3417C170.28 86.3417 170.113 86.1748 170.113 85.9755C170.113 85.7762 170.28 85.6047 170.479 85.6047C170.683 85.6047 170.85 85.7762 170.85 85.9755C170.85 86.1748 170.683 86.3417 170.479 86.3417ZM170.183 88.9371V86.6197H170.781V88.9371H170.183Z" fill="#0B3558"/>
<path d="M169.042 86.6198H169.64V88.9372H169.042V88.6637C168.876 88.8723 168.625 89.0021 168.287 89.0021C167.67 89.0021 167.161 88.4691 167.161 87.7785C167.161 87.0879 167.67 86.5549 168.287 86.5549C168.625 86.5549 168.876 86.6847 169.042 86.8933V86.6198ZM168.398 88.432C168.769 88.432 169.042 88.1678 169.042 87.7785C169.042 87.3892 168.769 87.125 168.398 87.125C168.032 87.125 167.759 87.3892 167.759 87.7785C167.759 88.1678 168.032 88.432 168.398 88.432Z" fill="#0B3558"/>
<path d="M166.425 86.6199H167.084L166.203 88.9372H165.522L164.641 86.6199H165.299L165.86 88.242L166.425 86.6199Z" fill="#0B3558"/>
<path d="M164.009 88.9372L163.814 88.3532H162.521L162.326 88.9372H161.636L162.771 85.6929H163.564L164.704 88.9372H164.009ZM162.725 87.7553H163.615L163.17 86.4298L162.725 87.7553Z" fill="#0B3558"/>
<path d="M161.636 95.4321C161.636 94.8066 162.143 94.2996 162.768 94.2996H208.026C208.651 94.2996 209.158 94.8066 209.158 95.4321C209.158 96.0576 208.651 96.5647 208.026 96.5647H162.768C162.143 96.5647 161.636 96.0576 161.636 95.4321Z" fill="#D4E0ED"/>
<path d="M157.315 127.526C157.315 126.806 157.899 126.223 158.618 126.223H212.176C212.895 126.223 213.478 126.806 213.478 127.526V157.322C213.478 158.041 212.895 158.625 212.176 158.625H158.618C157.899 158.625 157.315 158.041 157.315 157.322V127.526Z" fill="#F5F7F9"/>
<path d="M157.315 162.087C157.315 161.368 157.899 160.785 158.618 160.785H212.176C212.895 160.785 213.478 161.368 213.478 162.087V177.72C213.478 178.44 212.895 179.023 212.176 179.023H158.618C157.899 179.023 157.315 178.44 157.315 177.72V162.087Z" fill="#0066E6"/>
<path d="M157.315 182.486C157.315 181.767 157.899 181.183 158.618 181.183H212.176C212.895 181.183 213.478 181.767 213.478 182.486V197.882C213.478 198.601 212.895 199.184 212.176 199.184H158.618C157.899 199.184 157.315 198.601 157.315 197.882V182.486Z" fill="#F2F8FF"/>
<rect x="157.103" y="201.132" width="56.587" height="31.0257" rx="1.29209" fill="#CDD5DF" fill-opacity="0.2"/>
<rect x="157.103" y="201.132" width="56.587" height="31.0257" rx="1.29209" stroke="white" stroke-width="0.424059"/>
<path d="M177.765 207.788C177.849 208.094 178.104 208.223 178.419 208.223C178.651 208.223 178.836 208.126 178.938 207.992L179.42 208.27C179.202 208.585 178.855 208.766 178.41 208.766C177.631 208.766 177.14 208.233 177.14 207.542C177.14 206.852 177.636 206.319 178.363 206.319C179.049 206.319 179.536 206.861 179.536 207.542C179.536 207.63 179.527 207.709 179.513 207.788H177.765ZM177.756 207.324H178.938C178.864 206.991 178.613 206.856 178.363 206.856C178.043 206.856 177.826 207.028 177.756 207.324Z" fill="#0B3558"/>
<path d="M176.115 208.701V205.318H176.713V208.701H176.115Z" fill="#0B3558"/>
<path d="M174.563 206.319C175.184 206.319 175.693 206.852 175.693 207.542C175.693 208.233 175.184 208.766 174.563 208.766C174.224 208.766 173.979 208.641 173.812 208.427V208.701H173.214V205.457H173.812V206.657C173.979 206.444 174.224 206.319 174.563 206.319ZM174.451 208.196C174.822 208.196 175.096 207.931 175.096 207.542C175.096 207.153 174.822 206.889 174.451 206.889C174.085 206.889 173.812 207.153 173.812 207.542C173.812 207.931 174.085 208.196 174.451 208.196Z" fill="#0B3558"/>
<path d="M172.074 206.383H172.671V208.701H172.074V208.427C171.907 208.636 171.656 208.766 171.318 208.766C170.702 208.766 170.192 208.233 170.192 207.542C170.192 206.852 170.702 206.319 171.318 206.319C171.656 206.319 171.907 206.448 172.074 206.657V206.383ZM171.429 208.196C171.8 208.196 172.074 207.931 172.074 207.542C172.074 207.153 171.8 206.889 171.429 206.889C171.063 206.889 170.79 207.153 170.79 207.542C170.79 207.931 171.063 208.196 171.429 208.196Z" fill="#0B3558"/>
<path d="M169.167 208.701V205.318H169.765V208.701H169.167Z" fill="#0B3558"/>
<path d="M168.319 206.105C168.119 206.105 167.953 205.938 167.953 205.739C167.953 205.54 168.119 205.368 168.319 205.368C168.523 205.368 168.69 205.54 168.69 205.739C168.69 205.938 168.523 206.105 168.319 206.105ZM168.022 208.701V206.383H168.62V208.701H168.022Z" fill="#0B3558"/>
<path d="M166.882 206.383H167.48V208.701H166.882V208.427C166.715 208.636 166.465 208.766 166.127 208.766C165.51 208.766 165 208.233 165 207.542C165 206.852 165.51 206.319 166.127 206.319C166.465 206.319 166.715 206.448 166.882 206.657V206.383ZM166.238 208.196C166.609 208.196 166.882 207.931 166.882 207.542C166.882 207.153 166.609 206.889 166.238 206.889C165.872 206.889 165.598 207.153 165.598 207.542C165.598 207.931 165.872 208.196 166.238 208.196Z" fill="#0B3558"/>
<path d="M164.265 206.384H164.923L164.042 208.701H163.361L162.48 206.384H163.139L163.699 208.006L164.265 206.384Z" fill="#0B3558"/>
<path d="M161.848 208.701L161.653 208.117H160.36L160.166 208.701H159.475L160.611 205.457H161.403L162.543 208.701H161.848ZM160.564 207.519H161.454L161.009 206.193L160.564 207.519Z" fill="#0B3558"/>
<path d="M159.476 215.195C159.476 214.57 159.983 214.063 160.608 214.063H206.323C206.949 214.063 207.456 214.57 207.456 215.195C207.456 215.821 206.949 216.328 206.323 216.328H160.608C159.983 216.328 159.476 215.821 159.476 215.195Z" fill="#D4E0ED"/>
<path d="M157.315 235.409C157.315 234.689 157.899 234.106 158.618 234.106H212.176C212.895 234.106 213.478 234.689 213.478 235.409V260.287C213.478 261.007 212.895 261.59 212.176 261.59H158.618C157.899 261.59 157.315 261.007 157.315 260.287V235.409Z" fill="#F2F8FF"/>
<path d="M215.639 82.8833C215.639 82.1638 216.222 81.5806 216.941 81.5806H270.499C271.218 81.5806 271.802 82.1638 271.802 82.8833V106.199C271.802 106.919 271.218 107.502 270.499 107.502H216.941C216.222 107.502 215.639 106.919 215.639 106.199V82.8833Z" fill="#8AD0FF"/>
<rect x="215.639" y="109.662" width="56.1629" height="52.5628" rx="1.08006" fill="#CDD5DF" fill-opacity="0.2"/>
<path d="M238.249 116.106C238.333 116.412 238.588 116.541 238.903 116.541C239.134 116.541 239.32 116.444 239.422 116.31L239.904 116.588C239.686 116.903 239.338 117.084 238.893 117.084C238.115 117.084 237.624 116.551 237.624 115.86C237.624 115.169 238.119 114.636 238.847 114.636C239.533 114.636 240.02 115.179 240.02 115.86C240.02 115.948 240.01 116.027 239.997 116.106H238.249ZM238.24 115.642H239.422C239.348 115.309 239.097 115.174 238.847 115.174C238.527 115.174 238.309 115.346 238.24 115.642Z" fill="#0B3558"/>
<path d="M236.599 117.019V113.635H237.197V117.019H236.599Z" fill="#0B3558"/>
<path d="M235.046 114.636C235.668 114.636 236.177 115.169 236.177 115.86C236.177 116.551 235.668 117.084 235.046 117.084C234.708 117.084 234.462 116.958 234.296 116.745V117.019H233.698V113.774H234.296V114.975C234.462 114.762 234.708 114.636 235.046 114.636ZM234.935 116.514C235.306 116.514 235.579 116.249 235.579 115.86C235.579 115.471 235.306 115.207 234.935 115.207C234.569 115.207 234.296 115.471 234.296 115.86C234.296 116.249 234.569 116.514 234.935 116.514Z" fill="#0B3558"/>
<path d="M232.557 114.701H233.155V117.019H232.557V116.745C232.391 116.954 232.14 117.084 231.802 117.084C231.186 117.084 230.676 116.551 230.676 115.86C230.676 115.169 231.186 114.636 231.802 114.636C232.14 114.636 232.391 114.766 232.557 114.975V114.701ZM231.913 116.514C232.284 116.514 232.557 116.249 232.557 115.86C232.557 115.471 232.284 115.207 231.913 115.207C231.547 115.207 231.274 115.471 231.274 115.86C231.274 116.249 231.547 116.514 231.913 116.514Z" fill="#0B3558"/>
<path d="M229.651 117.019V113.635H230.249V117.019H229.651Z" fill="#0B3558"/>
<path d="M228.803 114.423C228.603 114.423 228.437 114.256 228.437 114.057C228.437 113.858 228.603 113.686 228.803 113.686C229.007 113.686 229.173 113.858 229.173 114.057C229.173 114.256 229.007 114.423 228.803 114.423ZM228.506 117.019V114.701H229.104V117.019H228.506Z" fill="#0B3558"/>
<path d="M227.366 114.701H227.964V117.019H227.366V116.745C227.199 116.954 226.949 117.084 226.611 117.084C225.994 117.084 225.484 116.551 225.484 115.86C225.484 115.169 225.994 114.636 226.611 114.636C226.949 114.636 227.199 114.766 227.366 114.975V114.701ZM226.722 116.514C227.093 116.514 227.366 116.249 227.366 115.86C227.366 115.471 227.093 115.207 226.722 115.207C226.356 115.207 226.082 115.471 226.082 115.86C226.082 116.249 226.356 116.514 226.722 116.514Z" fill="#0B3558"/>
<path d="M224.749 114.701H225.407L224.526 117.019H223.845L222.964 114.701H223.622L224.183 116.323L224.749 114.701Z" fill="#0B3558"/>
<path d="M222.332 117.019L222.137 116.435H220.844L220.65 117.019H219.959L221.094 113.774H221.887L223.027 117.019H222.332ZM221.048 115.837H221.938L221.493 114.511L221.048 115.837Z" fill="#0B3558"/>
<path d="M219.959 123.514C219.959 122.888 220.466 122.381 221.092 122.381H266.349C266.974 122.381 267.481 122.888 267.481 123.514C267.481 124.139 266.974 124.646 266.349 124.646H221.092C220.466 124.646 219.959 124.139 219.959 123.514Z" fill="#D4E0ED"/>
<path d="M215.639 165.688C215.639 164.968 216.222 164.385 216.941 164.385H270.499C271.218 164.385 271.802 164.968 271.802 165.688V181.803C271.802 182.523 271.218 183.106 270.499 183.106H216.941C216.222 183.106 215.639 182.523 215.639 181.803V165.688Z" fill="#F5F7F9"/>
<path d="M215.639 186.569C215.639 185.849 216.222 185.266 216.941 185.266H270.499C271.218 185.266 271.802 185.849 271.802 186.569V209.884C271.802 210.604 271.218 211.187 270.499 211.187H216.941C216.222 211.187 215.639 210.604 215.639 209.884V186.569Z" fill="#8AD0FF"/>
<rect x="215.427" y="213.136" width="56.587" height="48.6666" rx="1.29209" fill="#CDD5DF" fill-opacity="0.2"/>
<rect x="215.427" y="213.136" width="56.587" height="48.6666" rx="1.29209" stroke="white" stroke-width="0.424059"/>
<path d="M236.088 219.791C236.172 220.097 236.426 220.227 236.742 220.227C236.973 220.227 237.159 220.13 237.261 219.995L237.743 220.273C237.525 220.588 237.177 220.769 236.732 220.769C235.954 220.769 235.462 220.236 235.462 219.546C235.462 218.855 235.958 218.322 236.686 218.322C237.372 218.322 237.859 218.864 237.859 219.546C237.859 219.634 237.849 219.712 237.835 219.791H236.088ZM236.079 219.328H237.261C237.187 218.994 236.936 218.86 236.686 218.86C236.366 218.86 236.148 219.031 236.079 219.328Z" fill="#0B3558"/>
<path d="M234.438 220.704V217.321H235.036V220.704H234.438Z" fill="#0B3558"/>
<path d="M232.886 218.322C233.507 218.322 234.017 218.855 234.017 219.546C234.017 220.236 233.507 220.769 232.886 220.769C232.547 220.769 232.302 220.644 232.135 220.431V220.704H231.537V217.46H232.135V218.66C232.302 218.447 232.547 218.322 232.886 218.322ZM232.775 220.199C233.145 220.199 233.419 219.935 233.419 219.546C233.419 219.156 233.145 218.892 232.775 218.892C232.408 218.892 232.135 219.156 232.135 219.546C232.135 219.935 232.408 220.199 232.775 220.199Z" fill="#0B3558"/>
<path d="M230.397 218.387H230.995V220.704H230.397V220.431C230.23 220.639 229.98 220.769 229.641 220.769C229.025 220.769 228.515 220.236 228.515 219.546C228.515 218.855 229.025 218.322 229.641 218.322C229.98 218.322 230.23 218.452 230.397 218.66V218.387ZM229.753 220.199C230.123 220.199 230.397 219.935 230.397 219.546C230.397 219.156 230.123 218.892 229.753 218.892C229.386 218.892 229.113 219.156 229.113 219.546C229.113 219.935 229.386 220.199 229.753 220.199Z" fill="#0B3558"/>
<path d="M227.49 220.704V217.321H228.088V220.704H227.49Z" fill="#0B3558"/>
<path d="M226.642 218.109C226.443 218.109 226.276 217.942 226.276 217.743C226.276 217.543 226.443 217.372 226.642 217.372C226.846 217.372 227.013 217.543 227.013 217.743C227.013 217.942 226.846 218.109 226.642 218.109ZM226.345 220.704V218.387H226.943V220.704H226.345Z" fill="#0B3558"/>
<path d="M225.205 218.387H225.803V220.704H225.205V220.431C225.039 220.639 224.788 220.769 224.45 220.769C223.834 220.769 223.324 220.236 223.324 219.546C223.324 218.855 223.834 218.322 224.45 218.322C224.788 218.322 225.039 218.452 225.205 218.66V218.387ZM224.561 220.199C224.932 220.199 225.205 219.935 225.205 219.546C225.205 219.156 224.932 218.892 224.561 218.892C224.195 218.892 223.922 219.156 223.922 219.546C223.922 219.935 224.195 220.199 224.561 220.199Z" fill="#0B3558"/>
<path d="M222.589 218.387H223.247L222.366 220.704H221.685L220.804 218.387H221.462L222.023 220.009L222.589 218.387Z" fill="#0B3558"/>
<path d="M220.172 220.704L219.977 220.12H218.684L218.489 220.704H217.799L218.934 217.46H219.727L220.867 220.704H220.172ZM218.888 219.522H219.778L219.333 218.197L218.888 219.522Z" fill="#0B3558"/>
<path d="M217.799 227.199C217.799 226.574 218.306 226.067 218.931 226.067H264.647C265.272 226.067 265.779 226.574 265.779 227.199C265.779 227.825 265.272 228.332 264.647 228.332H218.931C218.306 228.332 217.799 227.825 217.799 227.199Z" fill="#D4E0ED"/>
<rect x="273.962" y="81.5803" width="56.1629" height="41.7643" rx="1.08006" fill="#CDD5DF" fill-opacity="0.2"/>
<path d="M296.572 88.0241C296.656 88.33 296.911 88.4598 297.226 88.4598C297.458 88.4598 297.643 88.3625 297.745 88.2281L298.227 88.5062C298.009 88.8213 297.662 89.0021 297.217 89.0021C296.438 89.0021 295.947 88.4691 295.947 87.7785C295.947 87.0879 296.443 86.5549 297.17 86.5549C297.856 86.5549 298.343 87.0972 298.343 87.7785C298.343 87.8666 298.334 87.9454 298.32 88.0241H296.572ZM296.563 87.5607H297.745C297.671 87.227 297.421 87.0926 297.17 87.0926C296.851 87.0926 296.633 87.264 296.563 87.5607Z" fill="#0B3558"/>
<path d="M294.922 88.9368V85.5535H295.52V88.9368H294.922Z" fill="#0B3558"/>
<path d="M293.37 86.5549C293.991 86.5549 294.501 87.0879 294.501 87.7785C294.501 88.4691 293.991 89.0021 293.37 89.0021C293.031 89.0021 292.786 88.8769 292.619 88.6637V88.9372H292.021V85.6929H292.619V86.8933C292.786 86.6801 293.031 86.5549 293.37 86.5549ZM293.258 88.432C293.629 88.432 293.903 88.1678 293.903 87.7785C293.903 87.3892 293.629 87.125 293.258 87.125C292.892 87.125 292.619 87.3892 292.619 87.7785C292.619 88.1678 292.892 88.432 293.258 88.432Z" fill="#0B3558"/>
<path d="M290.881 86.6198H291.479V88.9372H290.881V88.6637C290.714 88.8723 290.464 89.0021 290.125 89.0021C289.509 89.0021 288.999 88.4691 288.999 87.7785C288.999 87.0879 289.509 86.5549 290.125 86.5549C290.464 86.5549 290.714 86.6847 290.881 86.8933V86.6198ZM290.237 88.432C290.607 88.432 290.881 88.1678 290.881 87.7785C290.881 87.3892 290.607 87.125 290.237 87.125C289.87 87.125 289.597 87.3892 289.597 87.7785C289.597 88.1678 289.87 88.432 290.237 88.432Z" fill="#0B3558"/>
<path d="M287.974 88.9368V85.5535H288.572V88.9368H287.974Z" fill="#0B3558"/>
<path d="M287.126 86.3417C286.927 86.3417 286.76 86.1748 286.76 85.9755C286.76 85.7762 286.927 85.6047 287.126 85.6047C287.33 85.6047 287.497 85.7762 287.497 85.9755C287.497 86.1748 287.33 86.3417 287.126 86.3417ZM286.829 88.9371V86.6197H287.427V88.9371H286.829Z" fill="#0B3558"/>
<path d="M285.689 86.6198H286.287V88.9372H285.689V88.6637C285.522 88.8723 285.272 89.0021 284.934 89.0021C284.317 89.0021 283.808 88.4691 283.808 87.7785C283.808 87.0879 284.317 86.5549 284.934 86.5549C285.272 86.5549 285.522 86.6847 285.689 86.8933V86.6198ZM285.045 88.432C285.416 88.432 285.689 88.1678 285.689 87.7785C285.689 87.3892 285.416 87.125 285.045 87.125C284.679 87.125 284.406 87.3892 284.406 87.7785C284.406 88.1678 284.679 88.432 285.045 88.432Z" fill="#0B3558"/>
<path d="M283.072 86.6199H283.731L282.85 88.9372H282.169L281.288 86.6199H281.946L282.507 88.242L283.072 86.6199Z" fill="#0B3558"/>
<path d="M280.655 88.9372L280.461 88.3532H279.167L278.973 88.9372H278.282L279.418 85.6929H280.21L281.35 88.9372H280.655ZM279.371 87.7553H280.261L279.816 86.4298L279.371 87.7553Z" fill="#0B3558"/>
<path d="M278.282 95.4319C278.282 94.8064 278.789 94.2993 279.415 94.2993H324.672C325.298 94.2993 325.805 94.8064 325.805 95.4319C325.805 96.0574 325.298 96.5645 324.672 96.5645H279.415C278.789 96.5645 278.282 96.0574 278.282 95.4319Z" fill="#D4E0ED"/>
<path d="M273.962 126.807C273.962 126.088 274.545 125.505 275.265 125.505H328.822C329.542 125.505 330.125 126.088 330.125 126.807V176.045C330.125 176.764 329.542 177.347 328.822 177.347H275.265C274.545 177.347 273.962 176.764 273.962 176.045V126.807Z" fill="#F5F7F9"/>
<path d="M273.962 180.81C273.962 180.091 274.545 179.508 275.265 179.508H328.822C329.542 179.508 330.125 180.091 330.125 180.81V196.566C330.125 197.285 329.542 197.869 328.822 197.869H275.265C274.545 197.869 273.962 197.285 273.962 196.566V180.81Z" fill="#BFB0FF"/>
<rect x="273.962" y="200.029" width="56.1629" height="41.7643" rx="1.08006" fill="#CDD5DF" fill-opacity="0.2"/>
<path d="M296.572 206.471C296.656 206.777 296.911 206.907 297.226 206.907C297.458 206.907 297.643 206.81 297.745 206.675L298.227 206.953C298.009 207.269 297.662 207.449 297.217 207.449C296.438 207.449 295.947 206.916 295.947 206.226C295.947 205.535 296.443 205.002 297.17 205.002C297.856 205.002 298.343 205.544 298.343 206.226C298.343 206.314 298.334 206.393 298.32 206.471H296.572ZM296.563 206.008H297.745C297.671 205.674 297.421 205.54 297.17 205.54C296.851 205.54 296.633 205.711 296.563 206.008Z" fill="#0B3558"/>
<path d="M294.922 207.385V204.001H295.52V207.385H294.922Z" fill="#0B3558"/>
<path d="M293.37 205.002C293.991 205.002 294.501 205.535 294.501 206.226C294.501 206.917 293.991 207.45 293.37 207.45C293.031 207.45 292.786 207.324 292.619 207.111V207.385H292.021V204.14H292.619V205.341C292.786 205.128 293.031 205.002 293.37 205.002ZM293.258 206.88C293.629 206.88 293.903 206.615 293.903 206.226C293.903 205.837 293.629 205.573 293.258 205.573C292.892 205.573 292.619 205.837 292.619 206.226C292.619 206.615 292.892 206.88 293.258 206.88Z" fill="#0B3558"/>
<path d="M290.881 205.067H291.479V207.384H290.881V207.111C290.714 207.32 290.464 207.449 290.126 207.449C289.509 207.449 289 206.916 289 206.226C289 205.535 289.509 205.002 290.126 205.002C290.464 205.002 290.714 205.132 290.881 205.341V205.067ZM290.237 206.879C290.608 206.879 290.881 206.615 290.881 206.226C290.881 205.836 290.608 205.572 290.237 205.572C289.871 205.572 289.597 205.836 289.597 206.226C289.597 206.615 289.871 206.879 290.237 206.879Z" fill="#0B3558"/>
<path d="M287.975 207.385V204.001H288.572V207.385H287.975Z" fill="#0B3558"/>
<path d="M287.126 204.789C286.927 204.789 286.76 204.622 286.76 204.423C286.76 204.224 286.927 204.052 287.126 204.052C287.33 204.052 287.497 204.224 287.497 204.423C287.497 204.622 287.33 204.789 287.126 204.789ZM286.83 207.385V205.067H287.428V207.385H286.83Z" fill="#0B3558"/>
<path d="M285.689 205.067H286.287V207.384H285.689V207.111C285.522 207.32 285.272 207.449 284.934 207.449C284.317 207.449 283.808 206.916 283.808 206.226C283.808 205.535 284.317 205.002 284.934 205.002C285.272 205.002 285.522 205.132 285.689 205.341V205.067ZM285.045 206.879C285.416 206.879 285.689 206.615 285.689 206.226C285.689 205.836 285.416 205.572 285.045 205.572C284.679 205.572 284.406 205.836 284.406 206.226C284.406 206.615 284.679 206.879 285.045 206.879Z" fill="#0B3558"/>
<path d="M283.072 205.067H283.731L282.85 207.385H282.169L281.288 205.067H281.946L282.507 206.69L283.072 205.067Z" fill="#0B3558"/>
<path d="M280.655 207.385L280.461 206.801H279.167L278.973 207.385H278.282L279.418 204.14H280.21L281.35 207.385H280.655ZM279.371 206.203H280.261L279.816 204.877L279.371 206.203Z" fill="#0B3558"/>
<path d="M278.282 213.88C278.282 213.254 278.789 212.747 279.415 212.747H324.672C325.298 212.747 325.805 213.254 325.805 213.88C325.805 214.505 325.298 215.012 324.672 215.012H279.415C278.789 215.012 278.282 214.505 278.282 213.88Z" fill="#D4E0ED"/>
<path d="M273.962 245.256C273.962 244.536 274.545 243.953 275.265 243.953H329.087C329.806 243.953 330.39 244.536 330.39 245.256V260.287C330.39 261.007 329.806 261.59 329.087 261.59H275.265C274.545 261.59 273.962 261.007 273.962 260.287V245.256Z" fill="#F2F8FF"/>
</g>
<rect x="12.18" y="10.8773" width="335.64" height="263.521" rx="8.46044" stroke="#F0F3F8" stroke-width="0.360019"/>
</g>
<defs>
<filter id="filter0_d_5805_27445" x="0.333334" y="0.586155" width="359.333" height="287.215" filterUnits="userSpaceOnUse" color-interpolation-filters="sRGB">
<feFlood flood-opacity="0" result="BackgroundImageFix"/>
<feColorMatrix in="SourceAlpha" type="matrix" values="0 0 0 0 0 0 0 0 0 0 0 0 0 0 0 0 0 0 127 0" result="hardAlpha"/>
<feOffset dy="1.55556"/>
<feGaussianBlur stdDeviation="5.83333"/>
<feColorMatrix type="matrix" values="0 0 0 0 0 0 0 0 0 0 0 0 0 0 0 0 0 0 0.1 0"/>
<feBlend mode="normal" in2="BackgroundImageFix" result="effect1_dropShadow_5805_27445"/>
<feBlend mode="normal" in="SourceGraphic" in2="effect1_dropShadow_5805_27445" result="shape"/>
</filter>
<clipPath id="clip0_5805_27445">
<rect x="12" y="10.6973" width="336" height="263.881" rx="8.64045" fill="white"/>
</clipPath>
<clipPath id="clip1_5805_27445">
<rect width="7.81649" height="7.81649" fill="white" transform="translate(45.1318 17.5649)"/>
</clipPath>
<clipPath id="clip2_5805_27445">
<rect width="7.81649" height="7.81649" fill="white" transform="translate(54.9023 17.5649)"/>
</clipPath>
<clipPath id="clip3_5805_27445">
<rect width="7.81649" height="7.81649" fill="white" transform="translate(64.6729 17.5649)"/>
</clipPath>
</defs>
</svg>
