<svg width="50" height="50" viewBox="0 0 50 50" fill="none" xmlns="http://www.w3.org/2000/svg">
  <path d="M28.152 2L0 7.18109V43.8341L28.152 50V2ZM19.0846 14.3747V18.3568L12.5216 18.9135V22.3818H18.6528V26.4068H12.5216V30.8599L19.3005 31.545V35.5272L8.67876 34.2426V15.5736L19.0846 14.3747Z" fill="#046DB2" />
  <path d="M30.5705 11.6772V15.4881C30.8728 15.4881 31.2182 15.4881 31.5636 15.5309C32.5567 15.5738 33.8952 16.944 34.4997 18.0144C34.7588 18.4426 33.8089 19.3418 33.8089 19.3418L31.9954 18.2714C31.5204 18.1857 31.0455 18.1429 30.5273 18.1429V24.4801L33.2044 27.0921C34.2406 28.7192 32.8589 28.2482 30.5273 26.5782V33.9859C31.0887 33.9431 31.65 33.729 32.0386 33.3436L36.7881 28.5907C39.3356 26.9636 36.7881 31.1598 32.4703 35.7415C32.0386 36.1697 31.3909 36.4266 30.5273 36.5122V40.6228H46.9349C48.6189 40.6228 49.9574 39.4239 49.9574 37.9681V14.332C49.9574 12.8762 48.6189 11.6772 46.9349 11.6772H30.5705ZM42.6172 15.4881C43.6534 15.4881 44.9056 15.5738 46.3305 15.5738C46.3305 15.5738 46.46 17.5434 46.3305 21.8253C46.2873 22.8102 44.9056 24.1375 43.8261 24.737C43.3944 24.9939 42.4876 24.0519 42.4876 24.0519L43.5671 22.2535C43.783 21.0546 43.8261 19.5987 43.2648 18.3998C42.4013 18.0144 40.4151 17.6719 39.3788 18.6995L34.6292 23.4524C32.0817 25.0796 34.6292 20.8833 38.947 16.3017C39.6811 15.6166 40.89 15.4881 42.6172 15.4881ZM38.1698 23.9663C39.0766 24.0091 42.1854 26.1929 45.5101 29.2758C46.6327 30.3463 46.3736 32.7013 46.2441 36.5122C46.2441 36.5122 44.2579 36.6407 39.9401 36.5122C38.947 36.4694 37.6085 35.0992 37.004 34.0287C36.745 33.6005 37.6949 32.7013 37.6949 32.7013L39.5083 33.7718C40.7173 33.9859 42.1854 34.0287 43.3944 33.4721C43.783 32.6157 44.1284 30.646 43.0921 29.6184L38.2994 24.9083C37.8244 24.266 37.8244 23.9663 38.1698 23.9663Z" fill="#046DB2" />
</svg>
