<svg fill="none" viewBox="0 0 24 24" xmlns="http://www.w3.org/2000/svg"><title>Google Meet logo</title><path d="M24 4.904v14.355c-.045.04-.032.098-.051.146-.186.485-.832.735-1.31.335-1.043-.874-2.092-1.744-3.139-2.615l-.438-.364v3.606c0 .237-.045.468-.147.682-.285.598-.759.92-1.412.975-.035 0-.07-.003-.102-.003H5.722c-.035 0-.07-.004-.102-.004V16.427c0-.036 0-.072-.003-.104l.013-.013.048.003c2.605 0 5.21 0 7.815.003.077 0 .083-.026.083-.094-.003-1.369 0-2.733 0-4.1 0-.036.003-.072.003-.105.013.008.032.01.042.02.262.224.522.451.781.68l.714.622c.278.244.56.481.838.725.195.17.39.341.59.51.236.205.473.406.71.614.24.208.476.416.713.624.247.215.493.429.74.64.108.094.22.188.345.295V7.41c.007-.01.01-.02.016-.03l.051-.04a2268.9 2268.9 0 003.515-2.926.78.78 0 01.684-.188.8.8 0 01.596.448c.038.069.057.15.086.23z" fill="#00ab47"/><path d="M5.63 16.31l-.013.013c-.023 0-.042-.004-.064-.004H0v-8.64l.006-.005.007.003c.029 0 .057.004.086.004h5.438c.025 0 .054 0 .08-.003.003.003.006.01.01.013v8.56c0 .023 0 .04.003.059z" fill="#2683fb"/><path d="M0 16.319h5.553c.022 0 .041.003.064.003 0 .036.003.072.003.104v5.59c-.035 0-.07.004-.102.004H1.754c-.067 0-.135 0-.199.004a1.417 1.417 0 01-.432-.085C.56 21.73.198 21.334.045 20.744c-.016-.063-.013-.128-.042-.186C0 19.145 0 17.732 0 16.319z" fill="#0066d9"/><path d="M1.552 22.037v-.013c.067 0 .135-.004.199-.004h3.763c.036 0 .07-.004.103-.004.035 0 .07.003.102.003h11.679c.035 0 .07.004.102.004v.013z" fill="#bee9d0"/><path d="M5.617 1.98v-.016h11.89v.013l-.103.002z" fill="#feedbe"/><path d="M5.617 1.98H17.4c.035 0 .07-.003.102-.003.74.052 1.325.54 1.507 1.25.036.134.052.27.052.407v3.635c0 .035.003.07.006.103l-.016.03a.649.649 0 00-.058.041L14.4 11.31c-.272.23-.548.459-.82.686 0-.04-.003-.074-.003-.113V7.798c0-.11 0-.11-.106-.11H5.713a.773.773 0 00-.087.006c-.003-.003-.006-.01-.01-.013 0-.026.004-.055.004-.08V2.07l-.003-.08c-.004-.003 0-.007 0-.01z" fill="#feb900"/><path d="M13.58 12.014c0-.002-.004-.006-.004-.012 0-.004 0-.004.003-.008.272-.226.548-.453.82-.684 1.533-1.29 3.066-2.577 4.596-3.867a.649.649 0 01.057-.041v9.338c-.125-.106-.237-.197-.345-.294l-.74-.64c-.237-.209-.473-.417-.713-.625l-.71-.614c-.196-.169-.391-.34-.59-.51-.278-.24-.56-.48-.838-.724-.24-.208-.477-.416-.714-.624-.26-.227-.522-.45-.78-.679-.01-.006-.027-.01-.043-.016z" fill="#00832d"/><path d="M5.614 1.99l.003.082v5.53l-.003.08-.08.003H.097c-.03 0-.058-.003-.087-.003l.051-.062a5751.59 5751.59 0 005.495-5.574c.02-.02.039-.036.058-.056z" fill="#e84235"/></svg>
