<svg viewBox="0 0 23 25" fill="none" xmlns="http://www.w3.org/2000/svg">
<title>GoTo Meeting logo</title>
<g clip-path="url(#clip0_25_5973)">
<path d="M21.1939 16L0 18.3333L0.921474 25L22.1154 22.6667L21.1939 16Z" fill="#FFE900"/>
<path d="M11.0109 7.44231V10.5577H15.0933C14.1602 13.1786 12.3639 14.8846 10.2877 14.8846C9.37787 14.8846 8.49139 14.6374 7.67489 14.1923C6.88172 13.7473 6.18187 13.0797 5.69197 12.2637C5.17874 11.4725 4.87547 10.533 4.78216 9.56868C4.68885 8.60439 4.82882 7.64011 5.17874 6.75C5.52867 5.85989 6.08855 5.06868 6.78841 4.47527C7.48826 3.85714 8.32809 3.43681 9.21457 3.26374C10.1011 3.06593 11.0342 3.11538 11.8973 3.41209C12.7605 3.68407 13.5537 4.2033 14.2069 4.87088L16.3064 2.6456C15.1167 1.38462 13.6003 0.543956 11.9673 0.173077C10.311 -0.173077 8.60803 0 7.06835 0.692308C5.52867 1.38462 4.19895 2.52198 3.26581 4.00549C2.33267 5.48901 1.84277 7.21978 1.84277 9C1.84277 10.1868 2.05273 11.3489 2.47264 12.4368C2.89255 13.5247 3.52242 14.5137 4.31559 15.3544C5.10876 16.1951 6.0419 16.8626 7.06835 17.3077C8.0948 17.7527 9.19124 18 10.311 18C13.2037 18 15.7932 16.022 17.3329 12.9066V17.6291H20.2723V7.44231H11.0109Z" fill="black"/>
</g>
<defs>
<clipPath id="clip0_25_5973">
<rect width="22.1154" height="25" fill="white"/>
</clipPath>
</defs>
</svg>
