<svg id="Layer_1" data-name="Layer 1" xmlns="http://www.w3.org/2000/svg" viewBox="0 0 300 300"><circle cx="151.17" cy="150.15" r="87.3" fill="#f77f00"/><circle cx="267.14" cy="150.13" r="21.9" fill="#f77f00"/><circle cx="122.27" cy="36.65" r="21.9" fill="#f77f00"/><circle cx="75.06" cy="239.15" r="21.9" fill="#f77f00"/><circle cx="255.52" cy="198.78" r="21.9" transform="translate(-13.87 378.32) rotate(-71.56)" fill="#f77f00"/><circle cx="223.67" cy="239.25" r="21.9" fill="#f77f00"/><circle cx="176.47" cy="263.35" r="21.9" fill="#f77f00"/><circle cx="122.27" cy="263.35" r="21.9" fill="#f77f00"/><circle cx="44.37" cy="198.75" r="21.9" fill="#f77f00"/><circle cx="32.87" cy="150.15" r="21.9" fill="#f77f00"/><circle cx="44.37" cy="99.85" r="21.9" fill="#f77f00"/><circle cx="75.06" cy="59.65" r="21.9" fill="#f77f00"/><circle cx="176.47" cy="36.65" r="21.9" fill="#f77f00"/><path d="M187.53,42.56V28.48A1.51,1.51,0,0,0,186,27H166.92a1.5,1.5,0,0,0-1.5,1.5h0V42.56Z" fill="#fff"/><path d="M173.47,43.48h6.06v1h-6.06Z" fill="#fff"/><path d="M180.39,43.48V44.9a.45.45,0,0,1-.46.46h-7a.45.45,0,0,1-.45-.45h0V43.48h-9v1.14a1.73,1.73,0,0,0,1.73,1.73h22.54a1.73,1.73,0,0,0,1.73-1.73V43.48Z" fill="#fff"/><circle cx="223.67" cy="59.79" r="21.9" fill="#f77f00"/><path d="M228.58,46.79h-9.82A3.18,3.18,0,0,0,215.59,50V69.64a3.16,3.16,0,0,0,3.16,3.15h9.84a3.17,3.17,0,0,0,3.17-3.15V50a3.18,3.18,0,0,0-3.18-3.16Zm-3.51,22.85h-2.85a1.06,1.06,0,0,1,0-2.12H225a1.06,1.06,0,0,1,0,2.12Z" fill="#fff"/><circle cx="255.42" cy="99.76" r="21.9" fill="#f77f00"/><path d="M260.19,99.78a32.47,32.47,0,0,0-.21-3.69h-9.16a31,31,0,0,0,0,7.37H260A32.37,32.37,0,0,0,260.19,99.78Z" fill="#fff"/><path d="M242.43,99.78a12.49,12.49,0,0,0,.56,3.68h6.19a34.92,34.92,0,0,1,0-7.37H243A12.51,12.51,0,0,0,242.43,99.78Z" fill="#fff"/><path d="M252,87.25a13,13,0,0,0-8.44,7.19h5.82A17.22,17.22,0,0,1,252,87.25Z" fill="#fff"/><path d="M251.06,94.44h8.72c-.82-4.7-2.66-7.68-4.33-7.68S251.88,89.77,251.06,94.44Z" fill="#fff"/><path d="M267.25,94.44a13,13,0,0,0-8.42-7.22,17.43,17.43,0,0,1,2.59,7.22Z" fill="#fff"/><path d="M267.86,96.09h-6.21a33.63,33.63,0,0,1,0,7.37h6.21A12.67,12.67,0,0,0,267.86,96.09Z" fill="#fff"/><path d="M258.83,112.29a13.05,13.05,0,0,0,8.43-7.21h-5.81A17.39,17.39,0,0,1,258.83,112.29Z" fill="#fff"/><path d="M251.06,105.08c.82,4.7,2.67,7.68,4.33,7.68s3.55-3,4.33-7.68Z" fill="#fff"/><path d="M252,112.29a17.07,17.07,0,0,1-2.59-7.21h-5.85A13.07,13.07,0,0,0,252,112.29Z" fill="#fff"/><path d="M112.6,276.35h9.1a2.86,2.86,0,0,0,2.87-2.86V253.21a2.86,2.86,0,0,0-2.86-2.86H112.6a2.87,2.87,0,0,0-2.86,2.86h0v20.28A2.87,2.87,0,0,0,112.6,276.35Zm5.2-16.9a.51.51,0,0,0-.32-.65h0a.52.52,0,0,0-.53.13l-2,3.42a1,1,0,0,0,.37,1.42h0a1,1,0,0,0,.5.14h2.37L116.46,267a.52.52,0,0,0,.74.74.5.5,0,0,0,.13-.22l1.73-3.12a1,1,0,0,0-.87-1.55h-2.34Z" fill="#fff" fill-rule="evenodd"/><path d="M130.29,274.53h3.64a.25.25,0,0,1,.26.24h0v1.32a.26.26,0,0,1-.26.26h-3.64a.27.27,0,0,1-.26-.26v-1.3a.26.26,0,0,1,.25-.26Z" fill="#fff"/><path d="M129.77,269.33h4.67a.24.24,0,0,1,.26.22v0h0v3.64a.24.24,0,0,1-.24.26h-4.69a.27.27,0,0,1-.27-.26v-3.64A.26.26,0,0,1,129.77,269.33Z" fill="#fff"/><path d="M126.9,253.73h-1.3v-.52a2.26,2.26,0,0,0,0-.52h1.34a5.71,5.71,0,0,1,5.72,5.69h0v9.88h-1v-9.88a4.69,4.69,0,0,0-4.68-4.68Z" fill="#fff"/><path d="M248.87,203.84a2.85,2.85,0,1,0,2.84,2.84h0A2.84,2.84,0,0,0,248.87,203.84Zm0,3.93a1.1,1.1,0,1,1,1.1-1.09h0a1.07,1.07,0,0,1-1.06,1.09h0Zm4.07-10.05a4.86,4.86,0,1,0-4.85-4.87h0A4.86,4.86,0,0,0,253,197.7Zm-2.25-4.88,2.82-3.27a.25.25,0,0,1,.31-.07.22.22,0,0,1,.08.26l-.72,2.6,1.86.12a.24.24,0,0,1,.22.24h0a.31.31,0,0,1-.06.13l-2.83,3.27a.2.2,0,0,1-.29.06.22.22,0,0,1-.09-.26l.73-2.64-1.87-.12a.22.22,0,0,1-.2-.24.13.13,0,0,1,0-.12Zm9.33.87a10.93,10.93,0,0,0-1.51.09,4.76,4.76,0,0,1-.56,1.68,9.83,9.83,0,0,1,1.07-.15v4.87h-7.43a10.75,10.75,0,0,1,1.17-1.68,5.36,5.36,0,0,1-1.73-.33,11.37,11.37,0,0,0-1.11,1.79l-.1.21h-2.41a4.87,4.87,0,0,0-4.66,3.46h1a.41.41,0,0,1,.4.4.4.4,0,0,1-.4.39h-1.18a3.28,3.28,0,0,1,0,.63v1.32a.31.31,0,0,0,.31.31h2.39a3.63,3.63,0,1,1,7.26,0h6.07a3.63,3.63,0,0,1,7.26,0h1.23a1.49,1.49,0,0,0,1.48-1.47h0v-3a8.51,8.51,0,0,0-8.51-8.48Zm-1.53,8.46h-1.06a.4.4,0,0,1-.34-.45.41.41,0,0,1,.34-.34h1.06a.39.39,0,0,1,.33.46A.38.38,0,0,1,258.49,202.17Zm6.37-2h-4.6v-4.92a7,7,0,0,1,5.87,3.65Zm-2.66,3.66A2.84,2.84,0,1,0,265,206.7h0a2.84,2.84,0,0,0-2.81-2.86h0Zm0,3.93a1.1,1.1,0,1,1,1.08-1.11h0a1.08,1.08,0,0,1-1.08,1.08Z" fill="#fff"/><path d="M124.12,45h-3.71v1.87H116.7v1.85h11.14V46.91h-3.72Z" fill="#fff"/><path d="M109.27,40.43a2.78,2.78,0,0,0,2.78,2.78h20.44a2.78,2.78,0,0,0,2.77-2.78v-1h-26Z" fill="#fff"/><path d="M132.49,24.62H112.05a2.8,2.8,0,0,0-2.79,2.81h0V37.62h26V27.43a2.78,2.78,0,0,0-2.77-2.81Z" fill="#fff"/><path d="M63.93,55.13v.11l1.58,14.24a3.72,3.72,0,0,0,3.7,3.3H80.92a3.73,3.73,0,0,0,3.72-3.3l1.57-14.24v-.11Zm16.7,4.65v2.78a5.58,5.58,0,0,1-11.15,0V59.78a.93.93,0,0,1,0-1.85h1.86a.92.92,0,0,1,.93.92.93.93,0,0,1-.93.93h0v2.78a3.72,3.72,0,1,0,7.43,0V59.78a.93.93,0,0,1,0-1.85h1.86a.91.91,0,0,1,.92.92A.93.93,0,0,1,80.63,59.78Z" fill="#fff"/><path d="M75.53,53.28l3-6.07a.47.47,0,0,1,.6-.19l5.63,2.42a.47.47,0,0,1,.26.62h0l-1.59,3.27Z" fill="#fff"/><path d="M66.8,53.28c.32-3.72,1.5-6.5,3.62-6.5s3.31,2.78,3.63,6.5Z" fill="#fff"/><path d="M180.71,261.35a2.33,2.33,0,0,0,0-3.28h0l-5.25-5.25a2.32,2.32,0,0,0-3.28,0h0l-5.27,5.24a2.4,2.4,0,0,0,.06,3.39h0l.26.22c1.08,1.09,3.89,3.87,4.94,4.93a2.34,2.34,0,0,0,3.29,0Zm-5.44-.49a.47.47,0,0,1-.35.32l-3.38.67a.47.47,0,0,1-.55-.35h0a.45.45,0,0,1,.35-.54h0l2.53-.51L172.45,259a.46.46,0,0,1,0-.65h0a.46.46,0,0,1,.24-.12l3.37-.69a.49.49,0,0,1,.56.37.47.47,0,0,1-.37.54l-2.53.51,1.42,1.41a.49.49,0,0,1,.12.46Z" fill="#fff"/><path d="M166.57,262.34,164.92,264a.47.47,0,0,0,0,.66h0l.33.33-1.65,1.65a.48.48,0,0,0,0,.65h0a.48.48,0,0,0,.65,0l1.65-1.64,2,2-1.65,1.64a.47.47,0,0,0,.06.66.48.48,0,0,0,.6,0h0l1.64-1.65.33.33a.47.47,0,0,0,.66,0h0l1.64-1.64C170.9,266.63,167,262.75,166.57,262.34Z" fill="#fff"/><path d="M187.94,259.37c4.8-5.19-2.79-12.07-7.56-6.93a1.46,1.46,0,0,0-2-.26l-.11.1-1,1,3,3,1-1a1.43,1.43,0,0,0,0-2h0l-.12-.11.34-.34a4.18,4.18,0,0,1,5.91,5.92l-11.84,11.83a3.25,3.25,0,0,0,4.6,4.6l6.58-6.57a.49.49,0,0,0,0-.66.46.46,0,0,0-.65,0l-6.62,6.63a2.33,2.33,0,0,1-3.29-3.3Z" fill="#fff"/><g id="Layer_1-2" data-name="Layer 1-2"><path d="M24.11,138.08l6.78,9.84h.92l-7.07-10.27a.38.38,0,1,0-.63.43Z" fill="#fff" fill-rule="evenodd"/><path d="M28.94,145.88c0-.28-.33-.44-.5-.52a2.36,2.36,0,0,0-.87-.17H27.2a2.38,2.38,0,0,0-1.2.45.76.76,0,0,0-.36.62c.06.47.86.78,1.73.67a2.55,2.55,0,0,0,1.19-.45A.75.75,0,0,0,28.94,145.88Z" fill="#fff" fill-rule="evenodd"/><path d="M27,143.09c0-.18-.17-.35-.45-.46a1.79,1.79,0,0,0-.79-.15h-.34c-.87.1-1.45.59-1.4,1s.71.71,1.59.59a2.13,2.13,0,0,0,1.07-.4.59.59,0,0,0,.32-.55Z" fill="#fff" fill-rule="evenodd"/><path d="M29.8,139.5a.41.41,0,0,0-.19,0,1.64,1.64,0,0,0-1.21,1,2.16,2.16,0,0,0-.28,1.11.53.53,0,0,0,.41.64.55.55,0,0,0,.49-.15,2.54,2.54,0,0,0,.76-.87C30.19,140.41,30.12,139.67,29.8,139.5Z" fill="#fff" fill-rule="evenodd"/><path d="M25.17,140.41c0-.27-.48-.51-1.08-.51h-.28c-.76.09-1.26.5-1.21.8a.52.52,0,0,0,.39.39,1.89,1.89,0,0,0,1,.11,1.83,1.83,0,0,0,.93-.35A.58.58,0,0,0,25.17,140.41Z" fill="#fff" fill-rule="evenodd"/><path d="M31.86,142a.43.43,0,0,0-.22-.06,1.87,1.87,0,0,0-1.32,1.15c-.43.79-.43,1.66,0,1.88a.81.81,0,0,0,.72-.11,2.57,2.57,0,0,0,.86-1c.42-.78.43-1.66,0-1.88Z" fill="#fff" fill-rule="evenodd"/><path d="M27.77,137.19a.58.58,0,0,0-.54.09,2.07,2.07,0,0,0-.66.75c-.35.66-.3,1.3,0,1.44h0c.28.15.87-.16,1.2-.86S28,137.33,27.77,137.19Z" fill="#fff" fill-rule="evenodd"/><path d="M34.65,147.92l6.77-9.84a.4.4,0,0,0-.1-.53.38.38,0,0,0-.52.08v0l-7.07,10.27Z" fill="#fff" fill-rule="evenodd"/><path d="M34.39,142.11a1.07,1.07,0,0,0-.51-.17.43.43,0,0,0-.22.06.76.76,0,0,0-.31.65,2.78,2.78,0,0,0,.32,1.23,2.56,2.56,0,0,0,.87,1,.6.6,0,0,0,.85,0h0a.57.57,0,0,0,.18-.56,2.69,2.69,0,0,0-1.19-2.18Z" fill="#fff" fill-rule="evenodd"/><path d="M36.36,139.62a.86.86,0,0,0-.44-.15h-.19c-.33.18-.4.87,0,1.74a2.42,2.42,0,0,0,.76.86.54.54,0,0,0,.76,0,.52.52,0,0,0,.15-.49A2.41,2.41,0,0,0,36.36,139.62Z" fill="#fff" fill-rule="evenodd"/><path d="M41.5,143.46a.69.69,0,0,0-.33-.55,2.49,2.49,0,0,0-1.42-.42,1.79,1.79,0,0,0-.79.15c-.27.11-.44.27-.46.46h0c0,.36.52.86,1.41,1a2.18,2.18,0,0,0,1.13-.12.7.7,0,0,0,.46-.47Z" fill="#fff" fill-rule="evenodd"/><path d="M39,138a1.44,1.44,0,0,0-1-.87.2.2,0,0,0-.15,0c-.28.15-.33.78,0,1.46s.91,1,1.18.86S39.33,138.69,39,138Z" fill="#fff" fill-rule="evenodd"/><path d="M39.9,146.28a.87.87,0,0,0-.36-.62,2.43,2.43,0,0,0-1.19-.44c-.87-.11-1.73.2-1.73.66h0c-.06.47.66,1,1.54,1.07s1.73-.2,1.73-.67Z" fill="#fff" fill-rule="evenodd"/><path d="M42.92,140.72a.53.53,0,0,0-.28-.46,1.91,1.91,0,0,0-.92-.34c-.75-.1-1.33.18-1.36.49h0a.53.53,0,0,0,.28.46,1.76,1.76,0,0,0,.91.35,2.07,2.07,0,0,0,1-.11.54.54,0,0,0,.38-.39Z" fill="#fff" fill-rule="evenodd"/><path d="M24.64,148.4H40.89v3H24.64Z" fill="#fff" fill-rule="evenodd"/><path d="M41.36,156.45a8.2,8.2,0,0,0-.72-3.35H24.9a8,8,0,0,0-.73,3.35,8.27,8.27,0,0,0,3.47,6.7H37.9A8.29,8.29,0,0,0,41.36,156.45Z" fill="#fff" fill-rule="evenodd"/><path d="M40.22,152.29v-.06c-.08-.11-.14-.23-.22-.33H25.57c-.08.1-.14.22-.21.32a.11.11,0,0,0,0,.08,1.29,1.29,0,0,0-.19.32v0H40.39c0-.11-.11-.21-.17-.32Z" fill="#fff" fill-rule="evenodd"/></g><path d="M38.79,192.22a4,4,0,0,1-.43-1.58l-.25-4.3,1.72-.53.92,1.36a4.51,4.51,0,0,0,3.64,1.9,4.37,4.37,0,0,0,3.64-2l.93-1.34,1.71.53-.25,4.3a4,4,0,0,1-.42,1.59l-1.19,2.07H40Zm1.07,2.95h9c1,.85,8.28,7.33,8.49,16.6h-26C31.6,202.5,38.87,196,39.86,195.17Z" fill="#fff"/><path d="M38.43,100.72c-.87-2.12-.68-4.48.49-5.79,1-1.12,2.52-1.4,4.54-.93a6.11,6.11,0,0,0,0,1.48,2.07,2.07,0,0,1-.87-.28.36.36,0,0,0-.5.11.37.37,0,0,0,.09.51,3.24,3.24,0,0,0,1.66.43H44a3.58,3.58,0,0,0,1.84-.44A.38.38,0,0,0,46,95.3a.36.36,0,0,0-.5-.11,2.7,2.7,0,0,1-1.3.33,6.37,6.37,0,0,1,0-1.38h0c2.16-.68,3.87-.45,5,.66a5.6,5.6,0,0,1,.79,5.38l-4.65,2.68A2.62,2.62,0,0,0,42,101.12h0a2.6,2.6,0,0,0-1.07.66,2.6,2.6,0,0,0-2.14-1.13h-.31Zm5.31-8.25h.1a6.34,6.34,0,0,0-.26.81l.5.13.25-.07a5.52,5.52,0,0,1,4.13-3.88.35.35,0,0,0,.27-.42h0a.38.38,0,0,0-.44-.27h0a6.5,6.5,0,0,0-3.88,2.61,3.78,3.78,0,0,0-1.08-2.32A3.84,3.84,0,0,0,40.25,88a.33.33,0,0,0-.31.31,3.74,3.74,0,0,0,3.3,4.14h0a2.09,2.09,0,0,0,.5,0Zm8.19,14.64a6.69,6.69,0,0,1-3.24.87,2.59,2.59,0,0,0-1.46-1.18v-.16a2.61,2.61,0,0,0-1.94-2.51,2.76,2.76,0,0,0,.07-.49l5-2.91h0l4.12-2.38a6.64,6.64,0,0,1-2.61,8.74Zm.65-5.74a.37.37,0,0,0,.37.37h1.18a.39.39,0,0,0,.33-.4h0a.37.37,0,0,0-.37-.36H53a.36.36,0,0,0-.37.36Zm-.4,2.49,1,.59a.35.35,0,0,0,.18,0,.37.37,0,0,0,.37-.36h0a.37.37,0,0,0-.19-.33l-1-.59a.37.37,0,0,0-.51.14.35.35,0,0,0,.1.48h0ZM49,105.69a.38.38,0,0,0-.37-.37.35.35,0,0,0-.36.33v0h0v1.17a.34.34,0,0,0,.33.37h0a.36.36,0,0,0,.36-.37Zm2.7.25-.59-1a.35.35,0,0,0-.47-.15h0a.35.35,0,0,0-.14.49h0l.59,1a.38.38,0,0,0,.32.18.31.31,0,0,0,.19,0,.36.36,0,0,0,.14-.5h0Zm4.72-8.69L55.16,98a7.36,7.36,0,0,1-2.87,9.74,7.46,7.46,0,0,1-3.32,1,2.51,2.51,0,0,1,.06.55,2.35,2.35,0,0,1-.16.87A8.73,8.73,0,0,0,56.36,97.3Zm-9.95,10.18a1.81,1.81,0,0,0-1.52.8,2.6,2.6,0,0,1,.33,1.28,2.52,2.52,0,0,1-.19,1,1.84,1.84,0,1,0,1.38-3.06Zm0-.73h0a1.86,1.86,0,0,0-1.8-1.88,1.82,1.82,0,0,0-1.61.87,2.7,2.7,0,0,1,.07.63,2.81,2.81,0,0,1-.07.65,2.64,2.64,0,0,1,1.37.67,2.63,2.63,0,0,1,2-.94Zm-3.72,1a2.63,2.63,0,0,1-1.81,1.2,1.73,1.73,0,0,0-.12.64,1.85,1.85,0,1,0,1.93-1.84Zm0-6a1.84,1.84,0,0,0-1.85,1.83h0a.81.81,0,0,0,0,.22,2.64,2.64,0,0,1,1.79,1.14,2.6,2.6,0,0,1,1.81-.86,1.89,1.89,0,0,0,.08-.53,1.86,1.86,0,0,0-1.82-1.8Zm-4.26,3.05a2.56,2.56,0,0,1,1.69-1v-.22a2.41,2.41,0,0,1,.22-1,1.87,1.87,0,0,0-1.69-1.1,1.74,1.74,0,0,0-.45.06h0A1.84,1.84,0,0,0,37,103.72h0a1.4,1.4,0,0,0,.13.36,2.49,2.49,0,0,1,1.43.68Zm3.9,1.55a1.85,1.85,0,0,0-3.7,0,1.85,1.85,0,0,0,3.69,0v0h0Zm-2.24,2.56a2.6,2.6,0,0,1-1.61-.94,1.84,1.84,0,1,0,.82,3.59h0a1.73,1.73,0,0,0,1-.69,2.51,2.51,0,0,1-.36-1.31A2.28,2.28,0,0,1,40.18,108.87Zm-2-1.59a2.69,2.69,0,0,1-.18-1,2.89,2.89,0,0,1,.15-.87,1.83,1.83,0,0,0-1.4-.65,1.85,1.85,0,0,0,0,3.69h0a2.6,2.6,0,0,1,1.44-1.19ZM35.35,104a2.79,2.79,0,0,0,.43.34,2.51,2.51,0,0,1,.55-.17,2.75,2.75,0,0,1-.11-.41h0c-1.36-.87-1.83-2.49-2.13-4.09a.38.38,0,0,0-.42-.3.37.37,0,0,0-.3.42h0a9.77,9.77,0,0,0,.87,2.83,2.6,2.6,0,0,0-2.83,1.57.34.34,0,0,0,.13.46,2.74,2.74,0,0,0,1.61.52A2.62,2.62,0,0,0,35.35,104Z" fill="#fff"/><path d="M74.25,235a4.26,4.26,0,1,0,4.27,4.26h0A4.27,4.27,0,0,0,74.25,235Zm1.57,4.61-1.5,2.15a.59.59,0,0,1-.49.26.61.61,0,0,1-.62-.6.63.63,0,0,1,.12-.37h0l.81-1.14h-1a.61.61,0,0,1-.54-.32.6.6,0,0,1,0-.63l1.5-2.2a.61.61,0,0,1,.83-.18l0,0a.61.61,0,0,1,.16.85h0l-.86,1.2h1a.64.64,0,0,1,.54,1Z" fill="#fff"/><path d="M74.25,230.37a8.88,8.88,0,1,0,8.85,8.89h0A8.87,8.87,0,0,0,74.25,230.37Zm0,14.36a5.49,5.49,0,1,1,5.46-5.51h0A5.49,5.49,0,0,1,74.25,244.73Z" fill="#fff"/><path d="M78.72,230.18a10.15,10.15,0,0,0-9,0l.34-2a2.25,2.25,0,0,1,2.24-1.9h3.8a2.24,2.24,0,0,1,2.24,1.9Z" fill="#fff"/><path d="M78.72,248.32l-.34,2a2.24,2.24,0,0,1-2.24,1.9h-3.8a2.25,2.25,0,0,1-2.24-1.9l-.29-2A10.11,10.11,0,0,0,78.72,248.32Z" fill="#fff"/><path d="M84.15,239.9H82.49a.61.61,0,0,1-.62-.61.62.62,0,0,1,.62-.62h1.66a.62.62,0,1,1,0,1.23Z" fill="#fff"/><path d="M267.8,150.08l.28,1.94,1.73-3.23h-1.5a.33.33,0,0,1-.31-.26l-.28-1.95L266,149.82h1.53A.32.32,0,0,1,267.8,150.08Z" fill="#fff"/><path d="M267.87,154.52a5.2,5.2,0,1,0-5.2-5.2A5.19,5.19,0,0,0,267.87,154.52ZM265.14,150l2.46-4.5a.31.31,0,0,1,.41-.13h0a.34.34,0,0,1,.15.22l.37,2.6h1.77a.3.3,0,0,1,.31.3.19.19,0,0,1,0,.15l-2.46,4.5a.3.3,0,0,1-.41.13h0a.38.38,0,0,1-.16-.23l-.37-2.6h-1.78a.29.29,0,0,1-.31-.27v0h0a.38.38,0,0,1,0-.15Z" fill="#fff"/><path d="M256.13,145.62h.41v-3.28h-.41a.87.87,0,0,0-.81.87v1.63A.87.87,0,0,0,256.13,145.62Z" fill="#fff"/><path d="M267.39,138.15a1,1,0,0,0-1-1H264a.3.3,0,0,0-.3.3h0v1.44a.3.3,0,0,0,.3.3h2.36a1,1,0,0,0,1-1Z" fill="#fff"/><circle cx="256.85" cy="160.35" r="0.51" fill="#fff"/><path d="M254.09,160.35a2.77,2.77,0,1,0,2.78-2.76h0a2.75,2.75,0,0,0-2.75,2.75Zm1.64,0a1.13,1.13,0,1,1,1.13,1.12h0a1.11,1.11,0,0,1-1.09-1.12Z" fill="#fff"/><path d="M273.11,156.77H261.18a5.65,5.65,0,0,1,1.18,2.45h9.53A5.46,5.46,0,0,1,273.11,156.77Z" fill="#fff"/><path d="M279,156.05a.61.61,0,0,0-.61-.61h-1a4.9,4.9,0,0,0-4.77,3.78h1.27a3.66,3.66,0,0,1,3.46-2.55h1a.61.61,0,0,0,.66-.55v0S279,156.07,279,156.05Z" fill="#fff"/><circle cx="277.31" cy="160.35" r="0.51" fill="#fff"/><path d="M274.55,160.35a2.76,2.76,0,1,0,2.76-2.76,2.76,2.76,0,0,0-2.76,2.76Zm1.64,0a1.13,1.13,0,1,1,2.25,0,1.12,1.12,0,0,1-1.12,1.12h0A1.12,1.12,0,0,1,276.19,160.35Z" fill="#fff"/><path d="M258.22,145.52l.48-2.79a1.55,1.55,0,0,0-1-.39h-.52v3.28h.52A2.13,2.13,0,0,0,258.22,145.52Z" fill="#fff"/><path d="M262,138.76h1.13v-1.22H262a2,2,0,0,0-2,1.68l-2,11.59,1.2.21,2-11.58A.82.82,0,0,1,262,138.76Z" fill="#fff"/><path d="M259.15,157.89a3.28,3.28,0,0,1,1.07,2.46v.82h0a.32.32,0,0,0,.31.3h13.6a3.23,3.23,0,0,1-.16-1.63H262.1a.31.31,0,0,1-.3-.26,5,5,0,0,0-2.33-3.47Z" fill="#fff"/><path d="M257.15,151.61l-1,5.43a3.36,3.36,0,0,1,2.42.43l1-5.44a.32.32,0,0,0-.25-.35l-1.82-.31a.29.29,0,0,0-.34.23Z" fill="#fff"/><g id="Electric_Truck" data-name="Electric Truck"><path d="M228.54,234v1.22l1.41-1.88-1.2-.6a.39.39,0,0,1-.21-.37v-1.22L227.12,233l1.19.6A.45.45,0,0,1,228.54,234Z" fill="#fff"/><path d="M228.54,238.44a5.28,5.28,0,1,0-5.3-5.28h0a5.27,5.27,0,0,0,5.27,5.27Zm-2.36-5.51,2.43-3.25a.4.4,0,0,1,.73.24v2.18l1.4.7a.43.43,0,0,1,.21.27.35.35,0,0,1-.07.34l-2.41,3.25a.42.42,0,0,1-.32.16.28.28,0,0,1-.13,0,.38.38,0,0,1-.28-.38v-2.21l-1.4-.7a.36.36,0,0,1-.21-.27.33.33,0,0,1,0-.33Z" fill="#fff"/><circle cx="232.17" cy="248.59" r="2.03" fill="#fff"/><circle cx="227.31" cy="248.59" r="2.03" fill="#fff"/><circle cx="215.53" cy="248.59" r="2.03" fill="#fff"/><path d="M236.65,244.13H235v-2.44h1.64Z" fill="#fff"/><path d="M234.62,240.9h2v-8.53a.42.42,0,0,0-.41-.41h-1.73a6.38,6.38,0,0,1,.12,1.22,6.09,6.09,0,1,1-12.18,0,5.61,5.61,0,0,1,.12-1.22h-1.73a.41.41,0,0,0-.41.41h0v10.56h13.8V241.3A.41.41,0,0,1,234.62,240.9Z" fill="#fff"/><path d="M213.51,244.12h-2.84v.82h1.61a.41.41,0,1,1,0,.81h-1.61v.82h2.88a2.83,2.83,0,0,1,4,0h7.79a2.84,2.84,0,0,1,4,0h.87a2.82,2.82,0,0,1,4,0h2.48v-1.63h-2a.4.4,0,0,1-.4-.41h0v-.8H220.41v2h-.81v-11a.42.42,0,0,0-.42-.41h-5.44a1.23,1.23,0,0,0-1.18.87l-.19.73h4.84a.42.42,0,0,1,.4.41h0v5.68a.41.41,0,0,1-.36.41l-3,.37-.32,1A.39.39,0,0,1,213.51,244.12Z" fill="#fff"/><path d="M210.67,242.1v1.22h2.55l.31-.95a.39.39,0,0,1,.33-.26l2.9-.37v-4.92h-4.64l-1.43,5.2A.11.11,0,0,0,210.67,242.1Z" fill="#fff"/><path d="M234.75,247.38a2.91,2.91,0,0,1,.15,2h1.36a.43.43,0,0,0,.41-.41h0v-1.62Z" fill="#fff"/><path d="M218.07,247.37a3.06,3.06,0,0,1,.28,1.22,2.86,2.86,0,0,1-.12.82h6.32a2.93,2.93,0,0,1,.17-2Z" fill="#fff"/><path d="M213,247.37h-2.3V249a.41.41,0,0,0,.41.41h1.73a2.3,2.3,0,0,1-.12-.82A2.73,2.73,0,0,1,213,247.37Z" fill="#fff"/></g><path d="M182,190H119.74a3.21,3.21,0,0,1-3.21-3.22v-.24l1.08-13,.45-5.24,3.76-44.6a3.21,3.21,0,0,1,3.16-2.92h51.78a3.21,3.21,0,0,1,3.16,2.92l2.18,25.66.39,5,2.72,32.15a3.22,3.22,0,0,1-3,3.46Z" fill="#fff"/><path d="M163.8,130.68H137.93v-8.56a13,13,0,0,1,25.87,0Zm-23.34-2.52h20.81v-6a10.43,10.43,0,0,0-20.81,0Z" fill="#fff"/><path d="M150.89,129.94a19.54,19.54,0,0,0-19.53,19.53c0,13.25,19.53,31.4,19.53,31.4s19.53-18.15,19.53-31.4A19.54,19.54,0,0,0,150.89,129.94Z" fill="#02cd8d"/><path d="M182.86,156.08C177.39,161.1,162,171.29,150,175s-24.26,5.07-33,3.87l.35-4.47.1-1.19c8.5,1.49,19.94.54,32.56-3.33s24.16-9.94,32.61-16.66l.2,1.84Z" fill="#f45700"/><path d="M150.89,162.23a12.76,12.76,0,1,0-12.76-12.76A12.76,12.76,0,0,0,150.89,162.23Z" fill="#fff"/><path d="M182.49,154.42A105.79,105.79,0,0,1,150,170.09c-12.61,3.71-23.93,4.75-32.39,3.46l.45-5.24c8.2,1.63,19.48.79,31.94-2.87s23.88-9.59,32.09-16.07Z" fill="#02cd8d"/><path d="M192.43,131.86a9.37,9.37,0,0,1,.19,2c0,11.63-19.09,26.66-42.62,33.61s-42.62,3.08-42.62-8.54a9.84,9.84,0,0,1,.19-2,14.67,14.67,0,0,0-2.1,7c0,11.63,19.93,15.17,44.53,7.94s44.53-22.5,44.53-34.12A9.17,9.17,0,0,0,192.43,131.86Z" fill="#fff"/><path d="M148.33,155.67a.74.74,0,0,1-.7-.76.73.73,0,0,1,.7-.75h0a.76.76,0,0,1,0,1.51Zm5.19-.76a.73.73,0,0,0-.7-.75h0a.76.76,0,1,0,.71.75Zm-3-4.38a.45.45,0,0,1-.42-.46.44.44,0,0,1,.42-.45h4a.17.17,0,0,0,.16-.16l.34-2.2a1.19,1.19,0,0,0-1.1-1.43h-6.76l-.12-.84a1.57,1.57,0,0,0-1.53-1.43h-.14a.44.44,0,0,0-.42.46.43.43,0,0,0,.42.45h.14a.73.73,0,0,1,.7.66l.84,6.32a1.15,1.15,0,0,0,1.11,1h4.64c1.17,0,1.51-.63,1.65-1.49l0-.26s0-.22-.15-.22Z" fill="#02cd8d"/></svg>