<svg id="Layer_1" data-name="Layer 1" xmlns="http://www.w3.org/2000/svg" viewBox="0 0 300 300"><defs><style>.cls-1{fill:#f77f00;}.cls-2,.cls-3{fill:#fff;}.cls-3{fill-rule:evenodd;}</style></defs><circle class="cls-1" cx="150" cy="149.95" r="87.3"/><circle class="cls-1" cx="267.1" cy="150.05" r="21.9"/><circle class="cls-1" cx="122.3" cy="36.65" r="21.9"/><circle class="cls-1" cx="75.1" cy="239.05" r="21.9"/><circle class="cls-1" cx="255.51" cy="198.78" r="21.9"/><circle class="cls-1" cx="223.7" cy="239.15" r="21.9"/><circle class="cls-1" cx="176.5" cy="263.35" r="21.9"/><circle class="cls-1" cx="122.3" cy="263.35" r="21.9"/><circle class="cls-1" cx="44.4" cy="198.75" r="21.9"/><circle class="cls-1" cx="32.9" cy="150.05" r="21.9"/><circle class="cls-1" cx="44.4" cy="99.75" r="21.9"/><circle class="cls-1" cx="75.1" cy="59.65" r="21.9"/><circle class="cls-1" cx="176.5" cy="36.65" r="21.9"/><circle class="cls-1" cx="223.7" cy="59.75" r="21.9"/><circle class="cls-1" cx="255.4" cy="99.75" r="21.9"/><path class="cls-2" d="M116.8,160.05h-6.4l-10.8-16.3v16.3H93.2v-26.4h6.4l10.8,16.4v-16.4h6.4Z"/><path class="cls-2" d="M157.2,154.55v5.5h-3.3a8.41,8.41,0,0,1-5.5-1.7c-1.3-1.1-2-3-2-5.6v-8.4h-2.6v-5.3h2.6V134h6.4v5.1H157v5.3h-4.2v8.4a2,2,0,0,0,.5,1.4,2.08,2.08,0,0,0,1.5.4Z"/><path class="cls-2" d="M161.2,135.85a3.39,3.39,0,0,1,0-5,3.71,3.71,0,0,1,2.8-1,3.62,3.62,0,0,1,2.7,1,3.41,3.41,0,0,1,1.1,2.5,3.58,3.58,0,0,1-1.1,2.5,3.62,3.62,0,0,1-2.7,1A3.71,3.71,0,0,1,161.2,135.85Zm6,3.2v21h-6.4v-21Z"/><path class="cls-2" d="M182.4,144.35h-3.5v15.7h-6.4v-15.7h-2.3V139h2.3v-.6a7.55,7.55,0,0,1,2.2-5.9,9.71,9.71,0,0,1,6.5-2h1.1V136a3.77,3.77,0,0,0-2.6.5,2.89,2.89,0,0,0-.8,2.3v.2h3.5Z"/><path class="cls-2" d="M206.9,139.05l-13.2,31h-6.9l4.8-10.7-8.5-20.3h7.2l4.9,13.1,4.8-13.1Z"/><g id="Layer_3" data-name="Layer 3"><path class="cls-2" d="M140.7,157.45H125.9a.86.86,0,0,1-.8-.8c0-.2.1-.3.1-.5l.7-1.1v-5a7.34,7.34,0,0,1,7.3-7.3h0a7.34,7.34,0,0,1,7.3,7.3h0v4.8l.8,1.3a.89.89,0,0,1-.2,1.1.4.4,0,0,1-.4.2Z"/></g><g id="Layer_2" data-name="Layer 2"><path class="cls-2" d="M141.8,155.65l-.9-1.5v-5.9a9.84,9.84,0,0,0-7.2-9.4,2.51,2.51,0,0,0-2.8-2.3,2.56,2.56,0,0,0-2.3,2.3,9.84,9.84,0,0,0-7.2,9.4v6.1l-.8,1.2a1.61,1.61,0,0,0,1.3,2.5H128a2.57,2.57,0,0,0,2.5,2.1h1.4a2.57,2.57,0,0,0,2.5-2.1h6.2a1.5,1.5,0,0,0,1.5-1.6,6.89,6.89,0,0,0-.3-.8Zm-10.7-18.2a1.59,1.59,0,0,1,1.5,1.2,7.57,7.57,0,0,0-3,0A1.51,1.51,0,0,1,131.1,137.45Zm.7,21.6h-1.4a1.41,1.41,0,0,1-1.4-1h4.3A2,2,0,0,1,131.8,159.05Zm9.1-2.4a.55.55,0,0,1-.5.3H121.6a.47.47,0,0,1-.5-.5.37.37,0,0,1,.1-.3l.9-1.3a.37.37,0,0,0,.1-.3v-6.3a8.7,8.7,0,1,1,17.4,0v6.1a.37.37,0,0,0,.1.3l1,1.6C141,156.35,141,156.55,140.9,156.65Z"/></g><path class="cls-2" d="M189.3,45.05a.94.94,0,0,1,.1.9.75.75,0,0,1-.7.5h-7.1a5.51,5.51,0,0,1-5.1,3.2,5.68,5.68,0,0,1-5.1-3.2h-7.1a.75.75,0,0,1-.7-.5,1,1,0,0,1,.1-.9l1.8-2.3a5.78,5.78,0,0,0,1.2-3.6v-5.8a9.71,9.71,0,0,1,9.7-9.7,10.15,10.15,0,0,1,5.7,1.8,7.29,7.29,0,0,0,1.6,14.4,7,7,0,0,0,2.5-.5,6.1,6.1,0,0,0,1.2,3.4Zm-5.5-18.2a5.7,5.7,0,1,1-5.7,5.7A5.7,5.7,0,0,1,183.8,26.85Zm-2.6,6.7,1.2,1.2a.73.73,0,0,0,.6.2,1.42,1.42,0,0,0,.6-.2l2.8-2.8a.78.78,0,1,0-1.1-1.1l-2.3,2.3-.6-.6a.78.78,0,0,0-1.1,0C180.9,32.65,180.9,33.15,181.2,33.55Z"/><g id="phone_chat" data-name="phone chat"><path class="cls-2" d="M223.7,46.75a13,13,0,0,0-13,13,12.82,12.82,0,0,0,2.1,7.1l-2,4.7a1,1,0,0,0,.2,1,.86.86,0,0,0,.6.3.37.37,0,0,0,.3-.1l4.7-2a12.59,12.59,0,0,0,7.1,2.1,13,13,0,0,0,13-13A13.12,13.12,0,0,0,223.7,46.75Zm6.6,17.6a6.67,6.67,0,0,1-1.9,1.7c-2,.8-4.8,0-8-3.2s-4-6-3.2-8a6.67,6.67,0,0,1,1.7-1.9.93.93,0,0,1,1.3.1l1.6,1.6a.91.91,0,0,1,0,1.2l-1,1s-.4,1.2,2,3.6,3.6,2,3.6,2l1-1a.91.91,0,0,1,1.2,0l1.6,1.6A1,1,0,0,1,230.3,64.35Z"/></g><path class="cls-2" d="M264.58,90.55a13,13,0,0,0-20.83,15l-1.34,5.89a1.07,1.07,0,0,0,1.28,1.28l5.89-1.34a13,13,0,0,0,15-20.83ZM258.1,103H250a1.07,1.07,0,1,1,0-2.13h8.14a1.07,1.07,0,0,1,0,2.13Zm2.71-4.34H250a1.07,1.07,0,1,1,0-2.13h10.85a1.07,1.07,0,1,1,0,2.13Z"/><g id="Solid"><path class="cls-3" d="M280.1,144.75a4.34,4.34,0,0,0-4.33-4.33H258.43a4.34,4.34,0,0,0-4.33,4.33v10.4a4.34,4.34,0,0,0,4.33,4.33h17.34a4.34,4.34,0,0,0,4.33-4.33Zm-23-.19,7.26,6a4.34,4.34,0,0,0,5.52,0l7.29-6a.87.87,0,0,0-1.11-1.34l-7.29,6a2.6,2.6,0,0,1-3.31,0l-7.25-6a.87.87,0,0,0-1.11,1.34Z"/></g><g id="Layer_2-2" data-name="Layer 2"><path class="cls-2" d="M253.81,211.78a4.86,4.86,0,0,0,4.21-2.44h-8.43a4.87,4.87,0,0,0,4.22,2.44Z"/><path class="cls-2" d="M262.76,203.55a6.45,6.45,0,0,1-2.9-12.5,8.1,8.1,0,0,0-3.62-2.44v-.39a2.44,2.44,0,1,0-4.87,0v.37a8,8,0,0,0-3.14,1.82,8.14,8.14,0,0,0-2.57,5.93v4.39a5.23,5.23,0,0,1-1.15,3.26,2.3,2.3,0,0,0,1.8,3.73h14.95a2.29,2.29,0,0,0,2.29-2.3,2.24,2.24,0,0,0-.5-1.43A4.17,4.17,0,0,1,262.76,203.55Z"/><path class="cls-2" d="M261.93,192.33a4.83,4.83,0,1,0,4.83,4.83,4.83,4.83,0,0,0-4.83-4.83Zm1.63,5.64h-1.63a.81.81,0,0,1-.81-.81v-2.44a.81.81,0,0,1,1.62,0v1.62h.82a.82.82,0,0,1,0,1.63Z"/></g><g id="_01" data-name=" 01"><path class="cls-2" d="M235.44,227.14l-11.27,4.34V245l11.27,4.33a.92.92,0,0,0,1.2-.53,1,1,0,0,0,.06-.33V228a.93.93,0,0,0-.93-.93,1,1,0,0,0-.33.06Z"/><path class="cls-2" d="M222.77,231.72H217.2a6.5,6.5,0,0,0,0,13h.93v5.57a.93.93,0,0,0,.93.93h2.78a.92.92,0,0,0,.93-.93Z"/></g><g id="Layer_2-3" data-name="Layer 2"><path class="cls-2" d="M176.5,250.35a13,13,0,0,0-11.27,19.46l-1.69,5.36a.9.9,0,0,0,1.18,1.12l5-1.84a13,13,0,1,0,6.77-24.1Zm-1.21,7.56a1.21,1.21,0,1,1,2.42,0v6a1.21,1.21,0,0,1-2.42,0Zm1.21,11.18a1.51,1.51,0,1,1,1.51-1.51A1.5,1.5,0,0,1,176.5,269.09Z"/></g><path class="cls-2" d="M127.81,257.66a.77.77,0,0,0-.77.76v.08h-1.52v-1.6a3.23,3.23,0,1,0-6.45,0v1.6h-1.52v-.08a.76.76,0,0,0-1.52,0v2.2a6.26,6.26,0,0,0,5.5,6.22v1.62h-1.77a2.29,2.29,0,0,0-2.29,2.28v1.53a.76.76,0,0,0,.76.76h8.13a.76.76,0,0,0,.76-.76v-1.53a2.28,2.28,0,0,0-2.28-2.28h-1.78v-1.62a6.27,6.27,0,0,0,5.51-6.22v-2.2a.76.76,0,0,0-.76-.76Zm-10.26,3V260h1.52v.59a3.23,3.23,0,0,0,2.46,3.13v1.55a4.74,4.74,0,0,1-4-4.68Zm5.51,4.68v-1.55a3.23,3.23,0,0,0,2.46-3.13V260H127v.59A4.74,4.74,0,0,1,123.06,265.3Z"/><path class="cls-2" d="M113.93,254.88a.77.77,0,0,0-1,.45,9.92,9.92,0,0,0,0,6.85.75.75,0,0,0,.72.5.85.85,0,0,0,.26-.05.76.76,0,0,0,.45-1,8.47,8.47,0,0,1,0-5.79.77.77,0,0,0-.45-1Z"/><path class="cls-2" d="M111.06,253.83a.76.76,0,0,0-1,.46,13,13,0,0,0,0,8.94.74.74,0,0,0,1,.45.76.76,0,0,0,.46-1,11.47,11.47,0,0,1,0-7.89.77.77,0,0,0-.46-1Z"/><path class="cls-2" d="M134.51,254.29a.76.76,0,1,0-1.43.52,11.62,11.62,0,0,1,0,7.89.76.76,0,0,0,.45,1,.85.85,0,0,0,.26.05.77.77,0,0,0,.72-.5,13,13,0,0,0,0-8.94Z"/><path class="cls-2" d="M130.67,254.88a.77.77,0,0,0-.46,1,8.32,8.32,0,0,1,0,5.79.76.76,0,0,0,.46,1,.74.74,0,0,0,1-.45,9.92,9.92,0,0,0,0-6.85.76.76,0,0,0-1-.45Z"/><g id="chat-text-notification"><path class="cls-2" d="M86.55,233.91a4.72,4.72,0,0,1-1.59.18,5.12,5.12,0,0,1-4.81-4.8,5,5,0,0,1,.19-1.59.44.44,0,0,0-.24-.54,13,13,0,0,0-16.8,17.42,2.79,2.79,0,0,1,.09,2l-1.21,3.61a1.44,1.44,0,0,0,.9,1.83,1.35,1.35,0,0,0,.93,0l3.61-1.21a2.79,2.79,0,0,1,2,.09,13,13,0,0,0,17.42-16.81.45.45,0,0,0-.54-.23Zm-10,9.21H69.32a1.08,1.08,0,0,1,0-2.16h7.22a1.08,1.08,0,1,1,0,2.16Zm4.34-5.77H69.32a1.09,1.09,0,0,1,0-2.17H80.88a1.09,1.09,0,0,1,0,2.17ZM82.32,229a2.89,2.89,0,1,1,2.89,2.89A2.89,2.89,0,0,1,82.32,229Z"/></g><g id="surface1"><path class="cls-2" d="M42.82,185.84A13,13,0,0,0,32.29,203.5a12.8,12.8,0,0,0,2.21,3.7.67.67,0,0,1,0,.9l-2,2a1,1,0,0,0,.72,1.75H44.37l.56-.07h0a12.87,12.87,0,0,0,8.81-4,13,13,0,0,0-11-21.92Zm3.83,12.67a.63.63,0,0,1-.48.2.66.66,0,0,1-.44-.17l-1.46-1.36v4.68a.65.65,0,1,1-1.3,0v-4.68l-1.46,1.36a.65.65,0,0,1-.89-.95l2.56-2.38a.66.66,0,0,1,.89,0l2.55,2.38A.66.66,0,0,1,46.65,198.51Z"/></g><path class="cls-2" d="M33,137a13,13,0,0,0-13,13.05,12.16,12.16,0,0,0,1.91,6.72l-.91,5.12a.81.81,0,0,0,.4.9.94.94,0,0,0,1,.1l4.11-1.71a13,13,0,0,0,13-22.57A13.79,13.79,0,0,0,33,137ZM33,157a1,1,0,1,1,1-1A.95.95,0,0,1,33,157Zm2.2-5.82c-.6.6-1.2,1.2-1.2,1.81a1,1,0,0,1-2,0,4.58,4.58,0,0,1,1.81-3.22c.6-.6,1.2-1.2,1.2-1.8a2,2,0,1,0-4,0,1,1,0,0,1-2,0,4,4,0,1,1,8,0A4.55,4.55,0,0,1,35.16,151.2Z"/><path class="cls-3" d="M32.67,98.91l-.55,3.38a1.42,1.42,0,0,0,.48,1.31,1.44,1.44,0,0,0,1.38.26l3.24-1.1a8.23,8.23,0,1,0-4.55-3.85Zm7.88-3.31V91.82a.66.66,0,1,0-1.32,0v3.41L37,96.49a.66.66,0,0,0,.66,1.15l2.52-1.46h0a.78.78,0,0,0,.24-.24.72.72,0,0,0,.08-.32v0Z"/><path class="cls-3" d="M49.41,95.78a9.54,9.54,0,0,1-8.72,8.71,8.24,8.24,0,0,0,8.22,7.73,8.32,8.32,0,0,0,3-.55l3,1a1.42,1.42,0,0,0,1.86-1.57l-.52-3.24a8.24,8.24,0,0,0-6.76-12.08Z"/><path class="cls-2" d="M72.67,59.38a.32.32,0,0,0-.32.32v4.11a.32.32,0,0,0,.32.32h5.45a.32.32,0,0,0,.33-.32V59.7a.32.32,0,0,0-.33-.32Z"/><path class="cls-2" d="M76.74,57.43a.37.37,0,0,0,.36-.37,1.71,1.71,0,1,0-3.41,0,.37.37,0,0,0,.36.37Z"/><path class="cls-3" d="M75.4,72.47A12.72,12.72,0,1,0,63.63,64.6a1.54,1.54,0,0,1,.07,1l-1.52,5.19A1.4,1.4,0,0,0,64,72.51L68.56,71a1.48,1.48,0,0,1,1.13.1A12.71,12.71,0,0,0,75.4,72.47Zm-4-14.64a.78.78,0,0,0,.37-.62v-.15a3.66,3.66,0,1,1,7.31,0v.15a.78.78,0,0,0,.37.62,2.28,2.28,0,0,1,1,1.87v4.11a2.27,2.27,0,0,1-2.28,2.27H72.67a2.26,2.26,0,0,1-2.27-2.27V59.7A2.27,2.27,0,0,1,71.37,57.83Z"/><path class="cls-2" d="M131.49,27.45a13,13,0,0,0-20.16,16.16h0l-1.87,3.81a1.53,1.53,0,0,0,2,2l3.81-1.88a13,13,0,0,0,16.18-20.15ZM121.62,34a.77.77,0,0,1-1.53-.06l.07-1.66a4.55,4.55,0,0,0-.91,7.23.75.75,0,0,1,0,1.07.76.76,0,0,1-1.08,0,6.08,6.08,0,0,1,.89-9.46l-1.4-.54a.76.76,0,1,1,.55-1.42l3,1.16a.78.78,0,0,1,.49.74Zm5.28,8.75a.77.77,0,1,1-.55,1.43l-3-1.17a.76.76,0,0,1-.49-.73l.11-2.91a.76.76,0,0,1,.79-.73.77.77,0,0,1,.74.79l-.07,1.66a4.56,4.56,0,0,0,.91-7.23.76.76,0,0,1,0-1.08.77.77,0,0,1,1.08,0,6.07,6.07,0,0,1-.89,9.45Z"/></svg>