<svg id="Layer_1" data-name="Layer 1" xmlns="http://www.w3.org/2000/svg" viewBox="0 0 300 300"><defs><style>.cls-1{fill:#5d3fd3;}.cls-2,.cls-3{fill:#fff;}.cls-3{fill-rule:evenodd;}</style></defs><circle class="cls-1" cx="150" cy="150" r="87.3"/><circle class="cls-1" cx="267.1" cy="150.1" r="21.9"/><circle class="cls-1" cx="122.3" cy="36.7" r="21.9"/><circle class="cls-1" cx="75.1" cy="239.1" r="21.9"/><circle class="cls-1" cx="255.5" cy="198.8" r="21.9"/><circle class="cls-1" cx="223.7" cy="239.2" r="21.9"/><circle class="cls-1" cx="176.5" cy="263.4" r="21.9"/><circle class="cls-1" cx="122.3" cy="263.4" r="21.9"/><circle class="cls-1" cx="44.4" cy="198.8" r="21.9"/><circle class="cls-1" cx="32.9" cy="150.1" r="21.9"/><circle class="cls-1" cx="44.4" cy="99.8" r="21.9"/><circle class="cls-1" cx="75.1" cy="59.7" r="21.9"/><circle class="cls-1" cx="176.5" cy="36.7" r="21.9"/><circle class="cls-1" cx="223.7" cy="59.8" r="21.9"/><circle class="cls-1" cx="255.4" cy="99.8" r="21.9"/><path class="cls-2" d="M116.8,160.1h-6.4L99.6,143.8v16.3H93.2V133.7h6.4l10.8,16.4V133.7h6.4Z"/><path class="cls-2" d="M157.2,154.6v5.5h-3.3a8.41,8.41,0,0,1-5.5-1.7c-1.3-1.1-2-3-2-5.6v-8.4h-2.6v-5.3h2.6V134h6.4v5.1H157v5.3h-4.2v8.4a2,2,0,0,0,.5,1.4,2.08,2.08,0,0,0,1.5.4Z"/><path class="cls-2" d="M161.2,135.9a3.39,3.39,0,0,1,0-5,3.71,3.71,0,0,1,2.8-1,3.62,3.62,0,0,1,2.7,1,3.41,3.41,0,0,1,1.1,2.5,3.58,3.58,0,0,1-1.1,2.5,3.62,3.62,0,0,1-2.7,1A3.71,3.71,0,0,1,161.2,135.9Zm6,3.2v21h-6.4v-21Z"/><path class="cls-2" d="M182.4,144.4h-3.5v15.7h-6.4V144.4h-2.3V139h2.3v-.6a7.55,7.55,0,0,1,2.2-5.9,9.71,9.71,0,0,1,6.5-2h1.1V136a3.77,3.77,0,0,0-2.6.5,2.89,2.89,0,0,0-.8,2.3v.2h3.5Z"/><path class="cls-2" d="M206.9,139.1l-13.2,31h-6.9l4.8-10.7-8.5-20.3h7.2l4.9,13.1,4.8-13.1Z"/><g id="Layer_3" data-name="Layer 3"><path class="cls-2" d="M140.7,157.5H125.9a.86.86,0,0,1-.8-.8c0-.2.1-.3.1-.5l.7-1.1v-5a7.34,7.34,0,0,1,7.3-7.3h0a7.34,7.34,0,0,1,7.3,7.3h0v4.8l.8,1.3a.89.89,0,0,1-.2,1.1.4.4,0,0,1-.4.2Z"/></g><g id="Layer_2" data-name="Layer 2"><path class="cls-2" d="M141.8,155.7l-.9-1.5v-5.9a9.84,9.84,0,0,0-7.2-9.4,2.51,2.51,0,0,0-2.8-2.3,2.56,2.56,0,0,0-2.3,2.3,9.84,9.84,0,0,0-7.2,9.4v6.1l-.8,1.2a1.61,1.61,0,0,0,1.3,2.5H128a2.57,2.57,0,0,0,2.5,2.1h1.4a2.57,2.57,0,0,0,2.5-2.1h6.2a1.5,1.5,0,0,0,1.5-1.6,6.89,6.89,0,0,0-.3-.8Zm-10.7-18.2a1.59,1.59,0,0,1,1.5,1.2,7.58,7.58,0,0,0-3,0A1.51,1.51,0,0,1,131.1,137.5Zm.7,21.6h-1.4a1.41,1.41,0,0,1-1.4-1h4.3A2,2,0,0,1,131.8,159.1Zm9.1-2.4a.55.55,0,0,1-.5.3H121.6a.47.47,0,0,1-.5-.5.37.37,0,0,1,.1-.3l.9-1.3a.37.37,0,0,0,.1-.3v-6.3a8.7,8.7,0,1,1,17.4,0v6.1a.37.37,0,0,0,.1.3l1,1.6C141,156.4,141,156.6,140.9,156.7Z"/></g><path class="cls-2" d="M189.3,45.1a.94.94,0,0,1,.1.9.75.75,0,0,1-.7.5h-7.1a5.51,5.51,0,0,1-5.1,3.2,5.68,5.68,0,0,1-5.1-3.2h-7.1a.75.75,0,0,1-.7-.5,1,1,0,0,1,.1-.9l1.8-2.3a5.78,5.78,0,0,0,1.2-3.6V33.4a9.71,9.71,0,0,1,9.7-9.7,10.15,10.15,0,0,1,5.7,1.8,7.29,7.29,0,0,0,1.6,14.4,7,7,0,0,0,2.5-.5,6.1,6.1,0,0,0,1.2,3.4Zm-5.5-18.2a5.7,5.7,0,1,1-5.7,5.7A5.7,5.7,0,0,1,183.8,26.9Zm-2.6,6.7,1.2,1.2a.73.73,0,0,0,.6.2,1.42,1.42,0,0,0,.6-.2l2.8-2.8a.78.78,0,1,0-1.1-1.1L183,33.2l-.6-.6a.78.78,0,0,0-1.1,0C180.9,32.7,180.9,33.2,181.2,33.6Z"/><g id="phone_chat" data-name="phone chat"><path class="cls-2" d="M223.7,46.8a13,13,0,0,0-13,13,12.82,12.82,0,0,0,2.1,7.1l-2,4.7a1,1,0,0,0,.2,1,.86.86,0,0,0,.6.3.37.37,0,0,0,.3-.1l4.7-2a12.59,12.59,0,0,0,7.1,2.1,13,13,0,0,0,13-13A13.12,13.12,0,0,0,223.7,46.8Zm6.6,17.6a6.67,6.67,0,0,1-1.9,1.7c-2,.8-4.8,0-8-3.2s-4-6-3.2-8a6.67,6.67,0,0,1,1.7-1.9.93.93,0,0,1,1.3.1l1.6,1.6a.91.91,0,0,1,0,1.2l-1,1s-.4,1.2,2,3.6,3.6,2,3.6,2l1-1a.91.91,0,0,1,1.2,0l1.6,1.6A1,1,0,0,1,230.3,64.4Z"/></g><path class="cls-2" d="M264.6,90.6a13,13,0,0,0-18.4,0,12.85,12.85,0,0,0-2.4,15l-1.3,5.9a1.06,1.06,0,0,0,1.3,1.3l5.9-1.3a13,13,0,0,0,18.8-11.6,13.6,13.6,0,0,0-3.9-9.3ZM258.1,103H250a1.1,1.1,0,1,1,0-2.2h8.1a1.1,1.1,0,1,1,0,2.2Zm2.7-4.4H250a1.1,1.1,0,0,1,0-2.2h10.8a1.1,1.1,0,0,1,0,2.2Z"/><g id="Solid"><path class="cls-3" d="M280.1,144.8a4.57,4.57,0,0,0-1.3-3.1,4.39,4.39,0,0,0-3.1-1.3H258.4a4.57,4.57,0,0,0-3.1,1.3,4.39,4.39,0,0,0-1.3,3.1v10.4a4.57,4.57,0,0,0,1.3,3.1,4.39,4.39,0,0,0,3.1,1.3h17.3a4.57,4.57,0,0,0,3.1-1.3,4.39,4.39,0,0,0,1.3-3.1Zm-23-.2,7.3,6a4.37,4.37,0,0,0,5.5,0l7.3-6a.85.85,0,1,0-1.1-1.3l-7.3,6a2.57,2.57,0,0,1-3.3,0l-7.3-6a.85.85,0,0,0-1.1,1.3Z"/></g><g id="Layer_2-2" data-name="Layer 2"><path class="cls-2" d="M253.8,211.8a4.91,4.91,0,0,0,4.2-2.4h-8.4a5.14,5.14,0,0,0,4.2,2.4Z"/><path class="cls-2" d="M262.8,203.5a6.45,6.45,0,0,1-2.9-12.5,7.91,7.91,0,0,0-3.6-2.4v-.4a2.4,2.4,0,0,0-4.8,0v.4a8.72,8.72,0,0,0-3.1,1.8,8.26,8.26,0,0,0-2.6,5.9v4.4a5.68,5.68,0,0,1-1.1,3.3,2.25,2.25,0,0,0,.4,3.2,2.39,2.39,0,0,0,1.4.5h14.9a2.26,2.26,0,0,0,2.3-2.3,2.39,2.39,0,0,0-.5-1.4A.89.89,0,0,1,262.8,203.5Z"/><path class="cls-2" d="M261.9,192.3a4.8,4.8,0,0,0-4.8,4.8,4.8,4.8,0,0,0,9.6,0,4.74,4.74,0,0,0-4.8-4.8Zm1.7,5.7H262a.86.86,0,0,1-.8-.8v-2.4a.8.8,0,1,1,1.6,0v1.6h.8a.8.8,0,1,1,0,1.6Z"/></g><g id="_01" data-name=" 01"><path class="cls-2" d="M235.4,227.1l-11.3,4.3V245l11.3,4.3a1,1,0,0,0,1.2-.5c0-.1.1-.2.1-.3V228a.9.9,0,0,0-.9-.9Z"/><path class="cls-2" d="M222.8,231.7h-5.6a6.5,6.5,0,0,0,0,13h.9v5.6a.9.9,0,0,0,.9.9h2.8a.9.9,0,0,0,.9-.9V231.7Z"/></g><g id="Layer_2-3" data-name="Layer 2"><path class="cls-2" d="M176.5,250.4a13,13,0,0,0-13,13,13.41,13.41,0,0,0,1.7,6.5l-1.7,5.4a.8.8,0,0,0,.6,1.1.64.64,0,0,0,.6,0l5-1.8a13,13,0,1,0,13.6-22.2A12,12,0,0,0,176.5,250.4Zm-1.2,7.5a1.2,1.2,0,0,1,2.4,0v6a1.2,1.2,0,1,1-2.4,0Zm1.2,11.2a1.5,1.5,0,1,1,1.5-1.5A1.54,1.54,0,0,1,176.5,269.1Z"/></g><path class="cls-2" d="M127.8,257.7a.79.79,0,0,0-.8.8v.1h-1.5V257a3.2,3.2,0,0,0-6.4,0v1.6h-1.5v-.1a.8.8,0,1,0-1.6,0v2.2a6.26,6.26,0,0,0,5.5,6.2v1.6h-1.8a2.26,2.26,0,0,0-2.3,2.3v1.5a.79.79,0,0,0,.8.8h8.1a.79.79,0,0,0,.8-.8v-1.5a2.26,2.26,0,0,0-2.3-2.3H123v-1.6a6.26,6.26,0,0,0,5.5-6.2v-2.2a.67.67,0,0,0-.7-.8Zm-10.3,2.9V260H119v.6a3.21,3.21,0,0,0,2.5,3.1v1.6a4.83,4.83,0,0,1-4-4.7Zm5.6,4.7v-1.6a3.21,3.21,0,0,0,2.5-3.1V260h1.5v.6A4.93,4.93,0,0,1,123.1,265.3Z"/><path class="cls-2" d="M113.9,254.9a.88.88,0,0,0-1,.5,9.93,9.93,0,0,0,0,6.8.75.75,0,0,0,.7.5h.3a.83.83,0,0,0,.5-1,8.66,8.66,0,0,1,0-5.8.83.83,0,0,0-.5-1Z"/><path class="cls-2" d="M111.1,253.8a.88.88,0,0,0-1,.5,13.3,13.3,0,0,0-.8,4.5,14.23,14.23,0,0,0,.8,4.5.75.75,0,0,0,.7.5h.3a.83.83,0,0,0,.5-1,10.72,10.72,0,0,1-.7-3.9,10,10,0,0,1,.7-3.9,1,1,0,0,0-.5-1.2Z"/><path class="cls-2" d="M134.5,254.3a.79.79,0,1,0-1.5.5,10.72,10.72,0,0,1,.7,3.9,10,10,0,0,1-.7,3.9.88.88,0,0,0,.5,1h.3a.75.75,0,0,0,.7-.5,13.3,13.3,0,0,0,.8-4.5,13.06,13.06,0,0,0-.8-4.3Z"/><path class="cls-2" d="M130.7,254.9a.83.83,0,0,0-.5,1,8.66,8.66,0,0,1,0,5.8.88.88,0,0,0,.5,1h.3a.75.75,0,0,0,.7-.5,9.93,9.93,0,0,0,0-6.8c-.2-.5-.6-.7-1-.5Z"/><g id="chat-text-notification"><path class="cls-2" d="M86.6,233.9a8.75,8.75,0,0,1-1.6.2,5,5,0,0,1-4.8-4.8,4.4,4.4,0,0,1,.2-1.6.37.37,0,0,0-.2-.5,13,13,0,0,0-17,6.9,13.21,13.21,0,0,0,.2,10.5,3,3,0,0,1,.1,2.1l-1.2,3.6a1.31,1.31,0,0,0,.9,1.8,1.39,1.39,0,0,0,.9,0l3.6-1.2a3,3,0,0,1,2.1.1A13,13,0,0,0,87,244.7a13.21,13.21,0,0,0,.2-10.5q-.3-.45-.6-.3Zm-10.1,9.2H69.3a1.1,1.1,0,0,1,0-2.2h7.2a1.1,1.1,0,0,1,0,2.2Zm4.4-5.8H69.3a1.1,1.1,0,1,1,0-2.2H80.9a1.1,1.1,0,1,1,0,2.2Zm1.4-8.3a2.9,2.9,0,1,1,2.9,2.9A2.9,2.9,0,0,1,82.3,229Z"/></g><g id="surface1"><path class="cls-2" d="M42.8,185.8a13.17,13.17,0,0,0-11.4,11.6,13.47,13.47,0,0,0,.8,6,11.36,11.36,0,0,0,2.2,3.7.75.75,0,0,1,0,.9l-2,2a1,1,0,0,0,.7,1.7H44.3l.6-.1h0a12.89,12.89,0,0,0,8.8-4,13.33,13.33,0,0,0,3.6-9,12.77,12.77,0,0,0-3.8-9.2A13.18,13.18,0,0,0,42.8,185.8Zm3.8,12.7a.76.76,0,0,1-.5.2.52.52,0,0,1-.4-.2l-1.5-1.4v4.7a.6.6,0,0,1-1.2,0v-4.7l-1.5,1.4a.64.64,0,1,1-.9-.9l2.6-2.4a.75.75,0,0,1,.9,0l2.6,2.4A.65.65,0,0,1,46.6,198.5Z"/></g><path class="cls-2" d="M33,137a13,13,0,0,0-13,13,12.14,12.14,0,0,0,1.9,6.7l-.9,5.1a.81.81,0,0,0,.4.9.92.92,0,0,0,1,.1l4.1-1.7a13,13,0,0,0,13-22.6A15.88,15.88,0,0,0,33,137Zm0,20a1,1,0,1,1,1-1A.94.94,0,0,1,33,157Zm2.2-5.8c-.6.6-1.2,1.2-1.2,1.8a1,1,0,0,1-2,0,4.56,4.56,0,0,1,1.8-3.2c.6-.6,1.2-1.2,1.2-1.8a2,2,0,0,0-4,0,1,1,0,0,1-2,0,4,4,0,0,1,8,0A4.56,4.56,0,0,1,35.2,151.2Z"/><path class="cls-3" d="M32.7,98.9l-.5,3.4a1.3,1.3,0,0,0,.5,1.3,1.74,1.74,0,0,0,1.4.3l3.2-1.1a7.66,7.66,0,0,0,2.7.4A8.2,8.2,0,1,0,31.8,95,6.63,6.63,0,0,0,32.7,98.9Zm7.9-3.3V91.8a.7.7,0,0,0-1.4,0v3.4L37,96.5a.65.65,0,1,0,.7,1.1l2.5-1.5h0c.1-.1.2-.1.2-.2s.2-.2.2-.3Z"/><path class="cls-3" d="M49.4,95.8a9.61,9.61,0,0,1-8.7,8.7,8.21,8.21,0,0,0,8.2,7.7,10.47,10.47,0,0,0,3-.5l3,1a1.24,1.24,0,0,0,1.4-.3,1.3,1.3,0,0,0,.5-1.3l-.5-3.2a8.68,8.68,0,0,0,1-3.9,8.47,8.47,0,0,0-7.9-8.2Z"/><path class="cls-2" d="M72.7,59.4a.27.27,0,0,0-.3.3v4.1a.27.27,0,0,0,.3.3h5.5a.27.27,0,0,0,.3-.3V59.7a.27.27,0,0,0-.3-.3Z"/><path class="cls-2" d="M76.7,57.4a.43.43,0,0,0,.4-.4,1.7,1.7,0,1,0-3.4,0,.43.43,0,0,0,.4.4Z"/><path class="cls-3" d="M75.4,72.5A12.7,12.7,0,1,0,62.7,59.8a11.62,11.62,0,0,0,1,4.9,1.73,1.73,0,0,1,.1,1l-1.5,5.2a1.38,1.38,0,0,0,1.8,1.7l4.6-1.5a1.38,1.38,0,0,1,1.1.1A12.49,12.49,0,0,0,75.4,72.5Zm-4-14.7a.82.82,0,0,0,.4-.6v-.1a3.7,3.7,0,1,1,7.4,0v.1a.68.68,0,0,0,.4.6,2.28,2.28,0,0,1,1,1.9v4.1a2.26,2.26,0,0,1-2.3,2.3H72.8a2.26,2.26,0,0,1-2.3-2.3V59.7A2,2,0,0,1,71.4,57.8Z"/><path class="cls-2" d="M131.5,27.4a13,13,0,0,0-20.2,16.2h0l-1.9,3.8a1.48,1.48,0,0,0,2,2l3.8-1.9a13,13,0,0,0,20-11,12.78,12.78,0,0,0-3.7-9.1ZM121.6,34a.77.77,0,0,1-.8.7.86.86,0,0,1-.8-.8l.1-1.7a4.5,4.5,0,0,0-.9,7.2.78.78,0,1,1-1.1,1.1A6.12,6.12,0,0,1,119,31l-1.4-.5a.76.76,0,0,1,.6-1.4l3,1.2a.75.75,0,0,1,.5.7Zm5.3,8.7a.76.76,0,1,1-.6,1.4l-3-1.2a.75.75,0,0,1-.5-.7l.1-2.9a.75.75,0,0,1,1.5.1l-.1,1.7a4.5,4.5,0,0,0,.9-7.2.78.78,0,1,1,1.1-1.1,6.12,6.12,0,0,1-.9,9.5Z"/></svg>