<svg width="50" height="50" viewBox="0 0 50 50" fill="none" xmlns="http://www.w3.org/2000/svg">
  <path d="M0 5.04575V44.268L29.3443 50V0L0 5.04575Z" fill="#1A76BC" />
  <path d="M31.166 23.8023V36.9482H47.7607C47.7607 36.9482 50.1892 36.6118 49.9868 33.4364L50.0003 16.2539L37.8444 24.4617C37.8444 24.4617 34.404 27.2334 31.166 23.8023Z" fill="#1A76BC" />
  <path d="M31.166 10.1452H47.8956C47.8956 10.1452 49.8654 10.0107 49.8654 12.1501L34.7413 22.2012L31.166 19.9273V10.1452Z" fill="#1A76BC" />
  <path d="M14.7467 15.7021C11.0635 15.7021 8.06836 19.6715 8.06836 24.5692C8.06836 29.467 11.0635 33.4363 14.7467 33.4363C18.4299 33.4363 21.4251 29.467 21.4251 24.5692C21.4251 19.6715 18.4299 15.7021 14.7467 15.7021ZM14.6658 29.8033C12.8984 29.8033 11.4548 27.4487 11.4548 24.5423C11.4548 21.636 12.8984 19.2813 14.6658 19.2813C16.4332 19.2813 17.8768 21.636 17.8768 24.5423C17.8768 27.4621 16.4332 29.8033 14.6658 29.8033Z" fill="white" />
</svg>
