<svg fill="none" viewBox="0 0 24 24" xmlns="http://www.w3.org/2000/svg"><title>Microsoft Teams logo</title><path d="M12.742 7.876a3.5 3.5 0 003.49-3.49 3.5 3.5 0 00-3.49-3.491 3.5 3.5 0 00-3.491 3.49 3.5 3.5 0 003.49 3.491z" fill="#7b83eb"/><path d="M12.48 5.127H9.295v.131a3.544 3.544 0 004.145 2.53V6.132c.044-.568-.393-1.004-.96-1.004z" fill="#000" fill-opacity=".098"/><path d="M11.738 5.868H9.556a3.51 3.51 0 003.142 2.008V6.873c.044-.568-.393-1.004-.96-1.004z" fill="#000" fill-opacity=".2"/><path d="M20.64 8.094a2.626 2.626 0 002.618-2.618 2.626 2.626 0 00-2.618-2.618 2.626 2.626 0 00-2.618 2.618 2.598 2.598 0 002.618 2.618zm2.226.786h-5.891a.484.484 0 00-.48.48v6.065c-.044 1.79 1.221 3.404 2.967 3.797.262.043.523.087.785.087 2.051 0 3.753-1.702 3.753-3.753V9.971c0-.611-.524-1.091-1.134-1.091z" fill="#5059c9"/><path d="M18.764 9.971v7.156c0 3.273-2.706 5.978-5.978 5.978-2.139 0-4.102-1.134-5.193-3.01-.131-.219-.262-.48-.393-.742-.087-.262-.175-.48-.262-.742a5.745 5.745 0 01-.174-1.484V9.971c0-.611.523-1.135 1.134-1.135h9.731c.611.044 1.135.524 1.135 1.135z" fill="#7b83eb"/><path d="M11.738 5.868H9.556a3.51 3.51 0 003.142 2.008V6.873c.044-.568-.393-1.004-.96-1.004z" fill="#000" fill-opacity=".2"/><path d="M13.484 8.88v9.513c0 .48-.306.872-.786.96-.087 0-.13.043-.218.043H7.2c-.087-.262-.175-.48-.262-.742a5.745 5.745 0 01-.174-1.483v-7.2c0-.611.523-1.135 1.134-1.135h5.586z" fill="#000" fill-opacity=".098"/><path d="M12.742 8.88v10.254c0 .088 0 .131-.044.219-.087.436-.524.785-.96.785H7.55c-.13-.218-.262-.48-.393-.742-.087-.262-.174-.48-.261-.742a5.745 5.745 0 01-.175-1.483v-7.2c0-.611.524-1.135 1.135-1.135h4.887v.044zm0 0v8.77a.987.987 0 01-1.004 1.004h-4.8a5.745 5.745 0 01-.174-1.483v-7.2c0-.611.523-1.135 1.134-1.135h4.844zm-4.887 0c-.611 0-1.135.523-1.135 1.134v7.113c0 .524.044 1.004.175 1.484h4.058a.987.987 0 001.003-1.004V8.88z" fill="#000" fill-opacity=".2"/><path d="M1.004 5.868h9.992A.987.987 0 0112 6.874v9.992a.988.988 0 01-1.004 1.004H1.004A.988.988 0 010 16.865V6.873a.987.987 0 011.004-1.005z" fill="#4b53bc"/><path d="M8.989 9.578H6.764V15.6H5.28V9.578H3.01V8.095h5.98v1.483z" fill="#fff"/></svg>
