<svg fill="none" viewBox="0 0 25 25" xmlns="http://www.w3.org/2000/svg"><g clip-path="url(#prefix__clip0)" transform="translate(0 3.602)"><path d="M7.757 17.726c-4.63 0-6.205-5.726-6.558-6.84A30.445 30.445 0 01.015 5.307C-.15 3.78 1.1 2.719 2.475 2.719c1.039 0 2.246.608 2.405 2.085.028.248.24 2.39.987 4.725.78 2.436 1.608 3.373 2.205 3.373.962 0 1.55-2.418 2.069-4.721.383-1.696.796-3.406 1.613-4.924C13.174.615 15.32 0 17.174 0c4.067 0 6.102 4.607 6.102 5.801 0 1.995-1.664 2.504-2.385 2.504-1.577 0-2.112-1.034-2.562-1.94-.404-.815-.827-1.492-1.374-1.492-.18 0-.346.089-.5.242-1.358 1.35-1.813 8.414-4.53 11.114-1.505 1.497-3.144 1.497-4.168 1.497z" fill="url(#prefix__paint0_linear)"/><path d="M7.757 17.726c-4.63 0-6.205-5.726-6.558-6.84A30.445 30.445 0 01.015 5.307C-.15 3.78 1.1 2.719 2.475 2.719c1.039 0 2.246.608 2.405 2.085.028.248.24 2.39.987 4.725.78 2.436 1.608 3.373 2.205 3.373.962 0 1.55-2.418 2.069-4.721.383-1.696.796-3.406 1.613-4.924C13.174.615 15.32 0 17.174 0c4.067 0 6.102 4.607 6.102 5.801 0 1.995-1.664 2.504-2.385 2.504-1.577 0-2.112-1.034-2.562-1.94-.404-.815-.827-1.492-1.374-1.492-.18 0-.346.089-.5.242-1.358 1.35-1.813 8.414-4.53 11.114-1.505 1.497-3.144 1.497-4.168 1.497z" fill="url(#prefix__paint1_radial)"/><path d="M7.757 17.726c-4.63 0-6.205-5.726-6.558-6.84A30.445 30.445 0 01.015 5.307C-.15 3.78 1.1 2.719 2.475 2.719c1.039 0 2.246.608 2.405 2.085.028.248.24 2.39.987 4.725.78 2.436 1.608 3.373 2.205 3.373.962 0 1.55-2.418 2.069-4.721.383-1.696.796-3.406 1.613-4.924C13.174.615 15.32 0 17.174 0c4.067 0 6.102 4.607 6.102 5.801 0 1.995-1.664 2.504-2.385 2.504-1.577 0-2.112-1.034-2.562-1.94-.404-.815-.827-1.492-1.374-1.492-.18 0-.346.089-.5.242-1.358 1.35-1.813 8.414-4.53 11.114-1.505 1.497-3.144 1.497-4.168 1.497z" fill="url(#prefix__paint2_radial)"/><path d="M7.757 17.726c-4.63 0-6.205-5.726-6.558-6.84A30.445 30.445 0 01.015 5.307C-.15 3.78 1.1 2.719 2.475 2.719c1.039 0 2.246.608 2.405 2.085.028.248.24 2.39.987 4.725.78 2.436 1.608 3.373 2.205 3.373.962 0 1.55-2.418 2.069-4.721.383-1.696.796-3.406 1.613-4.924C13.174.615 15.32 0 17.174 0c4.067 0 6.102 4.607 6.102 5.801 0 1.995-1.664 2.504-2.385 2.504-1.577 0-2.112-1.034-2.562-1.94-.404-.815-.827-1.492-1.374-1.492-.18 0-.346.089-.5.242-1.358 1.35-1.813 8.414-4.53 11.114-1.505 1.497-3.144 1.497-4.168 1.497z" fill="url(#prefix__paint3_radial)"/><path d="M7.757 17.726c-4.63 0-6.205-5.726-6.558-6.84A30.445 30.445 0 01.015 5.307C-.15 3.78 1.1 2.719 2.475 2.719c1.039 0 2.246.608 2.405 2.085.028.248.24 2.39.987 4.725.78 2.436 1.608 3.373 2.205 3.373.962 0 1.55-2.418 2.069-4.721.383-1.696.796-3.406 1.613-4.924C13.174.615 15.32 0 17.174 0c4.067 0 6.102 4.607 6.102 5.801 0 1.995-1.664 2.504-2.385 2.504-1.577 0-2.112-1.034-2.562-1.94-.404-.815-.827-1.492-1.374-1.492-.18 0-.346.089-.5.242-1.358 1.35-1.813 8.414-4.53 11.114-1.505 1.497-3.144 1.497-4.168 1.497z" fill="url(#prefix__paint4_radial)"/><path d="M7.757 17.726c-4.63 0-6.205-5.726-6.558-6.84A30.445 30.445 0 01.015 5.307C-.15 3.78 1.1 2.719 2.475 2.719c1.039 0 2.246.608 2.405 2.085.028.248.24 2.39.987 4.725.78 2.436 1.608 3.373 2.205 3.373.962 0 1.55-2.418 2.069-4.721.383-1.696.796-3.406 1.613-4.924C13.174.615 15.32 0 17.174 0c4.067 0 6.102 4.607 6.102 5.801 0 1.995-1.664 2.504-2.385 2.504-1.577 0-2.112-1.034-2.562-1.94-.404-.815-.827-1.492-1.374-1.492-.18 0-.346.089-.5.242-1.358 1.35-1.813 8.414-4.53 11.114-1.505 1.497-3.144 1.497-4.168 1.497z" fill="url(#prefix__paint5_radial)"/><path d="M7.757 17.726c-4.63 0-6.205-5.726-6.558-6.84A30.445 30.445 0 01.015 5.307C-.15 3.78 1.1 2.719 2.475 2.719c1.039 0 2.246.608 2.405 2.085.028.248.24 2.39.987 4.725.78 2.436 1.608 3.373 2.205 3.373.962 0 1.55-2.418 2.069-4.721.383-1.696.796-3.406 1.613-4.924C13.174.615 15.32 0 17.174 0c4.067 0 6.102 4.607 6.102 5.801 0 1.995-1.664 2.504-2.385 2.504-1.577 0-2.112-1.034-2.562-1.94-.404-.815-.827-1.492-1.374-1.492-.18 0-.346.089-.5.242-1.358 1.35-1.813 8.414-4.53 11.114-1.505 1.497-3.144 1.497-4.168 1.497z" fill="url(#prefix__paint6_radial)"/><path d="M7.757 17.726c-4.63 0-6.205-5.726-6.558-6.84A30.445 30.445 0 01.015 5.307C-.15 3.78 1.1 2.719 2.475 2.719c1.039 0 2.246.608 2.405 2.085.028.248.24 2.39.987 4.725.78 2.436 1.608 3.373 2.205 3.373.962 0 1.55-2.418 2.069-4.721.383-1.696.796-3.406 1.613-4.924C13.174.615 15.32 0 17.174 0c4.067 0 6.102 4.607 6.102 5.801 0 1.995-1.664 2.504-2.385 2.504-1.577 0-2.112-1.034-2.562-1.94-.404-.815-.827-1.492-1.374-1.492-.18 0-.346.089-.5.242-1.358 1.35-1.813 8.414-4.53 11.114-1.505 1.497-3.144 1.497-4.168 1.497z" fill="url(#prefix__paint7_linear)"/><path d="M7.757 17.726c-4.63 0-6.205-5.726-6.558-6.84A30.445 30.445 0 01.015 5.307C-.15 3.78 1.1 2.719 2.475 2.719c1.039 0 2.246.608 2.405 2.085.028.248.24 2.39.987 4.725.78 2.436 1.608 3.373 2.205 3.373.962 0 1.55-2.418 2.069-4.721.383-1.696.796-3.406 1.613-4.924C13.174.615 15.32 0 17.174 0c4.067 0 6.102 4.607 6.102 5.801 0 1.995-1.664 2.504-2.385 2.504-1.577 0-2.112-1.034-2.562-1.94-.404-.815-.827-1.492-1.374-1.492-.18 0-.346.089-.5.242-1.358 1.35-1.813 8.414-4.53 11.114-1.505 1.497-3.144 1.497-4.168 1.497z" fill="url(#prefix__paint8_radial)"/><path d="M17.175 0c-1.854 0-4 .615-5.421 3.257-.817 1.518-1.23 3.228-1.613 4.924a56.715 56.715 0 01-.394 1.66v7.675c.702-.194 1.456-.568 2.179-1.287 2.716-2.7 3.171-9.764 4.53-11.114.154-.153.32-.242.5-.242.546 0 .969.677 1.374 1.492.45.906.984 1.94 2.561 1.94.721 0 2.385-.51 2.385-2.504C23.276 4.607 21.24 0 17.175 0z" fill="url(#prefix__paint9_radial)"/><path d="M7.757 17.726c-4.63 0-6.205-5.726-6.558-6.84A30.445 30.445 0 01.015 5.307C-.15 3.78 1.1 2.719 2.475 2.719c1.039 0 2.246.608 2.405 2.085.028.248.24 2.39.987 4.725.78 2.436 1.608 3.373 2.205 3.373.962 0 1.55-2.418 2.069-4.721.383-1.696.796-3.406 1.613-4.924C13.174.615 15.32 0 17.174 0c4.067 0 6.102 4.607 6.102 5.801 0 1.995-1.664 2.504-2.385 2.504-1.577 0-2.112-1.034-2.562-1.94-.404-.815-.827-1.492-1.374-1.492-.18 0-.346.089-.5.242-1.358 1.35-1.813 8.414-4.53 11.114-1.505 1.497-3.144 1.497-4.168 1.497z" fill="url(#prefix__paint10_radial)"/><path d="M7.757 17.726c-4.63 0-6.205-5.726-6.558-6.84A30.445 30.445 0 01.015 5.307C-.15 3.78 1.1 2.719 2.475 2.719c1.039 0 2.246.608 2.405 2.085.028.248.24 2.39.987 4.725.78 2.436 1.608 3.373 2.205 3.373.962 0 1.55-2.418 2.069-4.721.383-1.696.796-3.406 1.613-4.924C13.174.615 15.32 0 17.174 0c4.067 0 6.102 4.607 6.102 5.801 0 1.995-1.664 2.504-2.385 2.504-1.577 0-2.112-1.034-2.562-1.94-.404-.815-.827-1.492-1.374-1.492-.18 0-.346.089-.5.242-1.358 1.35-1.813 8.414-4.53 11.114-1.505 1.497-3.144 1.497-4.168 1.497z" fill="url(#prefix__paint11_radial)"/><path d="M7.757 17.726c-4.63 0-6.205-5.726-6.558-6.84A30.445 30.445 0 01.015 5.307C-.15 3.78 1.1 2.719 2.475 2.719c1.039 0 2.246.608 2.405 2.085.028.248.24 2.39.987 4.725.78 2.436 1.608 3.373 2.205 3.373.962 0 1.55-2.418 2.069-4.721.383-1.696.796-3.406 1.613-4.924C13.174.615 15.32 0 17.174 0c4.067 0 6.102 4.607 6.102 5.801 0 1.995-1.664 2.504-2.385 2.504-1.577 0-2.112-1.034-2.562-1.94-.404-.815-.827-1.492-1.374-1.492-.18 0-.346.089-.5.242-1.358 1.35-1.813 8.414-4.53 11.114-1.505 1.497-3.144 1.497-4.168 1.497z" fill="url(#prefix__paint12_radial)"/><path d="M7.757 17.726c-4.63 0-6.205-5.726-6.558-6.84A30.445 30.445 0 01.015 5.307C-.15 3.78 1.1 2.719 2.475 2.719c1.039 0 2.246.608 2.405 2.085.028.248.24 2.39.987 4.725.78 2.436 1.608 3.373 2.205 3.373.962 0 1.55-2.418 2.069-4.721.383-1.696.796-3.406 1.613-4.924C13.174.615 15.32 0 17.174 0c4.067 0 6.102 4.607 6.102 5.801 0 1.995-1.664 2.504-2.385 2.504-1.577 0-2.112-1.034-2.562-1.94-.404-.815-.827-1.492-1.374-1.492-.18 0-.346.089-.5.242-1.358 1.35-1.813 8.414-4.53 11.114-1.505 1.497-3.144 1.497-4.168 1.497z" fill="url(#prefix__paint13_radial)"/><path d="M7.757 17.726c-4.63 0-6.205-5.726-6.558-6.84A30.445 30.445 0 01.015 5.307C-.15 3.78 1.1 2.719 2.475 2.719c1.039 0 2.246.608 2.405 2.085.028.248.24 2.39.987 4.725.78 2.436 1.608 3.373 2.205 3.373.962 0 1.55-2.418 2.069-4.721.383-1.696.796-3.406 1.613-4.924C13.174.615 15.32 0 17.174 0c4.067 0 6.102 4.607 6.102 5.801 0 1.995-1.664 2.504-2.385 2.504-1.577 0-2.112-1.034-2.562-1.94-.404-.815-.827-1.492-1.374-1.492-.18 0-.346.089-.5.242-1.358 1.35-1.813 8.414-4.53 11.114-1.505 1.497-3.144 1.497-4.168 1.497z" fill="url(#prefix__paint14_radial)"/><path d="M22.526 2.719c-.183 0-.367.016-.548.051.86 1.212 1.29 2.482 1.29 3.03 0 1.996-1.664 2.505-2.385 2.505-.563 0-.993-.132-1.334-.342L19.54 8c-.101.396-.181.83-.32 1.25-.266.812-.625 1.738-1.008 2.454-.414.773-.823 1.225-1.31 1.201-.555-.027-1.005-.726-1.564-2.702a39.53 39.53 0 01-.502-2.022c-.384-1.701-.855-3.412-1.66-4.924C11.861.787 9.617 0 7.826 0 6.165 0 4.924.77 3.949 1.738c-.27.268-.564.629-.86 1.053.85.2 1.655.826 1.783 2.013.025.226.203 2.023.8 4.105.17-.522.42-1.295 1-2.544.283-.571.54-.948.77-1.178.213-.21.404-.298.576-.298.185 0 .818.166 1.435 2.282.764 2.623 1.333 6.798 3.5 9.015.957.978 2.295 1.61 4.149 1.61 1.627 0 2.983-.7 3.95-1.675 1.59-1.603 2.462-4.254 2.773-5.234.884-2.79 1.132-5.314 1.161-5.581.165-1.526-1.15-2.587-2.46-2.587z" fill="#316aff"/><path d="M22.526 2.719c-.183 0-.367.016-.548.051.86 1.212 1.29 2.482 1.29 3.03 0 1.996-1.664 2.505-2.385 2.505-.563 0-.993-.132-1.334-.342L19.54 8c-.101.396-.181.83-.32 1.25-.266.812-.625 1.738-1.008 2.454-.414.773-.823 1.225-1.31 1.201-.555-.027-1.005-.726-1.564-2.702a39.53 39.53 0 01-.502-2.022c-.384-1.701-.855-3.412-1.66-4.924C11.861.787 9.617 0 7.826 0 6.165 0 4.924.77 3.949 1.738c-.27.268-.564.629-.86 1.053.85.2 1.655.826 1.783 2.013.025.226.203 2.023.8 4.105.17-.522.42-1.295 1-2.544.283-.571.54-.948.77-1.178.213-.21.404-.298.576-.298.185 0 .818.166 1.435 2.282.764 2.623 1.333 6.798 3.5 9.015.957.978 2.295 1.61 4.149 1.61 1.627 0 2.983-.7 3.95-1.675 1.59-1.603 2.462-4.254 2.773-5.234.884-2.79 1.132-5.314 1.161-5.581.165-1.526-1.15-2.587-2.46-2.587z" fill="url(#prefix__paint15_radial)"/><path d="M22.526 2.719c-.183 0-.367.016-.548.051.86 1.212 1.29 2.482 1.29 3.03 0 1.996-1.664 2.505-2.385 2.505-.563 0-.993-.132-1.334-.342L19.54 8c-.101.396-.181.83-.32 1.25-.266.812-.625 1.738-1.008 2.454-.414.773-.823 1.225-1.31 1.201-.555-.027-1.005-.726-1.564-2.702a39.53 39.53 0 01-.502-2.022c-.384-1.701-.855-3.412-1.66-4.924C11.861.787 9.617 0 7.826 0 6.165 0 4.924.77 3.949 1.738c-.27.268-.564.629-.86 1.053.85.2 1.655.826 1.783 2.013.025.226.203 2.023.8 4.105.17-.522.42-1.295 1-2.544.283-.571.54-.948.77-1.178.213-.21.404-.298.576-.298.185 0 .818.166 1.435 2.282.764 2.623 1.333 6.798 3.5 9.015.957.978 2.295 1.61 4.149 1.61 1.627 0 2.983-.7 3.95-1.675 1.59-1.603 2.462-4.254 2.773-5.234.884-2.79 1.132-5.314 1.161-5.581.165-1.526-1.15-2.587-2.46-2.587z" fill="url(#prefix__paint16_radial)"/><path d="M22.526 2.719c-.183 0-.367.016-.548.051.86 1.212 1.29 2.482 1.29 3.03 0 1.996-1.664 2.505-2.385 2.505-.563 0-.993-.132-1.334-.342L19.54 8c-.101.396-.181.83-.32 1.25-.266.812-.625 1.738-1.008 2.454-.414.773-.823 1.225-1.31 1.201-.555-.027-1.005-.726-1.564-2.702a39.53 39.53 0 01-.502-2.022c-.384-1.701-.855-3.412-1.66-4.924C11.861.787 9.617 0 7.826 0 6.165 0 4.924.77 3.949 1.738c-.27.268-.564.629-.86 1.053.85.2 1.655.826 1.783 2.013.025.226.203 2.023.8 4.105.17-.522.42-1.295 1-2.544.283-.571.54-.948.77-1.178.213-.21.404-.298.576-.298.185 0 .818.166 1.435 2.282.764 2.623 1.333 6.798 3.5 9.015.957.978 2.295 1.61 4.149 1.61 1.627 0 2.983-.7 3.95-1.675 1.59-1.603 2.462-4.254 2.773-5.234.884-2.79 1.132-5.314 1.161-5.581.165-1.526-1.15-2.587-2.46-2.587z" fill="url(#prefix__paint17_radial)"/><path d="M22.526 2.719c-.183 0-.367.016-.548.051.86 1.212 1.29 2.482 1.29 3.03 0 1.996-1.664 2.505-2.385 2.505-.563 0-.993-.132-1.334-.342L19.54 8c-.101.396-.181.83-.32 1.25-.266.812-.625 1.738-1.008 2.454-.414.773-.823 1.225-1.31 1.201-.555-.027-1.005-.726-1.564-2.702a39.53 39.53 0 01-.502-2.022c-.384-1.701-.855-3.412-1.66-4.924C11.861.787 9.617 0 7.826 0 6.165 0 4.924.77 3.949 1.738c-.27.268-.564.629-.86 1.053.85.2 1.655.826 1.783 2.013.025.226.203 2.023.8 4.105.17-.522.42-1.295 1-2.544.283-.571.54-.948.77-1.178.213-.21.404-.298.576-.298.185 0 .818.166 1.435 2.282.764 2.623 1.333 6.798 3.5 9.015.957.978 2.295 1.61 4.149 1.61 1.627 0 2.983-.7 3.95-1.675 1.59-1.603 2.462-4.254 2.773-5.234.884-2.79 1.132-5.314 1.161-5.581.165-1.526-1.15-2.587-2.46-2.587z" fill="url(#prefix__paint18_radial)"/><path d="M22.526 2.719c-.183 0-.367.016-.548.051.86 1.212 1.29 2.482 1.29 3.03 0 1.996-1.664 2.505-2.385 2.505-.563 0-.993-.132-1.334-.342L19.54 8c-.101.396-.181.83-.32 1.25-.266.812-.625 1.738-1.008 2.454-.414.773-.823 1.225-1.31 1.201-.555-.027-1.005-.726-1.564-2.702a39.53 39.53 0 01-.502-2.022c-.384-1.701-.855-3.412-1.66-4.924C11.861.787 9.617 0 7.826 0 6.165 0 4.924.77 3.949 1.738c-.27.268-.564.629-.86 1.053.85.2 1.655.826 1.783 2.013.025.226.203 2.023.8 4.105.17-.522.42-1.295 1-2.544.283-.571.54-.948.77-1.178.213-.21.404-.298.576-.298.185 0 .818.166 1.435 2.282.764 2.623 1.333 6.798 3.5 9.015.957.978 2.295 1.61 4.149 1.61 1.627 0 2.983-.7 3.95-1.675 1.59-1.603 2.462-4.254 2.773-5.234.884-2.79 1.132-5.314 1.161-5.581.165-1.526-1.15-2.587-2.46-2.587z" fill="url(#prefix__paint19_radial)"/><path d="M22.526 2.719c-.183 0-.367.016-.548.051.86 1.212 1.29 2.482 1.29 3.03 0 1.996-1.664 2.505-2.385 2.505-.563 0-.993-.132-1.334-.342L19.54 8c-.101.396-.181.83-.32 1.25-.266.812-.625 1.738-1.008 2.454-.414.773-.823 1.225-1.31 1.201-.555-.027-1.005-.726-1.564-2.702a39.53 39.53 0 01-.502-2.022c-.384-1.701-.855-3.412-1.66-4.924C11.861.787 9.617 0 7.826 0 6.165 0 4.924.77 3.949 1.738c-.27.268-.564.629-.86 1.053.85.2 1.655.826 1.783 2.013.025.226.203 2.023.8 4.105.17-.522.42-1.295 1-2.544.283-.571.54-.948.77-1.178.213-.21.404-.298.576-.298.185 0 .818.166 1.435 2.282.764 2.623 1.333 6.798 3.5 9.015.957.978 2.295 1.61 4.149 1.61 1.627 0 2.983-.7 3.95-1.675 1.59-1.603 2.462-4.254 2.773-5.234.884-2.79 1.132-5.314 1.161-5.581.165-1.526-1.15-2.587-2.46-2.587z" fill="url(#prefix__paint20_radial)"/><path d="M22.526 2.719c-.183 0-.367.016-.548.051.86 1.212 1.29 2.482 1.29 3.03 0 1.996-1.664 2.505-2.385 2.505-.563 0-.993-.132-1.334-.342L19.54 8c-.101.396-.181.83-.32 1.25-.266.812-.625 1.738-1.008 2.454-.414.773-.823 1.225-1.31 1.201-.555-.027-1.005-.726-1.564-2.702a39.53 39.53 0 01-.502-2.022c-.384-1.701-.855-3.412-1.66-4.924C11.861.787 9.617 0 7.826 0 6.165 0 4.924.77 3.949 1.738c-.27.268-.564.629-.86 1.053.85.2 1.655.826 1.783 2.013.025.226.203 2.023.8 4.105.17-.522.42-1.295 1-2.544.283-.571.54-.948.77-1.178.213-.21.404-.298.576-.298.185 0 .818.166 1.435 2.282.764 2.623 1.333 6.798 3.5 9.015.957.978 2.295 1.61 4.149 1.61 1.627 0 2.983-.7 3.95-1.675 1.59-1.603 2.462-4.254 2.773-5.234.884-2.79 1.132-5.314 1.161-5.581.165-1.526-1.15-2.587-2.46-2.587z" fill="url(#prefix__paint21_radial)"/><path d="M22.526 2.719c-.183 0-.367.016-.548.051.86 1.212 1.29 2.482 1.29 3.03 0 1.996-1.664 2.505-2.385 2.505-.563 0-.993-.132-1.334-.342L19.54 8c-.101.396-.181.83-.32 1.25-.266.812-.625 1.738-1.008 2.454-.414.773-.823 1.225-1.31 1.201-.555-.027-1.005-.726-1.564-2.702a39.53 39.53 0 01-.502-2.022c-.384-1.701-.855-3.412-1.66-4.924C11.861.787 9.617 0 7.826 0 6.165 0 4.924.77 3.949 1.738c-.27.268-.564.629-.86 1.053.85.2 1.655.826 1.783 2.013.025.226.203 2.023.8 4.105.17-.522.42-1.295 1-2.544.283-.571.54-.948.77-1.178.213-.21.404-.298.576-.298.185 0 .818.166 1.435 2.282.764 2.623 1.333 6.798 3.5 9.015.957.978 2.295 1.61 4.149 1.61 1.627 0 2.983-.7 3.95-1.675 1.59-1.603 2.462-4.254 2.773-5.234.884-2.79 1.132-5.314 1.161-5.581.165-1.526-1.15-2.587-2.46-2.587z" fill="url(#prefix__paint22_radial)"/><path d="M22.526 2.719c-.183 0-.367.016-.548.051.86 1.212 1.29 2.482 1.29 3.03 0 1.996-1.664 2.505-2.385 2.505-.563 0-.993-.132-1.334-.342L19.54 8c-.101.396-.181.83-.32 1.25-.266.812-.625 1.738-1.008 2.454-.414.773-.823 1.225-1.31 1.201-.555-.027-1.005-.726-1.564-2.702a39.53 39.53 0 01-.502-2.022c-.384-1.701-.855-3.412-1.66-4.924C11.861.787 9.617 0 7.826 0 6.165 0 4.924.77 3.949 1.738c-.27.268-.564.629-.86 1.053.85.2 1.655.826 1.783 2.013.025.226.203 2.023.8 4.105.17-.522.42-1.295 1-2.544.283-.571.54-.948.77-1.178.213-.21.404-.298.576-.298.185 0 .818.166 1.435 2.282.764 2.623 1.333 6.798 3.5 9.015.957.978 2.295 1.61 4.149 1.61 1.627 0 2.983-.7 3.95-1.675 1.59-1.603 2.462-4.254 2.773-5.234.884-2.79 1.132-5.314 1.161-5.581.165-1.526-1.15-2.587-2.46-2.587z" fill="url(#prefix__paint23_radial)"/><path d="M22.526 2.719c-.183 0-.367.016-.548.051.86 1.212 1.29 2.482 1.29 3.03 0 1.996-1.664 2.505-2.385 2.505-.563 0-.993-.132-1.334-.342L19.54 8c-.101.396-.181.83-.32 1.25-.266.812-.625 1.738-1.008 2.454-.414.773-.823 1.225-1.31 1.201-.555-.027-1.005-.726-1.564-2.702a39.53 39.53 0 01-.502-2.022c-.384-1.701-.855-3.412-1.66-4.924C11.861.787 9.617 0 7.826 0 6.165 0 4.924.77 3.949 1.738c-.27.268-.564.629-.86 1.053.85.2 1.655.826 1.783 2.013.025.226.203 2.023.8 4.105.17-.522.42-1.295 1-2.544.283-.571.54-.948.77-1.178.213-.21.404-.298.576-.298.185 0 .818.166 1.435 2.282.764 2.623 1.333 6.798 3.5 9.015.957.978 2.295 1.61 4.149 1.61 1.627 0 2.983-.7 3.95-1.675 1.59-1.603 2.462-4.254 2.773-5.234.884-2.79 1.132-5.314 1.161-5.581.165-1.526-1.15-2.587-2.46-2.587z" fill="url(#prefix__paint24_radial)"/><path d="M7.757 17.726c-4.63 0-6.205-5.726-6.558-6.84A30.445 30.445 0 01.015 5.307C-.15 3.78 1.1 2.719 2.475 2.719c1.039 0 2.246.608 2.405 2.085.028.248.24 2.39.987 4.725.78 2.436 1.608 3.373 2.205 3.373.962 0 1.55-2.418 2.069-4.721.383-1.696.796-3.406 1.613-4.924C13.174.615 15.32 0 17.174 0c4.067 0 6.102 4.607 6.102 5.801 0 1.995-1.664 2.504-2.385 2.504-1.577 0-2.112-1.034-2.562-1.94-.404-.815-.827-1.492-1.374-1.492-.18 0-.346.089-.5.242-1.358 1.35-1.813 8.414-4.53 11.114-1.505 1.497-3.144 1.497-4.168 1.497z" fill="url(#prefix__paint25_linear)"/><path d="M7.757 17.726c-4.63 0-6.205-5.726-6.558-6.84A30.445 30.445 0 01.015 5.307C-.15 3.78 1.1 2.719 2.475 2.719c1.039 0 2.246.608 2.405 2.085.028.248.24 2.39.987 4.725.78 2.436 1.608 3.373 2.205 3.373.962 0 1.55-2.418 2.069-4.721.383-1.696.796-3.406 1.613-4.924C13.174.615 15.32 0 17.174 0c4.067 0 6.102 4.607 6.102 5.801 0 1.995-1.664 2.504-2.385 2.504-1.577 0-2.112-1.034-2.562-1.94-.404-.815-.827-1.492-1.374-1.492-.18 0-.346.089-.5.242-1.358 1.35-1.813 8.414-4.53 11.114-1.505 1.497-3.144 1.497-4.168 1.497z" fill="url(#prefix__paint26_radial)"/><path d="M7.757 17.726c-4.63 0-6.205-5.726-6.558-6.84A30.445 30.445 0 01.015 5.307C-.15 3.78 1.1 2.719 2.475 2.719c1.039 0 2.246.608 2.405 2.085.028.248.24 2.39.987 4.725.78 2.436 1.608 3.373 2.205 3.373.962 0 1.55-2.418 2.069-4.721.383-1.696.796-3.406 1.613-4.924C13.174.615 15.32 0 17.174 0c4.067 0 6.102 4.607 6.102 5.801 0 1.995-1.664 2.504-2.385 2.504-1.577 0-2.112-1.034-2.562-1.94-.404-.815-.827-1.492-1.374-1.492-.18 0-.346.089-.5.242-1.358 1.35-1.813 8.414-4.53 11.114-1.505 1.497-3.144 1.497-4.168 1.497z" fill="url(#prefix__paint27_linear)"/><path d="M7.757 17.726c-4.63 0-6.205-5.726-6.558-6.84A30.445 30.445 0 01.015 5.307C-.15 3.78 1.1 2.719 2.475 2.719c1.039 0 2.246.608 2.405 2.085.028.248.24 2.39.987 4.725.78 2.436 1.608 3.373 2.205 3.373.962 0 1.55-2.418 2.069-4.721.383-1.696.796-3.406 1.613-4.924C13.174.615 15.32 0 17.174 0c4.067 0 6.102 4.607 6.102 5.801 0 1.995-1.664 2.504-2.385 2.504-1.577 0-2.112-1.034-2.562-1.94-.404-.815-.827-1.492-1.374-1.492-.18 0-.346.089-.5.242-1.358 1.35-1.813 8.414-4.53 11.114-1.505 1.497-3.144 1.497-4.168 1.497z" fill="url(#prefix__paint28_linear)"/><path d="M7.757 17.726c-4.63 0-6.205-5.726-6.558-6.84A30.445 30.445 0 01.015 5.307C-.15 3.78 1.1 2.719 2.475 2.719c1.039 0 2.246.608 2.405 2.085.028.248.24 2.39.987 4.725.78 2.436 1.608 3.373 2.205 3.373.962 0 1.55-2.418 2.069-4.721.383-1.696.796-3.406 1.613-4.924C13.174.615 15.32 0 17.174 0c4.067 0 6.102 4.607 6.102 5.801 0 1.995-1.664 2.504-2.385 2.504-1.577 0-2.112-1.034-2.562-1.94-.404-.815-.827-1.492-1.374-1.492-.18 0-.346.089-.5.242-1.358 1.35-1.813 8.414-4.53 11.114-1.505 1.497-3.144 1.497-4.168 1.497z" fill="url(#prefix__paint29_radial)"/></g><defs id="defs233"><radialGradient id="prefix__paint1_radial" cx="0" cy="0" r="1" gradientUnits="userSpaceOnUse" gradientTransform="matrix(-5.495 -8.99378 7.62865 -4.66093 9.515 9.453)"><stop stop-color="#007383" id="stop66"/><stop offset=".408" stop-color="#00717E" stop-opacity=".75" id="stop68"/><stop offset=".874" stop-color="#007281" stop-opacity="0" id="stop70"/></radialGradient><radialGradient id="prefix__paint2_radial" cx="0" cy="0" r="1" gradientUnits="userSpaceOnUse" gradientTransform="matrix(-5.2254 -6.84767 4.5268 -3.45436 16.554 7.503)"><stop stop-color="#218970" id="stop73"/><stop offset=".46" stop-color="#267E6A" id="stop75"/><stop offset="1" stop-color="#026C51" stop-opacity="0" id="stop77"/></radialGradient><radialGradient id="prefix__paint3_radial" cx="0" cy="0" r="1" gradientUnits="userSpaceOnUse" gradientTransform="matrix(-2.13586 -6.6381 3.52157 -1.1331 8.899 9.948)"><stop stop-color="#178697" id="stop80"/><stop offset=".408" stop-color="#17838F" stop-opacity=".79" id="stop82"/><stop offset=".874" stop-color="#007281" stop-opacity="0" id="stop84"/></radialGradient><radialGradient id="prefix__paint4_radial" cx="0" cy="0" r="1" gradientUnits="userSpaceOnUse" gradientTransform="matrix(-9.26866 -15.1702 4.72812 -2.88878 12.062 9.91)"><stop stop-color="#25342F" stop-opacity=".3" id="stop87"/><stop offset="1" stop-color="#25342F" stop-opacity="0" id="stop89"/></radialGradient><radialGradient id="prefix__paint5_radial" cx="0" cy="0" r="1" gradientUnits="userSpaceOnUse" gradientTransform="matrix(.58158 6.63152 -3.8446 .33717 15.285 7.696)"><stop stop-color="#056D4F" id="stop92"/><stop offset=".233" stop-color="#056C4E" stop-opacity=".75" id="stop94"/><stop offset=".599" stop-color="#056C4E" stop-opacity=".301" id="stop96"/><stop offset=".874" stop-color="#056C4F" stop-opacity="0" id="stop98"/></radialGradient><radialGradient id="prefix__paint6_radial" cx="0" cy="0" r="1" gradientUnits="userSpaceOnUse" gradientTransform="matrix(4.34804 6.5676 -3.47547 2.30091 15.586 -3.067)"><stop stop-color="#22B67B" id="stop101"/><stop offset=".408" stop-color="#24BE82" id="stop103"/><stop offset="1" stop-color="#24BE82" stop-opacity=".07" id="stop105"/></radialGradient><radialGradient id="prefix__paint8_radial" cx="0" cy="0" r="1" gradientUnits="userSpaceOnUse" gradientTransform="matrix(6.76479 7.78776 -7.7944 6.77056 -3.661 -1.5)"><stop stop-color="#09F8FF" id="stop108"/><stop offset="1" stop-color="#0BF7F9" stop-opacity="0" id="stop110"/></radialGradient><radialGradient id="prefix__paint9_radial" cx="0" cy="0" r="1" gradientUnits="userSpaceOnUse" gradientTransform="matrix(14.17667 15.40497 -15.41284 14.18391 4.708 -6.645)"><stop stop-color="#00B8FF" id="stop113"/><stop offset=".745" stop-color="#00B9FC" stop-opacity="0" id="stop115"/></radialGradient><radialGradient id="prefix__paint10_radial" cx="0" cy="0" r="1" gradientUnits="userSpaceOnUse" gradientTransform="matrix(-3.06612 -9.52927 6.72363 -2.16338 5.83 8.9)"><stop stop-color="#00BCFF" stop-opacity=".76" id="stop118"/><stop offset=".573" stop-color="#00BAFC" stop-opacity="0" id="stop120"/></radialGradient><radialGradient id="prefix__paint11_radial" cx="0" cy="0" r="1" gradientUnits="userSpaceOnUse" gradientTransform="matrix(-4.59937 -5.44705 3.82861 -3.2328 21.359 5.106)"><stop stop-color="#5FEC50" id="stop123"/><stop offset="1" stop-color="#3CC08E" stop-opacity="0" id="stop125"/></radialGradient><radialGradient id="prefix__paint12_radial" cx="0" cy="0" r="1" gradientUnits="userSpaceOnUse" gradientTransform="matrix(.41372 -2.10008 1.48275 .2921 20.325 9.656)"><stop stop-color="#28855B" id="stop128"/><stop offset="1" stop-color="#14795C" stop-opacity="0" id="stop130"/></radialGradient><radialGradient id="prefix__paint13_radial" cx="0" cy="0" r="1" gradientUnits="userSpaceOnUse" gradientTransform="matrix(.37851 -1.72381 2.4583 .53979 20.22 9.499)"><stop stop-color="#28855B" id="stop133"/><stop offset="1" stop-color="#14795C" stop-opacity="0" id="stop135"/></radialGradient><radialGradient id="prefix__paint14_radial" cx="0" cy="0" r="1" gradientUnits="userSpaceOnUse" gradientTransform="matrix(-4.06244 -4.292 3.0196 -2.85809 22.367 6.322)"><stop stop-color="#5FF05B" id="stop138"/><stop offset=".813" stop-color="#5DE955" stop-opacity="0" id="stop140"/></radialGradient><radialGradient id="prefix__paint15_radial" cx="0" cy="0" r="1" gradientUnits="userSpaceOnUse" gradientTransform="matrix(4.22179 3.16325 -4.37048 5.83301 20.498 8.002)"><stop stop-color="#123AA8" id="stop143"/><stop offset=".966" stop-color="#123AA8" stop-opacity="0" id="stop145"/></radialGradient><radialGradient id="prefix__paint16_radial" cx="0" cy="0" r="1" gradientUnits="userSpaceOnUse" gradientTransform="matrix(6.20643 .90564 -1.32333 9.0689 19.174 8.588)"><stop stop-color="#123AA8" id="stop148"/><stop offset=".592" stop-color="#123AA8" stop-opacity="0" id="stop150"/></radialGradient><radialGradient id="prefix__paint17_radial" cx="0" cy="0" r="1" gradientUnits="userSpaceOnUse" gradientTransform="matrix(4.87131 2.18762 -3.8415 8.5541 19.684 9.35)"><stop stop-color="#123AA8" id="stop153"/><stop offset=".757" stop-color="#123AA8" stop-opacity="0" id="stop155"/></radialGradient><radialGradient id="prefix__paint18_radial" cx="0" cy="0" r="1" gradientUnits="userSpaceOnUse" gradientTransform="matrix(-.97425 9.37596 -5.25118 -.54565 19.054 9.66)"><stop stop-color="#123AA8" id="stop158"/><stop offset=".592" stop-color="#123AA8" stop-opacity="0" id="stop160"/><stop offset="1" stop-color="#123AA8" stop-opacity="0" id="stop162"/></radialGradient><radialGradient id="prefix__paint19_radial" cx="0" cy="0" r="1" gradientUnits="userSpaceOnUse" gradientTransform="matrix(-.74174 11.31852 -4.12936 -.2706 20.497 5.5)"><stop stop-color="#123AA8" id="stop165"/><stop offset=".885" stop-color="#123AA8" stop-opacity="0" id="stop167"/></radialGradient><radialGradient id="prefix__paint20_radial" cx="0" cy="0" r="1" gradientUnits="userSpaceOnUse" gradientTransform="matrix(.55457 5.99397 -3.24573 .3003 7.354 7.858)"><stop stop-color="#123AA8" id="stop170"/><stop offset=".885" stop-color="#123AA8" stop-opacity="0" id="stop172"/></radialGradient><radialGradient id="prefix__paint21_radial" cx="0" cy="0" r="1" gradientUnits="userSpaceOnUse" gradientTransform="matrix(.30805 6.27395 -5.29562 .26002 7.35 8.02)"><stop stop-color="#123AA8" id="stop175"/><stop offset=".885" stop-color="#123AA8" stop-opacity="0" id="stop177"/></radialGradient><radialGradient id="prefix__paint22_radial" cx="0" cy="0" r="1" gradientUnits="userSpaceOnUse" gradientTransform="matrix(6.58434 -2.75631 5.3049 12.67244 8.812 13.921)"><stop stop-color="#123AA8" id="stop180"/><stop offset=".709" stop-color="#123AA8" stop-opacity="0" id="stop182"/></radialGradient><radialGradient id="prefix__paint23_radial" cx="0" cy="0" r="1" gradientUnits="userSpaceOnUse" gradientTransform="matrix(-4.44529 -1.62323 2.73284 -7.48403 6.263 6.484)"><stop stop-color="#1A3DA0" id="stop185"/><stop offset=".709" stop-color="#123AA8" stop-opacity="0" id="stop187"/></radialGradient><radialGradient id="prefix__paint24_radial" cx="0" cy="0" r="1" gradientUnits="userSpaceOnUse" gradientTransform="matrix(8.66614 2.55075 -2.52747 8.58706 2.087 8.063)"><stop stop-color="#1E3882" id="stop190"/><stop offset=".761" stop-color="#123AA8" stop-opacity="0" id="stop192"/></radialGradient><radialGradient id="prefix__paint26_radial" cx="0" cy="0" r="1" gradientUnits="userSpaceOnUse" gradientTransform="matrix(6.76479 7.78776 -7.7944 6.77056 -3.662 -1.5)"><stop stop-color="#09F8FF" id="stop195"/><stop offset="1" stop-color="#0BF7F9" stop-opacity="0" id="stop197"/></radialGradient><radialGradient id="prefix__paint29_radial" cx="0" cy="0" r="1" gradientUnits="userSpaceOnUse" gradientTransform="matrix(-3.06612 -9.52927 6.72363 -2.16338 5.83 8.9)"><stop stop-color="#00BCFF" stop-opacity=".76" id="stop200"/><stop offset=".573" stop-color="#00BAFC" stop-opacity="0" id="stop202"/></radialGradient><linearGradient id="prefix__paint0_linear" x1="20.743" y1="5.201" x2="4.462" y2="10.66" gradientUnits="userSpaceOnUse"><stop stop-color="#5CEE64" id="stop205"/><stop offset="1" stop-color="#0BF" id="stop207"/></linearGradient><linearGradient id="prefix__paint7_linear" x1="-6.151" y1="8.708" x2="5.438" y2="8.806" gradientUnits="userSpaceOnUse"><stop stop-color="#09F8FF" id="stop210"/><stop offset="1" stop-color="#0BF7F9" stop-opacity="0" id="stop212"/></linearGradient><linearGradient id="prefix__paint25_linear" x1="-.753" y1="3.168" x2="8.05" y2="8.912" gradientUnits="userSpaceOnUse"><stop offset=".229" stop-color="#1DC4FF" id="stop215"/><stop offset="1" stop-color="#1CC1FF" stop-opacity="0" id="stop217"/></linearGradient><linearGradient id="prefix__paint27_linear" x1="-.26" y1="3.452" x2="2.192" y2="5.724" gradientUnits="userSpaceOnUse"><stop stop-color="#26FBFF" id="stop220"/><stop offset=".637" stop-color="#0BF7F9" stop-opacity="0" id="stop222"/></linearGradient><linearGradient id="prefix__paint28_linear" x1="-.924" y1="5.15" x2="2.535" y2="5.402" gradientUnits="userSpaceOnUse"><stop stop-color="#26FBFF" id="stop225"/><stop offset=".637" stop-color="#0BF7F9" stop-opacity="0" id="stop227"/></linearGradient><clipPath id="prefix__clip0"><path fill="#fff" d="M0 0h25v18.029H0z" id="path230"/></clipPath></defs></svg>
